<svg xmlns="http://www.w3.org/2000/svg" width="132" height="40" fill="none"><path fill="#0D2285" fill-rule="evenodd" d="M14.932 0H0v31.837h5.349V6.26h7.956c2.412 0 4.416.545 6.012 1.449l-3.278 3.47a7.56 7.56 0 0 0-2.354-.352h-3.563v9.882h3.563c4.43 0 6.351-3.08 5.821-5.802l3.383-3.579c3.047 5.633-.143 13.948-9.584 13.948h-3.183v6.56h4.81c9.61 0 15.832-8.258 15.65-16.363C30.404 7.667 24.171 0 14.931 0ZM45.367 18.528V8.117h3.824c3.305 0 6.311 1.679 6.311 5.187 0 3.694-3.006 5.224-6.311 5.224h-3.824ZM40.244 3.265v26.123h5.123V23.38h3.416c7.276 0 11.583-4.292 11.583-10.076 0-5.71-4.307-10.039-11.583-10.039h-8.54ZM111.073 3.265v4.852h8.186c4.366 0 7.802 2.947 7.802 8.21 0 5.299-3.436 8.21-7.802 8.21h-8.186v4.85h8.186c7.051 0 12.741-5.448 12.741-13.06 0-7.576-5.691-13.062-12.741-13.062h-8.186ZM69.622 25.308c-2.89 0-5.234-2.376-5.234-5.308s2.343-5.308 5.234-5.308c2.89 0 5.233 2.376 5.233 5.308s-2.343 5.308-5.233 5.308Zm0-14.696c-5.112 0-9.256 4.203-9.256 9.388s4.144 9.388 9.256 9.388a9.121 9.121 0 0 0 5.233-1.645v1.324h4.01V20.5c.281-5.371-3.935-9.888-9.243-9.888ZM99 11.429v19.79C99 36.038 95.007 40 90.147 40a8.866 8.866 0 0 1-6.255-2.579 8.72 8.72 0 0 1-2.6-6.203h4.126c0 1.288.532 2.46 1.39 3.311a4.736 4.736 0 0 0 6.676.008 4.679 4.679 0 0 0 1.391-3.319v-2.914a8.823 8.823 0 0 1-4.728 1.372 8.866 8.866 0 0 1-6.255-2.579 8.72 8.72 0 0 1-2.6-6.203v-9.465h4.126v9.465c0 1.288.532 2.46 1.39 3.31a4.736 4.736 0 0 0 6.676.008c.894-.904 1.391-2.046 1.391-3.318v-9.465H99Z" clip-rule="evenodd"/><path fill="#0D2285" fill-rule="evenodd" d="M102.22 17.96h8.853v-4.082h-8.853v4.081Z" clip-rule="evenodd"/><path fill="#3C3" fill-rule="evenodd" d="m11 11.11 3.203 3.083L24.633 3c.348.284.683.582 1.004.894l.135.134c.436.434.846.893 1.228 1.373L14.329 19 11 15.796V11.11Z" clip-rule="evenodd"/></svg>
