<svg width="48" height="48" viewBox="0 0 48 48" fill="none" xmlns="http://www.w3.org/2000/svg">
<path fill-rule="evenodd" clip-rule="evenodd" d="M23.4339 -0.00012207H0V48H8.39446V9.4394H20.88C24.6657 9.4394 27.8109 10.2608 30.3158 11.6239L25.1707 16.8546C24.0938 16.517 22.8629 16.3255 21.4764 16.3255H15.8854V31.2245H21.4764C28.4302 31.2245 31.4443 26.5798 30.6128 22.4767L35.9212 17.0808C40.7042 25.5726 35.697 38.1097 20.88 38.1097H15.8854V48H23.4339C38.5157 48 48.2806 35.5496 47.9938 23.3304C47.7172 11.5586 37.9354 -0.00012207 23.4339 -0.00012207Z" fill="#0D2285"/>
<path fill-rule="evenodd" clip-rule="evenodd" d="M17.6846 17.4002L22.7424 22.1432L39.2101 4.92285C39.76 5.36009 40.2889 5.81843 40.7951 6.29872L41.0087 6.50383C41.6974 7.17235 42.3448 7.87886 42.9477 8.61744L22.9409 29.5382L17.6846 24.6087V17.4002Z" fill="#33CC33"/>
</svg>
