<svg width="164" height="50" viewBox="0 0 164 50" fill="none" xmlns="http://www.w3.org/2000/svg">
<g id="pay-d-logo">
<g id="Vector">
<path fill-rule="evenodd" clip-rule="evenodd" d="M18.5519 0H0V39.796H6.64562V7.82614H16.53C19.527 7.82614 22.017 8.50718 24 9.63722L19.9268 13.974C19.0742 13.694 18.0998 13.5352 17.0021 13.5352H12.576V25.8877H17.0021C22.5072 25.8877 24.8934 22.0369 24.2351 18.6352L28.4376 14.1615C32.2242 21.2019 28.2601 31.5961 16.53 31.5961H12.576V39.796H18.5519C30.4916 39.796 38.2222 29.4736 37.9951 19.3429C37.7761 9.58315 30.0322 0 18.5519 0Z" fill="white"/>
<path fill-rule="evenodd" clip-rule="evenodd" d="M56.3654 23.1605V10.1458H61.1161C65.2219 10.1458 68.9571 12.2447 68.9571 16.6296C68.9571 21.2478 65.2219 23.1605 61.1161 23.1605H56.3654ZM50 4.08163V36.7347H56.3654V29.2246H60.6087C69.6494 29.2246 75 23.8599 75 16.6296C75 9.49276 69.6494 4.08163 60.6087 4.08163H50Z" fill="white"/>
<path fill-rule="evenodd" clip-rule="evenodd" d="M138 4.08163V10.1458H148.171C153.595 10.1458 157.864 13.8305 157.864 20.4085C157.864 27.0322 153.595 30.6705 148.171 30.6705H138V36.7347H148.171C156.931 36.7347 164 29.924 164 20.4085C164 10.9387 156.93 4.08163 148.171 4.08163H138Z" fill="white"/>
<path fill-rule="evenodd" clip-rule="evenodd" d="M86.4996 31.6353C82.9085 31.6353 79.9973 28.6646 79.9973 25C79.9973 21.3354 82.9085 18.3647 86.4996 18.3647C90.0908 18.3647 93.002 21.3354 93.002 25C93.002 28.6646 90.0908 31.6353 86.4996 31.6353ZM86.4996 13.2653C80.1483 13.2653 75 18.5189 75 25C75 31.4811 80.1483 36.7347 86.4996 36.7347C88.9135 36.7347 91.1527 35.9755 93.002 34.6793V36.3336H97.9835V25.6246C98.333 18.9112 93.0943 13.2653 86.4996 13.2653Z" fill="white"/>
<path fill-rule="evenodd" clip-rule="evenodd" d="M123 14.2857V39.0229C123 45.0489 118.039 50 112 50C108.973 50 106.222 48.7653 104.229 46.7767C102.237 44.7888 101 42.0437 101 39.0229H106.125C106.125 40.6322 106.787 42.0979 107.852 43.1613C108.918 44.2246 110.387 44.8857 112 44.8857C113.619 44.8857 115.087 44.2287 116.147 43.1707C117.249 42.0708 117.875 40.5794 117.875 39.0229V35.3797C116.17 36.4647 114.153 37.0946 112 37.0946C108.973 37.0946 106.222 35.8599 104.229 33.8713C102.237 31.8834 101 29.1383 101 26.1176V14.2857H106.125V26.1176C106.125 27.7268 106.787 29.1918 107.852 30.2559C108.918 31.3193 110.387 31.9803 112 31.9803C113.619 31.9803 115.087 31.3233 116.147 30.2654C117.258 29.1356 117.875 27.7072 117.875 26.1176V14.2857H123Z" fill="white"/>
<path fill-rule="evenodd" clip-rule="evenodd" d="M127 22.449H138V17.3469H127V22.449Z" fill="white"/>
</g>
<path id="vector" fill-rule="evenodd" clip-rule="evenodd" d="M14 14.1379L18.0041 17.9915L31.041 4C31.4764 4.35526 31.8951 4.72766 32.2958 5.11789L32.4649 5.28455C33.0101 5.82772 33.5227 6.40176 34 7.00185L18.1612 24L14 19.9948V14.1379Z" fill="#50525E"/>
</g>
</svg>
