<svg width="28" height="28" viewBox="0 0 28 28" fill="none" xmlns="http://www.w3.org/2000/svg">
<path d="M4.95835 0.349609H23.0417C25.7834 0.349609 28 2.56626 28 5.30796V22.6913C28 25.433 25.7834 27.6497 23.0416 27.6497H4.95835C2.21665 27.6496 0 25.433 0 22.6913V5.30796C0 2.56626 2.21665 0.349609 4.95835 0.349609Z" fill="#FA0F00"/>
<path d="M22.5165 16.1579C21.2215 14.7812 17.6398 15.3412 16.7998 15.4812C15.5632 14.2796 14.6998 12.8562 14.4082 12.3312C14.8748 11.0012 15.1782 9.58959 15.2248 8.20124C15.2248 6.94124 14.7232 5.58789 13.3232 5.58789C12.8332 5.59954 12.3898 5.86789 12.1448 6.27624C11.5498 7.30289 11.7832 9.42624 12.7398 11.5729C12.1798 13.1479 11.3748 15.4229 10.3132 17.2662C8.87817 17.8379 5.83317 19.2379 5.54152 20.7896C5.44817 21.2446 5.61152 21.7112 5.96152 22.0262C6.29988 22.3296 6.74317 22.4812 7.19817 22.4696C9.02982 22.4696 10.8615 19.9262 12.0982 17.7446C13.1365 17.3829 14.7932 16.9046 16.4615 16.6012C18.3982 18.2929 20.1248 18.5495 20.9998 18.5495C22.1898 18.5495 22.6332 18.0362 22.7965 17.6045C22.9715 17.1145 22.8665 16.5545 22.5165 16.1579ZM21.2565 17.0445C21.1981 17.3829 20.7665 17.7212 19.9615 17.5462C19.0281 17.3128 18.1531 16.8695 17.4181 16.2628C18.0481 16.1578 19.5181 16.0178 20.5565 16.2162C20.9298 16.2862 21.3615 16.4962 21.2565 17.0445ZM12.9032 6.71954C12.9848 6.56789 13.1365 6.46289 13.3115 6.46289C13.7549 6.46289 13.8482 6.99954 13.8482 7.44289C13.7898 8.50454 13.5565 9.58954 13.2648 10.5579C12.5182 8.57454 12.6232 7.19789 12.9032 6.71954ZM12.7982 16.4145C13.1948 15.6329 13.7548 14.2095 13.9532 13.6379C14.3965 14.3729 15.1432 15.2945 15.5398 15.7145C15.5515 15.7029 14.0232 16.0179 12.7982 16.4145ZM9.86982 18.4212C8.69147 20.3112 7.53647 21.5012 6.85982 21.5012C6.75482 21.5012 6.63817 21.4662 6.55647 21.3962C6.42812 21.2912 6.36982 21.1278 6.40482 20.9645C6.53317 20.2879 7.87482 19.3079 9.86982 18.4212Z" fill="white"/>
</svg>
