<svg xmlns="http://www.w3.org/2000/svg" width="154" height="25" fill="none"><path fill="#5D5D5D" d="M55.323 1.9h-2.396v7.847h-1.75V1.901h-2.422V.336h6.568V1.9ZM55.134 6.395c0-2.016 1.443-3.487 3.541-3.487s3.529 1.466 3.529 3.487c0 2.02-1.442 3.486-3.529 3.486-2.087 0-3.54-1.472-3.54-3.486Zm5.409-.014c0-1.153-.76-1.948-1.868-1.948s-1.88.795-1.88 1.962c0 1.166.773 1.961 1.88 1.961 1.107 0 1.868-.808 1.868-1.975ZM69.144 3.04l-2.848 7.543c-.49 1.313-1.224 1.975-2.5 1.975a2.869 2.869 0 0 1-1.08-.186l.193-1.418c.19.07.391.107.594.106.593 0 1.03-.226 1.34-.968l.244-.611-2.64-6.441h1.765l1.712 4.56 1.543-4.56h1.677ZM69.406 6.395c0-2.016 1.443-3.487 3.542-3.487 2.099 0 3.527 1.466 3.527 3.487 0 2.02-1.441 3.486-3.527 3.486-2.086 0-3.542-1.472-3.542-3.486Zm5.408-.014c0-1.153-.76-1.948-1.866-1.948-1.107 0-1.881.795-1.881 1.962 0 1.166.774 1.961 1.88 1.961 1.108 0 1.867-.808 1.867-1.975ZM78.119 7.68V4.432h-1.004V3.04h1.004V1.158l1.61-.211V3.04h1.763v1.393H79.73V7.45c0 .636.282.928.771.928a2.34 2.34 0 0 0 1.121-.359l.258 1.344a3.156 3.156 0 0 1-1.765.516c-1.249 0-1.995-.719-1.995-2.2ZM88.484 5.52v4.227h-1.597V8.82c-.412.611-1.198 1.074-2.202 1.074-1.275 0-2.112-.756-2.112-2.002 0-1.565 1.339-2.147 4.3-2.187v-.133c0-.795-.45-1.3-1.441-1.3a3.532 3.532 0 0 0-2.035.704l-.373-1.312a5.069 5.069 0 0 1 2.691-.754c1.675-.002 2.769.793 2.769 2.61Zm-1.61 1.656v-.45c-1.97.04-2.628.344-2.628 1.073 0 .53.356.862 1.018.862.786 0 1.61-.451 1.61-1.485ZM43.788.337h-.819V24.3h.82V.337ZM49.824 14.887h4.983v.9h-4.021v3.368h3.837v.9h-3.837v4.243h-.966l.004-9.41ZM56.26 15.484c0-.14.04-.276.115-.392a.688.688 0 0 1 .307-.26.665.665 0 0 1 .745.153.711.711 0 0 1 .148.767.7.7 0 0 1-.252.316.67.67 0 0 1-.38.118.655.655 0 0 1-.486-.202.69.69 0 0 1-.196-.5Zm.221 2.16h.9v6.654h-.9v-6.654ZM65.275 20.228v4.07h-.902v-3.817c0-1.393-.594-2.122-1.713-2.122-1.21 0-2.086.902-2.086 2.147v3.787h-.9v-6.648h.9v1.232c.425-.835 1.263-1.365 2.374-1.365 1.438 0 2.327.887 2.327 2.716ZM72.625 20.162v4.136h-.889v-1.167c-.399.742-1.261 1.299-2.42 1.299-1.391 0-2.202-.768-2.202-1.975 0-1.498 1.248-2.094 4.609-2.12v-.173c0-1.1-.618-1.832-1.827-1.832-.777.015-1.526.3-2.126.808l-.254-.831a4.187 4.187 0 0 1 2.511-.796c1.632 0 2.598.875 2.598 2.651Zm-.902 1.511v-.663c-2.82.025-3.669.45-3.669 1.418 0 .741.502 1.232 1.442 1.232.987.002 2.227-.542 2.227-1.987ZM80.44 20.228v4.07h-.902v-3.817c0-1.393-.593-2.122-1.712-2.122-1.21 0-2.086.902-2.086 2.147v3.787h-.9v-6.648h.9v1.232c.425-.835 1.262-1.365 2.373-1.365 1.438 0 2.327.887 2.327 2.716ZM82.1 20.984c0-2.055 1.339-3.473 3.27-3.473a3.761 3.761 0 0 1 2.214.703l-.296.848a3.018 3.018 0 0 0-1.88-.676c-1.423 0-2.382 1.034-2.382 2.565 0 1.564.95 2.598 2.306 2.598a3.628 3.628 0 0 0 2.11-.707l.238.822a3.956 3.956 0 0 1-2.388.766c-1.853 0-3.193-1.392-3.193-3.446ZM89.052 15.484c0-.14.04-.275.115-.39a.687.687 0 0 1 .306-.26.665.665 0 0 1 .744.153.721.721 0 0 1 .148.765.698.698 0 0 1-.251.316.669.669 0 0 1-.38.118.655.655 0 0 1-.486-.202.69.69 0 0 1-.196-.5Zm.218 2.16h.902v6.654h-.902v-6.654ZM97.588 20.162v4.136H96.7V23.13c-.398.741-1.261 1.298-2.42 1.298-1.39 0-2.201-.768-2.201-1.975 0-1.497 1.248-2.093 4.608-2.12v-.172c0-1.1-.618-1.833-1.828-1.833-.776.015-1.525.3-2.124.809l-.258-.836a4.187 4.187 0 0 1 2.511-.795c1.635.004 2.601.878 2.601 2.654Zm-.902 1.51v-.663c-2.819.026-3.669.451-3.669 1.418 0 .742.502 1.233 1.442 1.233.99.001 2.227-.543 2.227-1.988ZM99.763 22.842V14.33h.902v8.375c0 .623.245.876.63.876a1.76 1.76 0 0 0 .67-.172l.142.782a2.114 2.114 0 0 1-1.017.238c-.812 0-1.327-.489-1.327-1.588ZM106.291 23.489l.271-.968a4.13 4.13 0 0 0 2.652.994c1.186 0 1.93-.583 1.93-1.684 0-1.073-.823-1.39-2.085-1.869-1.364-.516-2.563-1.072-2.563-2.676 0-1.564 1.187-2.545 2.924-2.545.83.005 1.646.215 2.382.61l-.238.942a4.536 4.536 0 0 0-2.215-.65c-1.145 0-1.906.611-1.906 1.577 0 1.06.838 1.419 2.017 1.883 1.378.543 2.626.914 2.626 2.664 0 1.71-1.222 2.664-2.966 2.664a4.751 4.751 0 0 1-2.829-.942ZM119.707 21.037h-5.306c.04 1.564 1.006 2.545 2.485 2.545a3.432 3.432 0 0 0 2.357-.928l.257.822c-.553.517-1.519.954-2.665.954-2.073 0-3.347-1.55-3.347-3.46 0-1.988 1.364-3.458 3.18-3.458 1.815 0 3.039 1.418 3.039 3.406v.119Zm-.95-.733c-.142-1.14-.927-1.974-2.086-1.974-1.068 0-2.008.795-2.214 1.974h4.3ZM124.727 17.644l-.219.9a2.01 2.01 0 0 0-.657-.131c-1.081 0-1.583.977-1.583 2.345V24.3h-.889v-6.656h.889v1.192c.373-.994.94-1.343 1.673-1.343.269-.002.536.05.786.151ZM131.236 17.644l-2.626 6.654h-.928l-2.616-6.654h.991l2.094 5.593 2.124-5.593h.961ZM132.186 15.484c0-.14.04-.275.115-.39a.685.685 0 0 1 .306-.26.665.665 0 0 1 .743.153.721.721 0 0 1 .148.765.695.695 0 0 1-.251.316.668.668 0 0 1-.379.118.653.653 0 0 1-.486-.202.692.692 0 0 1-.196-.5Zm.218 2.16h.902v6.654h-.902v-6.654ZM135.026 20.984c0-2.055 1.338-3.473 3.27-3.473a3.763 3.763 0 0 1 2.214.702l-.296.85a3.016 3.016 0 0 0-1.88-.677c-1.424 0-2.381 1.034-2.381 2.565 0 1.564.949 2.598 2.304 2.598a3.635 3.635 0 0 0 2.116-.707l.237.822a3.956 3.956 0 0 1-2.383.768c-1.863-.002-3.201-1.394-3.201-3.448ZM147.811 21.037h-5.302c.039 1.564 1.005 2.545 2.485 2.545a3.43 3.43 0 0 0 2.356-.928l.258.822c-.553.517-1.519.954-2.665.954-2.073 0-3.348-1.55-3.348-3.46 0-1.988 1.365-3.458 3.18-3.458 1.816 0 3.039 1.418 3.039 3.406l-.003.119Zm-.949-.733c-.143-1.14-.927-1.974-2.087-1.974-1.067 0-2.008.795-2.214 1.974h4.301ZM149.058 23.714l.245-.822c.58.49 1.308.757 2.059.756.889 0 1.442-.424 1.442-1.114 0-.69-.579-.888-1.596-1.221-.979-.305-1.956-.662-1.956-1.895 0-1.193.926-1.91 2.278-1.91a3.628 3.628 0 0 1 1.956.558l-.192.822a3.248 3.248 0 0 0-1.79-.597c-.811 0-1.352.384-1.352 1.034 0 .703.669.94 1.494 1.179 1.094.319 2.047.716 2.047 1.935 0 1.18-.876 1.988-2.382 1.988-.901.003-1.802-.303-2.253-.713ZM18.775 0C8.405 0 0 5.597 0 12.5 0 19.405 8.406 25 18.775 25c10.37 0 18.777-5.597 18.777-12.5 0-6.902-8.407-12.5-18.777-12.5Zm0 19.634c-1.542 0-2.8-3.126-2.88-7.06.928.087 1.898.132 2.88.132.983 0 1.952-.045 2.883-.132-.082 3.934-1.341 7.06-2.883 7.06ZM16.087 9.453c.42-2.781 1.465-4.752 2.688-4.752 1.224 0 2.27 1.97 2.69 4.752-.86.08-1.76.122-2.69.122-.929 0-1.828-.047-2.688-.122Zm2.688-7.643c-2.017 0-3.73 3.103-4.364 7.432-3.818-.611-6.485-2.008-6.485-3.63 0-2.192 4.858-3.963 10.85-3.963 5.99 0 10.848 1.771 10.848 3.962 0 1.623-2.665 3.016-6.483 3.63-.634-4.328-2.35-7.43-4.366-7.43ZM2.692 12.032c0-2.12.792-4.105 2.172-5.812a2.83 2.83 0 0 0-.024.366c0 2.67 3.89 4.942 9.315 5.779v.586c0 4.974 1.355 9.186 3.225 10.615-8.233-.515-14.688-5.488-14.688-11.534Zm17.48 11.53c1.871-1.43 3.226-5.642 3.226-10.616v-.586c5.425-.837 9.315-3.109 9.315-5.779 0-.122-.008-.245-.025-.366 1.381 1.71 2.173 3.692 2.173 5.812-.002 6.05-6.458 11.024-14.69 11.534Z"/></svg>
