<svg width="16" height="16" viewBox="0 0 16 16" xmlns="http://www.w3.org/2000/svg">
<path fill-rule="evenodd" clip-rule="evenodd" d="M7.76414 7.11767C6.00653 7.11767 4.58295 5.74884 4.58295 4.05883C4.58295 2.36883 6.00653 1 7.76414 1C9.52174 1 10.9453 2.36883 10.9453 4.05883C10.9453 5.74884 9.52174 7.11767 7.76414 7.11767ZM7.76402 1.76465C6.45178 1.76465 5.37813 2.797 5.37813 4.05877C5.37813 5.32054 6.45178 6.3529 7.76402 6.3529C9.07625 6.3529 10.1499 5.32054 10.1499 4.05877C10.1499 2.797 9.07625 1.76465 7.76402 1.76465ZM13.7606 14.9101C13.8163 15.0554 13.9674 15.1471 14.1264 15.1471C14.1742 15.1471 14.2219 15.1395 14.2696 15.1165C14.4764 15.0401 14.5718 14.8183 14.4923 14.6195C12.9176 10.8265 10.4601 8.64709 7.76407 8.64709C5.06802 8.64709 2.61055 10.8265 1.02791 14.6271C0.94838 14.8259 1.04382 15.0477 1.25059 15.1242C1.45737 15.2006 1.68801 15.1089 1.76754 14.9101C3.20702 11.4689 5.44181 9.4118 7.76407 9.4118C10.0863 9.4118 12.3211 11.4689 13.7606 14.9101Z"/>
<path d="M13.7606 14.9101L14.2275 14.7312L14.2248 14.7241L14.2219 14.7171L13.7606 14.9101ZM14.2696 15.1165L14.0962 14.6476L14.0741 14.6557L14.053 14.6659L14.2696 15.1165ZM14.4923 14.6195L14.9566 14.4338L14.9541 14.4278L14.4923 14.6195ZM1.02791 14.6271L0.566285 14.4349L0.563672 14.4414L1.02791 14.6271ZM1.25059 15.1242L1.07716 15.5931H1.07716L1.25059 15.1242ZM1.76754 14.9101L1.30621 14.7171L1.3033 14.7244L1.76754 14.9101ZM4.08295 4.05883C4.08295 6.04328 5.74905 7.61767 7.76414 7.61767V6.61767C6.26401 6.61767 5.08295 5.4544 5.08295 4.05883H4.08295ZM7.76414 0.5C5.74905 0.5 4.08295 2.07438 4.08295 4.05883H5.08295C5.08295 2.66327 6.26401 1.5 7.76414 1.5V0.5ZM11.4453 4.05883C11.4453 2.07438 9.77922 0.5 7.76414 0.5V1.5C9.26426 1.5 10.4453 2.66327 10.4453 4.05883H11.4453ZM7.76414 7.61767C9.77922 7.61767 11.4453 6.04328 11.4453 4.05883H10.4453C10.4453 5.4544 9.26426 6.61767 7.76414 6.61767V7.61767ZM5.87813 4.05877C5.87813 3.09145 6.70925 2.26465 7.76402 2.26465V1.26465C6.1943 1.26465 4.87813 2.50256 4.87813 4.05877H5.87813ZM7.76402 5.8529C6.70925 5.8529 5.87813 5.0261 5.87813 4.05877H4.87813C4.87813 5.61499 6.1943 6.8529 7.76402 6.8529V5.8529ZM9.64991 4.05877C9.64991 5.0261 8.81878 5.8529 7.76402 5.8529V6.8529C9.33373 6.8529 10.6499 5.61499 10.6499 4.05877H9.64991ZM7.76402 2.26465C8.81878 2.26465 9.64991 3.09145 9.64991 4.05877H10.6499C10.6499 2.50256 9.33373 1.26465 7.76402 1.26465V2.26465ZM14.1264 14.6471C14.1417 14.6471 14.1573 14.6511 14.1731 14.6612C14.1897 14.6717 14.2132 14.6937 14.2275 14.7312L13.2937 15.089C13.4336 15.4541 13.7901 15.6471 14.1264 15.6471V14.6471ZM14.053 14.6659C14.069 14.6582 14.0852 14.6531 14.0998 14.6502C14.1139 14.6473 14.1236 14.6471 14.1264 14.6471V15.6471C14.2301 15.6471 14.3556 15.63 14.4862 15.5672L14.053 14.6659ZM14.028 14.8052C14.0173 14.7783 14.0169 14.7436 14.0311 14.7115C14.0456 14.6787 14.0719 14.6566 14.0962 14.6476L14.443 15.5855C14.9149 15.411 15.14 14.8925 14.9565 14.4338L14.028 14.8052ZM7.76407 9.14709C10.1597 9.14709 12.4869 11.0932 14.0305 14.8112L14.9541 14.4278C13.3483 10.5598 10.7606 8.14709 7.76407 8.14709V9.14709ZM1.48949 14.8193C3.0412 11.093 5.36856 9.14709 7.76407 9.14709V8.14709C4.76747 8.14709 2.1799 10.56 0.566331 14.4349L1.48949 14.8193ZM1.42403 14.6552C1.44831 14.6642 1.4746 14.6864 1.48911 14.7192C1.5033 14.7512 1.50288 14.786 1.49215 14.8128L0.563672 14.4414C0.380167 14.9002 0.605316 15.4186 1.07716 15.5931L1.42403 14.6552ZM1.3033 14.7244C1.31737 14.6892 1.34456 14.667 1.36744 14.6576C1.389 14.6488 1.40909 14.6497 1.42402 14.6552L1.07716 15.5931C1.51187 15.7539 2.0415 15.5714 2.23177 15.0958L1.3033 14.7244ZM7.76407 8.9118C5.13082 8.9118 2.77016 11.2176 1.30627 14.7171L2.2288 15.103C3.64389 11.7202 5.7528 9.9118 7.76407 9.9118V8.9118ZM14.2219 14.7171C12.758 11.2176 10.3973 8.9118 7.76407 8.9118V9.9118C9.77535 9.9118 11.8843 11.7202 13.2993 15.103L14.2219 14.7171Z" />
</svg>
