<svg width="36" height="46" viewBox="0 0 36 46" fill="none" xmlns="http://www.w3.org/2000/svg">
<path fill-rule="evenodd" clip-rule="evenodd" d="M8.12873 10.0256C8.12873 4.48863 12.5481 0 17.9997 0C23.4513 0 27.8707 4.48863 27.8707 10.0256C27.8707 15.5626 23.4513 20.0513 17.9997 20.0513C12.5481 20.0513 8.12873 15.5626 8.12873 10.0256ZM17.9992 3.53819C14.4717 3.53819 11.6121 6.44261 11.6121 10.0254C11.6121 13.6081 14.4717 16.5126 17.9992 16.5126C21.5268 16.5126 24.3863 13.6081 24.3863 10.0254C24.3863 6.44261 21.5268 3.53819 17.9992 3.53819ZM0 43.0506C0 32.9537 8.05887 24.7686 18 24.7686C27.9411 24.7686 36 32.9537 36 43.0506V45.9993H0V43.0506ZM32.5046 42.4606C32.1999 34.5913 25.8225 28.3067 17.9998 28.3067C10.1773 28.3067 3.79989 34.5913 3.49512 42.4606H32.5046Z" fill="white"/>
</svg>
