<svg width="60" height="38" viewBox="0 0 60 38" fill="none" xmlns="http://www.w3.org/2000/svg">
<rect x="1" y="1" width="58" height="36" rx="7" stroke="black" stroke-width="2"/>
<path fill-rule="evenodd" clip-rule="evenodd" d="M28.7692 15H32V23H29.8354V17.704L27.3638 23H25.4092L22.7115 17.224V23H18.6892L17.9138 21.224H14.1338L13.4069 23H11L14.5215 15H17.5908L20.6923 21.768V15H23.9231L26.3623 20.104L28.7692 15ZM15.9759 16.7441L14.8936 19.4001H17.1228L15.9759 16.7441Z" fill="black"/>
<path fill-rule="evenodd" clip-rule="evenodd" d="M46.2063 15H49L45.3333 19L49 23H46.2063L43.9206 20.472L41.5714 23H33V15H41.746L43.9524 17.4L46.2063 15ZM39.4762 21.16V22.2L42.5397 19L39.4762 15.624V16.824H35.0476V18.088H39.4762V19.896H35.0476V21.16H39.4762Z" fill="black"/>
</svg>
