<svg width="60" height="38" viewBox="0 0 60 38" fill="none" xmlns="http://www.w3.org/2000/svg">
<rect x="1" y="1" width="58" height="36" rx="7" stroke="black" stroke-width="2"/>
<path fill-rule="evenodd" clip-rule="evenodd" d="M17.7203 13.9182C17.2853 14.4717 16.6072 14.7873 15.8958 14.7673C15.8568 14.088 16.0926 13.4211 16.5519 12.9119C17.0111 12.3885 17.6598 12.0614 18.3604 12C18.4071 12.6966 18.1777 13.384 17.7203 13.9182ZM18.344 14.9092C17.7475 14.9092 17.2069 15.1073 16.7655 15.2692C16.4609 15.3809 16.2035 15.4752 16.0074 15.4752C15.8007 15.4752 15.5466 15.3762 15.2604 15.2646C14.8816 15.117 14.4466 14.9474 13.9909 14.9563C12.9375 14.9768 11.9745 15.5456 11.4622 16.4501C10.6384 18.463 10.9287 20.7509 12.2304 22.5035C12.7425 23.2425 13.3667 24.0758 14.1669 24.0758C14.5522 24.0758 14.815 23.9629 15.0876 23.8457C15.3812 23.7195 15.6861 23.5884 16.1675 23.5884C16.6413 23.5884 16.9441 23.7154 17.2357 23.8377C17.5153 23.9549 17.7844 24.0678 18.184 24.0601C19.0002 24.0444 19.5444 23.3211 20.0565 22.5821C20.4248 22.0613 20.7107 21.4888 20.9047 20.884C19.93 20.4513 19.3038 19.4977 19.3043 18.4469C19.319 17.5172 19.8133 16.6585 20.6166 16.167C20.103 15.4443 19.2728 15.0015 18.376 14.9721L18.344 14.9092ZM24.1856 23.9182V12.9119L28.4267 12.8491C29.422 12.7988 30.3924 13.1653 31.0971 13.8577C31.8018 14.55 32.1749 15.5033 32.1237 16.4811C32.1659 17.469 31.7815 18.4284 31.0653 19.1231C30.3491 19.8177 29.3676 20.183 28.3627 20.1289H25.9461V23.9182H24.1856ZM25.9461 14.3588H27.8666C28.4953 14.277 29.1281 14.4771 29.5903 14.9038C30.0525 15.3304 30.2951 15.9385 30.2512 16.56C30.296 17.1847 30.0513 17.7959 29.5853 18.2232C29.1193 18.6505 28.4818 18.8482 27.8506 18.7613H25.9141L25.9461 14.3588ZM37.901 22.6608C37.3746 23.5644 36.3835 24.1087 35.3243 24.0759L35.2923 24.013C34.585 24.1316 33.8602 23.9435 33.3047 23.4973C32.7493 23.0511 32.4177 22.3905 32.3955 21.6859C32.3955 20.2708 33.5638 19.4532 35.5964 19.3274L37.789 19.2017V18.5885C37.789 17.6765 37.2608 17.1891 36.1885 17.1891C35.4537 17.1603 34.7934 17.6274 34.5881 18.3212H32.9877C33.2036 16.7836 34.616 15.6874 36.1885 15.8369C38.2051 15.8369 39.5014 16.9061 39.5014 18.4784V23.9815H37.901V22.6608ZM35.8045 22.7543C34.8603 22.7543 34.2041 22.314 34.2041 21.6379C34.2041 20.9618 34.7803 20.5373 35.8045 20.4744L37.7571 20.3486V20.9776C37.6721 21.9801 36.7954 22.7371 35.7725 22.6914L35.8045 22.7543ZM44.9273 24.4211C44.2391 26.3551 43.4389 26.9997 41.7265 26.9997L41.6945 26.9369C41.4773 26.9694 41.2579 26.9851 41.0383 26.984V25.6633H41.5504C42.2725 25.7044 42.909 25.2015 43.0228 24.4997L43.1829 24.0123L40.2061 15.9463H42.0786L44.1431 22.4872L46.2077 15.9463H48.0001L44.9273 24.4211Z" fill="black"/>
</svg>
