<svg width="60" height="38" viewBox="0 0 60 38" fill="none" xmlns="http://www.w3.org/2000/svg">
<rect x="1" y="1" width="58" height="36" rx="7" stroke="black" stroke-width="2"/>
<path d="M29.136 24.4991H27.6308V12.8499H31.621C32.6323 12.8499 33.4946 13.1852 34.2002 13.8558C34.9214 14.5264 35.282 15.3451 35.282 16.3119C35.282 17.3022 34.9214 18.1209 34.2002 18.7836C33.5025 19.4464 32.6402 19.7739 31.621 19.7739H29.136V24.4991ZM29.136 14.2846V18.347H31.6524C32.2482 18.347 32.75 18.1443 33.1419 17.7466C33.5417 17.3489 33.7455 16.8655 33.7455 16.3197C33.7455 15.7817 33.5417 15.306 33.1419 14.9084C32.7499 14.4951 32.256 14.2924 31.6524 14.2924H29.136V14.2846Z" fill="black"/>
<path d="M39.2174 16.2652C40.3305 16.2652 41.2086 16.5614 41.8514 17.154C42.4943 17.7466 42.8156 18.5575 42.8156 19.5868V24.4991H41.381V23.3919H41.3183C40.699 24.3042 39.868 24.7564 38.8332 24.7564C37.9474 24.7564 37.2105 24.4991 36.6147 23.9767C36.0189 23.4543 35.721 22.807 35.721 22.0274C35.721 21.2009 36.0346 20.5459 36.6618 20.0624C37.2889 19.5713 38.1278 19.3295 39.1704 19.3295C40.064 19.3295 40.801 19.4933 41.3732 19.8207V19.4777C41.3732 18.9553 41.1694 18.5186 40.7539 18.1522C40.3384 17.7857 39.8524 17.6063 39.2958 17.6063C38.457 17.6063 37.7906 17.9572 37.3046 18.6668L35.9797 17.8403C36.7088 16.7876 37.7906 16.2652 39.2174 16.2652ZM37.2732 22.0507C37.2732 22.4406 37.4379 22.7681 37.7749 23.0254C38.1042 23.2827 38.4962 23.4152 38.943 23.4152C39.5781 23.4152 40.1424 23.1813 40.6364 22.7134C41.1303 22.2456 41.3811 21.6998 41.3811 21.0682C40.9107 20.7018 40.2601 20.5146 39.4213 20.5146C38.8098 20.5146 38.3002 20.6628 37.8926 20.9512C37.477 21.2553 37.2732 21.6219 37.2732 22.0507Z" fill="black"/>
<path d="M51 16.5224L45.9828 28H44.4305L46.2963 23.9844L42.9881 16.5224H44.6265L47.0097 22.2456H47.0411L49.3615 16.5224H51Z" fill="black"/>
<path d="M23.0236 17.4261H16.7145V19.9992L20.348 20C20.2007 20.8561 19.7264 21.5859 18.9997 22.0725V22.073C18.9999 22.0728 19.0002 22.0727 19.0005 22.0725L18.935 23.6104L21.1634 23.7411C21.163 23.7414 21.1627 23.7417 21.1625 23.7419C22.4254 22.5794 23.1491 20.8608 23.1491 18.8304C23.149 18.3423 23.1051 17.8752 23.0236 17.4261Z" fill="black"/>
<path d="M19.0005 22.0725C19.0002 22.0727 18.9999 22.0728 18.9997 22.073C18.3977 22.4766 17.6226 22.7126 16.716 22.7126C14.9639 22.7126 13.4776 21.5384 12.9453 19.9556H12.945C12.9451 19.9558 12.9452 19.9561 12.9453 19.9563L11.085 19.6633L10.7145 21.6777C11.82 23.8591 14.0917 25.3559 16.7161 25.3559C18.5296 25.3559 20.0532 24.7629 21.1625 23.7419C21.1628 23.7417 21.1631 23.7414 21.1634 23.7411L19.0005 22.0725Z" fill="black"/>
<path d="M12.7351 18.6783C12.7351 18.2339 12.8096 17.8043 12.9453 17.4004L12.3644 15.6787H10.7141C10.2571 16.5809 10 17.5992 10 18.6783C10 19.7575 10.2579 20.7758 10.7141 21.6779L10.7145 21.6777L12.9453 19.9563C12.9452 19.9561 12.9451 19.9558 12.945 19.9555C12.8095 19.5519 12.7351 19.1225 12.7351 18.6783Z" fill="black"/>
<path d="M16.716 12C14.0922 12 11.8195 13.4971 10.7141 15.6788L12.9452 17.4004C13.4775 15.8176 14.9638 14.6434 16.7159 14.6434C17.706 14.6434 18.5927 14.9826 19.2927 15.6453L21.2095 13.7405C20.0454 12.662 18.5277 12 16.716 12Z" fill="black"/>
</svg>
