<svg width="60" height="38" viewBox="0 0 60 38" fill="none" xmlns="http://www.w3.org/2000/svg">
<rect x="1" y="1" width="58" height="36" rx="7" stroke="black" stroke-width="2"/>
<path fill-rule="evenodd" clip-rule="evenodd" d="M30.3206 11.1602C30.1905 11.2625 30.0633 11.3679 29.9389 11.4763C27.8134 13.3255 26.468 16.0481 26.468 19.0864C26.468 22.125 27.8134 24.8476 29.9389 26.6968C30.0633 26.8053 30.1905 26.9106 30.3206 27.0129C30.4506 26.9106 30.5778 26.8053 30.7022 26.6968C32.8277 24.8476 34.1731 22.125 34.1731 19.0864C34.1731 16.0481 32.8277 13.3255 30.7022 11.4763C30.5778 11.3679 30.4506 11.2625 30.3206 11.1602ZM36.5544 9C34.4892 9 32.5693 9.62089 30.9706 10.6856C31.0524 10.7528 31.135 10.8187 31.2143 10.8876C33.5906 12.9551 34.9534 15.9433 34.9534 19.0864C34.9534 22.2298 33.5906 25.218 31.2146 27.2855C31.1356 27.3541 31.0524 27.4203 30.9706 27.4875C32.5693 28.5522 34.4892 29.1731 36.5544 29.1731C42.1251 29.1731 46.6411 24.6574 46.6411 19.0867C46.6411 13.5158 42.1251 9 36.5544 9ZM29.4268 27.2855C29.5055 27.3541 29.5887 27.4203 29.6705 27.4875C28.0718 28.5522 26.1517 29.1734 24.0867 29.1734C18.5158 29.1734 14 24.6574 14 19.0867C14 13.516 18.5158 9 24.0867 9C26.1517 9 28.0715 9.62089 29.6705 10.6856C29.5887 10.7528 29.5061 10.8187 29.4268 10.8873C27.0505 12.9551 25.6877 15.9433 25.6877 19.0864C25.6877 22.2298 27.0505 25.2183 29.4268 27.2855Z" fill="black"/>
</svg>
