<svg width="60" height="38" viewBox="0 0 60 38" fill="none" xmlns="http://www.w3.org/2000/svg">
<rect x="1" y="1" width="58" height="36" rx="7" stroke="black" stroke-width="2"/>
<path fill-rule="evenodd" clip-rule="evenodd" d="M49.1486 13H50.731C50.8066 13.004 50.8774 13.0373 50.9279 13.0926C50.9784 13.148 51.0043 13.2207 51 13.2948L49.6708 21.5641C49.6391 21.7795 49.4497 21.9387 49.2277 21.9364H47.8826C47.8022 21.9377 47.7255 21.9036 47.6734 21.8435C47.6213 21.7835 47.5994 21.7037 47.6136 21.6261L48.8796 13.2172C48.9083 13.0932 49.0189 13.0039 49.1486 13ZM14.0498 13.047C14.9261 12.9632 15.7953 13.2643 16.4234 13.8693C16.8649 14.4577 17.0158 15.2086 16.8348 15.9172C16.7881 16.8223 16.3626 17.6683 15.6587 18.2557C14.9547 18.843 14.0349 19.1196 13.1161 19.0201H12.0875C11.8656 19.0179 11.6762 19.1771 11.6445 19.3925L11.2805 21.6266C11.2242 21.8116 11.0502 21.938 10.8532 21.9369H9.27082C9.19224 21.9331 9.11876 21.8976 9.06781 21.8388C9.01686 21.78 8.99297 21.7032 9.0018 21.6266L10.331 13.4193C10.3627 13.2039 10.5521 13.0448 10.7741 13.047H14.0498ZM12.4827 17.1734C13.3373 17.1734 14.2392 17.1734 14.4133 16.0253C14.5025 15.7174 14.4443 15.3864 14.2551 15.1255C13.9702 14.7842 13.4164 14.7842 12.8309 14.7842H12.5935C12.459 14.7897 12.3468 14.8867 12.3245 15.0169L11.9922 17.1734H12.4827ZM23.8138 16.025H22.2314C22.1642 16.0207 22.098 16.0429 22.0476 16.0866C21.9971 16.1302 21.9664 16.1918 21.9623 16.2577V16.6921L21.8516 16.5369C21.3797 16.0466 20.6986 15.8049 20.016 15.8853C18.2239 15.9193 16.7316 17.2434 16.5188 18.9883C16.3569 19.8252 16.5702 20.69 17.1043 21.362C17.5994 21.9076 18.3231 22.1995 19.0665 22.1532C19.8819 22.1605 20.665 21.8411 21.2344 21.2689V21.6878C21.2202 21.7654 21.2422 21.8451 21.2942 21.9052C21.3463 21.9653 21.4231 21.9993 21.5034 21.9981H22.9118C23.1338 22.0003 23.3232 21.8412 23.3549 21.6257L24.1936 16.3353C24.2601 16.2294 24.2423 16.0924 24.1507 16.0064C24.0592 15.9204 23.9188 15.9087 23.8138 15.9784V16.025ZM19.8576 20.463C20.7428 20.4798 21.5025 19.8481 21.6299 18.9891C21.7268 18.5862 21.6274 18.1621 21.3609 17.841C21.0978 17.5487 20.7138 17.3889 20.3165 17.4066C19.4133 17.4094 18.6568 18.0777 18.56 18.9581C18.4789 19.3389 18.5713 19.7356 18.8132 20.0441C19.078 20.3326 19.4625 20.4868 19.8576 20.463ZM32.1369 15.9792H30.5545C30.4008 15.9772 30.257 16.0536 30.1747 16.1809L28.0068 19.2838L27.089 16.2584C27.0279 16.0679 26.8496 15.9367 26.6459 15.9326H25.0634C24.9747 15.934 24.8917 15.9759 24.839 16.0459C24.7862 16.1158 24.7698 16.2059 24.7944 16.2895L26.5351 21.3162L24.9527 23.5813C24.8927 23.6621 24.8845 23.7692 24.9314 23.8579C24.9783 23.9466 25.0723 24.0017 25.1742 24.0002H26.7566C26.9067 24.0028 27.0485 23.9332 27.1364 23.814L32.3584 16.3515C32.3948 16.2735 32.3902 16.1831 32.3461 16.109C32.3021 16.035 32.224 15.9865 32.1369 15.9792ZM37.343 13.047C38.2193 12.9632 39.0885 13.2643 39.7167 13.8693C40.1393 14.4421 40.2946 15.1637 40.1439 15.8551C40.0927 16.7585 39.6659 17.6018 38.9631 18.1883C38.2603 18.7747 37.343 19.0529 36.4252 18.9581H35.3808C35.1588 18.9558 34.9694 19.115 34.9377 19.3304L34.5579 21.6731C34.5417 21.8237 34.4117 21.9377 34.2573 21.9369H32.5799C32.4995 21.9381 32.4228 21.904 32.3707 21.844C32.3186 21.7839 32.2967 21.7042 32.3109 21.6266L33.6243 13.4193C33.656 13.2039 33.8454 13.0448 34.0674 13.047H37.343ZM37.7229 16.0719C37.533 17.22 36.6469 17.22 35.7765 17.22H35.286L35.6341 15.0634C35.6382 14.9976 35.6689 14.936 35.7193 14.8923C35.7698 14.8486 35.836 14.8265 35.9031 14.8307H36.1247C36.7102 14.8307 37.2799 14.8307 37.5647 15.172C37.7398 15.4211 37.7974 15.7318 37.7229 16.0254V16.0719ZM45.5243 16.0719H47.1068V15.9788C47.1908 15.9737 47.2729 16.0053 47.3309 16.0652C47.3889 16.1251 47.4169 16.207 47.4074 16.2891L46.6479 21.6727C46.6161 21.8881 46.4267 22.0473 46.2048 22.045H44.7964C44.716 22.0463 44.6393 22.0122 44.5872 21.9521C44.5351 21.8921 44.5132 21.8123 44.5274 21.7347V21.3158C43.9579 21.888 43.1748 22.2075 42.3595 22.2002C41.611 22.2489 40.8814 21.9571 40.3814 21.4089C39.8473 20.737 39.634 19.8722 39.7959 19.0352C40.0216 17.2968 41.5064 15.9795 43.2931 15.9323C43.9804 15.8517 44.6664 16.0931 45.1445 16.5839L45.2553 16.739V16.3046C45.2714 16.1712 45.3873 16.071 45.5243 16.0719ZM44.9225 18.9889C44.8092 19.8491 44.0504 20.4858 43.166 20.4627C42.7659 20.4891 42.3755 20.3348 42.1058 20.0438C41.8675 19.7338 41.7806 19.3364 41.8685 18.9578C41.9576 18.0798 42.7092 17.41 43.6091 17.4064C44.0158 17.3784 44.4113 17.5442 44.6717 17.8518C44.9321 18.1594 45.0255 18.5711 44.9225 18.9578V18.9889Z" fill="black"/>
</svg>
