<svg width="60" height="38" viewBox="0 0 60 38" fill="none" xmlns="http://www.w3.org/2000/svg">
<rect x="1" y="1" width="58" height="36" rx="7" stroke="black" stroke-width="2"/>
<path fill-rule="evenodd" clip-rule="evenodd" d="M37.0183 21.3536C37.0183 19.6866 35.597 18.9585 34.4558 18.3739C33.6828 17.9779 33.0383 17.6477 33.0512 17.1361C33.0512 16.7653 33.4351 16.3482 34.2509 16.2555C35.2103 16.1617 36.178 16.3219 37.0503 16.719L37.5462 14.4635C36.6952 14.1628 35.7969 14.006 34.8908 14C32.0914 14 30.0919 15.4367 30.0919 17.5223C30.0919 19.0672 31.4995 19.9014 32.5713 20.4112C33.6431 20.921 34.043 21.2764 34.043 21.7398C34.043 22.4505 33.1632 22.7594 32.3473 22.7749C31.3337 22.8007 30.3305 22.5718 29.436 22.1106L28.8761 24.4434C29.8966 24.8222 30.9822 25.011 32.0754 24.9995C35.0507 24.9995 36.9863 23.5782 37.0023 21.3536H37.0183ZM25.293 14.1854L20.702 24.8296H17.6787L15.4552 16.41C15.4187 16.0036 15.1635 15.6456 14.7834 15.4676C13.8966 15.0575 12.9622 14.7515 12 14.5562V14.2472H16.7989C17.4547 14.2546 18.0091 14.7183 18.1106 15.344L19.2943 21.5235L22.2377 14.2781L25.293 14.1854ZM46.9997 24.8297H44.3923L44.0564 23.2849H40.4252L39.8493 24.8297H36.874L41.1131 14.9734C41.3147 14.4965 41.7954 14.185 42.3288 14.1855H44.7282L46.9997 24.8297ZM41.1933 21.0601L42.697 17.0743L43.5928 21.0446L41.1933 21.0601ZM26.9562 24.8297L29.2917 14.1855H26.5083L24.1729 24.8297H26.9562Z" fill="black"/>
</svg>
