<svg width="16" height="16" viewBox="0 0 16 16" fill="none" xmlns="http://www.w3.org/2000/svg">
<path fill-rule="evenodd" clip-rule="evenodd" d="M0 8C0 3.58172 3.58172 0 8 0C12.4183 0 16 3.58172 16 8C16 10.209 15.1039 12.2098 13.6569 13.6569C12.2098 15.1039 10.209 16 8 16C3.58172 16 0 12.4183 0 8ZM7.38461 1.25836C3.93446 1.56927 1.23076 4.46889 1.23076 7.99999C1.23076 11.7385 4.26145 14.7692 8 14.7692C9.64791 14.7692 11.1576 14.181 12.3317 13.202L7.38461 8.25493V1.25836ZM8.61555 1.25836V7.38461H14.7418C14.4492 4.13714 11.8631 1.551 8.61555 1.25836ZM14.7418 8.61537H9.48583L13.2022 12.3317C14.0579 11.3053 14.6151 10.0227 14.7418 8.61537Z" fill="#1E328C"/>
</svg>
