<svg xmlns="http://www.w3.org/2000/svg" width="12" height="18" viewBox="0 0 12 18" fill="none">
    <path d="M6.96273 2.59006C7.54244 2.68944 8.06418 2.86335 8.52795 3.1118C9.00828 3.34369 9.41408 3.63354 9.74534 3.98137C10.0766 4.32919 10.3333 4.71843 10.5155 5.14907C10.6977 5.56315 10.7888 6.00207 10.7888 6.46584V6.91304H8.90062V6.61491C8.90062 6.06832 8.71843 5.60456 8.35404 5.2236C8.00621 4.84265 7.54244 4.57764 6.96273 4.42857V7.98137C8.33747 8.147 9.38095 8.52795 10.0932 9.12422C10.8219 9.70393 11.1863 10.5072 11.1863 11.5342V11.6832C11.1863 12.793 10.7971 13.6874 10.0186 14.3665C9.25673 15.029 8.23809 15.4017 6.96273 15.4845V17H5.17391V15.4348C4.44513 15.3188 3.81573 15.1201 3.28571 14.8385C2.77226 14.5404 2.34161 14.1925 1.99379 13.795C1.66253 13.381 1.41408 12.942 1.24845 12.4783C1.08282 11.9979 1 11.5176 1 11.0373V10.441H2.8882V10.7391C2.8882 11.5342 3.08696 12.1718 3.48447 12.6522C3.88199 13.1325 4.44513 13.4555 5.17391 13.6211V9.57143C3.93168 9.4058 2.9793 9.04969 2.31677 8.50311C1.67081 7.93996 1.34783 7.16149 1.34783 6.1677V6.01863C1.34783 5.48861 1.4472 5.02485 1.64596 4.62733C1.86128 4.21325 2.14286 3.86543 2.49068 3.58385C2.83851 3.28571 3.24431 3.05383 3.70807 2.8882C4.17184 2.706 4.66046 2.59006 5.17391 2.54037V1H6.96273V2.59006ZM9.24845 11.6832C9.24845 11.1035 9.06625 10.6729 8.70186 10.3913C8.33747 10.1097 7.75776 9.90269 6.96273 9.77019V13.6957C7.67495 13.6128 8.22981 13.3975 8.62733 13.0497C9.04141 12.7019 9.24845 12.2464 9.24845 11.6832ZM3.28571 6.01863C3.28571 6.4824 3.41822 6.86335 3.68323 7.16149C3.9648 7.44306 4.4617 7.6501 5.17391 7.78261V4.32919C4.64389 4.41201 4.19669 4.5942 3.8323 4.87578C3.46791 5.15735 3.28571 5.5383 3.28571 6.01863Z" fill="#0D2285" stroke="#EDEEF4" stroke-width="0.25"/>
</svg>
