<svg width="20" height="18" viewBox="0 0 20 18" fill="none" xmlns="http://www.w3.org/2000/svg">
<path fill-rule="evenodd" clip-rule="evenodd" d="M9.99994 0.432129L19.0546 5.3077L15.626 7.15385L19.0546 9.00001L15.626 10.8462L19.0546 12.6923L9.99994 17.5679L0.945312 12.6923L4.37388 10.8462L0.945312 9.00001L4.37388 7.15385L0.945312 5.3077L9.99994 0.432129ZM5.42851 7.72173L3.05457 9.00001L9.99994 12.7398L16.9453 9.00001L14.5714 7.72173L9.99994 10.1833L5.42851 7.72173ZM5.42851 11.414L3.05457 12.6923L9.99994 16.4321L16.9453 12.6923L14.5714 11.414L9.99994 13.8756L5.42851 11.414ZM3.05457 5.3077L9.99994 9.04751L16.9453 5.3077L9.99994 1.56788L3.05457 5.3077Z" fill="#0D2285"/>
</svg>
