<svg width="19" height="19" viewBox="0 0 19 19" fill="none" xmlns="http://www.w3.org/2000/svg">
<g id="phone-r">
<path id="Shape" fill-rule="evenodd" clip-rule="evenodd" d="M3.37562 9.12948C5.48441 11.7069 7.845 14.0675 10.4224 16.1763L11.0868 16.7198C12.2796 17.6958 14.018 17.6091 15.1078 16.5194L16.8245 14.8026L13.5609 11.5391L11.1132 13.9867L5.55537 8.42886L8.01125 5.98936L4.74928 2.72743L3.0326 4.4441C1.94277 5.53393 1.85608 7.27227 2.83206 8.46514L3.37562 9.12948ZM9.54559 17.2479C6.89696 15.0808 4.47108 12.655 2.30399 10.0063L1.76042 9.34197C0.33399 7.59851 0.46071 5.05786 2.05353 3.46503L4.74928 0.769287L9.9726 5.99264L7.51679 8.43218L11.1132 12.0286L13.5609 9.58095L18.7826 14.8026L16.0869 17.4984C14.494 19.0912 11.9534 19.218 10.21 17.7915L9.54559 17.2479Z" fill="#343434"/>
</g>
</svg>
