<svg width="20" height="21" viewBox="0 0 20 21" fill="none" xmlns="http://www.w3.org/2000/svg">
<path d="M6 8.42313C6 6.12903 7.79086 4.26929 10 4.26929C12.2091 4.26929 14 6.12903 14 8.42313C14 10.3586 12.7252 11.985 11 12.4461V13.1092H9V10.5001H10C11.1046 10.5001 12 9.57022 12 8.42313C12 7.27608 11.1046 6.34621 10 6.34621C8.8954 6.34621 8 7.27608 8 8.42313H6Z" fill="#0D2285"/>
<path d="M11 16.7307V14.6538H9V16.7307H11Z" fill="#0D2285"/>
<path fill-rule="evenodd" clip-rule="evenodd" d="M0 10.5001C0 4.76483 4.47715 0.115479 10 0.115479C15.5228 0.115479 20 4.76483 20 10.5001C20 16.2353 15.5228 20.8847 10 20.8847C4.47715 20.8847 0 16.2353 0 10.5001ZM10 2.1924C5.58172 2.1924 2 5.91188 2 10.5001C2 15.0883 5.58172 18.8078 10 18.8078C14.4183 18.8078 18 15.0883 18 10.5001C18 5.91188 14.4183 2.1924 10 2.1924Z" fill="#0D2285"/>
</svg>
