<svg width="16" height="15" viewBox="0 0 16 15" fill="none" xmlns="http://www.w3.org/2000/svg">
<g clip-path="url(#clip0_63_499)">
<path d="M15.9887 3.82642L13.4376 -0.00012207H2.56236L0.0113113 3.82642H0V14.4276H16V3.82642H15.9887ZM3.20063 1.19255H12.7994L14.5553 3.82642H1.44469L3.20063 1.19255ZM14.8221 13.2497H1.17791V9.71599H14.8221V13.2497ZM1.17791 8.53808V5.00434H14.8221V8.53808H1.17791Z" fill="#0D2285"/>
<path d="M13.6442 6.18811H12.4663V7.36602H13.6442V6.18811Z" fill="#0D2285"/>
<path d="M11.2883 6.18811H10.1104V7.36602H11.2883V6.18811Z" fill="#0D2285"/>
<path d="M13.6442 10.8939H12.4663V12.0718H13.6442V10.8939Z" fill="#0D2285"/>
<path d="M11.2883 10.8939H10.1104V12.0718H11.2883V10.8939Z" fill="#0D2285"/>
</g>
<defs>
<clipPath id="clip0_63_499">
<rect width="16" height="14.4278" fill="white"/>
</clipPath>
</defs>
</svg>
