<svg width="1920" height="3516" viewBox="0 0 1920 3516" fill="none" xmlns="http://www.w3.org/2000/svg">
<path d="M233 1529.66L210.233 1547L-46 1493.34L-23.2154 1476L233 1529.66Z" fill="url(#paint0_linear_114_583)"/>
<path d="M112.7 1274.06L-144 1220L-22.6998 1475.94L234 1530L112.7 1274.06Z" fill="url(#paint1_linear_114_583)"/>
<path d="M2137.79 698.116C2138.05 696.99 2138.3 695.863 2138.53 694.76C2138.62 694.277 2138.76 693.794 2138.85 693.312C2138.9 693.013 2138.92 692.737 2138.97 692.438C2139.62 688.967 2140.1 685.495 2140.42 682.093C2140.42 681.886 2140.49 681.656 2140.52 681.426C2140.54 681.104 2140.52 680.783 2140.56 680.461C2140.84 677.196 2141 673.932 2141 670.714C2141 670.622 2141 670.53 2141 670.415C2141 670.185 2140.98 669.932 2140.98 669.702C2140.98 666.668 2140.82 663.656 2140.54 660.667C2140.54 660.438 2140.54 660.208 2140.52 659.978C2140.52 659.886 2140.49 659.794 2140.47 659.702C2140.17 656.69 2139.73 653.748 2139.2 650.805C2139.15 650.506 2139.13 650.185 2139.06 649.886C2139.02 649.633 2138.92 649.38 2138.88 649.127C2138.3 646.253 2137.63 643.403 2136.82 640.575C2136.78 640.391 2136.73 640.184 2136.69 640.001C2136.29 638.667 2135.9 637.357 2135.46 636.069L2122.79 598C2123.28 599.494 2123.72 600.989 2124.16 602.506C2124.96 605.31 2125.63 608.184 2126.21 611.058C2126.32 611.609 2126.42 612.161 2126.51 612.713C2127.04 615.655 2127.48 618.621 2127.78 621.609C2127.8 621.931 2127.82 622.253 2127.85 622.598C2128.1 625.587 2128.26 628.598 2128.29 631.633C2128.29 631.954 2128.29 632.299 2128.29 632.621C2128.29 635.84 2128.12 639.104 2127.85 642.368C2127.8 642.897 2127.76 643.449 2127.71 643.978C2127.39 647.403 2126.88 650.851 2126.23 654.346C2126.09 655.104 2125.96 655.886 2125.79 656.644C2125.56 657.771 2125.31 658.897 2125.06 660.024C2124.82 661.058 2124.57 662.093 2124.32 663.127C2124.04 664.254 2123.72 665.38 2123.39 666.53C2123.12 667.518 2122.82 668.53 2122.52 669.518C2122.03 671.081 2121.53 672.622 2120.99 674.185C2120.72 675.012 2120.44 675.84 2120.14 676.668C2119.45 678.576 2118.71 680.484 2117.93 682.392C2117.72 682.875 2117.56 683.357 2117.35 683.84C2116.75 685.288 2116.08 686.737 2115.43 688.162C2115.09 688.944 2114.76 689.702 2114.39 690.484C2113.33 692.714 2112.23 694.944 2111.07 697.174C2109.8 699.587 2108.49 701.955 2107.1 704.323C2106.92 704.622 2106.73 704.921 2106.55 705.22C2105.12 707.657 2103.6 710.047 2102.05 712.438C2101.5 713.266 2100.94 714.116 2100.37 714.944C2099.07 716.852 2097.76 718.737 2096.4 720.599C2095.8 721.427 2095.22 722.254 2094.6 723.059C2092.89 725.335 2091.14 727.588 2089.34 729.818C2089.08 730.14 2088.85 730.438 2088.6 730.76C2086.52 733.289 2084.37 735.772 2082.18 738.209C2081.54 738.921 2080.89 739.611 2080.24 740.324C2078.61 742.094 2076.94 743.864 2075.24 745.611C2074.48 746.393 2073.71 747.174 2072.93 747.956C2071.08 749.795 2069.21 751.588 2067.32 753.381C2066.75 753.933 2066.19 754.485 2065.59 755.013C2063.12 757.289 2060.58 759.542 2057.98 761.749C2057.35 762.278 2056.71 762.784 2056.09 763.312C2054.05 765.014 2052 766.692 2049.92 768.347C2049.12 768.991 2048.31 769.611 2047.48 770.255C2044.34 772.692 2041.16 775.083 2037.9 777.405C2037.86 777.428 2037.83 777.473 2037.79 777.496C2034.49 779.841 2031.1 782.117 2027.68 784.347C2026.99 784.807 2026.3 785.244 2025.6 785.681C2020.25 789.106 2014.74 792.416 2009.13 795.566C2008.78 795.773 2008.41 795.979 2008.07 796.163C2003.11 798.922 1998.03 801.543 1992.88 804.072C1992.49 804.278 1992.08 804.485 1991.68 804.669C1987.16 806.853 1982.57 808.945 1977.93 810.945C1977.22 811.244 1976.52 811.566 1975.81 811.865C1971.59 813.658 1967.29 815.359 1962.98 816.991C1962.15 817.313 1961.29 817.612 1960.44 817.934C1956.17 819.497 1951.88 821.014 1947.54 822.44C1947.31 822.509 1947.08 822.578 1946.85 822.646C1942.77 823.957 1938.66 825.175 1934.55 826.348C1933.67 826.601 1932.8 826.853 1931.94 827.083C1927.77 828.233 1923.57 829.29 1919.35 830.279C1918.56 830.463 1917.8 830.624 1917.01 830.808C1913.05 831.704 1909.08 832.532 1905.11 833.29C1904.53 833.405 1903.95 833.52 1903.38 833.635C1898.95 834.44 1894.52 835.152 1890.09 835.773C1889.12 835.911 1888.13 836.049 1887.16 836.187C1883.05 836.739 1878.96 837.221 1874.86 837.612C1872.5 837.842 1870.13 837.934 1867.77 838.095C1864.27 838.348 1860.76 838.601 1857.27 838.716C1852.96 838.877 1848.64 838.969 1844.33 838.946C1843.5 838.946 1842.69 838.923 1841.86 838.9C1838.12 838.854 1834.38 838.693 1830.67 838.486C1829.26 838.417 1827.83 838.348 1826.42 838.256C1821.74 837.934 1817.08 837.52 1812.44 836.969C1810.02 836.67 1807.69 836.279 1805.33 835.911C1803.26 835.612 1801.16 835.336 1799.13 834.991C1796.84 834.601 1794.63 834.095 1792.39 833.635C1790.43 833.244 1788.42 832.876 1786.48 832.44C1784.24 831.934 1782.12 831.313 1779.95 830.739C1778.11 830.256 1776.21 829.819 1774.41 829.29C1772.24 828.67 1770.19 827.934 1768.09 827.244C1766.38 826.693 1764.61 826.164 1762.95 825.566C1760.89 824.83 1758.95 824.003 1756.95 823.221C1755.31 822.578 1753.65 821.98 1752.05 821.313C1750.14 820.486 1748.32 819.589 1746.47 818.715C1744.92 817.98 1743.31 817.313 1741.79 816.531C1739.92 815.589 1738.14 814.554 1736.34 813.543C1734.96 812.784 1733.5 812.049 1732.16 811.267C1730.36 810.21 1728.7 809.083 1726.97 807.957C1725.7 807.129 1724.39 806.37 1723.14 805.52C1721.53 804.416 1720.03 803.221 1718.5 802.072C1717.28 801.152 1715.99 800.278 1714.81 799.313C1713.31 798.117 1711.95 796.853 1710.52 795.612C1709.39 794.623 1708.21 793.681 1707.13 792.692C1705.67 791.336 1704.36 789.933 1703 788.531C1702.05 787.566 1701.04 786.646 1700.14 785.658C1698.8 784.186 1697.57 782.646 1696.31 781.129C1695.5 780.163 1694.62 779.221 1693.86 778.232C1692.68 776.738 1691.64 775.175 1690.56 773.634C1689.82 772.577 1688.99 771.542 1688.28 770.462C1687.15 768.738 1686.15 766.968 1685.14 765.197C1684.58 764.232 1683.96 763.312 1683.43 762.347C1682.32 760.278 1681.35 758.163 1680.38 756.048C1680.06 755.312 1679.65 754.623 1679.35 753.887C1678.1 751.013 1676.99 748.094 1676 745.151L1688.67 783.221C1689.66 786.186 1690.77 789.106 1692.01 791.956C1692.34 792.692 1692.73 793.382 1693.05 794.117C1694.02 796.232 1694.99 798.347 1696.1 800.416C1696.63 801.382 1697.25 802.324 1697.81 803.267C1698.82 805.037 1699.81 806.807 1700.94 808.531C1701.66 809.612 1702.47 810.646 1703.23 811.704C1704.31 813.244 1705.35 814.807 1706.53 816.302C1707.34 817.336 1708.24 818.325 1709.09 819.336C1710.31 820.807 1711.49 822.302 1712.8 823.727C1713.75 824.761 1714.81 825.727 1715.8 826.738C1717.12 828.072 1718.39 829.451 1719.8 830.762C1720.88 831.773 1722.06 832.716 1723.19 833.681C1724.6 834.923 1725.98 836.187 1727.48 837.382C1728.66 838.325 1729.95 839.221 1731.17 840.141C1732.72 841.29 1734.22 842.486 1735.81 843.589C1737.1 844.486 1738.49 845.29 1739.82 846.164C1741.49 847.221 1743.08 848.325 1744.81 849.336C1746.26 850.187 1747.79 850.969 1749.29 851.773C1750.99 852.716 1752.68 853.704 1754.45 854.601C1756 855.383 1757.64 856.072 1759.21 856.808C1761.03 857.658 1762.83 858.555 1764.72 859.36C1766.38 860.072 1768.14 860.693 1769.82 861.36C1771.74 862.118 1773.61 862.9 1775.59 863.613C1777.39 864.256 1779.26 864.808 1781.1 865.406C1783.09 866.049 1785.03 866.739 1787.06 867.337C1788.93 867.888 1790.89 868.325 1792.78 868.831C1794.88 869.383 1796.96 869.98 1799.13 870.486C1801.11 870.946 1803.16 871.314 1805.19 871.728C1807.39 872.164 1809.53 872.67 1811.77 873.061C1813.89 873.429 1816.11 873.705 1818.28 874.026C1820.45 874.348 1822.59 874.716 1824.81 874.992C1824.9 874.992 1825.02 875.015 1825.11 875.038C1829.75 875.59 1834.41 876.003 1839.09 876.325C1840.5 876.417 1841.93 876.486 1843.34 876.555C1845.16 876.647 1846.98 876.808 1848.83 876.854C1850.72 876.923 1852.64 876.923 1854.55 876.946C1855.38 876.946 1856.19 876.992 1857.02 876.992C1860.76 877.015 1864.5 876.992 1868.26 876.877C1868.83 876.877 1869.41 876.785 1869.97 876.785C1873.47 876.647 1876.98 876.417 1880.46 876.164C1882.13 876.049 1883.79 876.003 1885.45 875.866C1886.14 875.797 1886.86 875.751 1887.55 875.682C1891.66 875.291 1895.76 874.808 1899.85 874.256C1900.35 874.187 1900.86 874.141 1901.37 874.072C1901.83 874.003 1902.32 873.911 1902.78 873.843C1907.21 873.222 1911.66 872.509 1916.07 871.705C1916.23 871.682 1916.39 871.659 1916.55 871.636C1916.97 871.567 1917.38 871.452 1917.82 871.383C1921.81 870.624 1925.78 869.797 1929.73 868.9C1930.24 868.785 1930.74 868.693 1931.25 868.578C1931.53 868.509 1931.78 868.44 1932.06 868.371C1936.28 867.383 1940.48 866.325 1944.66 865.176C1945 865.084 1945.37 864.992 1945.72 864.9C1946.25 864.762 1946.76 864.578 1947.27 864.44C1951.4 863.268 1955.5 862.049 1959.56 860.739C1959.75 860.693 1959.93 860.624 1960.09 860.578C1960.14 860.578 1960.19 860.532 1960.23 860.532C1964.57 859.13 1968.86 857.612 1973.13 856.026C1973.62 855.842 1974.1 855.704 1974.59 855.52C1974.95 855.383 1975.3 855.222 1975.67 855.084C1979.99 853.451 1984.28 851.75 1988.5 849.957C1988.8 849.842 1989.1 849.727 1989.4 849.612C1989.82 849.428 1990.23 849.222 1990.65 849.038C1995.28 847.038 1999.88 844.969 2004.4 842.762C2004.54 842.693 2004.68 842.647 2004.81 842.578C2005.09 842.44 2005.34 842.302 2005.6 842.164C2010.74 839.635 2015.82 837.014 2020.78 834.256C2020.92 834.187 2021.06 834.118 2021.2 834.049C2021.43 833.934 2021.63 833.773 2021.84 833.658C2027.47 830.509 2032.96 827.221 2038.34 823.773C2038.62 823.612 2038.89 823.451 2039.17 823.29C2039.59 823.014 2040 822.715 2040.42 822.463C2043.86 820.233 2047.25 817.957 2050.55 815.612C2050.57 815.612 2050.62 815.566 2050.64 815.543C2053.92 813.221 2057.1 810.807 2060.24 808.393C2060.63 808.072 2061.07 807.796 2061.46 807.474C2061.88 807.152 2062.27 806.807 2062.66 806.485C2064.74 804.83 2066.79 803.152 2068.82 801.451C2069.45 800.922 2070.09 800.416 2070.71 799.888C2073.3 797.681 2075.84 795.428 2078.33 793.152C2078.91 792.623 2079.48 792.071 2080.06 791.52C2081.98 789.727 2083.84 787.933 2085.67 786.094C2086.45 785.313 2087.21 784.531 2087.97 783.749C2089.68 782.002 2091.34 780.232 2092.98 778.462C2093.63 777.749 2094.3 777.06 2094.92 776.347C2097.11 773.887 2099.28 771.404 2101.33 768.899C2101.59 768.6 2101.82 768.278 2102.07 767.956C2103.87 765.726 2105.63 763.473 2107.33 761.197C2107.93 760.393 2108.53 759.565 2109.13 758.738C2110.5 756.876 2111.81 754.99 2113.1 753.082C2113.66 752.255 2114.23 751.427 2114.79 750.577C2116.36 748.186 2117.86 745.795 2119.29 743.358C2119.43 743.105 2119.61 742.852 2119.75 742.6C2119.77 742.554 2119.79 742.508 2119.84 742.439C2121.23 740.071 2122.54 737.68 2123.81 735.289C2124.99 733.059 2126.09 730.829 2127.13 728.599C2127.5 727.818 2127.82 727.036 2128.17 726.277C2128.82 724.829 2129.49 723.381 2130.09 721.956C2130.11 721.887 2130.15 721.818 2130.18 721.772C2130.36 721.358 2130.5 720.921 2130.66 720.507C2131.45 718.599 2132.19 716.691 2132.88 714.783C2133.18 713.955 2133.45 713.105 2133.73 712.277C2134.26 710.714 2134.77 709.174 2135.25 707.634C2135.37 707.243 2135.53 706.852 2135.62 706.461C2135.81 705.84 2135.95 705.243 2136.11 704.622C2136.43 703.496 2136.73 702.369 2137.03 701.22C2137.28 700.185 2137.54 699.128 2137.77 698.093L2137.79 698.116Z" fill="url(#paint2_linear_114_583)"/>
<path d="M1988.01 506.008C1967.54 503.524 1946.53 503.386 1925.57 505.364C1826.83 514.634 1728.85 570.434 1689.25 645.831C1641.19 737.237 1697 822.8 1814 836.992C1834.47 839.476 1855.48 839.614 1876.43 837.636C1975.15 828.366 2073.11 772.566 2112.76 697.169C2160.82 605.786 2104.94 520.2 1988.01 506.008Z" fill="url(#paint3_linear_114_583)"/>
<path d="M2125.95 656C2125.95 656 2125.61 657.94 2124.99 661.563C2124.26 665.163 2123.17 670.469 2121.06 677.014C2118.98 683.559 2116.01 691.389 2111.83 699.991C2109.57 704.175 2107.14 708.64 2104.59 713.338C2101.84 717.92 2098.55 722.548 2095.33 727.503C2091.81 732.202 2087.99 736.994 2084.06 741.949C2079.77 746.577 2075.56 751.626 2070.78 756.324C2065.89 760.906 2061.16 765.978 2055.65 770.373C2052.96 772.64 2050.24 774.931 2047.49 777.245C2044.68 779.465 2041.71 781.546 2038.79 783.72C2027.11 792.509 2014.13 800.199 2000.78 807.609C1987.18 814.528 1973.15 821.236 1958.52 826.379C1944.01 831.825 1928.99 835.682 1914.16 839.118C1899.24 842.063 1884.4 844.26 1869.96 845.336C1841 847.393 1813.9 844.494 1791.34 839.118C1768.71 833.835 1751.07 825.327 1739.46 818.478C1733.61 815.089 1729.34 811.863 1726.39 809.759C1723.53 807.539 1722 806.346 1722 806.346C1722 806.346 1723.58 807.445 1726.55 809.525C1729.59 811.489 1734.02 814.387 1739.96 817.543C1751.76 823.994 1769.61 831.381 1792 836.103C1814.33 840.964 1841.21 842.788 1869.64 840.59C1883.88 839.422 1898.46 837.131 1913.13 834.116C1927.71 830.609 1942.46 826.682 1956.72 821.213C1971.16 816.281 1985.01 809.759 1998.47 803.074C2011.68 795.875 2024.53 788.395 2036.09 779.839C2038.99 777.712 2041.92 775.702 2044.73 773.528C2047.47 771.308 2050.19 769.087 2052.87 766.913C2058.4 762.729 2063.15 757.867 2068.09 753.473C2072.91 748.961 2077.14 744.099 2081.5 739.635C2085.48 734.843 2089.36 730.215 2092.93 725.68C2096.22 720.935 2099.47 716.47 2102.39 712.053C2105.11 707.495 2107.67 703.147 2110.09 699.08C2114.55 690.735 2117.8 683.115 2120.1 676.71C2122.41 670.282 2123.85 665.116 2124.74 661.54C2125.57 657.963 2126 656.047 2126 656.047L2125.95 656Z" fill="url(#paint4_linear_114_583)"/>
<g style="mix-blend-mode:screen">
<path d="M1687.49 648.724C1726.88 572.652 1824.31 516.353 1922.47 507.001C1943.31 505.005 1964.2 505.144 1984.56 507.651C2080.77 519.486 2135.4 580.636 2124.33 653.62C2136.45 579.916 2081.73 517.954 1984.83 506.026C1964.47 503.52 1943.59 503.381 1922.75 505.376C1824.56 514.729 1727.13 571.028 1687.74 647.099C1679.48 663.019 1674.32 678.776 1672 694C1674.43 679.264 1679.51 664.087 1687.47 648.724H1687.49Z" fill="url(#paint5_linear_114_583)"/>
</g>
<g filter="url(#filter0_f_114_583)">
<path d="M1685.44 1295L1628.01 1311.96L1684.57 1367.26L1742 1350.31L1685.44 1295Z" fill="url(#paint6_linear_114_583)"/>
</g>
<g filter="url(#filter1_f_114_583)">
<path d="M1684.62 1367.16L1649.62 1431.33L1707 1414.3L1742 1350.13L1684.62 1367.16Z" fill="url(#paint7_linear_114_583)"/>
</g>
<g filter="url(#filter2_f_114_583)">
<path d="M1628.11 1312.13L1593 1376.12L1649.62 1431.33L1684.64 1367.45L1628.11 1312.13Z" fill="url(#paint8_linear_114_583)"/>
</g>
<path d="M1530.52 2516L1526.12 2498.44C1520.47 2475.87 1526.26 2451.76 1541.72 2432.55C1548.74 2423.83 1557.75 2416.11 1568.6 2410L1573 2427.56C1551.32 2439.76 1536.93 2458.43 1531.2 2478.73C1530.34 2481.78 1529.67 2484.86 1529.21 2487.96C1528.74 2491.06 1528.48 2494.18 1528.42 2497.3C1528.29 2503.55 1528.98 2509.83 1530.52 2515.99V2516Z" fill="url(#paint9_linear_114_583)"/>
<path d="M1513.57 2527.98C1513.18 2526.89 1512.83 2525.78 1512.51 2524.68C1512.42 2524.4 1512.35 2524.13 1512.26 2523.86C1511.94 2522.75 1511.63 2521.64 1511.36 2520.53L1507 2503C1507.27 2504.12 1507.58 2505.22 1507.91 2506.33C1507.98 2506.6 1508.07 2506.88 1508.15 2507.15C1508.49 2508.25 1508.84 2509.36 1509.22 2510.45C1509.22 2510.48 1509.23 2510.5 1509.25 2510.53C1509.62 2511.6 1510.02 2512.66 1510.44 2513.73C1510.55 2514.01 1510.65 2514.28 1510.76 2514.55C1511.2 2515.63 1511.66 2516.71 1512.14 2517.79C1512.14 2517.82 1512.16 2517.84 1512.18 2517.87C1512.65 2518.92 1513.16 2519.96 1513.68 2521C1513.82 2521.27 1513.95 2521.53 1514.09 2521.81C1514.63 2522.86 1515.19 2523.92 1515.79 2524.97C1515.79 2524.97 1515.8 2525 1515.81 2525.01C1516.4 2526.04 1517.02 2527.07 1517.65 2528.09C1517.81 2528.35 1517.97 2528.61 1518.14 2528.87C1518.79 2529.9 1519.45 2530.94 1520.16 2531.94C1520.78 2532.85 1521.44 2533.73 1522.1 2534.61C1522.28 2534.86 1522.47 2535.12 1522.65 2535.37C1523.41 2536.38 1524.19 2537.36 1525 2538.34C1525.19 2538.58 1525.38 2538.8 1525.58 2539.02C1526.2 2539.76 1526.82 2540.49 1527.46 2541.2C1527.76 2541.53 1528.05 2541.85 1528.36 2542.18C1528.92 2542.79 1529.48 2543.38 1530.04 2543.97C1530.37 2544.3 1530.7 2544.65 1531.03 2544.98C1531.6 2545.56 1532.17 2546.12 1532.76 2546.67C1533.09 2547 1533.42 2547.31 1533.76 2547.63C1534.41 2548.23 1535.07 2548.82 1535.74 2549.41C1536.01 2549.66 1536.28 2549.9 1536.57 2550.14C1537.51 2550.96 1538.47 2551.75 1539.45 2552.52C1539.6 2552.64 1539.75 2552.75 1539.9 2552.87C1540.73 2553.53 1541.57 2554.18 1542.43 2554.81C1542.76 2555.06 1543.11 2555.31 1543.46 2555.56C1544.13 2556.04 1544.81 2556.52 1545.51 2557C1545.89 2557.26 1546.29 2557.52 1546.69 2557.78C1547.36 2558.23 1548.03 2558.66 1548.71 2559.08C1549.11 2559.33 1549.5 2559.58 1549.9 2559.83C1550.62 2560.28 1551.35 2560.7 1552.1 2561.13C1552.45 2561.34 1552.81 2561.54 1553.15 2561.75C1554.18 2562.34 1555.23 2562.91 1556.28 2563.46C1556.34 2563.48 1556.39 2563.52 1556.46 2563.55C1557.57 2564.14 1558.7 2564.69 1559.83 2565.23C1560.19 2565.41 1560.57 2565.57 1560.93 2565.73C1561.63 2566.05 1562.35 2566.37 1563.06 2566.7C1564.7 2567.42 1566.36 2568.1 1568.04 2568.73C1568.36 2568.86 1568.68 2568.97 1569.01 2569.08C1570.46 2569.63 1571.94 2570.14 1573.41 2570.62C1573.8 2570.75 1574.2 2570.88 1574.58 2571.01C1576.31 2571.55 1578.03 2572.05 1579.78 2572.51C1580.13 2572.6 1580.46 2572.68 1580.81 2572.77C1582.33 2573.16 1583.85 2573.52 1585.39 2573.84C1585.83 2573.93 1586.26 2574.03 1586.7 2574.11C1587.64 2574.3 1588.6 2574.47 1589.55 2574.65C1590.06 2574.73 1590.56 2574.83 1591.07 2574.92C1592.32 2575.12 1593.57 2575.31 1594.83 2575.47C1595.04 2575.49 1595.25 2575.53 1595.47 2575.55C1596.95 2575.74 1598.43 2575.9 1599.92 2576.03C1600.36 2576.06 1600.81 2576.09 1601.26 2576.13C1602.3 2576.21 1603.34 2576.29 1604.4 2576.34C1605.06 2576.37 1605.71 2576.39 1606.37 2576.41C1607.12 2576.44 1607.86 2576.47 1608.62 2576.49C1609.29 2576.49 1609.97 2576.49 1610.64 2576.49C1611.39 2576.49 1612.14 2576.49 1612.89 2576.49C1613.57 2576.49 1614.24 2576.45 1614.92 2576.42C1615.67 2576.4 1616.41 2576.37 1617.16 2576.34C1617.84 2576.3 1618.52 2576.25 1619.21 2576.21C1619.95 2576.16 1620.7 2576.11 1621.44 2576.05C1622.21 2575.99 1622.98 2575.9 1623.75 2575.83C1624.32 2575.77 1624.89 2575.72 1625.45 2575.64C1626.27 2575.54 1627.09 2575.43 1627.92 2575.32C1628.46 2575.24 1628.99 2575.18 1629.52 2575.09C1630.43 2574.96 1631.34 2574.8 1632.24 2574.65C1632.69 2574.57 1633.14 2574.5 1633.57 2574.42C1634.92 2574.18 1636.26 2573.9 1637.62 2573.6C1638.61 2573.38 1639.59 2573.13 1640.58 2572.9C1641.5 2572.67 1642.41 2572.44 1643.33 2572.19C1643.97 2572.01 1644.62 2571.83 1645.26 2571.64C1646.18 2571.38 1647.1 2571.09 1648.01 2570.81C1648.64 2570.61 1649.26 2570.41 1649.89 2570.21C1650.84 2569.9 1651.78 2569.57 1652.72 2569.23C1653.31 2569.02 1653.89 2568.82 1654.47 2568.6C1655.54 2568.2 1656.6 2567.77 1657.65 2567.34C1658.11 2567.16 1658.58 2566.98 1659.04 2566.78C1659.32 2566.67 1659.58 2566.55 1659.84 2566.44C1660.86 2566 1661.86 2565.55 1662.87 2565.08C1663.28 2564.9 1663.69 2564.7 1664.1 2564.5C1665 2564.06 1665.9 2563.62 1666.79 2563.17C1667.17 2562.97 1667.55 2562.78 1667.93 2562.59C1669.17 2561.94 1670.41 2561.27 1671.64 2560.57L1676 2578.1C1674.77 2578.8 1673.53 2579.47 1672.29 2580.11C1671.92 2580.31 1671.53 2580.5 1671.16 2580.7C1670.26 2581.16 1669.36 2581.6 1668.45 2582.03C1668.04 2582.22 1667.63 2582.41 1667.22 2582.61C1666.22 2583.08 1665.21 2583.53 1664.19 2583.96C1663.92 2584.08 1663.66 2584.2 1663.4 2584.31C1663.33 2584.35 1663.25 2584.37 1663.18 2584.41C1662.79 2584.57 1662.39 2584.72 1662.01 2584.87C1660.95 2585.3 1659.9 2585.73 1658.83 2586.12C1658.25 2586.35 1657.66 2586.55 1657.09 2586.75C1656.15 2587.08 1655.21 2587.42 1654.25 2587.74C1653.63 2587.95 1653 2588.14 1652.36 2588.34C1651.45 2588.62 1650.54 2588.91 1649.62 2589.17C1648.98 2589.35 1648.33 2589.53 1647.68 2589.7C1646.77 2589.95 1645.86 2590.19 1644.94 2590.41C1644.58 2590.5 1644.22 2590.61 1643.85 2590.7C1643.23 2590.84 1642.61 2590.98 1641.99 2591.12C1640.65 2591.42 1639.29 2591.69 1637.94 2591.94C1637.49 2592.02 1637.05 2592.09 1636.6 2592.16C1635.69 2592.32 1634.8 2592.47 1633.89 2592.61C1633.36 2592.7 1632.81 2592.76 1632.28 2592.83C1631.46 2592.94 1630.64 2593.06 1629.82 2593.16C1629.25 2593.22 1628.68 2593.28 1628.11 2593.34C1627.57 2593.4 1627.03 2593.47 1626.49 2593.52C1626.27 2593.54 1626.03 2593.54 1625.81 2593.57C1625.07 2593.63 1624.32 2593.68 1623.58 2593.73C1622.89 2593.78 1622.21 2593.83 1621.53 2593.85C1620.78 2593.89 1620.04 2593.91 1619.29 2593.94C1618.61 2593.96 1617.93 2593.99 1617.26 2594C1616.51 2594 1615.76 2594 1615.01 2594C1614.34 2594 1613.66 2594 1612.99 2594C1612.23 2593.99 1611.49 2593.96 1610.74 2593.93C1610.23 2593.91 1609.72 2593.9 1609.21 2593.88C1609.07 2593.88 1608.92 2593.85 1608.77 2593.85C1607.72 2593.8 1606.68 2593.71 1605.64 2593.64C1605.19 2593.6 1604.73 2593.58 1604.29 2593.54C1602.81 2593.4 1601.32 2593.25 1599.85 2593.07C1599.63 2593.04 1599.41 2593.01 1599.17 2592.97C1597.93 2592.81 1596.68 2592.62 1595.45 2592.42C1594.94 2592.34 1594.43 2592.24 1593.92 2592.15C1592.96 2591.98 1592.02 2591.81 1591.08 2591.62C1590.9 2591.58 1590.72 2591.55 1590.54 2591.52C1590.28 2591.47 1590.04 2591.39 1589.79 2591.34C1588.25 2591.02 1586.72 2590.66 1585.21 2590.27C1584.86 2590.19 1584.52 2590.11 1584.18 2590.01C1582.43 2589.55 1580.69 2589.04 1578.97 2588.51C1578.58 2588.39 1578.19 2588.25 1577.81 2588.12C1576.33 2587.64 1574.85 2587.13 1573.4 2586.58C1573.08 2586.46 1572.76 2586.35 1572.44 2586.24C1570.77 2585.59 1569.11 2584.91 1567.47 2584.2C1567.33 2584.14 1567.18 2584.09 1567.03 2584.03C1566.45 2583.76 1565.89 2583.49 1565.31 2583.23C1564.95 2583.07 1564.59 2582.91 1564.23 2582.73C1563.09 2582.19 1561.96 2581.64 1560.85 2581.06C1560.8 2581.03 1560.74 2580.99 1560.69 2580.97C1559.63 2580.42 1558.58 2579.85 1557.55 2579.26C1557.19 2579.06 1556.84 2578.85 1556.48 2578.63C1555.75 2578.21 1555.02 2577.78 1554.3 2577.33C1553.9 2577.08 1553.5 2576.83 1553.1 2576.59C1552.42 2576.16 1551.75 2575.73 1551.08 2575.28C1550.68 2575.02 1550.3 2574.76 1549.9 2574.49C1549.22 2574.01 1548.54 2573.53 1547.85 2573.04C1547.51 2572.8 1547.16 2572.55 1546.82 2572.3C1545.97 2571.67 1545.12 2571.02 1544.28 2570.35C1544.13 2570.24 1543.99 2570.13 1543.84 2570.01C1542.86 2569.23 1541.91 2568.44 1540.96 2567.62C1540.69 2567.38 1540.42 2567.13 1540.13 2566.88C1539.47 2566.3 1538.8 2565.7 1538.16 2565.11C1537.82 2564.8 1537.49 2564.47 1537.17 2564.16C1536.58 2563.6 1536.01 2563.05 1535.44 2562.47C1535.1 2562.14 1534.77 2561.8 1534.45 2561.46C1533.88 2560.87 1533.32 2560.26 1532.77 2559.67C1532.47 2559.34 1532.16 2559.01 1531.86 2558.69C1531.23 2557.97 1530.6 2557.24 1529.99 2556.51C1529.79 2556.28 1529.59 2556.05 1529.41 2555.83C1528.61 2554.86 1527.83 2553.87 1527.06 2552.86C1526.87 2552.61 1526.7 2552.36 1526.51 2552.1C1526.06 2551.48 1525.6 2550.86 1525.15 2550.24C1524.96 2549.97 1524.76 2549.69 1524.58 2549.43C1523.88 2548.41 1523.21 2547.39 1522.55 2546.36C1522.39 2546.1 1522.23 2545.84 1522.07 2545.58C1521.44 2544.56 1520.82 2543.53 1520.23 2542.5C1520.23 2542.5 1520.22 2542.48 1520.21 2542.46C1519.61 2541.42 1519.05 2540.36 1518.51 2539.3C1518.37 2539.02 1518.23 2538.76 1518.1 2538.49C1517.58 2537.46 1517.08 2536.41 1516.61 2535.37C1516.6 2535.35 1516.58 2535.31 1516.57 2535.28C1516.09 2534.22 1515.64 2533.13 1515.19 2532.04C1515.08 2531.77 1514.97 2531.49 1514.87 2531.22C1514.76 2530.94 1514.65 2530.66 1514.54 2530.38C1514.24 2529.59 1513.95 2528.81 1513.68 2528.03C1513.68 2528 1513.65 2527.97 1513.64 2527.94L1513.57 2527.98Z" fill="url(#paint10_linear_114_583)"/>
<path d="M1558.57 2395L1568.57 2409.55C1525.59 2433.99 1511.6 2484.37 1537.35 2521.84C1557.78 2551.56 1597.14 2564.37 1634 2556.24C1643.62 2554.11 1653.08 2550.55 1661.99 2545.48L1672 2560.03C1661.18 2566.18 1649.7 2570.51 1638 2573.09C1593.26 2582.97 1545.47 2567.4 1520.68 2531.33C1489.4 2485.83 1506.4 2424.68 1558.57 2395Z" fill="url(#paint11_linear_114_583)"/>
<path d="M-10.4769 3186L-14.8775 3168.44C-20.5319 3145.87 -14.7396 3121.76 0.719065 3102.55C7.74004 3093.83 16.7545 3086.11 27.5994 3080L32 3097.56C10.3228 3109.76 -4.07024 3128.43 -9.79986 3148.73C-10.6649 3151.78 -11.3294 3154.86 -11.7933 3157.96C-12.2572 3161.06 -12.5205 3164.18 -12.5832 3167.3C-12.7085 3173.55 -12.019 3179.83 -10.4769 3185.99V3186Z" fill="url(#paint12_linear_114_583)"/>
<path d="M-27.4332 3197.98C-27.818 3196.89 -28.1656 3195.78 -28.4883 3194.68C-28.5752 3194.4 -28.6497 3194.13 -28.7366 3193.86C-29.0594 3192.75 -29.3697 3191.64 -29.6428 3190.53L-34 3173C-33.7269 3174.12 -33.4166 3175.22 -33.0938 3176.33C-33.0193 3176.6 -32.9324 3176.88 -32.8455 3177.15C-32.5104 3178.25 -32.1628 3179.36 -31.7779 3180.45C-31.7779 3180.48 -31.7655 3180.5 -31.7531 3180.53C-31.3807 3181.6 -30.9835 3182.66 -30.5614 3183.73C-30.4497 3184.01 -30.3504 3184.28 -30.2387 3184.55C-29.8042 3185.63 -29.3449 3186.71 -28.8607 3187.79C-28.8607 3187.82 -28.8359 3187.84 -28.8235 3187.87C-28.3518 3188.92 -27.8428 3189.96 -27.3214 3191C-27.1849 3191.27 -27.0483 3191.53 -26.9118 3191.81C-26.3656 3192.86 -25.807 3193.92 -25.2111 3194.97C-25.2111 3194.97 -25.1987 3195 -25.1863 3195.01C-24.6028 3196.04 -23.9822 3197.07 -23.3491 3198.09C-23.1877 3198.35 -23.0263 3198.61 -22.8649 3198.87C-22.207 3199.9 -21.5491 3200.94 -20.8415 3201.94C-20.2208 3202.85 -19.5629 3203.73 -18.905 3204.61C-18.7187 3204.86 -18.5325 3205.12 -18.3463 3205.37C-17.5891 3206.38 -16.807 3207.36 -16.0001 3208.34C-15.8139 3208.58 -15.6153 3208.8 -15.4167 3209.02C-14.796 3209.76 -14.1753 3210.49 -13.5422 3211.2C-13.2443 3211.53 -12.9464 3211.85 -12.636 3212.18C-12.0774 3212.79 -11.5188 3213.38 -10.9602 3213.97C-10.625 3214.3 -10.3023 3214.65 -9.96709 3214.98C-9.39606 3215.56 -8.82503 3216.12 -8.24159 3216.67C-7.90642 3217 -7.58366 3217.31 -7.23608 3217.63C-6.59057 3218.23 -5.93264 3218.82 -5.2623 3219.41C-4.9892 3219.66 -4.7161 3219.9 -4.43059 3220.14C-3.48714 3220.96 -2.53129 3221.75 -1.55061 3222.52C-1.40165 3222.64 -1.25268 3222.75 -1.10372 3222.87C-0.271999 3223.53 0.572132 3224.18 1.42868 3224.81C1.76385 3225.06 2.11143 3225.31 2.45901 3225.56C3.12935 3226.04 3.8121 3226.52 4.50727 3227C4.89209 3227.26 5.28933 3227.52 5.68657 3227.78C6.35691 3228.23 7.02725 3228.66 7.71 3229.08C8.10724 3229.33 8.50448 3229.58 8.90172 3229.83C9.62171 3230.28 10.3541 3230.7 11.0989 3231.13C11.4465 3231.34 11.8065 3231.54 12.1541 3231.75C13.1844 3232.34 14.2272 3232.91 15.2824 3233.46C15.3444 3233.48 15.3941 3233.52 15.4561 3233.55C16.5734 3234.14 17.703 3234.69 18.8327 3235.23C19.1927 3235.41 19.5651 3235.57 19.9251 3235.73C20.6327 3236.05 21.3526 3236.37 22.0602 3236.7C23.6988 3237.42 25.3623 3238.1 27.0381 3238.73C27.3609 3238.86 27.6836 3238.97 28.0064 3239.08C29.4588 3239.63 30.936 3240.14 32.4133 3240.62C32.7981 3240.75 33.1953 3240.88 33.5801 3241.01C35.3056 3241.55 37.0311 3242.05 38.7815 3242.51C39.1291 3242.6 39.4642 3242.68 39.8118 3242.77C41.3263 3243.16 42.8532 3243.52 44.3925 3243.84C44.8269 3243.93 45.2614 3244.03 45.6959 3244.11C46.6393 3244.3 47.5952 3244.47 48.551 3244.65C49.06 3244.73 49.5566 3244.83 50.0655 3244.92C51.3193 3245.12 52.5731 3245.31 53.8269 3245.47C54.0379 3245.49 54.2489 3245.53 54.4724 3245.55C55.9496 3245.74 57.4268 3245.9 58.9165 3246.03C59.3634 3246.06 59.8103 3246.09 60.2572 3246.13C61.2999 3246.21 62.3427 3246.29 63.3978 3246.34C64.0558 3246.37 64.7137 3246.39 65.3716 3246.41C66.1164 3246.44 66.8613 3246.47 67.6185 3246.49C68.2888 3246.49 68.9716 3246.49 69.6419 3246.49C70.3867 3246.49 71.144 3246.49 71.8888 3246.49C72.5715 3246.49 73.2419 3246.45 73.9246 3246.42C74.6695 3246.4 75.4143 3246.37 76.1591 3246.34C76.8419 3246.3 77.5246 3246.25 78.2074 3246.21C78.9522 3246.16 79.697 3246.11 80.4418 3246.05C81.2115 3245.99 81.9811 3245.9 82.7508 3245.83C83.3218 3245.77 83.8928 3245.72 84.4514 3245.64C85.2708 3245.54 86.09 3245.43 86.9218 3245.32C87.4556 3245.24 87.9893 3245.18 88.5231 3245.09C89.4293 3244.96 90.3355 3244.8 91.2417 3244.65C91.6886 3244.57 92.1355 3244.5 92.57 3244.42C93.9231 3244.18 95.2638 3243.9 96.6169 3243.6C97.61 3243.38 98.5907 3243.13 99.5837 3242.9C100.502 3242.67 101.409 3242.44 102.327 3242.19C102.973 3242.01 103.618 3241.83 104.264 3241.64C105.182 3241.38 106.101 3241.09 107.007 3240.81C107.64 3240.61 108.261 3240.41 108.894 3240.21C109.837 3239.9 110.781 3239.57 111.724 3239.23C112.308 3239.02 112.891 3238.82 113.475 3238.6C114.542 3238.2 115.597 3237.77 116.653 3237.34C117.112 3237.16 117.584 3236.98 118.043 3236.78C118.316 3236.67 118.577 3236.55 118.837 3236.44C119.855 3236 120.861 3235.55 121.866 3235.08C122.276 3234.9 122.686 3234.7 123.095 3234.5C124.001 3234.06 124.895 3233.62 125.789 3233.17C126.174 3232.97 126.546 3232.78 126.931 3232.59C128.172 3231.94 129.414 3231.27 130.643 3230.57L135 3248.1C133.771 3248.8 132.53 3249.47 131.288 3250.11C130.916 3250.31 130.531 3250.5 130.159 3250.7C129.265 3251.16 128.359 3251.6 127.452 3252.03C127.043 3252.22 126.633 3252.41 126.224 3252.61C125.218 3253.08 124.213 3253.53 123.195 3253.96C122.921 3254.08 122.661 3254.2 122.4 3254.31C122.326 3254.35 122.251 3254.37 122.177 3254.41C121.792 3254.57 121.395 3254.72 121.01 3254.87C119.955 3255.3 118.899 3255.73 117.832 3256.12C117.248 3256.35 116.665 3256.55 116.094 3256.75C115.151 3257.08 114.207 3257.42 113.251 3257.74C112.631 3257.95 111.997 3258.14 111.364 3258.34C110.446 3258.62 109.54 3258.91 108.621 3259.17C107.975 3259.35 107.33 3259.53 106.684 3259.7C105.766 3259.95 104.86 3260.19 103.941 3260.41C103.581 3260.5 103.221 3260.61 102.849 3260.7C102.228 3260.84 101.607 3260.98 100.986 3261.12C99.6458 3261.42 98.2927 3261.69 96.9396 3261.94C96.4927 3262.02 96.0458 3262.09 95.5989 3262.16C94.6927 3262.32 93.799 3262.47 92.8928 3262.61C92.359 3262.7 91.8128 3262.76 91.279 3262.83C90.4597 3262.94 89.6404 3263.06 88.8211 3263.16C88.25 3263.22 87.679 3263.28 87.108 3263.34C86.5742 3263.4 86.028 3263.47 85.4942 3263.52C85.2707 3263.54 85.0349 3263.54 84.8114 3263.57C84.0666 3263.63 83.3218 3263.68 82.577 3263.73C81.8942 3263.78 81.2115 3263.83 80.5287 3263.85C79.7839 3263.89 79.0391 3263.91 78.2943 3263.94C77.6115 3263.96 76.9287 3263.99 76.2584 3264C75.5136 3264 74.7564 3264 74.0115 3264C73.3412 3264 72.6584 3264 71.9881 3264C71.2309 3263.99 70.486 3263.96 69.7412 3263.93C69.2323 3263.91 68.7233 3263.9 68.2143 3263.88C68.0654 3263.88 67.9164 3263.85 67.7674 3263.85C66.7247 3263.8 65.6819 3263.71 64.6392 3263.64C64.1923 3263.6 63.733 3263.58 63.2861 3263.54C61.8089 3263.4 60.3192 3263.25 58.8544 3263.07C58.631 3263.04 58.4075 3263.01 58.1717 3262.97C56.9303 3262.81 55.6765 3262.62 54.4476 3262.42C53.9386 3262.34 53.4296 3262.24 52.9207 3262.15C51.9648 3261.98 51.0214 3261.81 50.0779 3261.62C49.9041 3261.58 49.7179 3261.55 49.5441 3261.52C49.2835 3261.47 49.0352 3261.39 48.7869 3261.34C47.2476 3261.02 45.7207 3260.66 44.2063 3260.27C43.8587 3260.19 43.5235 3260.11 43.1759 3260.01C41.4256 3259.55 39.6877 3259.04 37.9746 3258.51C37.5773 3258.39 37.1925 3258.25 36.8077 3258.12C35.3305 3257.64 33.8532 3257.13 32.4008 3256.58C32.0781 3256.46 31.7553 3256.35 31.445 3256.24C29.7691 3255.59 28.1057 3254.91 26.4671 3254.2C26.3305 3254.14 26.1816 3254.09 26.0326 3254.03C25.4492 3253.76 24.8906 3253.49 24.3071 3253.23C23.9471 3253.07 23.5871 3252.91 23.2271 3252.73C22.0851 3252.19 20.9554 3251.64 19.8506 3251.06C19.8009 3251.03 19.7389 3250.99 19.6892 3250.97C18.6341 3250.42 17.5789 3249.85 16.5486 3249.26C16.1886 3249.06 15.841 3248.85 15.481 3248.63C14.7486 3248.21 14.0162 3247.78 13.2962 3247.33C12.8989 3247.08 12.5017 3246.83 12.1045 3246.59C11.4217 3246.16 10.7514 3245.73 10.081 3245.28C9.68378 3245.02 9.29896 3244.76 8.90172 3244.49C8.21896 3244.01 7.53621 3243.53 6.85346 3243.04C6.50587 3242.8 6.15829 3242.55 5.82312 3242.3C4.96658 3241.67 4.12245 3241.02 3.27832 3240.35C3.12935 3240.24 2.9928 3240.13 2.84384 3240.01C1.86316 3239.23 0.907299 3238.44 -0.0361404 3237.62C-0.309242 3237.38 -0.58234 3237.13 -0.867855 3236.88C-1.52578 3236.3 -2.19612 3235.7 -2.84163 3235.11C-3.1768 3234.8 -3.51197 3234.47 -3.83473 3234.16C-4.41817 3233.6 -4.9892 3233.05 -5.56023 3232.47C-5.8954 3232.14 -6.23057 3231.8 -6.55333 3231.46C-7.12436 3230.87 -7.68297 3230.26 -8.22918 3229.67C-8.5271 3229.34 -8.83745 3229.01 -9.13538 3228.69C-9.76847 3227.97 -10.4016 3227.24 -11.0098 3226.51C-11.2085 3226.28 -11.4071 3226.05 -11.5933 3225.83C-12.3878 3224.86 -13.1698 3223.87 -13.9395 3222.86C-14.1257 3222.61 -14.2995 3222.36 -14.4857 3222.1C-14.945 3221.48 -15.4043 3220.86 -15.8512 3220.24C-16.0374 3219.97 -16.236 3219.69 -16.4222 3219.43C-17.1174 3218.41 -17.7877 3217.39 -18.4456 3216.36C-18.607 3216.1 -18.7684 3215.84 -18.9298 3215.58C-19.5629 3214.56 -20.1836 3213.53 -20.767 3212.5C-20.767 3212.5 -20.7794 3212.48 -20.7918 3212.46C-21.3877 3211.42 -21.9463 3210.36 -22.4925 3209.3C-22.6291 3209.02 -22.7656 3208.76 -22.9022 3208.49C-23.4235 3207.46 -23.9201 3206.41 -24.3918 3205.37C-24.4042 3205.35 -24.4166 3205.31 -24.429 3205.28C-24.9132 3204.22 -25.3601 3203.13 -25.807 3202.04C-25.9187 3201.77 -26.0304 3201.49 -26.1297 3201.22C-26.2414 3200.94 -26.3532 3200.66 -26.4649 3200.38C-26.7628 3199.59 -27.0483 3198.81 -27.3214 3198.03C-27.3214 3198 -27.3463 3197.97 -27.3587 3197.94L-27.4332 3197.98Z" fill="url(#paint13_linear_114_583)"/>
<path d="M17.5699 3065L27.5671 3079.55C-15.411 3103.99 -29.4022 3154.37 -3.65248 3191.84C16.7761 3221.56 56.1448 3234.37 92.9957 3226.24C102.621 3224.11 112.085 3220.55 120.99 3215.48L131 3230.03C120.184 3236.18 108.698 3240.51 97.002 3243.09C52.2625 3252.97 4.47182 3237.4 -20.3228 3201.33C-51.6044 3155.83 -34.5992 3094.68 17.5699 3065Z" fill="url(#paint14_linear_114_583)"/>
<g filter="url(#filter3_f_114_583)">
<path d="M304.441 2508L247.015 2524.96L303.573 2580.26L361 2563.31L304.441 2508Z" fill="url(#paint15_linear_114_583)"/>
</g>
<g filter="url(#filter4_f_114_583)">
<path d="M303.624 2580.16L268.62 2644.33L325.996 2627.3L361 2563.13L303.624 2580.16Z" fill="url(#paint16_linear_114_583)"/>
</g>
<g filter="url(#filter5_f_114_583)">
<path d="M247.111 2525.13L212 2589.12L268.621 2644.33L303.635 2580.45L247.111 2525.13Z" fill="url(#paint17_linear_114_583)"/>
</g>
<g opacity="0.61563" filter="url(#filter6_f_114_583)">
<circle cx="1887.06" cy="2015.06" r="348.059" fill="white"/>
</g>
<g opacity="0.05" filter="url(#filter7_f_114_583)">
<ellipse cx="1984.65" cy="2028.57" rx="245.207" ry="238.099" fill="#0D2285"/>
</g>
<g opacity="0.547828" filter="url(#filter8_f_114_583)">
<circle cx="-81.9994" cy="2976.87" r="255.868" fill="#0D2285" fill-opacity="0.06"/>
</g>
<path d="M1940.28 3489.02L1932.44 3514.74L1682.44 3391.57L1690.28 3365.85L1940.28 3489.02Z" fill="url(#paint18_linear_114_583)"/>
<path d="M1928.46 3263.06L1690.43 3365.74L1940.75 3489.14L2178.78 3386.46L1928.46 3263.06Z" fill="url(#paint19_linear_114_583)"/>
<defs>
<filter id="filter0_f_114_583" x="1614.42" y="1281.41" width="141.168" height="99.4475" filterUnits="userSpaceOnUse" color-interpolation-filters="sRGB">
<feFlood flood-opacity="0" result="BackgroundImageFix"/>
<feBlend mode="normal" in="SourceGraphic" in2="BackgroundImageFix" result="shape"/>
<feGaussianBlur stdDeviation="6.7957" result="effect1_foregroundBlur_114_583"/>
</filter>
<filter id="filter1_f_114_583" x="1636.03" y="1336.54" width="119.563" height="108.388" filterUnits="userSpaceOnUse" color-interpolation-filters="sRGB">
<feFlood flood-opacity="0" result="BackgroundImageFix"/>
<feBlend mode="normal" in="SourceGraphic" in2="BackgroundImageFix" result="shape"/>
<feGaussianBlur stdDeviation="6.7957" result="effect1_foregroundBlur_114_583"/>
</filter>
<filter id="filter2_f_114_583" x="1579.41" y="1298.54" width="118.818" height="146.383" filterUnits="userSpaceOnUse" color-interpolation-filters="sRGB">
<feFlood flood-opacity="0" result="BackgroundImageFix"/>
<feBlend mode="normal" in="SourceGraphic" in2="BackgroundImageFix" result="shape"/>
<feGaussianBlur stdDeviation="6.7957" result="effect1_foregroundBlur_114_583"/>
</filter>
<filter id="filter3_f_114_583" x="233.423" y="2494.41" width="141.168" height="99.4475" filterUnits="userSpaceOnUse" color-interpolation-filters="sRGB">
<feFlood flood-opacity="0" result="BackgroundImageFix"/>
<feBlend mode="normal" in="SourceGraphic" in2="BackgroundImageFix" result="shape"/>
<feGaussianBlur stdDeviation="6.7957" result="effect1_foregroundBlur_114_583"/>
</filter>
<filter id="filter4_f_114_583" x="255.029" y="2549.54" width="119.563" height="108.387" filterUnits="userSpaceOnUse" color-interpolation-filters="sRGB">
<feFlood flood-opacity="0" result="BackgroundImageFix"/>
<feBlend mode="normal" in="SourceGraphic" in2="BackgroundImageFix" result="shape"/>
<feGaussianBlur stdDeviation="6.7957" result="effect1_foregroundBlur_114_583"/>
</filter>
<filter id="filter5_f_114_583" x="198.409" y="2511.54" width="118.818" height="146.382" filterUnits="userSpaceOnUse" color-interpolation-filters="sRGB">
<feFlood flood-opacity="0" result="BackgroundImageFix"/>
<feBlend mode="normal" in="SourceGraphic" in2="BackgroundImageFix" result="shape"/>
<feGaussianBlur stdDeviation="6.7957" result="effect1_foregroundBlur_114_583"/>
</filter>
<filter id="filter6_f_114_583" x="1446.58" y="1574.58" width="880.962" height="880.962" filterUnits="userSpaceOnUse" color-interpolation-filters="sRGB">
<feFlood flood-opacity="0" result="BackgroundImageFix"/>
<feBlend mode="normal" in="SourceGraphic" in2="BackgroundImageFix" result="shape"/>
<feGaussianBlur stdDeviation="46.2108" result="effect1_foregroundBlur_114_583"/>
</filter>
<filter id="filter7_f_114_583" x="1630.71" y="1681.74" width="707.876" height="693.661" filterUnits="userSpaceOnUse" color-interpolation-filters="sRGB">
<feFlood flood-opacity="0" result="BackgroundImageFix"/>
<feBlend mode="normal" in="SourceGraphic" in2="BackgroundImageFix" result="shape"/>
<feGaussianBlur stdDeviation="54.3656" result="effect1_foregroundBlur_114_583"/>
</filter>
<filter id="filter8_f_114_583" x="-351.459" y="2707.41" width="538.918" height="538.919" filterUnits="userSpaceOnUse" color-interpolation-filters="sRGB">
<feFlood flood-opacity="0" result="BackgroundImageFix"/>
<feBlend mode="normal" in="SourceGraphic" in2="BackgroundImageFix" result="shape"/>
<feGaussianBlur stdDeviation="6.7957" result="effect1_foregroundBlur_114_583"/>
</filter>
<linearGradient id="paint0_linear_114_583" x1="-295.26" y1="1266.94" x2="-301.095" y2="1510.67" gradientUnits="userSpaceOnUse">
<stop stop-color="#F4EEF7"/>
<stop offset="0.23" stop-color="#ECEAF3"/>
<stop offset="0.44" stop-color="#E0E4EE"/>
<stop offset="1" stop-color="#BCC1CB"/>
</linearGradient>
<linearGradient id="paint1_linear_114_583" x1="-166.747" y1="807.226" x2="-450.133" y2="1565.89" gradientUnits="userSpaceOnUse">
<stop stop-color="#F9F8FD"/>
<stop offset="0.54" stop-color="#F2F3F8"/>
<stop offset="0.65" stop-color="#EBEDF2"/>
<stop offset="0.81" stop-color="#DADDE4"/>
<stop offset="0.99" stop-color="#BDC2CC"/>
<stop offset="1" stop-color="#BCC1CB"/>
</linearGradient>
<linearGradient id="paint2_linear_114_583" x1="1826.67" y1="240.248" x2="1549.11" y2="913.425" gradientUnits="userSpaceOnUse">
<stop stop-color="#F4EEF7"/>
<stop offset="0.23" stop-color="#ECEAF3"/>
<stop offset="0.44" stop-color="#E0E4EE"/>
<stop offset="0.62" stop-color="#D9DEE8"/>
<stop offset="0.86" stop-color="#C8CDD7"/>
<stop offset="1" stop-color="#BCC1CB"/>
</linearGradient>
<linearGradient id="paint3_linear_114_583" x1="1586.8" y1="242.848" x2="1405.42" y2="954.865" gradientUnits="userSpaceOnUse">
<stop stop-color="#F9F8FD"/>
<stop offset="0.54" stop-color="#F2F3F8"/>
<stop offset="0.65" stop-color="#EBEDF2"/>
<stop offset="0.81" stop-color="#DADDE4"/>
<stop offset="0.99" stop-color="#BDC2CC"/>
<stop offset="1" stop-color="#BCC1CB"/>
</linearGradient>
<linearGradient id="paint4_linear_114_583" x1="1668.65" y1="797.48" x2="1932.79" y2="1001.88" gradientUnits="userSpaceOnUse">
<stop stop-color="white" stop-opacity="0.1"/>
<stop offset="0.29" stop-color="white" stop-opacity="0.68"/>
<stop offset="0.46" stop-color="white"/>
<stop offset="0.51" stop-color="white" stop-opacity="0.96"/>
<stop offset="0.59" stop-color="white" stop-opacity="0.84"/>
<stop offset="0.69" stop-color="white" stop-opacity="0.66"/>
<stop offset="0.81" stop-color="white" stop-opacity="0.4"/>
<stop offset="0.95" stop-color="white" stop-opacity="0.08"/>
<stop offset="0.98" stop-color="white" stop-opacity="0.01"/>
</linearGradient>
<linearGradient id="paint5_linear_114_583" x1="833.254" y1="268.744" x2="761.971" y2="1288.76" gradientUnits="userSpaceOnUse">
<stop stop-color="#F4EEF7"/>
<stop offset="0.28" stop-color="#ECEAF3"/>
<stop offset="0.54" stop-color="#E0E4EE"/>
<stop offset="1" stop-color="#BCC1CB"/>
</linearGradient>
<linearGradient id="paint6_linear_114_583" x1="1527.07" y1="1185.12" x2="1498.21" y2="1435.2" gradientUnits="userSpaceOnUse">
<stop stop-color="#FAF9FC"/>
<stop offset="0.4596" stop-color="#F3F4F9"/>
<stop offset="0.5376" stop-color="#F2F3F8"/>
<stop offset="0.6432" stop-color="#ECEEF4"/>
<stop offset="0.7872" stop-color="#DDDFE7"/>
<stop offset="0.9525" stop-color="#C4C9D2"/>
<stop offset="1" stop-color="#BCC1CB"/>
</linearGradient>
<linearGradient id="paint7_linear_114_583" x1="1574.81" y1="1234.41" x2="1568.83" y2="1456.53" gradientUnits="userSpaceOnUse">
<stop stop-color="#F4EEF7"/>
<stop offset="0.1952" stop-color="#EDEBF4"/>
<stop offset="0.4375" stop-color="#E0E4EE"/>
<stop offset="1" stop-color="#BCC1CB"/>
</linearGradient>
<linearGradient id="paint8_linear_114_583" x1="1652.43" y1="1108.79" x2="1416.8" y2="1291.26" gradientUnits="userSpaceOnUse">
<stop stop-color="#F4EEF7"/>
<stop offset="0.2399" stop-color="#EDEBF4"/>
<stop offset="0.5376" stop-color="#E0E4EE"/>
<stop offset="1" stop-color="#BCC1CB"/>
</linearGradient>
<linearGradient id="paint9_linear_114_583" x1="1612.44" y1="2065.24" x2="1340.81" y2="2137.2" gradientUnits="userSpaceOnUse">
<stop stop-color="#F4EEF7"/>
<stop offset="0.28" stop-color="#ECEAF3"/>
<stop offset="0.54" stop-color="#E0E4EE"/>
<stop offset="1" stop-color="#BCC1CB"/>
</linearGradient>
<linearGradient id="paint10_linear_114_583" x1="1606.86" y1="2312.8" x2="1492.36" y2="2594.03" gradientUnits="userSpaceOnUse">
<stop stop-color="#F4EEF7"/>
<stop offset="0.23" stop-color="#ECEAF3"/>
<stop offset="0.44" stop-color="#E0E4EE"/>
<stop offset="0.62" stop-color="#D9DEE8"/>
<stop offset="0.86" stop-color="#C8CDD7"/>
<stop offset="1" stop-color="#BCC1CB"/>
</linearGradient>
<linearGradient id="paint11_linear_114_583" x1="1311.03" y1="2308.19" x2="1294.88" y2="2919.55" gradientUnits="userSpaceOnUse">
<stop stop-color="#F4EEF7"/>
<stop offset="0.28" stop-color="#ECEAF3"/>
<stop offset="0.54" stop-color="#E0E4EE"/>
<stop offset="1" stop-color="#BCC1CB"/>
</linearGradient>
<linearGradient id="paint12_linear_114_583" x1="71.4397" y1="2735.24" x2="-200.193" y2="2807.2" gradientUnits="userSpaceOnUse">
<stop stop-color="#F4EEF7"/>
<stop offset="0.28" stop-color="#ECEAF3"/>
<stop offset="0.54" stop-color="#E0E4EE"/>
<stop offset="1" stop-color="#BCC1CB"/>
</linearGradient>
<linearGradient id="paint13_linear_114_583" x1="65.8632" y1="2982.8" x2="-48.6417" y2="3264.03" gradientUnits="userSpaceOnUse">
<stop stop-color="#F4EEF7"/>
<stop offset="0.23" stop-color="#ECEAF3"/>
<stop offset="0.44" stop-color="#E0E4EE"/>
<stop offset="0.62" stop-color="#D9DEE8"/>
<stop offset="0.86" stop-color="#C8CDD7"/>
<stop offset="1" stop-color="#BCC1CB"/>
</linearGradient>
<linearGradient id="paint14_linear_114_583" x1="-229.966" y1="2978.19" x2="-246.122" y2="3589.55" gradientUnits="userSpaceOnUse">
<stop stop-color="#F4EEF7"/>
<stop offset="0.28" stop-color="#ECEAF3"/>
<stop offset="0.54" stop-color="#E0E4EE"/>
<stop offset="1" stop-color="#BCC1CB"/>
</linearGradient>
<linearGradient id="paint15_linear_114_583" x1="146.071" y1="2398.12" x2="117.209" y2="2648.2" gradientUnits="userSpaceOnUse">
<stop stop-color="#FAF9FC"/>
<stop offset="0.4596" stop-color="#F3F4F9"/>
<stop offset="0.5376" stop-color="#F2F3F8"/>
<stop offset="0.6432" stop-color="#ECEEF4"/>
<stop offset="0.7872" stop-color="#DDDFE7"/>
<stop offset="0.9525" stop-color="#C4C9D2"/>
<stop offset="1" stop-color="#BCC1CB"/>
</linearGradient>
<linearGradient id="paint16_linear_114_583" x1="193.814" y1="2447.41" x2="187.833" y2="2669.53" gradientUnits="userSpaceOnUse">
<stop stop-color="#F4EEF7"/>
<stop offset="0.1952" stop-color="#EDEBF4"/>
<stop offset="0.4375" stop-color="#E0E4EE"/>
<stop offset="1" stop-color="#BCC1CB"/>
</linearGradient>
<linearGradient id="paint17_linear_114_583" x1="271.428" y1="2321.79" x2="35.8046" y2="2504.26" gradientUnits="userSpaceOnUse">
<stop stop-color="#F4EEF7"/>
<stop offset="0.2399" stop-color="#EDEBF4"/>
<stop offset="0.5376" stop-color="#E0E4EE"/>
<stop offset="1" stop-color="#BCC1CB"/>
</linearGradient>
<linearGradient id="paint18_linear_114_583" x1="1230.48" y1="3369.92" x2="2141.37" y2="3599.78" gradientUnits="userSpaceOnUse">
<stop stop-color="#F4EEF7"/>
<stop offset="0.28" stop-color="#ECEAF3"/>
<stop offset="0.54" stop-color="#E0E4EE"/>
<stop offset="1" stop-color="#BCC1CB"/>
</linearGradient>
<linearGradient id="paint19_linear_114_583" x1="1425.25" y1="3070.4" x2="1624.01" y2="3802.02" gradientUnits="userSpaceOnUse">
<stop stop-color="#F9F8FD"/>
<stop offset="0.54" stop-color="#F2F3F8"/>
<stop offset="0.65" stop-color="#EBEDF2"/>
<stop offset="0.81" stop-color="#DADDE4"/>
<stop offset="0.99" stop-color="#BDC2CC"/>
<stop offset="1" stop-color="#BCC1CB"/>
</linearGradient>
</defs>
</svg>
