<svg width="414" height="6377" viewBox="0 0 414 6377" fill="none" xmlns="http://www.w3.org/2000/svg">
<path d="M2.9214 6325.22L0.00384676 6313.58C-3.74492 6298.62 0.0952803 6282.63 10.3441 6269.9C14.9989 6264.11 20.9753 6259 28.1653 6254.95L31.0829 6266.59C16.7112 6274.68 7.16889 6287.05 3.37026 6300.51C2.79672 6302.54 2.35618 6304.57 2.04863 6306.63C1.74108 6308.68 1.56653 6310.76 1.52497 6312.83C1.44184 6316.97 1.89901 6321.13 2.9214 6325.21V6325.22Z" fill="url(#paint0_linear_2077_493)"/>
<path d="M-8.32012 6333.16C-8.57525 6332.44 -8.80569 6331.71 -9.01968 6330.97C-9.07729 6330.79 -9.12667 6330.61 -9.18428 6330.43C-9.39826 6329.7 -9.60401 6328.96 -9.78507 6328.22L-12.6738 6316.6C-12.4928 6317.34 -12.287 6318.08 -12.073 6318.81C-12.0237 6318.99 -11.966 6319.17 -11.9084 6319.35C-11.6862 6320.09 -11.4558 6320.82 -11.2006 6321.54C-11.2006 6321.56 -11.1924 6321.58 -11.1842 6321.59C-10.9373 6322.3 -10.6739 6323.01 -10.3941 6323.72C-10.32 6323.9 -10.2542 6324.08 -10.1801 6324.26C-9.89206 6324.98 -9.58755 6325.69 -9.26658 6326.41C-9.26658 6326.43 -9.25012 6326.44 -9.24189 6326.46C-8.92915 6327.16 -8.59171 6327.84 -8.24605 6328.53C-8.15552 6328.72 -8.06499 6328.89 -7.97446 6329.07C-7.61233 6329.77 -7.24198 6330.47 -6.84694 6331.17C-6.84694 6331.17 -6.83871 6331.19 -6.83048 6331.19C-6.44366 6331.88 -6.03216 6332.56 -5.61243 6333.24C-5.50544 6333.41 -5.39844 6333.58 -5.29145 6333.76C-4.85526 6334.44 -4.41907 6335.12 -3.94995 6335.79C-3.53845 6336.39 -3.10225 6336.98 -2.66606 6337.56C-2.54261 6337.72 -2.41916 6337.9 -2.29571 6338.06C-1.79367 6338.73 -1.27518 6339.38 -0.740224 6340.03C-0.616773 6340.19 -0.485092 6340.34 -0.353411 6340.48C0.0580921 6340.97 0.469596 6341.46 0.88933 6341.92C1.08685 6342.15 1.28437 6342.36 1.49013 6342.58C1.86048 6342.98 2.23083 6343.37 2.60118 6343.76C2.8234 6343.98 3.03738 6344.21 3.25959 6344.44C3.63817 6344.82 4.01676 6345.19 4.40357 6345.56C4.62578 6345.77 4.83977 6345.98 5.07021 6346.19C5.49817 6346.59 5.93436 6346.98 6.37879 6347.37C6.55985 6347.53 6.74091 6347.7 6.9302 6347.85C7.55569 6348.4 8.1894 6348.92 8.83958 6349.44C8.93834 6349.51 9.0371 6349.58 9.13586 6349.67C9.68728 6350.1 10.2469 6350.53 10.8148 6350.95C11.037 6351.12 11.2675 6351.28 11.4979 6351.44C11.9423 6351.77 12.395 6352.09 12.8559 6352.4C13.111 6352.57 13.3743 6352.75 13.6377 6352.92C14.0821 6353.22 14.5266 6353.5 14.9792 6353.78C15.2426 6353.95 15.5059 6354.11 15.7693 6354.28C16.2466 6354.57 16.7322 6354.85 17.226 6355.14C17.4565 6355.28 17.6951 6355.41 17.9256 6355.55C18.6087 6355.94 19.3 6356.32 19.9996 6356.68C20.0407 6356.7 20.0736 6356.72 20.1148 6356.75C20.8555 6357.14 21.6044 6357.5 22.3534 6357.86C22.592 6357.98 22.8389 6358.08 23.0776 6358.19C23.5467 6358.4 24.0241 6358.62 24.4932 6358.83C25.5795 6359.31 26.6824 6359.76 27.7934 6360.18C28.0074 6360.26 28.2214 6360.34 28.4354 6360.41C29.3983 6360.78 30.3777 6361.11 31.3571 6361.43C31.6122 6361.52 31.8756 6361.61 32.1307 6361.69C33.2747 6362.05 34.4186 6362.38 35.5791 6362.69C35.8095 6362.74 36.0317 6362.8 36.2622 6362.86C37.2663 6363.11 38.2785 6363.35 39.2991 6363.57C39.5871 6363.62 39.8752 6363.69 40.1632 6363.75C40.7887 6363.87 41.4224 6363.99 42.0561 6364.1C42.3936 6364.16 42.7228 6364.23 43.0602 6364.28C43.8915 6364.42 44.7227 6364.54 45.5539 6364.65C45.6938 6364.66 45.8338 6364.69 45.9819 6364.7C46.9613 6364.83 47.9407 6364.93 48.9283 6365.02C49.2245 6365.04 49.5208 6365.06 49.8171 6365.08C50.5084 6365.14 51.1998 6365.19 51.8993 6365.22C52.3355 6365.25 52.7717 6365.26 53.2079 6365.27C53.7017 6365.29 54.1955 6365.31 54.6975 6365.32C55.142 6365.32 55.5946 6365.32 56.039 6365.32C56.5328 6365.32 57.0349 6365.32 57.5287 6365.32C57.9813 6365.32 58.4258 6365.3 58.8784 6365.28C59.3722 6365.26 59.866 6365.25 60.3598 6365.22C60.8125 6365.2 61.2651 6365.16 61.7178 6365.14C62.2116 6365.11 62.7054 6365.07 63.1992 6365.03C63.7095 6364.99 64.2197 6364.93 64.73 6364.88C65.1086 6364.84 65.4872 6364.81 65.8575 6364.76C66.4007 6364.7 66.9439 6364.62 67.4953 6364.55C67.8492 6364.5 68.2031 6364.46 68.557 6364.4C69.1578 6364.31 69.7586 6364.2 70.3594 6364.1C70.6556 6364.05 70.9519 6364 71.24 6363.95C72.1371 6363.79 73.0259 6363.61 73.923 6363.41C74.5814 6363.26 75.2316 6363.1 75.89 6362.94C76.499 6362.79 77.0998 6362.64 77.7088 6362.47C78.1368 6362.36 78.5648 6362.23 78.9927 6362.11C79.6017 6361.94 80.2108 6361.75 80.8116 6361.56C81.2313 6361.43 81.6428 6361.29 82.0625 6361.16C82.688 6360.96 83.3135 6360.73 83.939 6360.51C84.3258 6360.37 84.7126 6360.24 85.0994 6360.09C85.8072 6359.83 86.5068 6359.54 87.2063 6359.26C87.5108 6359.14 87.8236 6359.02 88.1281 6358.89C88.3092 6358.82 88.482 6358.73 88.6548 6358.66C89.3297 6358.37 89.9963 6358.07 90.663 6357.76C90.9345 6357.64 91.2061 6357.51 91.4777 6357.37C92.0785 6357.09 92.6711 6356.79 93.2637 6356.49C93.5188 6356.36 93.7657 6356.24 94.0208 6356.11C94.8438 6355.68 95.6668 6355.23 96.4816 6354.77L99.3704 6366.39C98.5556 6366.85 97.7326 6367.3 96.9096 6367.73C96.6627 6367.86 96.4075 6367.98 96.1606 6368.11C95.5681 6368.42 94.9673 6368.71 94.3665 6368.99C94.0949 6369.13 93.8233 6369.25 93.5517 6369.38C92.8851 6369.69 92.2184 6369.99 91.5436 6370.28C91.3625 6370.35 91.1897 6370.44 91.0168 6370.51C90.9675 6370.53 90.9181 6370.55 90.8687 6370.58C90.6136 6370.68 90.3502 6370.78 90.0951 6370.88C89.3955 6371.17 88.696 6371.45 87.9882 6371.71C87.6014 6371.86 87.2146 6371.99 86.836 6372.12C86.2105 6372.35 85.585 6372.57 84.9513 6372.78C84.5398 6372.92 84.12 6373.05 83.7003 6373.18C83.0913 6373.37 82.4905 6373.56 81.8815 6373.73C81.4535 6373.85 81.0255 6373.97 80.5976 6374.08C79.9886 6374.25 79.3878 6374.4 78.7787 6374.55C78.5401 6374.61 78.3014 6374.68 78.0545 6374.74C77.643 6374.84 77.2315 6374.93 76.82 6375.02C75.9311 6375.22 75.034 6375.4 74.137 6375.57C73.8407 6375.62 73.5444 6375.66 73.2481 6375.71C72.6473 6375.82 72.0548 6375.92 71.454 6376.01C71.1001 6376.07 70.7379 6376.11 70.3841 6376.16C69.8409 6376.23 69.2977 6376.31 68.7545 6376.37C68.3759 6376.41 67.9973 6376.46 67.6188 6376.5C67.2649 6376.54 66.9027 6376.58 66.5488 6376.61C66.4007 6376.63 66.2443 6376.63 66.0962 6376.64C65.6024 6376.69 65.1086 6376.72 64.6148 6376.75C64.1621 6376.78 63.7095 6376.82 63.2568 6376.83C62.763 6376.86 62.2692 6376.88 61.7754 6376.89C61.3227 6376.91 60.8701 6376.92 60.4257 6376.93C59.9319 6376.93 59.4298 6376.93 58.936 6376.93C58.4916 6376.93 58.0389 6376.93 57.5945 6376.93C57.0925 6376.92 56.5987 6376.91 56.1049 6376.88C55.7674 6376.88 55.43 6376.87 55.0926 6376.85C54.9938 6376.85 54.8951 6376.83 54.7963 6376.83C54.105 6376.8 53.4137 6376.74 52.7223 6376.69C52.426 6376.67 52.1215 6376.65 51.8252 6376.63C50.8459 6376.54 49.8583 6376.44 48.8871 6376.32C48.739 6376.3 48.5908 6376.27 48.4345 6376.25C47.6114 6376.14 46.7802 6376.02 45.9654 6375.89C45.628 6375.83 45.2906 6375.76 44.9531 6375.71C44.3194 6375.59 43.6939 6375.48 43.0684 6375.35C42.9532 6375.33 42.8298 6375.31 42.7146 6375.29C42.5417 6375.25 42.3771 6375.2 42.2125 6375.17C41.192 6374.96 40.1797 6374.72 39.1756 6374.46C38.9452 6374.4 38.723 6374.36 38.4925 6374.29C37.3321 6373.98 36.1799 6373.65 35.0441 6373.29C34.7808 6373.21 34.5256 6373.12 34.2705 6373.04C33.2911 6372.72 32.3117 6372.38 31.3488 6372.02C31.1348 6371.93 30.9209 6371.86 30.7151 6371.79C29.6041 6371.36 28.5012 6370.9 27.4149 6370.44C27.3243 6370.39 27.2256 6370.36 27.1268 6370.32C26.74 6370.15 26.3696 6369.97 25.9828 6369.79C25.7441 6369.69 25.5055 6369.58 25.2668 6369.46C24.5096 6369.1 23.7607 6368.74 23.0282 6368.35C22.9953 6368.34 22.9542 6368.31 22.9212 6368.29C22.2217 6367.93 21.5221 6367.55 20.839 6367.16C20.6004 6367.03 20.3699 6366.89 20.1312 6366.75C19.6457 6366.47 19.1601 6366.18 18.6827 6365.88C18.4194 6365.72 18.156 6365.55 17.8927 6365.39C17.44 6365.11 16.9956 6364.82 16.5512 6364.52C16.2878 6364.35 16.0327 6364.18 15.7693 6364C15.3166 6363.68 14.864 6363.36 14.4113 6363.04C14.1809 6362.88 13.9505 6362.71 13.7282 6362.55C13.1604 6362.13 12.6007 6361.7 12.0411 6361.25C11.9423 6361.18 11.8518 6361.1 11.753 6361.03C11.1028 6360.51 10.4691 6359.98 9.84365 6359.44C9.66259 6359.28 9.48153 6359.12 9.29223 6358.96C8.85604 6358.57 8.41162 6358.17 7.98365 6357.78C7.76144 6357.57 7.53923 6357.36 7.32525 6357.15C6.93843 6356.78 6.55985 6356.41 6.18127 6356.03C5.95905 6355.81 5.73684 6355.59 5.52286 6355.36C5.14428 6354.97 4.77392 6354.57 4.4118 6354.17C4.21428 6353.96 4.00853 6353.73 3.811 6353.52C3.39127 6353.04 2.97154 6352.56 2.56827 6352.08C2.43658 6351.92 2.3049 6351.77 2.18145 6351.63C1.65473 6350.98 1.13623 6350.32 0.625968 6349.66C0.502517 6349.49 0.387297 6349.33 0.263845 6349.16C-0.0406675 6348.74 -0.345181 6348.33 -0.641463 6347.92C-0.764915 6347.74 -0.896596 6347.56 -1.02005 6347.38C-1.48093 6346.71 -1.92535 6346.03 -2.36155 6345.35C-2.46854 6345.18 -2.57553 6345 -2.68252 6344.83C-3.10225 6344.16 -3.51376 6343.47 -3.90057 6342.79C-3.90057 6342.79 -3.9088 6342.77 -3.91703 6342.76C-4.31208 6342.07 -4.68243 6341.37 -5.04455 6340.66C-5.13508 6340.48 -5.22561 6340.31 -5.31614 6340.13C-5.66181 6339.45 -5.99101 6338.75 -6.30375 6338.06C-6.31198 6338.05 -6.32021 6338.02 -6.32844 6338C-6.64942 6337.3 -6.9457 6336.58 -7.24198 6335.86C-7.31605 6335.67 -7.39012 6335.49 -7.45596 6335.31C-7.53003 6335.12 -7.6041 6334.94 -7.67817 6334.75C-7.8757 6334.23 -8.06499 6333.71 -8.24605 6333.2C-8.24605 6333.18 -8.26251 6333.15 -8.27074 6333.14L-8.32012 6333.16Z" fill="url(#paint1_linear_2077_493)"/>
<path d="M21.516 6245L28.144 6254.65C-0.349839 6270.85 -9.62574 6304.25 7.44587 6329.09C20.9897 6348.79 47.0905 6357.29 71.522 6351.9C77.9033 6350.49 84.1777 6348.13 90.082 6344.77L96.7182 6354.41C89.5475 6358.49 81.9327 6361.36 74.1781 6363.07C44.5166 6369.62 12.8321 6359.3 -3.60627 6335.39C-24.3455 6305.22 -13.0713 6264.68 21.516 6245Z" fill="url(#paint2_linear_2077_493)"/>
<g filter="url(#filter0_f_2077_493)">
<path d="M18.4415 4305L-38.9854 4321.96L17.5728 4377.26L74.9996 4360.31L18.4415 4305Z" fill="url(#paint3_linear_2077_493)"/>
</g>
<g filter="url(#filter1_f_2077_493)">
<path d="M17.6242 4377.16L-17.3799 4441.33L39.996 4424.3L75.0001 4360.13L17.6242 4377.16Z" fill="url(#paint4_linear_2077_493)"/>
</g>
<g filter="url(#filter2_f_2077_493)">
<path d="M-38.8893 4322.13L-74 4386.12L-17.3792 4441.33L17.635 4377.45L-38.8893 4322.13Z" fill="url(#paint5_linear_2077_493)"/>
</g>
<g opacity="0.05" filter="url(#filter3_f_2077_493)">
<ellipse cx="452.207" cy="2778.1" rx="245.207" ry="238.099" fill="#0D2285"/>
</g>
<g opacity="0.547828" filter="url(#filter4_f_2077_493)">
<circle cx="-73.5" cy="5479.5" r="169.5" fill="#0D2285" fill-opacity="0.06"/>
</g>
<g opacity="0.547828" filter="url(#filter5_f_2077_493)">
<circle cx="-260" cy="440" r="372" fill="#0D2285" fill-opacity="0.11"/>
</g>
<path d="M382.028 4264.8L369.194 4274.61L301 4130.82L313.834 4121L382.028 4264.8Z" fill="url(#paint6_linear_2077_493)"/>
<path d="M526.076 4295.24L513.265 4305L369.085 4274.81L381.906 4265.05L526.076 4295.24Z" fill="url(#paint7_linear_2077_493)"/>
<path d="M458.385 4151.42L313.942 4121L382.196 4265.02L526.639 4295.43L458.385 4151.42Z" fill="url(#paint8_linear_2077_493)"/>
<path d="M498.476 998.982C498.575 998.541 498.675 998.1 498.765 997.668C498.801 997.479 498.855 997.29 498.891 997.101C498.91 996.984 498.919 996.876 498.937 996.759C499.189 995.4 499.379 994.041 499.506 992.71C499.506 992.629 499.533 992.539 499.542 992.449C499.551 992.323 499.542 992.197 499.56 992.071C499.668 990.793 499.731 989.515 499.731 988.256C499.731 988.22 499.731 988.184 499.731 988.139C499.731 988.049 499.722 987.95 499.722 987.86C499.722 986.672 499.659 985.493 499.551 984.323C499.551 984.233 499.551 984.143 499.542 984.053C499.542 984.017 499.533 983.981 499.524 983.945C499.406 982.767 499.235 981.615 499.027 980.463C499.009 980.346 499 980.22 498.973 980.103C498.955 980.004 498.919 979.905 498.9 979.806C498.675 978.681 498.413 977.566 498.097 976.459C498.079 976.387 498.061 976.306 498.042 976.234C497.889 975.712 497.735 975.199 497.564 974.695L492.605 959.794C492.795 960.379 492.967 960.964 493.138 961.558C493.454 962.655 493.716 963.78 493.942 964.905C493.987 965.121 494.023 965.337 494.059 965.553C494.267 966.705 494.439 967.865 494.556 969.035C494.565 969.161 494.574 969.287 494.583 969.422C494.683 970.592 494.746 971.771 494.755 972.958C494.755 973.084 494.755 973.219 494.755 973.345C494.755 974.605 494.692 975.883 494.583 977.161C494.565 977.368 494.547 977.584 494.529 977.791C494.403 979.131 494.204 980.481 493.951 981.849C493.897 982.146 493.843 982.452 493.779 982.749C493.689 983.19 493.59 983.63 493.49 984.071C493.4 984.476 493.301 984.881 493.201 985.286C493.093 985.727 492.967 986.168 492.84 986.618C492.732 987.005 492.614 987.401 492.497 987.788C492.307 988.4 492.108 989.002 491.901 989.614C491.792 989.938 491.684 990.262 491.567 990.586C491.296 991.333 491.007 992.08 490.7 992.827C490.618 993.016 490.555 993.205 490.474 993.394C490.239 993.96 489.977 994.527 489.724 995.085C489.589 995.391 489.462 995.688 489.318 995.994C488.902 996.867 488.469 997.74 488.017 998.613C487.52 999.557 487.005 1000.48 486.464 1001.41C486.391 1001.53 486.319 1001.65 486.247 1001.76C485.687 1002.72 485.091 1003.65 484.486 1004.59C484.269 1004.91 484.052 1005.24 483.826 1005.57C483.32 1006.32 482.806 1007.05 482.273 1007.78C482.038 1008.11 481.812 1008.43 481.568 1008.74C480.9 1009.64 480.213 1010.52 479.509 1011.39C479.41 1011.52 479.319 1011.63 479.22 1011.76C478.407 1012.75 477.567 1013.72 476.709 1014.67C476.456 1014.95 476.203 1015.22 475.95 1015.5C475.309 1016.2 474.659 1016.89 473.991 1017.57C473.692 1017.88 473.394 1018.18 473.087 1018.49C472.365 1019.21 471.633 1019.91 470.893 1020.61C470.667 1020.83 470.45 1021.05 470.215 1021.25C469.249 1022.14 468.255 1023.02 467.235 1023.89C466.991 1024.1 466.738 1024.29 466.494 1024.5C465.699 1025.17 464.895 1025.82 464.083 1026.47C463.766 1026.72 463.45 1026.97 463.125 1027.22C461.897 1028.17 460.65 1029.11 459.377 1030.02C459.359 1030.03 459.35 1030.04 459.332 1030.05C458.04 1030.97 456.713 1031.86 455.376 1032.73C455.105 1032.91 454.834 1033.09 454.563 1033.26C452.468 1034.6 450.309 1035.89 448.114 1037.13C447.979 1037.21 447.834 1037.29 447.699 1037.36C445.757 1038.44 443.77 1039.46 441.756 1040.45C441.602 1040.54 441.44 1040.62 441.286 1040.69C439.516 1041.54 437.718 1042.36 435.903 1043.15C435.623 1043.26 435.352 1043.39 435.072 1043.51C433.419 1044.21 431.739 1044.87 430.05 1045.51C429.725 1045.64 429.391 1045.75 429.057 1045.88C427.386 1046.49 425.706 1047.09 424.008 1047.64C423.918 1047.67 423.827 1047.7 423.737 1047.73C422.138 1048.24 420.531 1048.72 418.923 1049.17C418.58 1049.27 418.237 1049.37 417.902 1049.46C416.268 1049.91 414.624 1050.33 412.971 1050.71C412.664 1050.78 412.366 1050.85 412.059 1050.92C410.505 1051.27 408.952 1051.59 407.398 1051.89C407.173 1051.94 406.947 1051.98 406.721 1052.03C404.987 1052.34 403.253 1052.62 401.519 1052.86C401.139 1052.92 400.751 1052.97 400.372 1053.03C398.764 1053.24 397.165 1053.43 395.558 1053.58C394.636 1053.67 393.706 1053.71 392.785 1053.77C391.412 1053.87 390.039 1053.97 388.675 1054.02C386.986 1054.08 385.297 1054.11 383.608 1054.11C383.283 1054.11 382.967 1054.1 382.642 1054.09C381.179 1054.07 379.716 1054.01 378.261 1053.93C377.711 1053.9 377.151 1053.87 376.6 1053.84C374.766 1053.71 372.942 1053.55 371.126 1053.33C370.178 1053.21 369.266 1053.06 368.344 1052.92C367.532 1052.8 366.71 1052.69 365.915 1052.56C365.021 1052.4 364.154 1052.21 363.278 1052.03C362.51 1051.87 361.724 1051.73 360.965 1051.56C360.089 1051.36 359.258 1051.12 358.409 1050.89C357.687 1050.7 356.946 1050.53 356.242 1050.33C355.393 1050.08 354.589 1049.79 353.767 1049.52C353.099 1049.31 352.403 1049.1 351.753 1048.87C350.949 1048.58 350.19 1048.26 349.405 1047.95C348.763 1047.7 348.113 1047.46 347.49 1047.2C346.74 1046.88 346.027 1046.53 345.304 1046.19C344.699 1045.9 344.067 1045.64 343.471 1045.33C342.739 1044.96 342.044 1044.56 341.339 1044.16C340.797 1043.87 340.228 1043.58 339.704 1043.27C339 1042.86 338.35 1042.42 337.672 1041.98C337.175 1041.65 336.661 1041.35 336.173 1041.02C335.541 1040.59 334.954 1040.12 334.357 1039.67C333.879 1039.31 333.373 1038.97 332.912 1038.59C332.325 1038.12 331.792 1037.63 331.232 1037.14C330.79 1036.76 330.329 1036.39 329.905 1036C329.336 1035.47 328.821 1034.92 328.288 1034.37C327.918 1033.99 327.52 1033.63 327.168 1033.25C326.644 1032.67 326.166 1032.07 325.669 1031.47C325.353 1031.1 325.009 1030.73 324.711 1030.34C324.251 1029.76 323.844 1029.14 323.42 1028.54C323.131 1028.13 322.806 1027.72 322.526 1027.3C322.083 1026.62 321.695 1025.93 321.297 1025.24C321.081 1024.86 320.837 1024.5 320.629 1024.12C320.195 1023.31 319.816 1022.49 319.437 1021.66C319.31 1021.37 319.148 1021.1 319.03 1020.81C318.543 1019.69 318.109 1018.54 317.721 1017.39L322.679 1032.29C323.068 1033.45 323.501 1034.6 323.989 1035.71C324.115 1036 324.269 1036.27 324.395 1036.56C324.775 1037.39 325.154 1038.21 325.587 1039.02C325.795 1039.4 326.039 1039.77 326.256 1040.14C326.653 1040.83 327.042 1041.53 327.484 1042.2C327.764 1042.62 328.08 1043.03 328.378 1043.44C328.803 1044.04 329.209 1044.66 329.67 1045.24C329.986 1045.65 330.338 1046.03 330.672 1046.43C331.151 1047.01 331.612 1047.59 332.127 1048.15C332.497 1048.55 332.912 1048.93 333.301 1049.33C333.816 1049.85 334.312 1050.39 334.863 1050.9C335.288 1051.3 335.748 1051.67 336.191 1052.04C336.742 1052.53 337.284 1053.03 337.871 1053.49C338.331 1053.86 338.837 1054.21 339.316 1054.57C339.921 1055.02 340.508 1055.49 341.131 1055.92C341.637 1056.27 342.179 1056.59 342.703 1056.93C343.353 1057.34 343.976 1057.78 344.654 1058.17C345.223 1058.51 345.819 1058.81 346.406 1059.13C347.074 1059.5 347.734 1059.88 348.429 1060.23C349.034 1060.54 349.676 1060.81 350.29 1061.1C351.003 1061.43 351.708 1061.78 352.448 1062.1C353.099 1062.37 353.785 1062.62 354.444 1062.88C355.194 1063.18 355.926 1063.48 356.702 1063.76C357.407 1064.01 358.138 1064.23 358.861 1064.46C359.638 1064.71 360.396 1064.98 361.191 1065.22C361.923 1065.43 362.69 1065.6 363.431 1065.8C364.253 1066.02 365.066 1066.25 365.915 1066.45C366.692 1066.63 367.495 1066.77 368.29 1066.94C369.148 1067.11 369.988 1067.31 370.864 1067.46C371.695 1067.6 372.562 1067.71 373.411 1067.84C374.26 1067.96 375.1 1068.11 375.967 1068.21C376.004 1068.21 376.049 1068.22 376.085 1068.23C377.9 1068.45 379.725 1068.61 381.558 1068.74C382.109 1068.77 382.669 1068.8 383.22 1068.83C383.934 1068.86 384.647 1068.93 385.37 1068.94C386.11 1068.97 386.86 1068.97 387.609 1068.98C387.935 1068.98 388.251 1069 388.576 1069C390.039 1069.01 391.502 1069 392.974 1068.95C393.2 1068.95 393.426 1068.92 393.643 1068.92C395.016 1068.86 396.388 1068.77 397.752 1068.67C398.403 1068.63 399.053 1068.61 399.703 1068.56C399.974 1068.53 400.254 1068.51 400.525 1068.48C402.133 1068.33 403.74 1068.14 405.339 1067.93C405.538 1067.9 405.736 1067.88 405.935 1067.85C406.116 1067.83 406.306 1067.79 406.486 1067.76C408.22 1067.52 409.963 1067.24 411.689 1066.93C411.752 1066.92 411.815 1066.91 411.878 1066.9C412.041 1066.87 412.203 1066.83 412.375 1066.8C413.937 1066.5 415.491 1066.18 417.035 1065.83C417.234 1065.78 417.433 1065.75 417.632 1065.7C417.74 1065.68 417.839 1065.65 417.948 1065.62C419.6 1065.24 421.244 1064.82 422.879 1064.37C423.015 1064.34 423.159 1064.3 423.295 1064.26C423.502 1064.21 423.701 1064.14 423.9 1064.08C425.516 1063.63 427.124 1063.15 428.714 1062.64C428.786 1062.62 428.858 1062.59 428.921 1062.57C428.939 1062.57 428.957 1062.55 428.976 1062.55C430.674 1062.01 432.353 1061.41 434.024 1060.79C434.214 1060.72 434.404 1060.66 434.593 1060.59C434.738 1060.54 434.873 1060.48 435.018 1060.42C436.707 1059.78 438.387 1059.12 440.04 1058.42C440.157 1058.37 440.274 1058.33 440.392 1058.28C440.554 1058.21 440.717 1058.13 440.88 1058.06C442.695 1057.27 444.492 1056.46 446.263 1055.6C446.317 1055.57 446.371 1055.55 446.425 1055.53C446.534 1055.47 446.633 1055.42 446.732 1055.36C448.746 1054.38 450.733 1053.35 452.675 1052.27C452.729 1052.24 452.784 1052.22 452.838 1052.19C452.928 1052.14 453.009 1052.08 453.091 1052.04C455.294 1050.8 457.444 1049.52 459.549 1048.17C459.657 1048.1 459.765 1048.04 459.874 1047.98C460.036 1047.87 460.199 1047.75 460.361 1047.65C461.707 1046.78 463.035 1045.89 464.326 1044.97C464.335 1044.97 464.353 1044.95 464.363 1044.94C465.645 1044.04 466.891 1043.09 468.12 1042.15C468.273 1042.02 468.445 1041.91 468.598 1041.79C468.761 1041.66 468.915 1041.53 469.068 1041.4C469.881 1040.75 470.685 1040.09 471.48 1039.43C471.724 1039.22 471.976 1039.02 472.22 1038.82C473.232 1037.95 474.225 1037.07 475.201 1036.18C475.427 1035.97 475.652 1035.76 475.878 1035.54C476.628 1034.84 477.359 1034.14 478.073 1033.42C478.38 1033.11 478.678 1032.81 478.976 1032.5C479.644 1031.82 480.295 1031.12 480.936 1030.43C481.189 1030.15 481.451 1029.88 481.695 1029.6C482.553 1028.64 483.402 1027.67 484.206 1026.69C484.305 1026.57 484.395 1026.44 484.495 1026.32C485.199 1025.45 485.886 1024.56 486.554 1023.67C486.789 1023.36 487.024 1023.03 487.258 1022.71C487.791 1021.98 488.306 1021.24 488.812 1020.5C489.029 1020.17 489.254 1019.85 489.471 1019.52C490.085 1018.58 490.672 1017.64 491.232 1016.69C491.287 1016.59 491.359 1016.49 491.413 1016.39C491.422 1016.38 491.431 1016.36 491.449 1016.33C491.991 1015.4 492.506 1014.47 493.003 1013.53C493.463 1012.66 493.897 1011.79 494.303 1010.91C494.448 1010.61 494.574 1010.3 494.71 1010C494.963 1009.44 495.224 1008.87 495.459 1008.31C495.468 1008.29 495.486 1008.26 495.495 1008.24C495.568 1008.08 495.622 1007.91 495.685 1007.75C495.992 1007 496.281 1006.25 496.552 1005.51C496.67 1005.18 496.778 1004.85 496.886 1004.52C497.094 1003.91 497.293 1003.31 497.482 1002.71C497.528 1002.55 497.591 1002.4 497.627 1002.25C497.699 1002 497.753 1001.77 497.817 1001.53C497.943 1001.09 498.061 1000.65 498.178 1000.2C498.277 999.791 498.377 999.377 498.467 998.973L498.476 998.982Z" fill="url(#paint9_linear_2077_493)"/>
<path d="M439.848 923.786C431.834 922.814 423.613 922.76 415.41 923.534C376.76 927.162 338.409 949.004 322.905 978.516C304.096 1014.29 325.941 1047.79 371.737 1053.34C379.751 1054.31 387.972 1054.37 396.175 1053.59C434.816 1049.96 473.158 1028.12 488.68 998.61C507.489 962.841 485.617 929.341 439.848 923.786Z" fill="url(#paint10_linear_2077_493)"/>
<path d="M493.843 982.496C493.843 982.496 493.709 983.255 493.467 984.674C493.181 986.083 492.751 988.16 491.928 990.721C491.114 993.283 489.951 996.348 488.314 999.715C487.429 1001.35 486.48 1003.1 485.478 1004.94C484.405 1006.73 483.117 1008.54 481.855 1010.48C480.478 1012.32 478.984 1014.2 477.445 1016.14C475.763 1017.95 474.117 1019.93 472.248 1021.77C470.333 1023.56 468.482 1025.54 466.326 1027.26C465.27 1028.15 464.205 1029.05 463.132 1029.95C462.032 1030.82 460.869 1031.64 459.724 1032.49C455.152 1035.93 450.071 1038.94 444.847 1041.84C439.524 1044.55 434.031 1047.17 428.306 1049.19C422.626 1051.32 416.748 1052.83 410.942 1054.17C405.101 1055.33 399.295 1056.19 393.641 1056.61C382.307 1057.41 371.697 1056.28 362.868 1054.17C354.012 1052.1 347.106 1048.77 342.561 1046.09C340.271 1044.77 338.598 1043.5 337.444 1042.68C336.326 1041.81 335.727 1041.34 335.727 1041.34C335.727 1041.34 336.344 1041.77 337.507 1042.59C338.697 1043.36 340.432 1044.49 342.758 1045.73C347.374 1048.25 354.361 1051.14 363.127 1052.99C371.867 1054.9 382.388 1055.61 393.516 1054.75C399.089 1054.29 404.797 1053.39 410.54 1052.21C416.247 1050.84 422.017 1049.3 427.599 1047.16C433.253 1045.23 438.674 1042.68 443.943 1040.06C449.114 1037.25 454.141 1034.32 458.668 1030.97C459.804 1030.14 460.949 1029.35 462.05 1028.5C463.123 1027.63 464.188 1026.76 465.234 1025.91C467.399 1024.27 469.26 1022.37 471.192 1020.65C473.08 1018.88 474.735 1016.98 476.443 1015.23C478 1013.36 479.521 1011.55 480.916 1009.77C482.204 1007.91 483.475 1006.17 484.62 1004.44C485.684 1002.65 486.686 1000.95 487.634 999.358C489.379 996.092 490.649 993.109 491.553 990.602C492.456 988.086 493.02 986.064 493.369 984.664C493.691 983.265 493.861 982.514 493.861 982.514L493.843 982.496Z" fill="url(#paint11_linear_2077_493)"/>
<g style="mix-blend-mode:screen">
<path d="M322.219 979.648C337.636 949.872 375.772 927.835 414.195 924.175C422.353 923.393 430.528 923.448 438.497 924.429C476.157 929.062 497.538 952.997 493.208 981.565C497.951 952.715 476.534 928.462 438.604 923.793C430.636 922.812 422.461 922.758 414.303 923.539C375.871 927.199 337.734 949.236 322.318 979.012C319.084 985.243 317.063 991.411 316.155 997.37C317.108 991.602 319.093 985.661 322.21 979.648H322.219Z" fill="url(#paint12_linear_2077_493)"/>
</g>
<defs>
<filter id="filter0_f_2077_493" x="-52.5768" y="4291.41" width="141.168" height="99.4475" filterUnits="userSpaceOnUse" color-interpolation-filters="sRGB">
<feFlood flood-opacity="0" result="BackgroundImageFix"/>
<feBlend mode="normal" in="SourceGraphic" in2="BackgroundImageFix" result="shape"/>
<feGaussianBlur stdDeviation="6.7957" result="effect1_foregroundBlur_2077_493"/>
</filter>
<filter id="filter1_f_2077_493" x="-30.9713" y="4346.54" width="119.563" height="108.388" filterUnits="userSpaceOnUse" color-interpolation-filters="sRGB">
<feFlood flood-opacity="0" result="BackgroundImageFix"/>
<feBlend mode="normal" in="SourceGraphic" in2="BackgroundImageFix" result="shape"/>
<feGaussianBlur stdDeviation="6.7957" result="effect1_foregroundBlur_2077_493"/>
</filter>
<filter id="filter2_f_2077_493" x="-87.5914" y="4308.54" width="118.818" height="146.383" filterUnits="userSpaceOnUse" color-interpolation-filters="sRGB">
<feFlood flood-opacity="0" result="BackgroundImageFix"/>
<feBlend mode="normal" in="SourceGraphic" in2="BackgroundImageFix" result="shape"/>
<feGaussianBlur stdDeviation="6.7957" result="effect1_foregroundBlur_2077_493"/>
</filter>
<filter id="filter3_f_2077_493" x="98.2687" y="2431.27" width="707.876" height="693.661" filterUnits="userSpaceOnUse" color-interpolation-filters="sRGB">
<feFlood flood-opacity="0" result="BackgroundImageFix"/>
<feBlend mode="normal" in="SourceGraphic" in2="BackgroundImageFix" result="shape"/>
<feGaussianBlur stdDeviation="54.3656" result="effect1_foregroundBlur_2077_493"/>
</filter>
<filter id="filter4_f_2077_493" x="-256.591" y="5296.41" width="366.183" height="366.183" filterUnits="userSpaceOnUse" color-interpolation-filters="sRGB">
<feFlood flood-opacity="0" result="BackgroundImageFix"/>
<feBlend mode="normal" in="SourceGraphic" in2="BackgroundImageFix" result="shape"/>
<feGaussianBlur stdDeviation="6.7957" result="effect1_foregroundBlur_2077_493"/>
</filter>
<filter id="filter5_f_2077_493" x="-699.957" y="0.0429535" width="879.914" height="879.914" filterUnits="userSpaceOnUse" color-interpolation-filters="sRGB">
<feFlood flood-opacity="0" result="BackgroundImageFix"/>
<feBlend mode="normal" in="SourceGraphic" in2="BackgroundImageFix" result="shape"/>
<feGaussianBlur stdDeviation="33.9785" result="effect1_foregroundBlur_2077_493"/>
</filter>
<linearGradient id="paint0_linear_2077_493" x1="57.2308" y1="6026.38" x2="-122.857" y2="6074.08" gradientUnits="userSpaceOnUse">
<stop stop-color="#F4EEF7"/>
<stop offset="0.28" stop-color="#ECEAF3"/>
<stop offset="0.54" stop-color="#E0E4EE"/>
<stop offset="1" stop-color="#BCC1CB"/>
</linearGradient>
<linearGradient id="paint1_linear_2077_493" x1="53.5338" y1="6190.51" x2="-22.381" y2="6376.95" gradientUnits="userSpaceOnUse">
<stop stop-color="#F4EEF7"/>
<stop offset="0.23" stop-color="#ECEAF3"/>
<stop offset="0.44" stop-color="#E0E4EE"/>
<stop offset="0.62" stop-color="#D9DEE8"/>
<stop offset="0.86" stop-color="#C8CDD7"/>
<stop offset="1" stop-color="#BCC1CB"/>
</linearGradient>
<linearGradient id="paint2_linear_2077_493" x1="-142.596" y1="6187.44" x2="-153.308" y2="6592.77" gradientUnits="userSpaceOnUse">
<stop stop-color="#F4EEF7"/>
<stop offset="0.28" stop-color="#ECEAF3"/>
<stop offset="0.54" stop-color="#E0E4EE"/>
<stop offset="1" stop-color="#BCC1CB"/>
</linearGradient>
<linearGradient id="paint3_linear_2077_493" x1="-139.929" y1="4195.12" x2="-168.791" y2="4445.2" gradientUnits="userSpaceOnUse">
<stop stop-color="#FAF9FC"/>
<stop offset="0.4596" stop-color="#F3F4F9"/>
<stop offset="0.5376" stop-color="#F2F3F8"/>
<stop offset="0.6432" stop-color="#ECEEF4"/>
<stop offset="0.7872" stop-color="#DDDFE7"/>
<stop offset="0.9525" stop-color="#C4C9D2"/>
<stop offset="1" stop-color="#BCC1CB"/>
</linearGradient>
<linearGradient id="paint4_linear_2077_493" x1="-92.1864" y1="4244.41" x2="-98.1671" y2="4466.53" gradientUnits="userSpaceOnUse">
<stop stop-color="#F4EEF7"/>
<stop offset="0.1952" stop-color="#EDEBF4"/>
<stop offset="0.4375" stop-color="#E0E4EE"/>
<stop offset="1" stop-color="#BCC1CB"/>
</linearGradient>
<linearGradient id="paint5_linear_2077_493" x1="-14.5719" y1="4118.79" x2="-250.195" y2="4301.26" gradientUnits="userSpaceOnUse">
<stop stop-color="#F4EEF7"/>
<stop offset="0.2399" stop-color="#EDEBF4"/>
<stop offset="0.5376" stop-color="#E0E4EE"/>
<stop offset="1" stop-color="#BCC1CB"/>
</linearGradient>
<linearGradient id="paint6_linear_2077_493" x1="105.05" y1="3968.18" x2="446.401" y2="4374.57" gradientUnits="userSpaceOnUse">
<stop stop-color="#F4EEF7"/>
<stop offset="0.28" stop-color="#ECEAF3"/>
<stop offset="0.54" stop-color="#E0E4EE"/>
<stop offset="1" stop-color="#BCC1CB"/>
</linearGradient>
<linearGradient id="paint7_linear_2077_493" x1="228.829" y1="4147.41" x2="225.546" y2="4284.56" gradientUnits="userSpaceOnUse">
<stop stop-color="#F4EEF7"/>
<stop offset="0.23" stop-color="#ECEAF3"/>
<stop offset="0.44" stop-color="#E0E4EE"/>
<stop offset="1" stop-color="#BCC1CB"/>
</linearGradient>
<linearGradient id="paint8_linear_2077_493" x1="301.142" y1="3888.74" x2="141.684" y2="4315.63" gradientUnits="userSpaceOnUse">
<stop stop-color="#F9F8FD"/>
<stop offset="0.54" stop-color="#F2F3F8"/>
<stop offset="0.65" stop-color="#EBEDF2"/>
<stop offset="0.81" stop-color="#DADDE4"/>
<stop offset="0.99" stop-color="#BDC2CC"/>
<stop offset="1" stop-color="#BCC1CB"/>
</linearGradient>
<linearGradient id="paint9_linear_2077_493" x1="376.697" y1="819.762" x2="268.054" y2="1083.26" gradientUnits="userSpaceOnUse">
<stop stop-color="#F4EEF7"/>
<stop offset="0.23" stop-color="#ECEAF3"/>
<stop offset="0.44" stop-color="#E0E4EE"/>
<stop offset="0.62" stop-color="#D9DEE8"/>
<stop offset="0.86" stop-color="#C8CDD7"/>
<stop offset="1" stop-color="#BCC1CB"/>
</linearGradient>
<linearGradient id="paint10_linear_2077_493" x1="282.804" y1="820.78" x2="211.811" y2="1099.48" gradientUnits="userSpaceOnUse">
<stop stop-color="#F9F8FD"/>
<stop offset="0.54" stop-color="#F2F3F8"/>
<stop offset="0.65" stop-color="#EBEDF2"/>
<stop offset="0.81" stop-color="#DADDE4"/>
<stop offset="0.99" stop-color="#BDC2CC"/>
<stop offset="1" stop-color="#BCC1CB"/>
</linearGradient>
<linearGradient id="paint11_linear_2077_493" x1="314.844" y1="1037.87" x2="418.236" y2="1117.88" gradientUnits="userSpaceOnUse">
<stop stop-color="white" stop-opacity="0.1"/>
<stop offset="0.29" stop-color="white" stop-opacity="0.68"/>
<stop offset="0.46" stop-color="white"/>
<stop offset="0.51" stop-color="white" stop-opacity="0.96"/>
<stop offset="0.59" stop-color="white" stop-opacity="0.84"/>
<stop offset="0.69" stop-color="white" stop-opacity="0.66"/>
<stop offset="0.81" stop-color="white" stop-opacity="0.4"/>
<stop offset="0.95" stop-color="white" stop-opacity="0.08"/>
<stop offset="0.98" stop-color="white" stop-opacity="0.01"/>
</linearGradient>
<linearGradient id="paint12_linear_2077_493" x1="-12.1475" y1="830.916" x2="-40.0491" y2="1230.17" gradientUnits="userSpaceOnUse">
<stop stop-color="#F4EEF7"/>
<stop offset="0.28" stop-color="#ECEAF3"/>
<stop offset="0.54" stop-color="#E0E4EE"/>
<stop offset="1" stop-color="#BCC1CB"/>
</linearGradient>
</defs>
</svg>
