<svg width="2205" height="450" viewBox="0 0 2205 450" fill="none" xmlns="http://www.w3.org/2000/svg">
<g filter="url(#filter0_f_2090_535)">
<path d="M522.588 176L477.495 189.316L521.906 232.745L567 219.429L522.588 176Z" fill="url(#paint0_linear_2090_535)"/>
</g>
<g filter="url(#filter1_f_2090_535)">
<path d="M521.947 232.666L494.46 283.055L539.514 269.679L567 219.29L521.947 232.666Z" fill="url(#paint1_linear_2090_535)"/>
</g>
<g filter="url(#filter2_f_2090_535)">
<path d="M477.57 189.455L450 239.698L494.461 283.055L521.955 232.888L477.57 189.455Z" fill="url(#paint2_linear_2090_535)"/>
</g>
<g filter="url(#filter3_f_2090_535)">
<path d="M1902.77 14L1835.82 33.7706L1901.76 98.2497L1968.71 78.4791L1902.77 14Z" fill="url(#paint3_linear_2090_535)"/>
</g>
<g filter="url(#filter4_f_2090_535)">
<path d="M1901.82 98.1323L1861.01 172.945L1927.9 153.085L1968.71 78.2726L1901.82 98.1323Z" fill="url(#paint4_linear_2090_535)"/>
</g>
<g filter="url(#filter5_f_2090_535)">
<path d="M1835.93 33.9764L1795 108.572L1861.01 172.945L1901.83 98.4614L1835.93 33.9764Z" fill="url(#paint5_linear_2090_535)"/>
</g>
<path d="M83 319.966L69.854 330L0 183.034L13.146 173L83 319.966V319.966Z" fill="url(#paint6_linear_2090_535)"/>
<path d="M230 350.985L216.943 361L70 330.015L83.0665 320L230 350.985V350.985Z" fill="url(#paint7_linear_2090_535)"/>
<path d="M161.365 204.04L14 173L83.6353 319.96L231 351L161.365 204.04V204.04Z" fill="url(#paint8_linear_2090_535)"/>
<g filter="url(#filter6_f_2090_535)">
<path d="M2183.99 329.797C2184.15 329.09 2184.3 328.384 2184.45 327.692C2184.51 327.389 2184.59 327.086 2184.65 326.783C2184.68 326.596 2184.7 326.423 2184.72 326.235C2185.13 324.058 2185.43 321.881 2185.64 319.747C2185.64 319.617 2185.68 319.473 2185.7 319.328C2185.71 319.126 2185.7 318.925 2185.72 318.723C2185.9 316.675 2186 314.628 2186 312.609C2186 312.551 2186 312.494 2186 312.421C2186 312.277 2185.99 312.119 2185.99 311.974C2185.99 310.071 2185.88 308.182 2185.71 306.308C2185.71 306.163 2185.71 306.019 2185.7 305.875C2185.7 305.817 2185.68 305.76 2185.67 305.702C2185.48 303.813 2185.2 301.967 2184.87 300.122C2184.84 299.934 2184.83 299.732 2184.78 299.545C2184.75 299.386 2184.7 299.228 2184.67 299.069C2184.3 297.267 2183.88 295.479 2183.38 293.705C2183.35 293.59 2183.32 293.46 2183.29 293.344C2183.04 292.508 2182.8 291.686 2182.52 290.879L2174.57 267C2174.87 267.937 2175.15 268.875 2175.42 269.826C2175.93 271.585 2176.35 273.388 2176.71 275.19C2176.78 275.536 2176.84 275.882 2176.9 276.228C2177.23 278.074 2177.51 279.934 2177.7 281.809C2177.71 282.011 2177.73 282.213 2177.74 282.429C2177.9 284.303 2178 286.192 2178.02 288.096C2178.02 288.298 2178.02 288.514 2178.02 288.716C2178.02 290.734 2177.91 292.782 2177.74 294.83C2177.71 295.161 2177.68 295.507 2177.65 295.839C2177.45 297.987 2177.13 300.15 2176.73 302.342C2176.64 302.818 2176.55 303.308 2176.45 303.784C2176.31 304.491 2176.15 305.197 2175.99 305.904C2175.84 306.553 2175.68 307.202 2175.52 307.85C2175.35 308.557 2175.15 309.264 2174.94 309.985C2174.77 310.605 2174.58 311.239 2174.39 311.859C2174.09 312.84 2173.77 313.806 2173.44 314.786C2173.26 315.305 2173.09 315.824 2172.9 316.344C2172.47 317.54 2172 318.737 2171.51 319.934C2171.38 320.237 2171.28 320.54 2171.15 320.842C2170.77 321.751 2170.35 322.659 2169.95 323.553C2169.73 324.044 2169.53 324.519 2169.29 325.01C2168.63 326.408 2167.93 327.807 2167.21 329.206C2166.41 330.72 2165.58 332.205 2164.71 333.69C2164.6 333.878 2164.48 334.065 2164.37 334.253C2163.47 335.781 2162.51 337.281 2161.54 338.78C2161.19 339.299 2160.85 339.833 2160.48 340.352C2159.67 341.549 2158.85 342.731 2157.99 343.899C2157.61 344.418 2157.25 344.937 2156.86 345.442C2155.79 346.87 2154.69 348.283 2153.56 349.681C2153.4 349.883 2153.25 350.071 2153.09 350.273C2151.79 351.859 2150.44 353.416 2149.07 354.944C2148.66 355.391 2148.25 355.824 2147.85 356.271C2146.82 357.381 2145.78 358.492 2144.7 359.588C2144.23 360.078 2143.75 360.568 2143.25 361.058C2142.1 362.212 2140.92 363.337 2139.73 364.461C2139.37 364.807 2139.02 365.153 2138.65 365.485C2137.1 366.913 2135.5 368.326 2133.87 369.71C2133.47 370.042 2133.07 370.359 2132.68 370.691C2131.4 371.758 2130.11 372.81 2128.81 373.848C2128.3 374.252 2127.79 374.642 2127.27 375.045C2125.3 376.574 2123.3 378.073 2121.26 379.53C2121.23 379.544 2121.22 379.573 2121.19 379.587C2119.11 381.058 2116.98 382.486 2114.84 383.884C2114.41 384.173 2113.97 384.447 2113.54 384.721C2110.17 386.869 2106.71 388.946 2103.19 390.921C2102.97 391.051 2102.74 391.181 2102.52 391.296C2099.41 393.026 2096.22 394.67 2092.99 396.256C2092.74 396.386 2092.48 396.516 2092.24 396.631C2089.4 398.001 2086.51 399.313 2083.6 400.568C2083.15 400.755 2082.72 400.957 2082.27 401.145C2079.62 402.269 2076.92 403.336 2074.21 404.36C2073.69 404.562 2073.15 404.749 2072.62 404.951C2069.94 405.932 2067.24 406.884 2064.52 407.778C2064.37 407.821 2064.23 407.864 2064.08 407.907C2061.52 408.729 2058.94 409.493 2056.36 410.229C2055.81 410.387 2055.26 410.546 2054.72 410.69C2052.1 411.411 2049.46 412.075 2046.81 412.695C2046.32 412.81 2045.84 412.911 2045.35 413.026C2042.85 413.589 2040.36 414.108 2037.87 414.584C2037.51 414.656 2037.15 414.728 2036.78 414.8C2034 415.304 2031.22 415.751 2028.44 416.141C2027.83 416.227 2027.21 416.314 2026.6 416.4C2024.02 416.746 2021.45 417.049 2018.87 417.294C2017.4 417.439 2015.9 417.496 2014.43 417.597C2012.22 417.756 2010.02 417.914 2007.83 417.987C2005.12 418.087 2002.41 418.145 1999.7 418.131C1999.18 418.131 1998.67 418.116 1998.15 418.102C1995.81 418.073 1993.46 417.972 1991.13 417.842C1990.24 417.799 1989.34 417.756 1988.46 417.698C1985.52 417.496 1982.59 417.237 1979.68 416.891C1978.16 416.703 1976.69 416.458 1975.22 416.227C1973.91 416.04 1972.59 415.867 1971.32 415.651C1969.88 415.405 1968.49 415.088 1967.09 414.8C1965.86 414.555 1964.59 414.324 1963.38 414.05C1961.97 413.733 1960.64 413.343 1959.28 412.983C1958.12 412.68 1956.93 412.406 1955.8 412.075C1954.44 411.685 1953.15 411.224 1951.83 410.791C1950.76 410.445 1949.64 410.113 1948.6 409.739C1947.31 409.277 1946.09 408.758 1944.83 408.268C1943.8 407.864 1942.76 407.489 1941.76 407.071C1940.56 406.552 1939.41 405.989 1938.25 405.442C1937.28 404.98 1936.27 404.562 1935.31 404.072C1934.14 403.481 1933.02 402.832 1931.89 402.197C1931.02 401.721 1930.11 401.26 1929.27 400.77C1928.14 400.106 1927.09 399.4 1926.01 398.693C1925.21 398.174 1924.39 397.698 1923.6 397.165C1922.59 396.473 1921.65 395.723 1920.69 395.002C1919.92 394.425 1919.11 393.877 1918.37 393.272C1917.43 392.522 1916.58 391.729 1915.68 390.95C1914.97 390.33 1914.23 389.739 1913.55 389.119C1912.63 388.268 1911.81 387.388 1910.95 386.509C1910.36 385.903 1909.72 385.326 1909.16 384.706C1908.32 383.783 1907.55 382.817 1906.75 381.866C1906.24 381.26 1905.69 380.669 1905.22 380.049C1904.48 379.112 1903.82 378.131 1903.14 377.165C1902.68 376.502 1902.16 375.853 1901.71 375.175C1901 374.094 1900.38 372.983 1899.74 371.873C1899.39 371.267 1899 370.691 1898.67 370.085C1897.97 368.787 1897.36 367.461 1896.75 366.134C1896.55 365.673 1896.29 365.24 1896.1 364.779C1895.32 362.976 1894.62 361.145 1894 359.299L1901.95 383.178C1902.58 385.038 1903.27 386.869 1904.06 388.657C1904.26 389.119 1904.51 389.551 1904.71 390.013C1905.32 391.339 1905.93 392.666 1906.62 393.964C1906.95 394.569 1907.35 395.16 1907.69 395.752C1908.33 396.862 1908.95 397.972 1909.66 399.054C1910.11 399.731 1910.62 400.38 1911.1 401.044C1911.78 402.01 1912.43 402.99 1913.17 403.928C1913.68 404.576 1914.24 405.196 1914.78 405.831C1915.55 406.754 1916.29 407.691 1917.11 408.585C1917.71 409.234 1918.37 409.84 1919 410.474C1919.82 411.31 1920.62 412.175 1921.5 412.997C1922.18 413.632 1922.92 414.223 1923.63 414.829C1924.52 415.607 1925.39 416.4 1926.33 417.15C1927.07 417.741 1927.88 418.304 1928.65 418.881C1929.62 419.601 1930.56 420.351 1931.56 421.043C1932.37 421.606 1933.24 422.11 1934.08 422.658C1935.12 423.322 1936.12 424.014 1937.21 424.648C1938.12 425.182 1939.08 425.672 1940.02 426.177C1941.09 426.768 1942.15 427.388 1943.27 427.95C1944.24 428.441 1945.27 428.873 1946.25 429.335C1947.4 429.868 1948.53 430.431 1949.71 430.935C1950.76 431.382 1951.86 431.772 1952.92 432.19C1954.12 432.666 1955.29 433.156 1956.54 433.603C1957.67 434.007 1958.84 434.353 1960 434.728C1961.25 435.131 1962.46 435.564 1963.74 435.939C1964.91 436.285 1966.15 436.559 1967.33 436.876C1968.65 437.222 1969.96 437.597 1971.32 437.914C1972.56 438.203 1973.85 438.433 1975.13 438.693C1976.51 438.967 1977.85 439.284 1979.26 439.529C1980.59 439.76 1981.98 439.933 1983.34 440.135C1984.71 440.337 1986.05 440.567 1987.45 440.74C1987.5 440.74 1987.58 440.755 1987.63 440.769C1990.55 441.115 1993.47 441.375 1996.41 441.577C1997.3 441.634 1998.2 441.678 1999.08 441.721C2000.23 441.779 2001.37 441.88 2002.53 441.908C2003.72 441.952 2004.92 441.952 2006.12 441.966C2006.64 441.966 2007.15 441.995 2007.67 441.995C2010.02 442.009 2012.37 441.995 2014.73 441.923C2015.09 441.923 2015.45 441.865 2015.8 441.865C2018 441.779 2020.21 441.634 2022.39 441.476C2023.44 441.404 2024.48 441.375 2025.52 441.288C2025.96 441.245 2026.41 441.216 2026.84 441.173C2029.42 440.928 2032 440.625 2034.57 440.279C2034.89 440.236 2035.2 440.207 2035.52 440.164C2035.81 440.12 2036.12 440.063 2036.41 440.02C2039.19 439.63 2041.99 439.183 2044.75 438.678C2044.85 438.664 2044.96 438.65 2045.06 438.635C2045.32 438.592 2045.58 438.52 2045.85 438.477C2048.36 438.001 2050.85 437.482 2053.33 436.919C2053.65 436.847 2053.97 436.79 2054.29 436.717C2054.46 436.674 2054.62 436.631 2054.79 436.588C2057.45 435.968 2060.08 435.304 2062.71 434.583C2062.92 434.526 2063.15 434.468 2063.37 434.41C2063.71 434.324 2064.02 434.208 2064.34 434.122C2066.94 433.387 2069.52 432.622 2072.07 431.8C2072.18 431.772 2072.3 431.728 2072.4 431.699C2072.43 431.699 2072.46 431.671 2072.49 431.671C2075.21 430.791 2077.91 429.839 2080.59 428.844C2080.89 428.729 2081.19 428.643 2081.5 428.527C2081.73 428.441 2081.95 428.34 2082.18 428.253C2084.89 427.229 2087.58 426.162 2090.24 425.038C2090.42 424.966 2090.61 424.893 2090.8 424.821C2091.06 424.706 2091.32 424.576 2091.58 424.461C2094.5 423.206 2097.38 421.909 2100.22 420.524C2100.31 420.481 2100.39 420.452 2100.48 420.409C2100.65 420.322 2100.81 420.236 2100.97 420.149C2104.2 418.563 2107.39 416.919 2110.51 415.189C2110.59 415.146 2110.68 415.103 2110.77 415.059C2110.91 414.987 2111.04 414.886 2111.17 414.814C2114.71 412.839 2118.16 410.777 2121.53 408.614C2121.71 408.513 2121.88 408.412 2122.06 408.311C2122.32 408.138 2122.58 407.951 2122.84 407.792C2125 406.393 2127.13 404.966 2129.2 403.495C2129.21 403.495 2129.24 403.466 2129.26 403.452C2131.32 401.995 2133.31 400.481 2135.29 398.967C2135.53 398.765 2135.81 398.592 2136.05 398.39C2136.31 398.189 2136.56 397.972 2136.81 397.77C2138.11 396.732 2139.4 395.68 2140.68 394.613C2141.07 394.281 2141.47 393.964 2141.86 393.632C2143.49 392.248 2145.08 390.835 2146.65 389.407C2147.01 389.075 2147.37 388.729 2147.73 388.383C2148.93 387.259 2150.11 386.134 2151.25 384.98C2151.75 384.49 2152.22 384 2152.7 383.51C2153.77 382.414 2154.82 381.303 2155.85 380.193C2156.25 379.746 2156.67 379.313 2157.06 378.866C2158.44 377.324 2159.8 375.766 2161.09 374.195C2161.25 374.007 2161.4 373.805 2161.56 373.603C2162.69 372.205 2163.79 370.792 2164.86 369.364C2165.24 368.859 2165.61 368.34 2165.99 367.821C2166.84 366.653 2167.67 365.471 2168.48 364.274C2168.83 363.755 2169.19 363.236 2169.54 362.702C2170.52 361.203 2171.47 359.703 2172.37 358.174C2172.45 358.016 2172.57 357.857 2172.65 357.699C2172.67 357.67 2172.68 357.641 2172.71 357.598C2173.58 356.112 2174.41 354.613 2175.21 353.113C2175.94 351.715 2176.64 350.316 2177.29 348.917C2177.52 348.427 2177.73 347.937 2177.94 347.461C2178.35 346.552 2178.77 345.644 2179.15 344.75C2179.16 344.707 2179.19 344.663 2179.2 344.635C2179.32 344.375 2179.41 344.101 2179.51 343.841C2180 342.645 2180.46 341.448 2180.9 340.251C2181.09 339.732 2181.26 339.198 2181.44 338.679C2181.77 337.699 2182.09 336.733 2182.39 335.767C2182.46 335.521 2182.57 335.276 2182.62 335.031C2182.74 334.642 2182.83 334.267 2182.93 333.878C2183.13 333.171 2183.32 332.465 2183.51 331.744C2183.67 331.095 2183.83 330.431 2183.97 329.782L2183.99 329.797Z" fill="url(#paint9_linear_2090_535)"/>
</g>
<g filter="url(#filter7_f_2090_535)">
<path d="M2090.02 209.265C2077.19 207.7 2064.03 207.613 2050.9 208.859C1989.02 214.698 1927.63 249.843 1902.81 297.332C1872.69 354.904 1907.67 408.797 1980.98 417.735C1993.81 419.3 2006.97 419.387 2020.11 418.141C2081.97 412.302 2143.35 377.157 2168.2 329.668C2198.31 272.11 2163.3 218.203 2090.02 209.265Z" fill="url(#paint10_linear_2090_535)"/>
</g>
<g filter="url(#filter8_f_2090_535)">
<path d="M2176.97 303C2176.97 303 2176.76 304.215 2176.37 306.484C2175.91 308.739 2175.22 312.062 2173.9 316.161C2172.59 320.261 2170.72 325.165 2168.09 330.552C2166.67 333.173 2165.15 335.969 2163.54 338.912C2161.81 341.781 2159.74 344.68 2157.72 347.784C2155.5 350.726 2153.1 353.728 2150.63 356.831C2147.93 359.73 2145.29 362.892 2142.28 365.835C2139.21 368.704 2136.24 371.881 2132.77 374.633C2131.08 376.054 2129.37 377.488 2127.64 378.938C2125.88 380.328 2124.01 381.631 2122.17 382.993C2114.83 388.497 2106.66 393.314 2098.27 397.955C2089.72 402.288 2080.9 406.49 2071.7 409.711C2062.58 413.122 2053.14 415.538 2043.81 417.69C2034.43 419.534 2025.11 420.91 2016.02 421.584C1997.82 422.872 1980.78 421.057 1966.6 417.69C1952.37 414.381 1941.28 409.052 1933.98 404.763C1930.3 402.64 1927.61 400.619 1925.76 399.302C1923.96 397.911 1923 397.164 1923 397.164C1923 397.164 1923.99 397.852 1925.86 399.155C1927.77 400.385 1930.56 402.201 1934.29 404.177C1941.71 408.218 1952.93 412.844 1967.01 415.801C1981.05 418.846 1997.95 419.988 2015.82 418.612C2024.78 417.88 2033.94 416.445 2043.17 414.557C2052.33 412.361 2061.6 409.901 2070.57 406.475C2079.65 403.386 2088.36 399.302 2096.82 395.115C2105.13 390.606 2113.2 385.921 2120.47 380.563C2122.3 379.23 2124.14 377.971 2125.9 376.61C2127.63 375.219 2129.34 373.828 2131.02 372.467C2134.5 369.846 2137.49 366.801 2140.59 364.049C2143.62 361.223 2146.28 358.178 2149.02 355.382C2151.52 352.381 2153.97 349.482 2156.21 346.642C2158.28 343.67 2160.32 340.874 2162.16 338.107C2163.87 335.252 2165.48 332.529 2167 329.981C2169.8 324.755 2171.84 319.982 2173.29 315.971C2174.74 311.945 2175.65 308.71 2176.21 306.47C2176.73 304.23 2177 303.029 2177 303.029L2176.97 303Z" fill="url(#paint11_linear_2090_535)"/>
</g>
<g style="mix-blend-mode:screen" filter="url(#filter9_f_2090_535)">
<path d="M1901.69 298.643C1926.33 250.998 1987.28 215.737 2048.68 209.879C2061.72 208.629 2074.79 208.717 2087.52 210.286C2147.71 217.699 2181.88 255.998 2174.96 301.71C2182.54 255.547 2148.31 216.74 2087.69 209.269C2074.96 207.699 2061.89 207.612 2048.86 208.862C1987.43 214.72 1926.49 249.981 1901.85 297.625C1896.68 307.596 1893.45 317.465 1892 327C1893.52 317.77 1896.69 308.265 1901.68 298.643H1901.69Z" fill="url(#paint12_linear_2090_535)"/>
</g>
<defs>
<filter id="filter0_f_2090_535" x="463.903" y="162.409" width="116.688" height="83.9278" filterUnits="userSpaceOnUse" color-interpolation-filters="sRGB">
<feFlood flood-opacity="0" result="BackgroundImageFix"/>
<feBlend mode="normal" in="SourceGraphic" in2="BackgroundImageFix" result="shape"/>
<feGaussianBlur stdDeviation="6.7957" result="effect1_foregroundBlur_2090_535"/>
</filter>
<filter id="filter1_f_2090_535" x="480.869" y="205.699" width="99.7229" height="90.9478" filterUnits="userSpaceOnUse" color-interpolation-filters="sRGB">
<feFlood flood-opacity="0" result="BackgroundImageFix"/>
<feBlend mode="normal" in="SourceGraphic" in2="BackgroundImageFix" result="shape"/>
<feGaussianBlur stdDeviation="6.7957" result="effect1_foregroundBlur_2090_535"/>
</filter>
<filter id="filter2_f_2090_535" x="436.409" y="175.863" width="99.1379" height="120.783" filterUnits="userSpaceOnUse" color-interpolation-filters="sRGB">
<feFlood flood-opacity="0" result="BackgroundImageFix"/>
<feBlend mode="normal" in="SourceGraphic" in2="BackgroundImageFix" result="shape"/>
<feGaussianBlur stdDeviation="6.7957" result="effect1_foregroundBlur_2090_535"/>
</filter>
<filter id="filter3_f_2090_535" x="1822.23" y="0.408591" width="160.071" height="111.432" filterUnits="userSpaceOnUse" color-interpolation-filters="sRGB">
<feFlood flood-opacity="0" result="BackgroundImageFix"/>
<feBlend mode="normal" in="SourceGraphic" in2="BackgroundImageFix" result="shape"/>
<feGaussianBlur stdDeviation="6.7957" result="effect1_foregroundBlur_2090_535"/>
</filter>
<filter id="filter4_f_2090_535" x="1847.42" y="64.6812" width="134.883" height="121.855" filterUnits="userSpaceOnUse" color-interpolation-filters="sRGB">
<feFlood flood-opacity="0" result="BackgroundImageFix"/>
<feBlend mode="normal" in="SourceGraphic" in2="BackgroundImageFix" result="shape"/>
<feGaussianBlur stdDeviation="6.7957" result="effect1_foregroundBlur_2090_535"/>
</filter>
<filter id="filter5_f_2090_535" x="1781.41" y="20.385" width="134.015" height="166.151" filterUnits="userSpaceOnUse" color-interpolation-filters="sRGB">
<feFlood flood-opacity="0" result="BackgroundImageFix"/>
<feBlend mode="normal" in="SourceGraphic" in2="BackgroundImageFix" result="shape"/>
<feGaussianBlur stdDeviation="6.7957" result="effect1_foregroundBlur_2090_535"/>
</filter>
<filter id="filter6_f_2090_535" x="1888.56" y="261.563" width="302.873" height="185.873" filterUnits="userSpaceOnUse" color-interpolation-filters="sRGB">
<feFlood flood-opacity="0" result="BackgroundImageFix"/>
<feBlend mode="normal" in="SourceGraphic" in2="BackgroundImageFix" result="shape"/>
<feGaussianBlur stdDeviation="2.71828" result="effect1_foregroundBlur_2090_535"/>
</filter>
<filter id="filter7_f_2090_535" x="1886.56" y="202.563" width="297.873" height="221.873" filterUnits="userSpaceOnUse" color-interpolation-filters="sRGB">
<feFlood flood-opacity="0" result="BackgroundImageFix"/>
<feBlend mode="normal" in="SourceGraphic" in2="BackgroundImageFix" result="shape"/>
<feGaussianBlur stdDeviation="2.71828" result="effect1_foregroundBlur_2090_535"/>
</filter>
<filter id="filter8_f_2090_535" x="1895.82" y="275.817" width="308.366" height="173.366" filterUnits="userSpaceOnUse" color-interpolation-filters="sRGB">
<feFlood flood-opacity="0" result="BackgroundImageFix"/>
<feBlend mode="normal" in="SourceGraphic" in2="BackgroundImageFix" result="shape"/>
<feGaussianBlur stdDeviation="13.5914" result="effect1_foregroundBlur_2090_535"/>
</filter>
<filter id="filter9_f_2090_535" x="1864.82" y="180.817" width="338.366" height="173.366" filterUnits="userSpaceOnUse" color-interpolation-filters="sRGB">
<feFlood flood-opacity="0" result="BackgroundImageFix"/>
<feBlend mode="normal" in="SourceGraphic" in2="BackgroundImageFix" result="shape"/>
<feGaussianBlur stdDeviation="13.5914" result="effect1_foregroundBlur_2090_535"/>
</filter>
<linearGradient id="paint0_linear_2090_535" x1="398.23" y1="89.7203" x2="375.566" y2="286.087" gradientUnits="userSpaceOnUse">
<stop stop-color="#FAF9FC"/>
<stop offset="0.4596" stop-color="#F3F4F9"/>
<stop offset="0.5376" stop-color="#F2F3F8"/>
<stop offset="0.6432" stop-color="#ECEEF4"/>
<stop offset="0.7872" stop-color="#DDDFE7"/>
<stop offset="0.9525" stop-color="#C4C9D2"/>
<stop offset="1" stop-color="#BCC1CB"/>
</linearGradient>
<linearGradient id="paint1_linear_2090_535" x1="435.72" y1="128.42" x2="431.023" y2="302.836" gradientUnits="userSpaceOnUse">
<stop stop-color="#F4EEF7"/>
<stop offset="0.1952" stop-color="#EDEBF4"/>
<stop offset="0.4375" stop-color="#E0E4EE"/>
<stop offset="1" stop-color="#BCC1CB"/>
</linearGradient>
<linearGradient id="paint2_linear_2090_535" x1="496.665" y1="29.7847" x2="311.645" y2="173.06" gradientUnits="userSpaceOnUse">
<stop stop-color="#F4EEF7"/>
<stop offset="0.2399" stop-color="#EDEBF4"/>
<stop offset="0.5376" stop-color="#E0E4EE"/>
<stop offset="1" stop-color="#BCC1CB"/>
</linearGradient>
<linearGradient id="paint3_linear_2090_535" x1="1718.14" y1="-114.1" x2="1684.49" y2="177.447" gradientUnits="userSpaceOnUse">
<stop stop-color="#FAF9FC"/>
<stop offset="0.4596" stop-color="#F3F4F9"/>
<stop offset="0.5376" stop-color="#F2F3F8"/>
<stop offset="0.6432" stop-color="#ECEEF4"/>
<stop offset="0.7872" stop-color="#DDDFE7"/>
<stop offset="0.9525" stop-color="#C4C9D2"/>
<stop offset="1" stop-color="#BCC1CB"/>
</linearGradient>
<linearGradient id="paint4_linear_2090_535" x1="1773.8" y1="-56.6425" x2="1766.83" y2="202.315" gradientUnits="userSpaceOnUse">
<stop stop-color="#F4EEF7"/>
<stop offset="0.1952" stop-color="#EDEBF4"/>
<stop offset="0.4375" stop-color="#E0E4EE"/>
<stop offset="1" stop-color="#BCC1CB"/>
</linearGradient>
<linearGradient id="paint5_linear_2090_535" x1="1864.28" y1="-203.087" x2="1589.58" y2="9.63524" gradientUnits="userSpaceOnUse">
<stop stop-color="#F4EEF7"/>
<stop offset="0.2399" stop-color="#EDEBF4"/>
<stop offset="0.5376" stop-color="#E0E4EE"/>
<stop offset="1" stop-color="#BCC1CB"/>
</linearGradient>
<linearGradient id="paint6_linear_2090_535" x1="-200.72" y1="16.8155" x2="148.017" y2="432.937" gradientUnits="userSpaceOnUse">
<stop stop-color="#F4EEF7"/>
<stop offset="0.28" stop-color="#ECEAF3"/>
<stop offset="0.54" stop-color="#E0E4EE"/>
<stop offset="1" stop-color="#BCC1CB"/>
</linearGradient>
<linearGradient id="paint7_linear_2090_535" x1="-72.945" y1="199.275" x2="-76.3375" y2="340.022" gradientUnits="userSpaceOnUse">
<stop stop-color="#F4EEF7"/>
<stop offset="0.23" stop-color="#ECEAF3"/>
<stop offset="0.44" stop-color="#E0E4EE"/>
<stop offset="1" stop-color="#BCC1CB"/>
</linearGradient>
<linearGradient id="paint8_linear_2090_535" x1="0.941526" y1="-64.0124" x2="-161.802" y2="371.586" gradientUnits="userSpaceOnUse">
<stop stop-color="#F9F8FD"/>
<stop offset="0.54" stop-color="#F2F3F8"/>
<stop offset="0.65" stop-color="#EBEDF2"/>
<stop offset="0.81" stop-color="#DADDE4"/>
<stop offset="0.99" stop-color="#BDC2CC"/>
<stop offset="1" stop-color="#BCC1CB"/>
</linearGradient>
<linearGradient id="paint9_linear_2090_535" x1="1988.62" y1="42.6038" x2="1814.66" y2="464.987" gradientUnits="userSpaceOnUse">
<stop stop-color="#F4EEF7"/>
<stop offset="0.23" stop-color="#ECEAF3"/>
<stop offset="0.44" stop-color="#E0E4EE"/>
<stop offset="0.62" stop-color="#D9DEE8"/>
<stop offset="0.86" stop-color="#C8CDD7"/>
<stop offset="1" stop-color="#BCC1CB"/>
</linearGradient>
<linearGradient id="paint10_linear_2090_535" x1="1838.61" y1="43.5135" x2="1723.86" y2="491.697" gradientUnits="userSpaceOnUse">
<stop stop-color="#F9F8FD"/>
<stop offset="0.54" stop-color="#F2F3F8"/>
<stop offset="0.65" stop-color="#EBEDF2"/>
<stop offset="0.81" stop-color="#DADDE4"/>
<stop offset="0.99" stop-color="#BDC2CC"/>
<stop offset="1" stop-color="#BCC1CB"/>
</linearGradient>
<linearGradient id="paint11_linear_2090_535" x1="1889.46" y1="391.611" x2="2055.05" y2="520.241" gradientUnits="userSpaceOnUse">
<stop stop-color="white" stop-opacity="0.1"/>
<stop offset="0.29" stop-color="white" stop-opacity="0.68"/>
<stop offset="0.46" stop-color="white"/>
<stop offset="0.51" stop-color="white" stop-opacity="0.96"/>
<stop offset="0.59" stop-color="white" stop-opacity="0.84"/>
<stop offset="0.69" stop-color="white" stop-opacity="0.66"/>
<stop offset="0.81" stop-color="white" stop-opacity="0.4"/>
<stop offset="0.95" stop-color="white" stop-opacity="0.08"/>
<stop offset="0.98" stop-color="white" stop-opacity="0.01"/>
</linearGradient>
<linearGradient id="paint12_linear_2090_535" x1="1367.32" y1="60.6556" x2="1322.62" y2="699.5" gradientUnits="userSpaceOnUse">
<stop stop-color="#F4EEF7"/>
<stop offset="0.28" stop-color="#ECEAF3"/>
<stop offset="0.54" stop-color="#E0E4EE"/>
<stop offset="1" stop-color="#BCC1CB"/>
</linearGradient>
</defs>
</svg>
