<svg width="945" height="859" viewBox="0 0 945 859" fill="none" xmlns="http://www.w3.org/2000/svg">
<g filter="url(#filter0_f_2079_529)">
<path d="M297.077 183.156L336.193 165.922C342.936 162.957 347.553 155.796 349.337 145.276C349.626 143.571 349.836 141.84 349.967 140.03C350.019 139.427 350.019 138.797 350.045 138.194C350.098 136.987 350.15 135.754 350.15 134.495C350.15 134.364 350.15 134.259 350.15 134.128C350.15 133.367 350.072 132.554 350.019 131.793C349.967 130.822 349.967 129.878 349.862 128.907C349.862 128.776 349.862 128.645 349.862 128.487C349.731 126.966 349.547 125.445 349.337 123.897C349.337 123.818 349.337 123.766 349.311 123.687C349.285 123.477 349.232 123.267 349.206 123.031C349.048 121.956 348.891 120.88 348.681 119.778C348.576 119.28 348.471 118.755 348.366 118.257C348.288 117.863 348.209 117.47 348.13 117.05C348.052 116.683 347.999 116.316 347.894 115.948C347.632 114.742 347.317 113.535 347.002 112.302C346.95 112.118 346.897 111.961 346.871 111.777C346.792 111.515 346.714 111.253 346.661 110.99C346.451 110.23 346.241 109.495 346.031 108.734C345.717 107.659 345.376 106.583 345.008 105.481C345.008 105.429 344.982 105.35 344.956 105.298C344.956 105.272 344.956 105.245 344.956 105.219C344.562 104.039 344.169 102.884 343.723 101.704C343.408 100.838 343.093 99.9726 342.752 99.1331C342.621 98.8183 342.516 98.5035 342.385 98.1888C341.913 97.0345 341.44 95.8803 340.942 94.7523C340.837 94.5162 340.706 94.2801 340.601 94.0178C340.443 93.6767 340.286 93.3357 340.129 92.9947C339.866 92.4176 339.604 91.8404 339.342 91.2633C338.948 90.4501 338.554 89.6631 338.161 88.8762C338.03 88.6138 337.899 88.3253 337.767 88.0629C337.715 87.958 337.663 87.8269 337.584 87.7219C336.928 86.4628 336.272 85.2298 335.59 84.0231C335.485 83.8657 335.406 83.7083 335.301 83.5509C335.039 83.0787 334.75 82.6328 334.488 82.1868C334.068 81.4785 333.649 80.744 333.203 80.0357C333.019 79.7472 332.809 79.4586 332.625 79.1701C332.127 78.3831 331.628 77.6223 331.13 76.8616C330.789 76.3632 330.474 75.8385 330.133 75.3401C330.002 75.1302 329.844 74.9466 329.687 74.763C328.27 72.7431 326.801 70.7756 325.28 68.9131C325.227 68.8344 325.148 68.7557 325.096 68.677C324.44 67.8638 323.758 67.1293 323.076 66.3685C322.709 65.9488 322.341 65.5028 321.974 65.1094C320.82 63.8502 319.665 62.6435 318.485 61.5155C317.121 60.2038 315.73 58.9709 314.34 57.8429C314.261 57.7904 314.208 57.7117 314.13 57.6593C313.054 56.7936 311.979 55.9804 310.929 55.2459C310.641 55.036 310.378 54.8786 310.09 54.695C309.512 54.3015 308.962 53.908 308.384 53.567C308.122 53.4096 307.86 53.2784 307.597 53.121C306.994 52.7538 306.39 52.439 305.761 52.098C305.394 51.8881 305 51.652 304.633 51.4684C304.292 51.311 303.977 51.1798 303.662 51.0486C303.269 50.865 302.849 50.6814 302.455 50.524C302.167 50.4191 301.904 50.2617 301.616 50.1567C300.96 49.9206 300.33 49.7108 299.701 49.5271C299.517 49.4747 299.333 49.396 299.15 49.3435C299.097 49.3435 299.018 49.2911 298.966 49.2911C298.153 49.055 297.366 48.8713 296.552 48.7402C296.343 48.7139 296.133 48.6877 295.923 48.6615C295.687 48.6352 295.451 48.609 295.241 48.5565C294.926 48.5303 294.637 48.4516 294.322 48.4254C293.614 48.3729 292.906 48.3467 292.197 48.3467C292.171 48.3467 292.145 48.3467 292.119 48.3467C292.066 48.3467 291.988 48.3467 291.935 48.3467C291.332 48.3467 290.754 48.3991 290.177 48.4516C289.679 48.5041 289.18 48.5828 288.682 48.6877C288.525 48.7139 288.367 48.7402 288.183 48.7926C287.921 48.8451 287.685 48.95 287.423 49.0025C287.108 49.0812 286.793 49.1599 286.504 49.2648C286.426 49.2648 286.347 49.2911 286.268 49.3173C285.796 49.4747 285.298 49.6583 284.852 49.8682L245.735 67.103C246.26 66.8669 246.811 66.6571 247.388 66.4997C247.703 66.3948 248.018 66.3161 248.306 66.2374C248.726 66.1324 249.12 66.0013 249.539 65.9226C250.589 65.7127 251.691 65.6078 252.793 65.5815C252.845 65.5815 252.924 65.5815 252.976 65.5815C253.999 65.5815 255.049 65.6602 256.098 65.7914C256.334 65.8176 256.544 65.8439 256.78 65.8963C257.83 66.0537 258.905 66.2898 260.007 66.6046C260.191 66.6571 260.374 66.7358 260.532 66.7882C261.45 67.0768 262.368 67.4178 263.287 67.7851C263.68 67.9425 264.1 68.1261 264.493 68.3097C265.202 68.6245 265.884 68.9918 266.592 69.359C267.196 69.6738 267.799 70.0149 268.429 70.3821C269.268 70.8805 270.081 71.4052 270.921 71.9561C271.209 72.1397 271.472 72.3233 271.76 72.507C272.888 73.3202 274.043 74.1859 275.171 75.104C276.561 76.232 277.926 77.4649 279.316 78.7766C280.497 79.9046 281.651 81.1113 282.805 82.3705C283.173 82.7902 283.54 83.2361 283.933 83.6559C284.668 84.4953 285.403 85.3347 286.111 86.2004C287.633 88.0629 289.102 90.0304 290.518 92.0503C290.991 92.7324 291.489 93.4406 291.935 94.1489C292.434 94.9097 292.958 95.6704 293.43 96.4574C294.06 97.4542 294.663 98.4511 295.267 99.4742C295.529 99.9463 295.818 100.392 296.08 100.864C296.92 102.36 297.733 103.855 298.546 105.403C298.677 105.665 298.809 105.954 298.966 106.216C299.648 107.554 300.304 108.918 300.934 110.308C301.091 110.649 301.248 110.99 301.406 111.331C302.14 113.01 302.875 114.715 303.557 116.42C304.37 118.493 305.105 120.539 305.787 122.585C305.787 122.638 305.84 122.716 305.84 122.769C306.443 124.605 306.994 126.441 307.492 128.251C307.571 128.514 307.65 128.776 307.702 129.038C308.174 130.796 308.594 132.554 308.962 134.285C309.04 134.678 309.119 135.072 309.198 135.465C309.512 137.066 309.801 138.666 310.037 140.24C310.063 140.45 310.116 140.659 310.142 140.869C310.404 142.627 310.588 144.358 310.719 146.063C310.798 147.034 310.824 147.978 310.877 148.949C310.929 149.841 310.982 150.759 310.982 151.651C310.982 152.91 310.929 154.117 310.877 155.324C310.85 155.953 310.877 156.583 310.798 157.186C310.667 158.97 310.457 160.727 310.168 162.433C309.486 166.367 308.437 169.83 306.994 172.794C306.049 174.762 304.921 176.493 303.662 178.015C302.403 179.51 300.986 180.769 299.438 181.766C298.651 182.264 297.864 182.71 297.025 183.078L297.077 183.156Z" fill="url(#paint0_linear_2079_529)"/>
</g>
<g filter="url(#filter1_f_2079_529)">
<path d="M296.159 215.869C296.159 215.869 296.237 215.869 296.263 215.869C297.287 215.947 298.284 216 299.28 216C299.307 216 299.359 216 299.385 216C300.409 216 301.406 215.921 302.402 215.816C302.402 215.816 302.455 215.816 302.481 215.816C302.796 215.79 303.085 215.711 303.373 215.659C304.029 215.554 304.659 215.475 305.315 215.344C305.367 215.344 305.419 215.344 305.472 215.344C305.787 215.265 306.102 215.16 306.416 215.082C306.994 214.924 307.571 214.793 308.122 214.609C308.2 214.609 308.279 214.583 308.332 214.557C309.066 214.295 309.801 214.032 310.509 213.718L349.625 196.483C348.838 196.824 348.051 197.112 347.238 197.401C346.687 197.584 346.11 197.716 345.533 197.873C345.165 197.978 344.798 198.083 344.431 198.162C343.801 198.293 343.172 198.398 342.516 198.476C342.175 198.529 341.86 198.607 341.519 198.634C340.522 198.739 339.525 198.791 338.502 198.817C338.475 198.817 338.423 198.817 338.397 198.817C337.4 198.817 336.403 198.791 335.38 198.686C335.065 198.66 334.75 198.607 334.435 198.555C333.648 198.476 332.887 198.371 332.1 198.24C331.733 198.162 331.34 198.083 330.946 198.004C330.159 197.847 329.398 197.663 328.585 197.453C328.165 197.348 327.745 197.217 327.326 197.086C326.486 196.824 325.62 196.535 324.755 196.22C324.335 196.063 323.915 195.906 323.495 195.748C322.131 195.223 320.767 194.62 319.376 193.938C319.376 193.938 319.324 193.938 319.324 193.912C319.298 193.912 319.245 193.886 319.219 193.859C318.222 193.361 317.199 192.81 316.176 192.233C315.835 192.049 315.494 191.839 315.153 191.63C314.497 191.236 313.841 190.843 313.159 190.423C312.031 189.715 310.903 188.954 309.774 188.141C309.565 187.983 309.328 187.852 309.119 187.695C307.781 186.724 306.416 185.675 305.078 184.573C304.37 183.996 303.635 183.366 302.927 182.737C302.56 182.422 302.193 182.107 301.799 181.792C300.671 180.796 299.569 179.772 298.441 178.697C296.631 176.966 294.847 175.129 293.089 173.214C292.512 172.585 291.961 171.903 291.384 171.247C290.203 169.909 289.023 168.571 287.895 167.181C287.527 166.709 287.16 166.236 286.793 165.764C285.586 164.243 284.405 162.721 283.251 161.121C282.779 160.465 282.307 159.809 281.834 159.154C280.916 157.868 280.05 156.557 279.158 155.219C278.398 154.064 277.637 152.91 276.876 151.73C275.905 150.208 274.987 148.66 274.069 147.087C273.649 146.378 273.229 145.696 272.836 145.014C271.55 142.758 270.291 140.45 269.084 138.089C268.874 137.669 268.664 137.223 268.454 136.803C267.431 134.757 266.434 132.659 265.464 130.56C265.228 130.035 264.991 129.511 264.755 128.986C263.601 126.415 262.525 123.818 261.476 121.195C260.269 118.126 259.167 115.03 258.144 111.961C258.092 111.777 258.013 111.567 257.961 111.384C257.069 108.629 256.255 105.875 255.494 103.147C255.389 102.806 255.285 102.465 255.206 102.124C254.497 99.4218 253.868 96.746 253.291 94.0703C253.16 93.4407 253.028 92.7849 252.897 92.1553C252.399 89.7157 251.979 87.3023 251.612 84.8889C251.559 84.5478 251.48 84.1806 251.428 83.8396C251.034 81.1114 250.746 78.4356 250.536 75.7861C250.405 74.1859 250.379 72.6644 250.3 71.0905C250.247 69.7264 250.142 68.3098 250.116 66.9719C250.116 66.6834 250.116 66.4211 250.116 66.1325C250.116 63.5879 250.195 61.0958 250.379 58.7087C250.379 58.5513 250.405 58.3939 250.431 58.2102C250.641 55.6919 250.93 53.2523 251.323 50.9175C254.078 34.8894 261.109 23.9241 271.393 19.4121L232.277 36.5945C221.992 41.1328 214.961 52.098 212.207 68.0999C211.813 70.4609 211.525 72.9005 211.315 75.3926C211.315 75.55 211.289 75.7074 211.262 75.8911C211.079 78.3045 211 80.7966 211 83.3411C211 83.6297 211 83.892 211 84.1806C211 84.3904 211 84.6003 211 84.8102C211 85.9644 211.131 87.1449 211.184 88.2991C211.262 89.8468 211.289 91.3946 211.42 92.9948C211.42 93.1784 211.42 93.362 211.446 93.5456C211.656 95.9066 211.918 98.32 212.259 100.733C212.259 100.838 212.286 100.943 212.312 101.048C212.364 101.389 212.443 101.756 212.495 102.124C212.758 103.803 212.994 105.455 213.309 107.16C213.44 107.895 213.623 108.629 213.755 109.39C213.886 110.02 214.017 110.676 214.148 111.305C214.279 111.909 214.384 112.512 214.515 113.115C214.935 114.978 215.407 116.866 215.88 118.755C215.932 118.939 215.985 119.149 216.037 119.332C216.142 119.673 216.247 120.014 216.326 120.382C216.667 121.641 217.008 122.9 217.401 124.185C217.847 125.654 218.32 127.123 218.792 128.619C218.844 128.802 218.923 129.012 218.975 129.196C219.002 129.301 219.028 129.379 219.054 129.484C219.631 131.216 220.235 132.947 220.864 134.678C221.337 135.938 221.809 137.171 222.281 138.43C222.465 138.902 222.648 139.4 222.858 139.873C223.567 141.63 224.301 143.388 225.062 145.119C225.219 145.486 225.403 145.827 225.56 146.195C225.796 146.719 226.033 147.244 226.269 147.769C226.662 148.66 227.056 149.552 227.476 150.418C228.053 151.625 228.656 152.805 229.26 154.012C229.469 154.432 229.679 154.851 229.889 155.271C229.994 155.455 230.073 155.638 230.178 155.822C231.175 157.737 232.172 159.626 233.221 161.462C233.352 161.698 233.51 161.934 233.641 162.17C234.034 162.879 234.454 163.561 234.874 164.243C235.53 165.344 236.159 166.472 236.841 167.574C237.13 168.02 237.419 168.44 237.707 168.912C238.442 170.093 239.229 171.247 239.99 172.401C240.488 173.162 240.987 173.975 241.511 174.71C241.878 175.26 242.298 175.785 242.666 176.31C243.138 176.966 243.61 177.621 244.082 178.277C245.237 179.851 246.417 181.399 247.624 182.92C247.991 183.393 248.359 183.891 248.752 184.337C248.883 184.494 249.014 184.678 249.146 184.835C250.169 186.068 251.192 187.223 252.241 188.377C252.818 189.033 253.369 189.715 253.947 190.344C255.704 192.259 257.488 194.095 259.298 195.827C260.427 196.902 261.528 197.925 262.657 198.922C263.024 199.263 263.417 199.552 263.785 199.893C264.388 200.418 265.018 200.968 265.621 201.467C265.726 201.546 265.831 201.624 265.936 201.703C267.3 202.805 268.638 203.854 270.002 204.825C270.212 204.982 270.422 205.113 270.632 205.271C271.76 206.084 272.914 206.845 274.043 207.553C274.2 207.658 274.357 207.789 274.541 207.868C275.039 208.182 275.538 208.471 276.036 208.76C276.377 208.969 276.718 209.179 277.06 209.363C278.083 209.94 279.106 210.491 280.103 210.989C280.129 210.989 280.181 211.016 280.208 211.042C280.208 211.042 280.234 211.042 280.26 211.042C281.651 211.724 283.015 212.301 284.379 212.852C284.536 212.931 284.72 213.009 284.878 213.062C285.14 213.167 285.376 213.219 285.638 213.324C286.504 213.639 287.344 213.927 288.209 214.19C288.472 214.268 288.734 214.373 288.996 214.452C289.154 214.504 289.311 214.531 289.495 214.557C290.282 214.767 291.069 214.95 291.83 215.108C292.118 215.16 292.433 215.265 292.722 215.318C292.8 215.318 292.905 215.318 292.984 215.344C293.771 215.475 294.532 215.58 295.293 215.659C295.581 215.685 295.87 215.764 296.159 215.764V215.869Z" fill="url(#paint1_linear_2079_529)"/>
</g>
<g filter="url(#filter2_f_2079_529)">
<path fill-rule="evenodd" clip-rule="evenodd" d="M359.647 94.6477C369.459 119.647 373.158 145.277 369.773 164.951C363.084 203.959 331.077 210.098 298.415 178.645C283.434 164.269 270.317 143.86 261.423 121.169C251.611 96.1692 247.912 70.5398 251.297 50.8653C254.55 31.9516 263.732 20.0944 277.217 17.5236C290.701 14.9528 306.836 21.9045 322.656 37.1456C337.636 51.5474 350.753 71.9564 359.647 94.6477ZM278.371 116.604C284.195 131.452 292.8 144.857 302.586 154.274C312.949 164.242 323.521 168.807 332.362 167.102C341.177 165.397 347.211 157.658 349.336 145.276C351.566 132.212 349.232 115.843 342.699 99.2117C336.875 84.364 328.27 70.9591 318.484 61.5415C308.121 51.5731 297.549 46.9824 288.708 48.6875C279.893 50.3927 273.859 58.1575 271.734 70.5394C269.504 83.6032 271.839 99.9724 278.371 116.604Z" fill="url(#paint2_linear_2079_529)"/>
</g>
<g filter="url(#filter3_f_2079_529)">
<path d="M250.846 51C250.846 51 250.793 51.5518 250.688 52.5767C250.583 53.6015 250.426 55.1256 250.321 57.0439C250.058 60.8805 250.058 66.3726 250.557 72.9158C251.03 79.459 252.265 87.0534 254.103 95.0419C255.89 103.03 258.49 111.413 261.669 119.559C264.743 127.784 268.394 135.72 272.335 142.92C276.249 150.121 280.268 156.664 284.13 161.998C287.965 167.333 291.38 171.642 293.954 174.506C296.476 177.397 298 179 298 179C298 179 297.58 178.632 296.818 177.923C296.056 177.213 294.9 176.215 293.56 174.848C292.168 173.508 290.566 171.8 288.753 169.803C286.94 167.806 284.944 165.493 282.921 162.865C280.872 160.264 278.771 157.321 276.617 154.194C274.515 151.014 272.308 147.65 270.312 143.998C266.24 136.771 262.405 128.704 259.2 120.479C256.074 112.175 253.578 103.635 251.87 95.5149C250.951 91.4681 250.373 87.4738 249.927 83.6898C249.506 79.9058 249.191 76.3057 249.086 72.9947C248.928 69.6836 249.007 66.6354 249.165 63.9288C249.322 61.2484 249.532 58.8834 249.795 56.9651C250.005 55.0468 250.321 53.549 250.531 52.5504C250.715 51.5256 250.82 51 250.82 51L250.846 51Z" fill="url(#paint3_linear_2079_529)"/>
</g>
<path d="M943.512 179.363C943.622 178.873 943.732 178.383 943.832 177.903C943.872 177.693 943.932 177.483 943.972 177.273C943.992 177.143 944.002 177.023 944.022 176.893C944.302 175.383 944.512 173.873 944.652 172.393C944.652 172.303 944.682 172.203 944.692 172.103C944.702 171.963 944.692 171.823 944.712 171.683C944.832 170.263 944.902 168.843 944.902 167.443C944.902 167.403 944.902 167.363 944.902 167.313C944.902 167.213 944.892 167.103 944.892 167.003C944.892 165.683 944.822 164.373 944.702 163.073C944.702 162.973 944.702 162.873 944.692 162.773C944.692 162.733 944.682 162.693 944.672 162.653C944.542 161.343 944.352 160.063 944.122 158.783C944.102 158.653 944.092 158.513 944.062 158.383C944.042 158.273 944.002 158.163 943.982 158.053C943.732 156.803 943.442 155.563 943.092 154.333C943.072 154.253 943.052 154.163 943.032 154.083C942.862 153.503 942.692 152.933 942.502 152.373L937.012 135.813C937.222 136.463 937.412 137.113 937.602 137.773C937.952 138.993 938.242 140.243 938.492 141.493C938.542 141.733 938.582 141.973 938.622 142.213C938.852 143.493 939.042 144.783 939.172 146.083C939.182 146.223 939.192 146.363 939.202 146.513C939.312 147.813 939.382 149.123 939.392 150.443C939.392 150.583 939.392 150.733 939.392 150.873C939.392 152.273 939.322 153.693 939.202 155.113C939.182 155.343 939.162 155.583 939.142 155.813C939.002 157.303 938.782 158.803 938.502 160.323C938.442 160.653 938.382 160.993 938.312 161.323C938.212 161.813 938.102 162.303 937.992 162.793C937.892 163.243 937.782 163.693 937.672 164.143C937.552 164.633 937.412 165.123 937.272 165.623C937.152 166.053 937.022 166.493 936.892 166.923C936.682 167.603 936.462 168.273 936.232 168.953C936.112 169.313 935.992 169.673 935.862 170.033C935.562 170.863 935.242 171.693 934.902 172.523C934.812 172.733 934.742 172.943 934.652 173.153C934.392 173.783 934.102 174.413 933.822 175.033C933.672 175.373 933.532 175.703 933.372 176.043C932.912 177.013 932.432 177.983 931.932 178.953C931.382 180.003 930.812 181.033 930.212 182.063C930.132 182.193 930.052 182.323 929.972 182.453C929.352 183.513 928.692 184.553 928.022 185.593C927.782 185.953 927.542 186.323 927.292 186.683C926.732 187.513 926.162 188.333 925.572 189.143C925.312 189.503 925.062 189.863 924.792 190.213C924.052 191.203 923.292 192.183 922.512 193.153C922.402 193.293 922.302 193.423 922.192 193.563C921.292 194.663 920.362 195.743 919.412 196.803C919.132 197.113 918.852 197.413 918.572 197.723C917.862 198.493 917.142 199.263 916.402 200.023C916.072 200.363 915.742 200.703 915.402 201.043C914.602 201.843 913.792 202.623 912.972 203.403C912.722 203.643 912.482 203.883 912.222 204.113C911.152 205.103 910.052 206.083 908.922 207.043C908.652 207.273 908.372 207.493 908.102 207.723C907.222 208.463 906.332 209.193 905.432 209.913C905.082 210.193 904.732 210.463 904.372 210.743C903.012 211.803 901.632 212.843 900.222 213.853C900.202 213.863 900.192 213.883 900.172 213.893C898.742 214.913 897.272 215.903 895.792 216.873C895.492 217.073 895.192 217.263 894.892 217.453C892.572 218.943 890.182 220.383 887.752 221.753C887.602 221.843 887.442 221.933 887.292 222.013C885.142 223.213 882.942 224.353 880.712 225.453C880.542 225.543 880.362 225.633 880.192 225.713C878.232 226.663 876.242 227.573 874.232 228.443C873.922 228.573 873.622 228.713 873.312 228.843C871.482 229.623 869.622 230.363 867.752 231.073C867.392 231.213 867.022 231.343 866.652 231.483C864.802 232.163 862.942 232.823 861.062 233.443C860.962 233.473 860.862 233.503 860.762 233.533C858.992 234.103 857.212 234.633 855.432 235.143C855.052 235.253 854.672 235.363 854.302 235.463C852.492 235.963 850.672 236.423 848.842 236.853C848.502 236.933 848.172 237.003 847.832 237.083C846.112 237.473 844.392 237.833 842.672 238.163C842.422 238.213 842.172 238.263 841.922 238.313C840.002 238.663 838.082 238.973 836.162 239.243C835.742 239.303 835.312 239.363 834.892 239.423C833.112 239.663 831.342 239.873 829.562 240.043C828.542 240.143 827.512 240.183 826.492 240.253C824.972 240.363 823.452 240.473 821.942 240.523C820.072 240.593 818.202 240.633 816.332 240.623C815.972 240.623 815.622 240.613 815.262 240.603C813.642 240.583 812.022 240.513 810.412 240.423C809.802 240.393 809.182 240.363 808.572 240.323C806.542 240.183 804.522 240.003 802.512 239.763C801.462 239.633 800.452 239.463 799.432 239.303C798.532 239.173 797.622 239.053 796.742 238.903C795.752 238.733 794.792 238.513 793.822 238.313C792.972 238.143 792.102 237.983 791.262 237.793C790.292 237.573 789.372 237.303 788.432 237.053C787.632 236.843 786.812 236.653 786.032 236.423C785.092 236.153 784.202 235.833 783.292 235.533C782.552 235.293 781.782 235.063 781.062 234.803C780.172 234.483 779.332 234.123 778.462 233.783C777.752 233.503 777.032 233.243 776.342 232.953C775.512 232.593 774.722 232.203 773.922 231.823C773.252 231.503 772.552 231.213 771.892 230.873C771.082 230.463 770.312 230.013 769.532 229.573C768.932 229.243 768.302 228.923 767.722 228.583C766.942 228.123 766.222 227.633 765.472 227.143C764.922 226.783 764.352 226.453 763.812 226.083C763.112 225.603 762.462 225.083 761.802 224.583C761.272 224.183 760.712 223.803 760.202 223.383C759.552 222.863 758.962 222.313 758.342 221.773C757.852 221.343 757.342 220.933 756.872 220.503C756.242 219.913 755.672 219.303 755.082 218.693C754.672 218.273 754.232 217.873 753.842 217.443C753.262 216.803 752.732 216.133 752.182 215.473C751.832 215.053 751.452 214.643 751.122 214.213C750.612 213.563 750.162 212.883 749.692 212.213C749.372 211.753 749.012 211.303 748.702 210.833C748.212 210.083 747.782 209.313 747.342 208.543C747.102 208.123 746.832 207.723 746.602 207.303C746.122 206.403 745.702 205.483 745.282 204.563C745.142 204.243 744.962 203.943 744.832 203.623C744.292 202.373 743.812 201.103 743.382 199.823L748.872 216.383C749.302 217.673 749.782 218.943 750.322 220.183C750.462 220.503 750.632 220.803 750.772 221.123C751.192 222.043 751.612 222.963 752.092 223.863C752.322 224.283 752.592 224.693 752.832 225.103C753.272 225.873 753.702 226.643 754.192 227.393C754.502 227.863 754.852 228.313 755.182 228.773C755.652 229.443 756.102 230.123 756.612 230.773C756.962 231.223 757.352 231.653 757.722 232.093C758.252 232.733 758.762 233.383 759.332 234.003C759.742 234.453 760.202 234.873 760.632 235.313C761.202 235.893 761.752 236.493 762.362 237.063C762.832 237.503 763.342 237.913 763.832 238.333C764.442 238.873 765.042 239.423 765.692 239.943C766.202 240.353 766.762 240.743 767.292 241.143C767.962 241.643 768.612 242.163 769.302 242.643C769.862 243.033 770.462 243.383 771.042 243.763C771.762 244.223 772.452 244.703 773.202 245.143C773.832 245.513 774.492 245.853 775.142 246.203C775.882 246.613 776.612 247.043 777.382 247.433C778.052 247.773 778.762 248.073 779.442 248.393C780.232 248.763 781.012 249.153 781.832 249.503C782.552 249.813 783.312 250.083 784.042 250.373C784.872 250.703 785.682 251.043 786.542 251.353C787.322 251.633 788.132 251.873 788.932 252.133C789.792 252.413 790.632 252.713 791.512 252.973C792.322 253.213 793.172 253.403 793.992 253.623C794.902 253.863 795.802 254.123 796.742 254.343C797.602 254.543 798.492 254.703 799.372 254.883C800.322 255.073 801.252 255.293 802.222 255.463C803.142 255.623 804.102 255.743 805.042 255.883C805.982 256.023 806.912 256.183 807.872 256.303C807.912 256.303 807.962 256.313 808.002 256.323C810.012 256.563 812.032 256.743 814.062 256.883C814.672 256.923 815.292 256.953 815.902 256.983C816.692 257.023 817.482 257.093 818.282 257.113C819.102 257.143 819.932 257.143 820.762 257.153C821.122 257.153 821.472 257.173 821.832 257.173C823.452 257.183 825.072 257.173 826.702 257.123C826.952 257.123 827.202 257.083 827.442 257.083C828.962 257.023 830.482 256.923 831.992 256.813C832.712 256.763 833.432 256.743 834.152 256.683C834.452 256.653 834.762 256.633 835.062 256.603C836.842 256.433 838.622 256.223 840.392 255.983C840.612 255.953 840.832 255.933 841.052 255.903C841.252 255.873 841.462 255.833 841.662 255.803C843.582 255.533 845.512 255.223 847.422 254.873C847.492 254.863 847.562 254.853 847.632 254.843C847.812 254.813 847.992 254.763 848.182 254.733C849.912 254.403 851.632 254.043 853.342 253.653C853.562 253.603 853.782 253.563 854.002 253.513C854.122 253.483 854.232 253.453 854.352 253.423C856.182 252.993 858.002 252.533 859.812 252.033C859.962 251.993 860.122 251.953 860.272 251.913C860.502 251.853 860.722 251.773 860.942 251.713C862.732 251.203 864.512 250.673 866.272 250.103C866.352 250.083 866.432 250.053 866.502 250.033C866.522 250.033 866.542 250.013 866.562 250.013C868.442 249.403 870.302 248.743 872.152 248.053C872.362 247.973 872.572 247.913 872.782 247.833C872.942 247.773 873.092 247.703 873.252 247.643C875.122 246.933 876.982 246.193 878.812 245.413C878.942 245.363 879.072 245.313 879.202 245.263C879.382 245.183 879.562 245.093 879.742 245.013C881.752 244.143 883.742 243.243 885.702 242.283C885.762 242.253 885.822 242.233 885.882 242.203C886.002 242.143 886.112 242.083 886.222 242.023C888.452 240.923 890.652 239.783 892.802 238.583C892.862 238.553 892.922 238.523 892.982 238.493C893.082 238.443 893.172 238.373 893.262 238.323C895.702 236.953 898.082 235.523 900.412 234.023C900.532 233.953 900.652 233.883 900.772 233.813C900.952 233.693 901.132 233.563 901.312 233.453C902.802 232.483 904.272 231.493 905.702 230.473C905.712 230.473 905.732 230.453 905.742 230.443C907.162 229.433 908.542 228.383 909.902 227.333C910.072 227.193 910.262 227.073 910.432 226.933C910.612 226.793 910.782 226.643 910.952 226.503C911.852 225.783 912.742 225.053 913.622 224.313C913.892 224.083 914.172 223.863 914.442 223.633C915.562 222.673 916.662 221.693 917.742 220.703C917.992 220.473 918.242 220.233 918.492 219.993C919.322 219.213 920.132 218.433 920.922 217.633C921.262 217.293 921.592 216.953 921.922 216.613C922.662 215.853 923.382 215.083 924.092 214.313C924.372 214.003 924.662 213.703 924.932 213.393C925.882 212.323 926.822 211.243 927.712 210.153C927.822 210.023 927.922 209.883 928.032 209.743C928.812 208.773 929.572 207.793 930.312 206.803C930.572 206.453 930.832 206.093 931.092 205.733C931.682 204.923 932.252 204.103 932.812 203.273C933.052 202.913 933.302 202.553 933.542 202.183C934.222 201.143 934.872 200.103 935.492 199.043C935.552 198.933 935.632 198.823 935.692 198.713C935.702 198.693 935.712 198.673 935.732 198.643C936.332 197.613 936.902 196.573 937.452 195.533C937.962 194.563 938.442 193.593 938.892 192.623C939.052 192.283 939.192 191.943 939.342 191.613C939.622 190.983 939.912 190.353 940.172 189.733C940.182 189.703 940.202 189.673 940.212 189.653C940.292 189.473 940.352 189.283 940.422 189.103C940.762 188.273 941.082 187.443 941.382 186.613C941.512 186.253 941.632 185.883 941.752 185.523C941.982 184.843 942.202 184.173 942.412 183.503C942.462 183.333 942.532 183.163 942.572 182.993C942.652 182.723 942.712 182.463 942.782 182.193C942.922 181.703 943.052 181.213 943.182 180.713C943.292 180.263 943.402 179.803 943.502 179.353L943.512 179.363Z" fill="url(#paint4_linear_2079_529)"/>
<path d="M877.912 95.8731C869.042 94.7931 859.942 94.7331 850.862 95.5931C808.082 99.6231 765.632 123.883 748.472 156.663C727.652 196.403 751.832 233.603 802.522 239.773C811.392 240.853 820.492 240.913 829.572 240.053C872.342 236.023 914.781 211.763 931.962 178.983C952.781 139.253 928.572 102.043 877.912 95.8731Z" fill="url(#paint5_linear_2079_529)"/>
<path d="M938.552 160.333C938.552 160.333 938.402 161.163 938.132 162.713C937.812 164.253 937.332 166.523 936.412 169.323C935.502 172.123 934.202 175.473 932.372 179.153C931.382 180.943 930.322 182.853 929.202 184.863C928.002 186.823 926.562 188.803 925.152 190.923C923.612 192.933 921.942 194.983 920.222 197.103C918.342 199.083 916.502 201.243 914.412 203.253C912.272 205.213 910.202 207.383 907.792 209.263C906.612 210.233 905.422 211.213 904.222 212.203C902.992 213.153 901.692 214.043 900.412 214.973C895.302 218.733 889.622 222.023 883.782 225.193C877.832 228.153 871.692 231.023 865.292 233.223C858.942 235.553 852.372 237.203 845.882 238.673C839.352 239.933 832.862 240.873 826.542 241.333C813.872 242.213 802.012 240.973 792.142 238.673C782.242 236.413 774.522 232.773 769.442 229.843C766.882 228.393 765.012 227.013 763.722 226.113C762.472 225.163 761.802 224.653 761.802 224.653C761.802 224.653 762.492 225.123 763.792 226.013C765.122 226.853 767.062 228.093 769.662 229.443C774.822 232.203 782.632 235.363 792.432 237.383C802.202 239.463 813.962 240.243 826.402 239.303C832.632 238.803 839.012 237.823 845.432 236.533C851.812 235.033 858.262 233.353 864.502 231.013C870.822 228.903 876.882 226.113 882.772 223.253C888.552 220.173 894.172 216.973 899.232 213.313C900.502 212.403 901.782 211.543 903.012 210.613C904.212 209.663 905.402 208.713 906.572 207.783C908.992 205.993 911.072 203.913 913.232 202.033C915.342 200.103 917.192 198.023 919.102 196.113C920.842 194.063 922.542 192.083 924.102 190.143C925.542 188.113 926.962 186.203 928.242 184.313C929.432 182.363 930.552 180.503 931.612 178.763C933.562 175.193 934.982 171.933 935.992 169.193C937.002 166.443 937.632 164.233 938.022 162.703C938.382 161.173 938.572 160.353 938.572 160.353L938.552 160.333Z" fill="url(#paint6_linear_2079_529)"/>
<g style="mix-blend-mode:screen">
<path d="M748.361 157.363C765.521 124.583 807.971 100.323 850.741 96.2931C859.821 95.4331 868.921 95.4931 877.791 96.5731C919.711 101.673 943.511 128.023 938.691 159.473C943.971 127.713 920.131 101.013 877.911 95.8731C869.041 94.7931 859.941 94.7331 850.861 95.5931C808.081 99.6231 765.631 123.883 748.471 156.663C744.871 163.523 742.621 170.313 741.611 176.873C742.671 170.523 744.881 163.983 748.351 157.363H748.361Z" fill="url(#paint7_linear_2079_529)"/>
</g>
<path d="M628 804.643L645.422 818L738 622.357L720.578 609L628 804.643V804.643Z" fill="url(#paint8_linear_2079_529)"/>
<path d="M432 845.809L449.382 859L645 818.191L627.605 805L432 845.809V845.809Z" fill="url(#paint9_linear_2079_529)"/>
<path d="M523.74 650.329L720 609L627.26 804.671L431 846L523.74 650.329V650.329Z" fill="url(#paint10_linear_2079_529)"/>
<g filter="url(#filter4_f_2079_529)">
<path d="M175.834 407.602C175.927 407.19 176.019 406.778 176.103 406.375C176.136 406.198 176.187 406.022 176.22 405.845C176.237 405.736 176.245 405.635 176.262 405.526C176.497 404.257 176.673 402.988 176.79 401.744C176.79 401.668 176.815 401.584 176.824 401.5C176.832 401.382 176.824 401.265 176.841 401.147C176.941 399.954 177 398.76 177 397.583C177 397.55 177 397.516 177 397.474C177 397.39 176.992 397.298 176.992 397.214C176.992 396.104 176.933 395.003 176.832 393.911C176.832 393.827 176.832 393.743 176.824 393.659C176.824 393.625 176.815 393.591 176.807 393.558C176.698 392.457 176.539 391.381 176.346 390.305C176.329 390.196 176.321 390.078 176.296 389.969C176.279 389.877 176.245 389.784 176.228 389.692C176.019 388.641 175.776 387.599 175.482 386.565C175.465 386.498 175.449 386.422 175.432 386.355C175.289 385.868 175.147 385.389 174.987 384.918L170.383 371C170.559 371.546 170.719 372.093 170.878 372.647C171.172 373.673 171.415 374.723 171.624 375.774C171.666 375.975 171.7 376.177 171.733 376.379C171.926 377.455 172.086 378.539 172.195 379.631C172.203 379.749 172.211 379.867 172.22 379.993C172.312 381.085 172.371 382.186 172.379 383.296C172.379 383.413 172.379 383.54 172.379 383.657C172.379 384.834 172.32 386.027 172.22 387.221C172.203 387.414 172.186 387.616 172.17 387.809C172.052 389.061 171.868 390.322 171.633 391.599C171.582 391.877 171.532 392.163 171.473 392.44C171.39 392.852 171.297 393.264 171.205 393.675C171.121 394.054 171.029 394.432 170.937 394.81C170.836 395.222 170.719 395.634 170.601 396.054C170.501 396.415 170.392 396.785 170.283 397.146C170.106 397.718 169.922 398.281 169.729 398.853C169.628 399.155 169.528 399.458 169.419 399.76C169.167 400.458 168.899 401.155 168.614 401.853C168.538 402.029 168.48 402.206 168.404 402.382C168.186 402.912 167.943 403.441 167.708 403.962C167.582 404.248 167.465 404.526 167.331 404.811C166.945 405.627 166.542 406.442 166.123 407.257C165.662 408.14 165.184 409.005 164.681 409.871C164.613 409.98 164.546 410.089 164.479 410.199C163.959 411.089 163.406 411.964 162.844 412.838C162.643 413.14 162.441 413.451 162.232 413.754C161.762 414.451 161.284 415.14 160.789 415.821C160.571 416.124 160.362 416.426 160.135 416.721C159.515 417.553 158.877 418.376 158.223 419.191C158.131 419.309 158.047 419.418 157.955 419.536C157.2 420.461 156.42 421.368 155.623 422.259C155.389 422.52 155.154 422.772 154.919 423.032C154.324 423.679 153.72 424.327 153.099 424.965C152.822 425.251 152.546 425.537 152.261 425.823C151.59 426.495 150.91 427.15 150.223 427.806C150.013 428.008 149.812 428.209 149.594 428.403C148.696 429.235 147.774 430.058 146.826 430.865C146.6 431.059 146.365 431.243 146.139 431.437C145.401 432.059 144.654 432.672 143.899 433.277C143.606 433.513 143.312 433.74 143.01 433.975C141.87 434.866 140.713 435.74 139.53 436.589C139.513 436.597 139.505 436.614 139.488 436.622C138.289 437.48 137.056 438.312 135.815 439.127C135.563 439.295 135.312 439.455 135.06 439.614C133.115 440.867 131.11 442.077 129.073 443.228C128.947 443.304 128.813 443.38 128.687 443.447C126.884 444.455 125.039 445.413 123.169 446.338C123.026 446.414 122.875 446.489 122.732 446.556C121.089 447.355 119.42 448.12 117.734 448.851C117.474 448.96 117.223 449.078 116.963 449.187C115.428 449.843 113.868 450.465 112.3 451.061C111.998 451.179 111.688 451.288 111.377 451.406C109.826 451.977 108.266 452.532 106.69 453.053C106.606 453.078 106.522 453.104 106.438 453.129C104.954 453.608 103.461 454.053 101.968 454.482C101.649 454.574 101.331 454.667 101.02 454.751C99.5025 455.171 97.9762 455.558 96.4415 455.919C96.1564 455.986 95.8797 456.045 95.5945 456.112C94.1521 456.44 92.7097 456.743 91.2672 457.02C91.0576 457.062 90.8479 457.104 90.6383 457.146C89.0281 457.44 87.4179 457.701 85.8078 457.928C85.4555 457.978 85.0949 458.029 84.7427 458.079C83.25 458.281 81.7656 458.457 80.2728 458.6C79.4174 458.684 78.5536 458.718 77.6982 458.777C76.4235 458.869 75.1488 458.962 73.8825 459.004C72.3143 459.062 70.746 459.096 69.1778 459.088C68.8759 459.088 68.5824 459.079 68.2805 459.071C66.9219 459.054 65.5633 458.995 64.2131 458.92C63.7016 458.894 63.1816 458.869 62.6701 458.835C60.9676 458.718 59.2736 458.567 57.588 458.365C56.7074 458.256 55.8604 458.113 55.005 457.978C54.2502 457.869 53.4871 457.768 52.7491 457.642C51.9189 457.499 51.1138 457.314 50.3003 457.146C49.5875 457.003 48.8579 456.869 48.1534 456.709C47.34 456.524 46.5684 456.297 45.7801 456.087C45.1092 455.911 44.4215 455.751 43.7674 455.558C42.9791 455.331 42.2327 455.062 41.4696 454.81C40.849 454.608 40.2033 454.415 39.5994 454.196C38.8531 453.927 38.1486 453.625 37.419 453.339C36.8236 453.104 36.2198 452.885 35.6411 452.641C34.9451 452.339 34.2826 452.011 33.6117 451.692C33.0498 451.423 32.4627 451.179 31.9092 450.893C31.23 450.549 30.5842 450.17 29.9301 449.801C29.4269 449.523 28.8986 449.254 28.4122 448.969C27.758 448.582 27.1542 448.17 26.5253 447.758C26.064 447.456 25.586 447.178 25.1331 446.867C24.5461 446.464 24.001 446.027 23.4475 445.607C23.003 445.271 22.5334 444.951 22.1057 444.598C21.5606 444.161 21.0658 443.699 20.5459 443.245C20.1349 442.884 19.7072 442.539 19.3131 442.178C18.7847 441.682 18.3067 441.169 17.8119 440.657C17.4681 440.304 17.0991 439.967 16.772 439.606C16.2856 439.068 15.8412 438.505 15.3799 437.95C15.0864 437.597 14.7677 437.253 14.491 436.891C14.0633 436.345 13.6859 435.774 13.2917 435.21C13.0234 434.824 12.7215 434.446 12.4615 434.051C12.0506 433.42 11.69 432.773 11.321 432.126C11.1197 431.773 10.8933 431.437 10.7004 431.084C10.2978 430.327 9.94561 429.554 9.59339 428.781C9.47598 428.512 9.32503 428.26 9.21601 427.991C8.76315 426.94 8.36061 425.873 8 424.797L12.6041 438.715C12.9647 439.799 13.3672 440.867 13.8201 441.909C13.9375 442.178 14.08 442.43 14.1974 442.699C14.5497 443.472 14.9019 444.245 15.3044 445.002C15.4973 445.355 15.7237 445.699 15.925 446.044C16.294 446.691 16.6546 447.338 17.0656 447.968C17.3255 448.363 17.619 448.742 17.8958 449.128C18.2899 449.691 18.6673 450.263 19.095 450.809C19.3885 451.187 19.7156 451.549 20.0259 451.919C20.4704 452.456 20.8981 453.003 21.3761 453.524C21.7199 453.902 22.1057 454.255 22.4663 454.625C22.9443 455.112 23.4056 455.617 23.9171 456.096C24.3113 456.465 24.739 456.81 25.1499 457.163C25.6615 457.617 26.1646 458.079 26.7098 458.516C27.1375 458.861 27.6071 459.188 28.0516 459.525C28.6134 459.945 29.1585 460.382 29.7372 460.785C30.2068 461.113 30.71 461.407 31.1964 461.727C31.8002 462.113 32.3789 462.517 33.0078 462.886C33.5362 463.197 34.0897 463.483 34.6348 463.777C35.2554 464.122 35.8676 464.483 36.5133 464.811C37.0752 465.097 37.6706 465.349 38.2409 465.618C38.9034 465.929 39.5575 466.257 40.2452 466.551C40.849 466.811 41.4864 467.038 42.0986 467.282C42.7946 467.559 43.4739 467.845 44.1951 468.106C44.8492 468.341 45.5285 468.543 46.1994 468.761C46.9207 468.997 47.6251 469.249 48.3631 469.467C49.0424 469.669 49.7552 469.829 50.4429 470.013C51.206 470.215 51.9608 470.434 52.7491 470.619C53.4703 470.787 54.2167 470.921 54.9547 471.072C55.7514 471.232 56.5313 471.417 57.3448 471.56C58.1163 471.694 58.9214 471.795 59.7097 471.913C60.498 472.031 61.2779 472.165 62.083 472.266C62.1166 472.266 62.1585 472.274 62.192 472.283C63.8777 472.484 65.5717 472.636 67.2741 472.753C67.7857 472.787 68.3056 472.812 68.8172 472.837C69.4797 472.871 70.1422 472.93 70.8131 472.947C71.5008 472.972 72.1969 472.972 72.8929 472.98C73.1948 472.98 73.4883 472.997 73.7902 472.997C75.1488 473.005 76.5074 472.997 77.8744 472.955C78.084 472.955 78.2937 472.921 78.4949 472.921C79.7697 472.871 81.0444 472.787 82.3107 472.695C82.9145 472.652 83.5183 472.636 84.1221 472.585C84.3737 472.56 84.6337 472.543 84.8853 472.518C86.378 472.375 87.8708 472.199 89.3551 471.997C89.5396 471.972 89.7241 471.955 89.9086 471.93C90.0764 471.904 90.2525 471.871 90.4202 471.846C92.0304 471.619 93.6489 471.358 95.2507 471.064C95.3094 471.056 95.3681 471.047 95.4268 471.039C95.5778 471.014 95.7287 470.972 95.8881 470.946C97.3389 470.669 98.7813 470.366 100.215 470.039C100.4 469.997 100.584 469.963 100.769 469.921C100.869 469.896 100.962 469.871 101.062 469.845C102.597 469.484 104.123 469.097 105.641 468.677C105.767 468.644 105.901 468.61 106.027 468.576C106.22 468.526 106.404 468.459 106.589 468.408C108.09 467.98 109.583 467.534 111.059 467.055C111.126 467.038 111.193 467.013 111.252 466.996C111.268 466.996 111.285 466.979 111.302 466.979C112.879 466.467 114.438 465.912 115.99 465.332C116.166 465.265 116.342 465.214 116.518 465.147C116.652 465.097 116.778 465.038 116.912 464.988C118.481 464.391 120.04 463.769 121.575 463.113C121.684 463.071 121.793 463.029 121.902 462.987C122.053 462.92 122.204 462.844 122.355 462.777C124.041 462.046 125.71 461.29 127.353 460.483C127.404 460.458 127.454 460.441 127.504 460.416C127.605 460.365 127.697 460.315 127.789 460.264C129.66 459.34 131.505 458.382 133.308 457.373C133.358 457.348 133.408 457.323 133.459 457.297C133.542 457.255 133.618 457.197 133.693 457.155C135.74 456.003 137.736 454.801 139.69 453.541C139.79 453.482 139.891 453.423 139.991 453.364C140.142 453.263 140.293 453.154 140.444 453.062C141.694 452.246 142.927 451.414 144.126 450.557C144.134 450.557 144.151 450.54 144.159 450.532C145.35 449.683 146.508 448.801 147.648 447.918C147.791 447.8 147.95 447.7 148.093 447.582C148.243 447.464 148.386 447.338 148.529 447.22C149.283 446.615 150.03 446.002 150.768 445.38C150.994 445.187 151.229 445.002 151.455 444.808C152.395 444.002 153.317 443.178 154.223 442.346C154.433 442.153 154.642 441.951 154.852 441.749C155.548 441.094 156.227 440.438 156.89 439.766C157.175 439.48 157.452 439.194 157.728 438.908C158.349 438.27 158.953 437.623 159.548 436.975C159.783 436.715 160.026 436.463 160.253 436.202C161.049 435.303 161.838 434.395 162.584 433.479C162.676 433.37 162.76 433.252 162.852 433.135C163.506 432.319 164.144 431.496 164.764 430.664C164.982 430.369 165.201 430.067 165.419 429.764C165.913 429.084 166.391 428.394 166.861 427.697C167.062 427.394 167.272 427.092 167.473 426.781C168.043 425.907 168.589 425.033 169.109 424.142C169.159 424.049 169.226 423.957 169.276 423.864C169.285 423.848 169.293 423.831 169.31 423.806C169.813 422.94 170.291 422.066 170.752 421.192C171.18 420.376 171.582 419.561 171.96 418.746C172.094 418.46 172.211 418.174 172.337 417.897C172.572 417.368 172.815 416.838 173.033 416.317C173.042 416.292 173.058 416.267 173.067 416.25C173.134 416.099 173.184 415.939 173.243 415.788C173.528 415.09 173.796 414.392 174.048 413.695C174.157 413.392 174.258 413.081 174.358 412.779C174.551 412.207 174.736 411.644 174.912 411.081C174.954 410.938 175.012 410.795 175.046 410.652C175.113 410.426 175.163 410.207 175.222 409.98C175.34 409.568 175.449 409.156 175.558 408.736C175.65 408.358 175.742 407.971 175.826 407.593L175.834 407.602Z" fill="url(#paint11_linear_2079_529)"/>
</g>
<g filter="url(#filter5_f_2079_529)">
<path d="M121.226 337.731C113.761 336.827 106.102 336.776 98.4606 337.497C62.4565 340.873 26.7301 361.194 12.2881 388.652C-5.23424 421.94 15.1159 453.1 57.7772 458.269C65.2423 459.173 72.9009 459.224 80.5427 458.503C116.538 455.127 152.256 434.806 166.715 407.348C184.238 374.068 163.862 342.9 121.226 337.731Z" fill="url(#paint12_linear_2079_529)"/>
</g>
<path d="M170.983 393C170.983 393 170.859 393.705 170.634 395.02C170.368 396.328 169.969 398.255 169.204 400.631C168.447 403.008 167.366 405.852 165.844 408.976C165.021 410.495 164.139 412.117 163.208 413.823C162.21 415.487 161.013 417.167 159.84 418.967C158.559 420.673 157.171 422.413 155.74 424.213C154.177 425.894 152.647 427.727 150.909 429.434C149.129 431.097 147.408 432.939 145.404 434.535C144.422 435.359 143.433 436.191 142.435 437.031C141.412 437.837 140.331 438.593 139.267 439.382C135.017 442.574 130.294 445.367 125.437 448.058C120.489 450.571 115.383 453.007 110.061 454.874C104.781 456.852 99.317 458.253 93.92 459.501C88.4897 460.57 83.0927 461.368 77.8371 461.759C67.3008 462.506 57.4382 461.453 49.2304 459.501C40.9977 457.582 34.5778 454.492 30.3533 452.005C28.2245 450.774 26.6694 449.603 25.5967 448.839C24.5572 448.032 24 447.599 24 447.599C24 447.599 24.5738 447.998 25.6549 448.754C26.7609 449.467 28.3742 450.52 30.5363 451.666C34.8273 454.008 41.322 456.691 49.4716 458.406C57.5962 460.171 67.3757 460.833 77.7207 460.035C82.9015 459.611 88.207 458.779 93.5458 457.684C98.8513 456.411 104.215 454.985 109.404 452.998C114.66 451.207 119.699 448.839 124.597 446.411C129.404 443.797 134.077 441.08 138.285 437.973C139.341 437.201 140.406 436.471 141.429 435.681C142.427 434.875 143.416 434.068 144.389 433.279C146.402 431.76 148.131 429.994 149.928 428.398C151.682 426.76 153.221 424.994 154.809 423.373C156.256 421.632 157.67 419.952 158.967 418.305C160.164 416.582 161.345 414.96 162.41 413.356C163.399 411.701 164.331 410.122 165.212 408.645C166.834 405.614 168.015 402.847 168.855 400.521C169.694 398.187 170.218 396.311 170.543 395.012C170.842 393.713 171 393.017 171 393.017L170.983 393Z" fill="url(#paint13_linear_2079_529)"/>
<g style="mix-blend-mode:screen">
<path d="M11.6646 389.558C26.0654 361.932 61.6896 341.486 97.5825 338.09C105.202 337.365 112.839 337.416 120.283 338.326C155.462 342.624 175.436 364.831 171.391 391.336C175.822 364.57 155.815 342.068 120.384 337.736C112.94 336.826 105.303 336.775 97.6832 337.5C61.782 340.896 26.1577 361.342 11.7569 388.968C8.73581 394.749 6.8476 400.471 6 406C6.88956 400.648 8.7442 395.137 11.6562 389.558H11.6646Z" fill="url(#paint14_linear_2079_529)"/>
</g>
<defs>
<filter id="filter0_f_2079_529" x="229.426" y="32.037" width="137.034" height="167.429" filterUnits="userSpaceOnUse" color-interpolation-filters="sRGB">
<feFlood flood-opacity="0" result="BackgroundImageFix"/>
<feBlend mode="normal" in="SourceGraphic" in2="BackgroundImageFix" result="shape"/>
<feGaussianBlur stdDeviation="8.15485" result="effect1_foregroundBlur_2079_529"/>
</filter>
<filter id="filter1_f_2079_529" x="194.69" y="3.10242" width="171.245" height="229.207" filterUnits="userSpaceOnUse" color-interpolation-filters="sRGB">
<feFlood flood-opacity="0" result="BackgroundImageFix"/>
<feBlend mode="normal" in="SourceGraphic" in2="BackgroundImageFix" result="shape"/>
<feGaussianBlur stdDeviation="8.15485" result="effect1_foregroundBlur_2079_529"/>
</filter>
<filter id="filter2_f_2079_529" x="233.761" y="0.69031" width="153.549" height="214.362" filterUnits="userSpaceOnUse" color-interpolation-filters="sRGB">
<feFlood flood-opacity="0" result="BackgroundImageFix"/>
<feBlend mode="normal" in="SourceGraphic" in2="BackgroundImageFix" result="shape"/>
<feGaussianBlur stdDeviation="8.15485" result="effect1_foregroundBlur_2079_529"/>
</filter>
<filter id="filter3_f_2079_529" x="232.69" y="34.6903" width="81.6194" height="160.619" filterUnits="userSpaceOnUse" color-interpolation-filters="sRGB">
<feFlood flood-opacity="0" result="BackgroundImageFix"/>
<feBlend mode="normal" in="SourceGraphic" in2="BackgroundImageFix" result="shape"/>
<feGaussianBlur stdDeviation="8.15485" result="effect1_foregroundBlur_2079_529"/>
</filter>
<filter id="filter4_f_2079_529" x="2.56344" y="365.563" width="179.873" height="112.873" filterUnits="userSpaceOnUse" color-interpolation-filters="sRGB">
<feFlood flood-opacity="0" result="BackgroundImageFix"/>
<feBlend mode="normal" in="SourceGraphic" in2="BackgroundImageFix" result="shape"/>
<feGaussianBlur stdDeviation="2.71828" result="effect1_foregroundBlur_2079_529"/>
</filter>
<filter id="filter5_f_2079_529" x="0.563437" y="331.563" width="177.873" height="132.873" filterUnits="userSpaceOnUse" color-interpolation-filters="sRGB">
<feFlood flood-opacity="0" result="BackgroundImageFix"/>
<feBlend mode="normal" in="SourceGraphic" in2="BackgroundImageFix" result="shape"/>
<feGaussianBlur stdDeviation="2.71828" result="effect1_foregroundBlur_2079_529"/>
</filter>
<linearGradient id="paint0_linear_2079_529" x1="172.04" y1="107.461" x2="339.168" y2="295.504" gradientUnits="userSpaceOnUse">
<stop stop-color="#D8D6DE"/>
<stop offset="0.37" stop-color="#E6E4EE"/>
<stop offset="0.96" stop-color="#DFDDE5"/>
<stop offset="1" stop-color="#DFDDE5"/>
</linearGradient>
<linearGradient id="paint1_linear_2079_529" x1="348.182" y1="300.078" x2="543.711" y2="300.078" gradientUnits="userSpaceOnUse">
<stop stop-color="#D8D6DE"/>
<stop offset="0.37" stop-color="#E6E4EE"/>
<stop offset="0.96" stop-color="#DFDDE5"/>
<stop offset="1" stop-color="#DFDDE5"/>
</linearGradient>
<linearGradient id="paint2_linear_2079_529" x1="301.078" y1="-131.302" x2="1.11151" y2="-41.6194" gradientUnits="userSpaceOnUse">
<stop stop-color="#F4EEF7"/>
<stop offset="0.28" stop-color="#ECEAF3"/>
<stop offset="0.54" stop-color="#E0E4EE"/>
<stop offset="1" stop-color="#BCC1CB"/>
</linearGradient>
<linearGradient id="paint3_linear_2079_529" x1="198.739" y1="17.0234" x2="293.941" y2="358.104" gradientUnits="userSpaceOnUse">
<stop stop-color="white" stop-opacity="0.1"/>
<stop offset="0.29" stop-color="white" stop-opacity="0.68"/>
<stop offset="0.46" stop-color="white"/>
<stop offset="0.51" stop-color="white" stop-opacity="0.96"/>
<stop offset="0.59" stop-color="white" stop-opacity="0.84"/>
<stop offset="0.69" stop-color="white" stop-opacity="0.66"/>
<stop offset="0.81" stop-color="white" stop-opacity="0.4"/>
<stop offset="0.95" stop-color="white" stop-opacity="0.08"/>
<stop offset="0.98" stop-color="white" stop-opacity="0.01"/>
</linearGradient>
<linearGradient id="paint4_linear_2079_529" x1="808.68" y1="-19.8065" x2="687.623" y2="272.704" gradientUnits="userSpaceOnUse">
<stop stop-color="#F4EEF7"/>
<stop offset="0.23" stop-color="#ECEAF3"/>
<stop offset="0.44" stop-color="#E0E4EE"/>
<stop offset="0.62" stop-color="#D9DEE8"/>
<stop offset="0.86" stop-color="#C8CDD7"/>
<stop offset="1" stop-color="#BCC1CB"/>
</linearGradient>
<linearGradient id="paint5_linear_2079_529" x1="704.085" y1="-18.5395" x2="624.988" y2="290.888" gradientUnits="userSpaceOnUse">
<stop stop-color="#F9F8FD"/>
<stop offset="0.54" stop-color="#F2F3F8"/>
<stop offset="0.65" stop-color="#EBEDF2"/>
<stop offset="0.81" stop-color="#DADDE4"/>
<stop offset="0.99" stop-color="#BDC2CC"/>
<stop offset="1" stop-color="#BCC1CB"/>
</linearGradient>
<linearGradient id="paint6_linear_2079_529" x1="738.458" y1="220.86" x2="852.075" y2="310.779" gradientUnits="userSpaceOnUse">
<stop stop-color="white" stop-opacity="0.1"/>
<stop offset="0.29" stop-color="white" stop-opacity="0.68"/>
<stop offset="0.46" stop-color="white"/>
<stop offset="0.51" stop-color="white" stop-opacity="0.96"/>
<stop offset="0.59" stop-color="white" stop-opacity="0.84"/>
<stop offset="0.69" stop-color="white" stop-opacity="0.66"/>
<stop offset="0.81" stop-color="white" stop-opacity="0.4"/>
<stop offset="0.95" stop-color="white" stop-opacity="0.08"/>
<stop offset="0.98" stop-color="white" stop-opacity="0.01"/>
</linearGradient>
<linearGradient id="paint7_linear_2079_529" x1="376.173" y1="-6.37427" x2="345.79" y2="433.208" gradientUnits="userSpaceOnUse">
<stop stop-color="#F4EEF7"/>
<stop offset="0.28" stop-color="#ECEAF3"/>
<stop offset="0.54" stop-color="#E0E4EE"/>
<stop offset="1" stop-color="#BCC1CB"/>
</linearGradient>
<linearGradient id="paint8_linear_2079_529" x1="1004.01" y1="401.086" x2="539.415" y2="952.995" gradientUnits="userSpaceOnUse">
<stop stop-color="#F4EEF7"/>
<stop offset="0.28" stop-color="#ECEAF3"/>
<stop offset="0.54" stop-color="#E0E4EE"/>
<stop offset="1" stop-color="#BCC1CB"/>
</linearGradient>
<linearGradient id="paint9_linear_2079_529" x1="835.295" y1="645.996" x2="839.716" y2="831.372" gradientUnits="userSpaceOnUse">
<stop stop-color="#F4EEF7"/>
<stop offset="0.23" stop-color="#ECEAF3"/>
<stop offset="0.44" stop-color="#E0E4EE"/>
<stop offset="1" stop-color="#BCC1CB"/>
</linearGradient>
<linearGradient id="paint10_linear_2079_529" x1="737.391" y1="293.427" x2="954.037" y2="873.445" gradientUnits="userSpaceOnUse">
<stop stop-color="#F9F8FD"/>
<stop offset="0.54" stop-color="#F2F3F8"/>
<stop offset="0.65" stop-color="#EBEDF2"/>
<stop offset="0.81" stop-color="#DADDE4"/>
<stop offset="0.99" stop-color="#BDC2CC"/>
<stop offset="1" stop-color="#BCC1CB"/>
</linearGradient>
<linearGradient id="paint11_linear_2079_529" x1="62.7607" y1="240.209" x2="-39.1377" y2="485.893" gradientUnits="userSpaceOnUse">
<stop stop-color="#F4EEF7"/>
<stop offset="0.23" stop-color="#ECEAF3"/>
<stop offset="0.44" stop-color="#E0E4EE"/>
<stop offset="0.62" stop-color="#D9DEE8"/>
<stop offset="0.86" stop-color="#C8CDD7"/>
<stop offset="1" stop-color="#BCC1CB"/>
</linearGradient>
<linearGradient id="paint12_linear_2079_529" x1="-25.0681" y1="241.894" x2="-91.0491" y2="501.235" gradientUnits="userSpaceOnUse">
<stop stop-color="#F9F8FD"/>
<stop offset="0.54" stop-color="#F2F3F8"/>
<stop offset="0.65" stop-color="#EBEDF2"/>
<stop offset="0.81" stop-color="#DADDE4"/>
<stop offset="0.99" stop-color="#BDC2CC"/>
<stop offset="1" stop-color="#BCC1CB"/>
</linearGradient>
<linearGradient id="paint13_linear_2079_529" x1="4.58792" y1="444.38" x2="100.56" y2="518.788" gradientUnits="userSpaceOnUse">
<stop stop-color="white" stop-opacity="0.1"/>
<stop offset="0.29" stop-color="white" stop-opacity="0.68"/>
<stop offset="0.46" stop-color="white"/>
<stop offset="0.51" stop-color="white" stop-opacity="0.96"/>
<stop offset="0.59" stop-color="white" stop-opacity="0.84"/>
<stop offset="0.69" stop-color="white" stop-opacity="0.66"/>
<stop offset="0.81" stop-color="white" stop-opacity="0.4"/>
<stop offset="0.95" stop-color="white" stop-opacity="0.08"/>
<stop offset="0.98" stop-color="white" stop-opacity="0.01"/>
</linearGradient>
<linearGradient id="paint14_linear_2079_529" x1="-300.678" y1="251.565" x2="-326.391" y2="622.016" gradientUnits="userSpaceOnUse">
<stop stop-color="#F4EEF7"/>
<stop offset="0.28" stop-color="#ECEAF3"/>
<stop offset="0.54" stop-color="#E0E4EE"/>
<stop offset="1" stop-color="#BCC1CB"/>
</linearGradient>
</defs>
</svg>
