<svg width="884" height="713" viewBox="0 0 884 713" fill="none" xmlns="http://www.w3.org/2000/svg">
<g filter="url(#filter0_f_2079_529)">
<path d="M297.077 37.1564L336.193 19.9215C342.936 16.9572 347.553 9.7957 349.337 -0.723602C349.626 -2.42873 349.836 -4.16008 349.967 -5.97013C350.019 -6.57348 350.019 -7.20307 350.045 -7.80642C350.098 -9.01312 350.15 -10.2461 350.15 -11.5052C350.15 -11.6364 350.15 -11.7413 350.15 -11.8725C350.15 -12.6332 350.072 -13.4464 350.019 -14.2072C349.967 -15.1778 349.967 -16.1222 349.862 -17.0928C349.862 -17.224 349.862 -17.3551 349.862 -17.5125C349.731 -19.034 349.547 -20.5555 349.337 -22.1032C349.337 -22.1819 349.337 -22.2344 349.311 -22.3131C349.285 -22.5229 349.232 -22.7328 349.206 -22.9689C349.048 -24.0444 348.891 -25.12 348.681 -26.2218C348.576 -26.7202 348.471 -27.2448 348.366 -27.7432C348.288 -28.1367 348.209 -28.5302 348.13 -28.95C348.052 -29.3172 347.999 -29.6845 347.894 -30.0517C347.632 -31.2584 347.317 -32.4651 347.002 -33.6981C346.95 -33.8817 346.897 -34.0391 346.871 -34.2227C346.792 -34.485 346.714 -34.7474 346.661 -35.0097C346.451 -35.7704 346.241 -36.505 346.031 -37.2657C345.717 -38.3412 345.376 -39.4168 345.008 -40.5186C345.008 -40.571 344.982 -40.6497 344.956 -40.7022C344.956 -40.7284 344.956 -40.7547 344.956 -40.7809C344.562 -41.9614 344.169 -43.1156 343.723 -44.2961C343.408 -45.1617 343.093 -46.0274 342.752 -46.8669C342.621 -47.1817 342.516 -47.4965 342.385 -47.8112C341.913 -48.9655 341.44 -50.1197 340.942 -51.2477C340.837 -51.4838 340.706 -51.7199 340.601 -51.9822C340.443 -52.3233 340.286 -52.6643 340.129 -53.0053C339.866 -53.5824 339.604 -54.1596 339.342 -54.7367C338.948 -55.5499 338.554 -56.3369 338.161 -57.1238C338.03 -57.3862 337.899 -57.6747 337.767 -57.9371C337.715 -58.042 337.663 -58.1731 337.584 -58.2781C336.928 -59.5372 336.272 -60.7702 335.59 -61.9769C335.485 -62.1343 335.406 -62.2917 335.301 -62.4491C335.039 -62.9213 334.75 -63.3672 334.488 -63.8132C334.068 -64.5215 333.649 -65.256 333.203 -65.9643C333.019 -66.2528 332.809 -66.5414 332.625 -66.8299C332.127 -67.6169 331.628 -68.3777 331.13 -69.1384C330.789 -69.6368 330.474 -70.1615 330.133 -70.6599C330.002 -70.8698 329.844 -71.0534 329.687 -71.237C328.27 -73.2569 326.801 -75.2244 325.28 -77.0869C325.227 -77.1656 325.148 -77.2443 325.096 -77.323C324.44 -78.1362 323.758 -78.8707 323.076 -79.6315C322.709 -80.0512 322.341 -80.4972 321.974 -80.8906C320.82 -82.1498 319.665 -83.3565 318.485 -84.4845C317.121 -85.7962 315.73 -87.0291 314.34 -88.1571C314.261 -88.2096 314.208 -88.2883 314.13 -88.3407C313.054 -89.2064 311.979 -90.0196 310.929 -90.7541C310.641 -90.964 310.378 -91.1214 310.09 -91.305C309.512 -91.6985 308.962 -92.092 308.384 -92.433C308.122 -92.5904 307.86 -92.7216 307.597 -92.879C306.994 -93.2462 306.39 -93.561 305.761 -93.902C305.394 -94.1119 305 -94.348 304.633 -94.5316C304.292 -94.689 303.977 -94.8202 303.662 -94.9514C303.269 -95.135 302.849 -95.3186 302.455 -95.476C302.167 -95.5809 301.904 -95.7383 301.616 -95.8433C300.96 -96.0794 300.33 -96.2892 299.701 -96.4729C299.517 -96.5253 299.333 -96.604 299.15 -96.6565C299.097 -96.6565 299.018 -96.7089 298.966 -96.7089C298.153 -96.945 297.366 -97.1287 296.552 -97.2598C296.343 -97.2861 296.133 -97.3123 295.923 -97.3385C295.687 -97.3648 295.451 -97.391 295.241 -97.4435C294.926 -97.4697 294.637 -97.5484 294.322 -97.5746C293.614 -97.6271 292.906 -97.6533 292.197 -97.6533C292.171 -97.6533 292.145 -97.6533 292.119 -97.6533C292.066 -97.6533 291.988 -97.6533 291.935 -97.6533C291.332 -97.6533 290.754 -97.6009 290.177 -97.5484C289.679 -97.4959 289.18 -97.4172 288.682 -97.3123C288.525 -97.2861 288.367 -97.2598 288.183 -97.2074C287.921 -97.1549 287.685 -97.05 287.423 -96.9975C287.108 -96.9188 286.793 -96.8401 286.504 -96.7352C286.426 -96.7352 286.347 -96.7089 286.268 -96.6827C285.796 -96.5253 285.298 -96.3417 284.852 -96.1318L245.735 -78.897C246.26 -79.1331 246.811 -79.3429 247.388 -79.5003C247.703 -79.6052 248.018 -79.6839 248.306 -79.7626C248.726 -79.8676 249.12 -79.9987 249.539 -80.0774C250.589 -80.2873 251.691 -80.3922 252.793 -80.4185C252.845 -80.4185 252.924 -80.4185 252.976 -80.4185C253.999 -80.4185 255.049 -80.3398 256.098 -80.2086C256.334 -80.1824 256.544 -80.1561 256.78 -80.1037C257.83 -79.9463 258.905 -79.7102 260.007 -79.3954C260.191 -79.3429 260.374 -79.2642 260.532 -79.2118C261.45 -78.9232 262.368 -78.5822 263.287 -78.2149C263.68 -78.0575 264.1 -77.8739 264.493 -77.6903C265.202 -77.3755 265.884 -77.0082 266.592 -76.641C267.196 -76.3262 267.799 -75.9851 268.429 -75.6179C269.268 -75.1195 270.081 -74.5948 270.921 -74.0439C271.209 -73.8603 271.472 -73.6767 271.76 -73.493C272.888 -72.6798 274.043 -71.8141 275.171 -70.896C276.561 -69.768 277.926 -68.5351 279.316 -67.2234C280.497 -66.0954 281.651 -64.8887 282.805 -63.6295C283.173 -63.2098 283.54 -62.7639 283.933 -62.3441C284.668 -61.5047 285.403 -60.6653 286.111 -59.7996C287.633 -57.9371 289.102 -55.9696 290.518 -53.9497C290.991 -53.2676 291.489 -52.5594 291.935 -51.8511C292.434 -51.0903 292.958 -50.3296 293.43 -49.5426C294.06 -48.5458 294.663 -47.5489 295.267 -46.5258C295.529 -46.0537 295.818 -45.6077 296.08 -45.1355C296.92 -43.6403 297.733 -42.145 298.546 -40.5973C298.677 -40.3349 298.809 -40.0464 298.966 -39.784C299.648 -38.4462 300.304 -37.0821 300.934 -35.6917C301.091 -35.3507 301.248 -35.0097 301.406 -34.6687C302.14 -32.9898 302.875 -31.2847 303.557 -29.5795C304.37 -27.5072 305.105 -25.461 305.787 -23.4149C305.787 -23.3624 305.84 -23.2837 305.84 -23.2312C306.443 -21.3949 306.994 -19.5587 307.492 -17.7486C307.571 -17.4863 307.65 -17.224 307.702 -16.9616C308.174 -15.204 308.594 -13.4464 308.962 -11.7151C309.04 -11.3216 309.119 -10.9281 309.198 -10.5346C309.512 -8.93443 309.801 -7.33423 310.037 -5.76027C310.063 -5.55041 310.116 -5.34055 310.142 -5.13069C310.404 -3.3731 310.588 -1.64175 310.719 0.0633774C310.798 1.03399 310.824 1.97836 310.877 2.94897C310.929 3.84089 310.982 4.75903 310.982 5.65094C310.982 6.91011 310.929 8.11681 310.877 9.32352C310.85 9.9531 310.877 10.5827 310.798 11.186C310.667 12.9699 310.457 14.7274 310.168 16.4326C309.486 20.3675 308.437 23.8302 306.994 26.7945C306.049 28.7619 304.921 30.4933 303.662 32.0148C302.403 33.51 300.986 34.7692 299.438 35.7661C298.651 36.2645 297.864 36.7104 297.025 37.0777L297.077 37.1564Z" fill="url(#paint0_linear_2079_529)"/>
</g>
<g filter="url(#filter1_f_2079_529)">
<path d="M296.159 69.8686C296.159 69.8686 296.237 69.8686 296.263 69.8686C297.287 69.9473 298.284 69.9998 299.28 69.9998C299.307 69.9998 299.359 69.9998 299.385 69.9998C300.409 69.9998 301.406 69.9211 302.402 69.8161C302.402 69.8161 302.455 69.8161 302.481 69.8161C302.796 69.7899 303.085 69.7112 303.373 69.6587C304.029 69.5538 304.659 69.4751 305.315 69.3439C305.367 69.3439 305.419 69.3439 305.472 69.3439C305.787 69.2652 306.102 69.1603 306.416 69.0816C306.994 68.9242 307.571 68.793 308.122 68.6094C308.2 68.6094 308.279 68.5832 308.332 68.5569C309.066 68.2946 309.801 68.0323 310.509 67.7175L349.625 50.4826C348.838 50.8237 348.051 51.1122 347.238 51.4008C346.687 51.5844 346.11 51.7156 345.533 51.873C345.165 51.9779 344.798 52.0828 344.431 52.1615C343.801 52.2927 343.172 52.3976 342.516 52.4763C342.175 52.5288 341.86 52.6075 341.519 52.6337C340.522 52.7387 339.525 52.7911 338.502 52.8174C338.475 52.8174 338.423 52.8174 338.397 52.8174C337.4 52.8174 336.403 52.7911 335.38 52.6862C335.065 52.66 334.75 52.6075 334.435 52.555C333.648 52.4763 332.887 52.3714 332.1 52.2402C331.733 52.1615 331.34 52.0828 330.946 52.0041C330.159 51.8467 329.398 51.6631 328.585 51.4532C328.165 51.3483 327.745 51.2172 327.326 51.086C326.486 50.8237 325.62 50.5351 324.755 50.2203C324.335 50.0629 323.915 49.9055 323.495 49.7481C322.131 49.2235 320.767 48.6201 319.376 47.9381C319.376 47.9381 319.324 47.9381 319.324 47.9118C319.298 47.9118 319.245 47.8856 319.219 47.8594C318.222 47.3609 317.199 46.8101 316.176 46.233C315.835 46.0493 315.494 45.8394 315.153 45.6296C314.497 45.2361 313.841 44.8426 313.159 44.4229C312.031 43.7146 310.903 42.9539 309.774 42.1407C309.565 41.9833 309.328 41.8521 309.119 41.6947C307.781 40.7241 306.416 39.6748 305.078 38.573C304.37 37.9959 303.635 37.3663 302.927 36.7367C302.56 36.4219 302.193 36.1071 301.799 35.7923C300.671 34.7955 299.569 33.7724 298.441 32.6969C296.631 30.9655 294.847 29.1292 293.089 27.2143C292.512 26.5847 291.961 25.9026 291.384 25.2468C290.203 23.909 289.023 22.5711 287.895 21.1808C287.527 20.7086 287.16 20.2364 286.793 19.7642C285.586 18.2427 284.405 16.7212 283.251 15.121C282.779 14.4652 282.307 13.8094 281.834 13.1535C280.916 11.8681 280.05 10.5565 279.158 9.21864C278.398 8.06441 277.637 6.91017 276.876 5.72971C275.905 4.20821 274.987 2.66049 274.069 1.08652C273.649 0.378242 273.229 -0.30381 272.836 -0.985863C271.55 -3.24187 270.291 -5.55035 269.084 -7.91129C268.874 -8.33101 268.664 -8.77696 268.454 -9.19669C267.431 -11.2428 266.434 -13.3414 265.464 -15.4401C265.228 -15.9647 264.991 -16.4894 264.755 -17.014C263.601 -19.5848 262.525 -22.1819 261.476 -24.8051C260.269 -27.8743 259.167 -30.9698 258.144 -34.039C258.092 -34.2227 258.013 -34.4325 257.961 -34.6161C257.069 -37.3706 256.255 -40.125 255.494 -42.8532C255.389 -43.1942 255.285 -43.5352 255.206 -43.8763C254.497 -46.5782 253.868 -49.254 253.291 -51.9297C253.16 -52.5593 253.028 -53.2151 252.897 -53.8447C252.399 -56.2843 251.979 -58.6977 251.612 -61.1111C251.559 -61.4522 251.48 -61.8194 251.428 -62.1604C251.034 -64.8886 250.746 -67.5644 250.536 -70.2139C250.405 -71.8141 250.379 -73.3356 250.3 -74.9095C250.247 -76.2736 250.142 -77.6902 250.116 -79.0281C250.116 -79.3166 250.116 -79.5789 250.116 -79.8675C250.116 -82.4121 250.195 -84.9042 250.379 -87.2913C250.379 -87.4487 250.405 -87.6061 250.431 -87.7898C250.641 -90.3081 250.93 -92.7477 251.323 -95.0825C254.078 -111.111 261.109 -122.076 271.393 -126.588L232.277 -109.405C221.992 -104.867 214.961 -93.902 212.207 -77.9001C211.813 -75.5391 211.525 -73.0995 211.315 -70.6074C211.315 -70.45 211.289 -70.2926 211.262 -70.1089C211.079 -67.6955 211 -65.2034 211 -62.6589C211 -62.3703 211 -62.108 211 -61.8194C211 -61.6096 211 -61.3997 211 -61.1898C211 -60.0356 211.131 -58.8551 211.184 -57.7009C211.262 -56.1532 211.289 -54.6054 211.42 -53.0052C211.42 -52.8216 211.42 -52.638 211.446 -52.4544C211.656 -50.0934 211.918 -47.68 212.259 -45.2666C212.259 -45.1617 212.286 -45.0567 212.312 -44.9518C212.364 -44.6108 212.443 -44.2435 212.495 -43.8763C212.758 -42.1974 212.994 -40.5447 213.309 -38.8396C213.44 -38.1051 213.623 -37.3706 213.755 -36.6098C213.886 -35.9802 214.017 -35.3244 214.148 -34.6948C214.279 -34.0915 214.384 -33.4881 214.515 -32.8848C214.935 -31.0223 215.407 -29.1335 215.88 -27.2448C215.932 -27.0611 215.985 -26.8513 216.037 -26.6676C216.142 -26.3266 216.247 -25.9856 216.326 -25.6183C216.667 -24.3592 217.008 -23.1 217.401 -21.8146C217.847 -20.3456 218.32 -18.8765 218.792 -17.3813C218.844 -17.1976 218.923 -16.9878 218.975 -16.8042C219.002 -16.6992 219.028 -16.6205 219.054 -16.5156C219.631 -14.7842 220.235 -13.0529 220.864 -11.3215C221.337 -10.0624 221.809 -8.82943 222.281 -7.57026C222.465 -7.09807 222.648 -6.59966 222.858 -6.12746C223.567 -4.36987 224.301 -2.61228 225.062 -0.880928C225.219 -0.513672 225.403 -0.172646 225.56 0.194611C225.796 0.719261 226.033 1.24392 226.269 1.76857C226.662 2.66048 227.056 3.5524 227.476 4.41808C228.053 5.62477 228.656 6.80525 229.26 8.01195C229.469 8.43167 229.679 8.85139 229.889 9.27112C229.994 9.45474 230.073 9.63838 230.178 9.82201C231.175 11.737 232.172 13.6257 233.221 15.462C233.352 15.6981 233.51 15.9342 233.641 16.1703C234.034 16.8786 234.454 17.5606 234.874 18.2427C235.53 19.3445 236.159 20.4725 236.841 21.5742C237.13 22.0202 237.419 22.4399 237.707 22.9121C238.442 24.0926 239.229 25.2468 239.99 26.401C240.488 27.1618 240.987 27.975 241.511 28.7095C241.878 29.2604 242.298 29.7851 242.666 30.3097C243.138 30.9655 243.61 31.6213 244.082 32.2772C245.237 33.8511 246.417 35.3988 247.624 36.9203C247.991 37.3925 248.359 37.891 248.752 38.3369C248.883 38.4943 249.014 38.6779 249.146 38.8353C250.169 40.0683 251.192 41.2225 252.241 42.3767C252.818 43.0326 253.369 43.7146 253.947 44.3442C255.704 46.2592 257.488 48.0955 259.298 49.8268C260.427 50.9024 261.528 51.9254 262.657 52.9223C263.024 53.2633 263.417 53.5519 263.785 53.8929C264.388 54.4175 265.018 54.9684 265.621 55.4668C265.726 55.5455 265.831 55.6242 265.936 55.7029C267.3 56.8047 268.638 57.854 270.002 58.8246C270.212 58.982 270.422 59.1132 270.632 59.2706C271.76 60.0838 272.914 60.8445 274.043 61.5528C274.2 61.6578 274.357 61.7889 274.541 61.8676C275.039 62.1824 275.538 62.471 276.036 62.7595C276.377 62.9694 276.718 63.1793 277.06 63.3629C278.083 63.94 279.106 64.4909 280.103 64.9893C280.129 64.9893 280.181 65.0155 280.208 65.0418C280.208 65.0418 280.234 65.0418 280.26 65.0418C281.651 65.7238 283.015 66.3009 284.379 66.8518C284.536 66.9305 284.72 67.0092 284.878 67.0617C285.14 67.1666 285.376 67.2191 285.638 67.324C286.504 67.6388 287.344 67.9274 288.209 68.1897C288.472 68.2684 288.734 68.3733 288.996 68.452C289.154 68.5045 289.311 68.5307 289.495 68.5569C290.282 68.7668 291.069 68.9504 291.83 69.1078C292.118 69.1603 292.433 69.2652 292.722 69.3177C292.8 69.3177 292.905 69.3177 292.984 69.3439C293.771 69.4751 294.532 69.58 295.293 69.6587C295.581 69.685 295.87 69.7637 296.159 69.7637V69.8686Z" fill="url(#paint1_linear_2079_529)"/>
</g>
<g filter="url(#filter2_f_2079_529)">
<path fill-rule="evenodd" clip-rule="evenodd" d="M359.647 -51.3523C369.459 -26.3526 373.158 -0.723282 369.773 18.9512C363.084 57.9592 331.077 64.0976 298.415 32.6447C283.434 18.2692 270.317 -2.13985 261.423 -24.8311C251.611 -49.8308 247.912 -75.4602 251.297 -95.1347C254.55 -114.048 263.732 -125.906 277.217 -128.476C290.701 -131.047 306.836 -124.096 322.656 -108.854C337.636 -94.4526 350.753 -74.0436 359.647 -51.3523ZM278.371 -29.3961C284.195 -14.5484 292.8 -1.14349 302.586 8.27405C312.949 18.2425 323.521 22.8069 332.362 21.1018C341.177 19.3967 347.211 11.6581 349.336 -0.72377C351.566 -13.7876 349.232 -30.1568 342.699 -46.7883C336.875 -61.636 328.27 -75.0409 318.484 -84.4585C308.121 -94.4269 297.549 -99.0176 288.708 -97.3125C279.893 -95.6073 273.859 -87.8425 271.734 -75.4606C269.504 -62.3968 271.839 -46.0276 278.371 -29.3961Z" fill="url(#paint2_linear_2079_529)"/>
</g>
<g filter="url(#filter3_f_2079_529)">
<path d="M250.846 -95C250.846 -95 250.793 -94.4482 250.688 -93.4233C250.583 -92.3985 250.426 -90.8744 250.321 -88.9561C250.058 -85.1195 250.058 -79.6274 250.557 -73.0842C251.03 -66.541 252.265 -58.9466 254.103 -50.9581C255.89 -42.9696 258.49 -34.5869 261.669 -26.4408C264.743 -18.2158 268.394 -10.2798 272.335 -3.07966C276.249 4.12051 280.268 10.6637 284.13 15.9982C287.965 21.3326 291.38 25.6422 293.954 28.5065C296.476 31.397 298 33 298 33C298 33 297.58 32.6321 296.818 31.9226C296.056 31.2131 294.9 30.2145 293.56 28.8481C292.168 27.5079 290.566 25.7998 288.753 23.8027C286.94 21.8056 284.944 19.4931 282.921 16.8653C280.872 14.2638 278.771 11.3207 276.617 8.1936C274.515 5.01396 272.308 1.65038 270.312 -2.00226C266.24 -9.2287 262.405 -17.296 259.2 -25.521C256.074 -33.8249 253.578 -42.3652 251.87 -50.4851C250.951 -54.5319 250.373 -58.5262 249.927 -62.3102C249.506 -66.0942 249.191 -69.6943 249.086 -73.0053C248.928 -76.3164 249.007 -79.3646 249.165 -82.0712C249.322 -84.7516 249.532 -87.1166 249.795 -89.0349C250.005 -90.9532 250.321 -92.451 250.531 -93.4496C250.715 -94.4744 250.82 -95 250.82 -95L250.846 -95Z" fill="url(#paint3_linear_2079_529)"/>
</g>
<path d="M943.512 33.3635C943.622 32.8735 943.732 32.3835 943.832 31.9035C943.872 31.6935 943.932 31.4835 943.972 31.2735C943.992 31.1435 944.002 31.0235 944.022 30.8935C944.302 29.3835 944.512 27.8735 944.652 26.3935C944.652 26.3035 944.682 26.2035 944.692 26.1035C944.702 25.9635 944.692 25.8235 944.712 25.6835C944.832 24.2635 944.902 22.8435 944.902 21.4435C944.902 21.4035 944.902 21.3635 944.902 21.3135C944.902 21.2135 944.892 21.1035 944.892 21.0035C944.892 19.6835 944.822 18.3735 944.702 17.0735C944.702 16.9735 944.702 16.8735 944.692 16.7735C944.692 16.7335 944.682 16.6935 944.672 16.6535C944.542 15.3435 944.352 14.0635 944.122 12.7835C944.102 12.6535 944.092 12.5135 944.062 12.3835C944.042 12.2735 944.002 12.1635 943.982 12.0535C943.732 10.8035 943.442 9.56348 943.092 8.33348C943.072 8.25348 943.052 8.16348 943.032 8.08348C942.862 7.50348 942.692 6.93348 942.502 6.37348L937.012 -10.1865C937.222 -9.53652 937.412 -8.88652 937.602 -8.22652C937.952 -7.00652 938.242 -5.75652 938.492 -4.50652C938.542 -4.26652 938.582 -4.02652 938.622 -3.78652C938.852 -2.50652 939.042 -1.21652 939.172 0.083477C939.182 0.223477 939.192 0.363477 939.202 0.513476C939.312 1.81348 939.382 3.12348 939.392 4.44348C939.392 4.58348 939.392 4.73348 939.392 4.87348C939.392 6.27348 939.322 7.69348 939.202 9.11348C939.182 9.34348 939.162 9.58348 939.142 9.81348C939.002 11.3035 938.782 12.8035 938.502 14.3235C938.442 14.6535 938.382 14.9935 938.312 15.3235C938.212 15.8135 938.102 16.3035 937.992 16.7935C937.892 17.2435 937.782 17.6935 937.672 18.1435C937.552 18.6335 937.412 19.1235 937.272 19.6235C937.152 20.0535 937.022 20.4935 936.892 20.9235C936.682 21.6035 936.462 22.2735 936.232 22.9535C936.112 23.3135 935.992 23.6735 935.862 24.0335C935.562 24.8635 935.242 25.6935 934.902 26.5235C934.812 26.7335 934.742 26.9435 934.652 27.1535C934.392 27.7835 934.102 28.4135 933.822 29.0335C933.672 29.3735 933.532 29.7035 933.372 30.0435C932.912 31.0135 932.432 31.9835 931.932 32.9535C931.382 34.0035 930.812 35.0335 930.212 36.0635C930.132 36.1935 930.052 36.3235 929.972 36.4535C929.352 37.5135 928.692 38.5535 928.022 39.5935C927.782 39.9535 927.542 40.3235 927.292 40.6835C926.732 41.5135 926.162 42.3335 925.572 43.1435C925.312 43.5035 925.062 43.8635 924.792 44.2135C924.052 45.2035 923.292 46.1835 922.512 47.1535C922.402 47.2935 922.302 47.4235 922.192 47.5635C921.292 48.6635 920.362 49.7435 919.412 50.8035C919.132 51.1135 918.852 51.4135 918.572 51.7235C917.862 52.4935 917.142 53.2635 916.402 54.0235C916.072 54.3635 915.742 54.7035 915.402 55.0435C914.602 55.8435 913.792 56.6235 912.972 57.4035C912.722 57.6435 912.482 57.8835 912.222 58.1135C911.152 59.1035 910.052 60.0835 908.922 61.0435C908.652 61.2735 908.372 61.4935 908.102 61.7235C907.222 62.4635 906.332 63.1935 905.432 63.9135C905.082 64.1935 904.732 64.4635 904.372 64.7435C903.012 65.8035 901.632 66.8435 900.222 67.8535C900.202 67.8635 900.192 67.8835 900.172 67.8935C898.742 68.9135 897.272 69.9035 895.792 70.8735C895.492 71.0735 895.192 71.2635 894.892 71.4535C892.572 72.9435 890.182 74.3835 887.752 75.7535C887.602 75.8435 887.442 75.9335 887.292 76.0135C885.142 77.2135 882.942 78.3535 880.712 79.4535C880.542 79.5435 880.362 79.6335 880.192 79.7135C878.232 80.6635 876.242 81.5735 874.232 82.4435C873.922 82.5735 873.622 82.7135 873.312 82.8435C871.482 83.6235 869.622 84.3635 867.752 85.0735C867.392 85.2135 867.022 85.3435 866.652 85.4835C864.802 86.1635 862.942 86.8235 861.062 87.4435C860.962 87.4735 860.862 87.5035 860.762 87.5335C858.992 88.1035 857.212 88.6335 855.432 89.1435C855.052 89.2535 854.672 89.3635 854.302 89.4635C852.492 89.9635 850.672 90.4235 848.842 90.8535C848.502 90.9335 848.172 91.0035 847.832 91.0835C846.112 91.4735 844.392 91.8335 842.672 92.1635C842.422 92.2135 842.172 92.2635 841.922 92.3135C840.002 92.6635 838.082 92.9735 836.162 93.2435C835.742 93.3035 835.312 93.3635 834.892 93.4235C833.112 93.6635 831.342 93.8735 829.562 94.0435C828.542 94.1435 827.512 94.1835 826.492 94.2535C824.972 94.3635 823.452 94.4735 821.942 94.5235C820.072 94.5935 818.202 94.6335 816.332 94.6235C815.972 94.6235 815.622 94.6135 815.262 94.6035C813.642 94.5835 812.022 94.5135 810.412 94.4235C809.802 94.3935 809.182 94.3635 808.572 94.3235C806.542 94.1835 804.522 94.0035 802.512 93.7635C801.462 93.6335 800.452 93.4635 799.432 93.3035C798.532 93.1735 797.622 93.0535 796.742 92.9035C795.752 92.7335 794.792 92.5135 793.822 92.3135C792.972 92.1435 792.102 91.9835 791.262 91.7935C790.292 91.5735 789.372 91.3035 788.432 91.0535C787.632 90.8435 786.812 90.6535 786.032 90.4235C785.092 90.1535 784.202 89.8335 783.292 89.5335C782.552 89.2935 781.782 89.0635 781.062 88.8035C780.172 88.4835 779.332 88.1235 778.462 87.7835C777.752 87.5035 777.032 87.2435 776.342 86.9535C775.512 86.5935 774.722 86.2035 773.922 85.8235C773.252 85.5035 772.552 85.2135 771.892 84.8735C771.082 84.4635 770.312 84.0135 769.532 83.5735C768.932 83.2435 768.302 82.9235 767.722 82.5835C766.942 82.1235 766.222 81.6335 765.472 81.1435C764.922 80.7835 764.352 80.4535 763.812 80.0835C763.112 79.6035 762.462 79.0835 761.802 78.5835C761.272 78.1835 760.712 77.8035 760.202 77.3835C759.552 76.8635 758.962 76.3135 758.342 75.7735C757.852 75.3435 757.342 74.9335 756.872 74.5035C756.242 73.9135 755.672 73.3035 755.082 72.6935C754.672 72.2735 754.232 71.8735 753.842 71.4435C753.262 70.8035 752.732 70.1335 752.182 69.4735C751.832 69.0535 751.452 68.6435 751.122 68.2135C750.612 67.5635 750.162 66.8835 749.692 66.2135C749.372 65.7535 749.012 65.3035 748.702 64.8335C748.212 64.0835 747.782 63.3135 747.342 62.5435C747.102 62.1235 746.832 61.7235 746.602 61.3035C746.122 60.4035 745.702 59.4835 745.282 58.5635C745.142 58.2435 744.962 57.9435 744.832 57.6235C744.292 56.3735 743.812 55.1035 743.382 53.8235L748.872 70.3835C749.302 71.6735 749.782 72.9435 750.322 74.1835C750.462 74.5035 750.632 74.8035 750.772 75.1235C751.192 76.0435 751.612 76.9635 752.092 77.8635C752.322 78.2835 752.592 78.6935 752.832 79.1035C753.272 79.8735 753.702 80.6435 754.192 81.3935C754.502 81.8635 754.852 82.3135 755.182 82.7735C755.652 83.4435 756.102 84.1235 756.612 84.7735C756.962 85.2235 757.352 85.6535 757.722 86.0935C758.252 86.7335 758.762 87.3835 759.332 88.0035C759.742 88.4535 760.202 88.8735 760.632 89.3135C761.202 89.8935 761.752 90.4935 762.362 91.0635C762.832 91.5035 763.342 91.9135 763.832 92.3335C764.442 92.8735 765.042 93.4235 765.692 93.9435C766.202 94.3535 766.762 94.7435 767.292 95.1435C767.962 95.6435 768.612 96.1635 769.302 96.6435C769.862 97.0335 770.462 97.3835 771.042 97.7635C771.762 98.2235 772.452 98.7035 773.202 99.1435C773.832 99.5135 774.492 99.8535 775.142 100.203C775.882 100.613 776.612 101.043 777.382 101.433C778.052 101.773 778.762 102.073 779.442 102.393C780.232 102.763 781.012 103.153 781.832 103.503C782.552 103.813 783.312 104.083 784.042 104.373C784.872 104.703 785.682 105.043 786.542 105.353C787.322 105.633 788.132 105.873 788.932 106.133C789.792 106.413 790.632 106.713 791.512 106.973C792.322 107.213 793.172 107.403 793.992 107.623C794.902 107.863 795.802 108.123 796.742 108.343C797.602 108.543 798.492 108.703 799.372 108.883C800.322 109.073 801.252 109.293 802.222 109.463C803.142 109.623 804.102 109.743 805.042 109.883C805.982 110.023 806.912 110.183 807.872 110.303C807.912 110.303 807.962 110.313 808.002 110.323C810.012 110.563 812.032 110.743 814.062 110.883C814.672 110.923 815.292 110.953 815.902 110.983C816.692 111.023 817.482 111.093 818.282 111.113C819.102 111.143 819.932 111.143 820.762 111.153C821.122 111.153 821.472 111.173 821.832 111.173C823.452 111.183 825.072 111.173 826.702 111.123C826.952 111.123 827.202 111.083 827.442 111.083C828.962 111.023 830.482 110.923 831.992 110.813C832.712 110.763 833.432 110.743 834.152 110.683C834.452 110.653 834.762 110.633 835.062 110.603C836.842 110.433 838.622 110.223 840.392 109.983C840.612 109.953 840.832 109.933 841.052 109.903C841.252 109.873 841.462 109.833 841.662 109.803C843.582 109.533 845.512 109.223 847.422 108.873C847.492 108.863 847.562 108.853 847.632 108.843C847.812 108.813 847.992 108.763 848.182 108.733C849.912 108.403 851.632 108.043 853.342 107.653C853.562 107.603 853.782 107.563 854.002 107.513C854.122 107.483 854.232 107.453 854.352 107.423C856.182 106.993 858.002 106.533 859.812 106.033C859.962 105.993 860.122 105.953 860.272 105.913C860.502 105.853 860.722 105.773 860.942 105.713C862.732 105.203 864.512 104.673 866.272 104.103C866.352 104.083 866.432 104.053 866.502 104.033C866.522 104.033 866.542 104.013 866.562 104.013C868.442 103.403 870.302 102.743 872.152 102.053C872.362 101.973 872.572 101.913 872.782 101.833C872.942 101.773 873.092 101.703 873.252 101.643C875.122 100.933 876.982 100.193 878.812 99.4135C878.942 99.3635 879.072 99.3135 879.202 99.2635C879.382 99.1835 879.562 99.0935 879.742 99.0135C881.752 98.1435 883.742 97.2435 885.702 96.2835C885.762 96.2535 885.822 96.2335 885.882 96.2035C886.002 96.1435 886.112 96.0835 886.222 96.0235C888.452 94.9235 890.652 93.7835 892.802 92.5835C892.862 92.5535 892.922 92.5235 892.982 92.4935C893.082 92.4435 893.172 92.3735 893.262 92.3235C895.702 90.9535 898.082 89.5235 900.412 88.0235C900.532 87.9535 900.652 87.8835 900.772 87.8135C900.952 87.6935 901.132 87.5635 901.312 87.4535C902.802 86.4835 904.272 85.4935 905.702 84.4735C905.712 84.4735 905.732 84.4535 905.742 84.4435C907.162 83.4335 908.542 82.3835 909.902 81.3335C910.072 81.1935 910.262 81.0735 910.432 80.9335C910.612 80.7935 910.782 80.6435 910.952 80.5035C911.852 79.7835 912.742 79.0535 913.622 78.3135C913.892 78.0835 914.172 77.8635 914.442 77.6335C915.562 76.6735 916.662 75.6935 917.742 74.7035C917.992 74.4735 918.242 74.2335 918.492 73.9935C919.322 73.2135 920.132 72.4335 920.922 71.6335C921.262 71.2935 921.592 70.9535 921.922 70.6135C922.662 69.8535 923.382 69.0835 924.092 68.3135C924.372 68.0035 924.662 67.7035 924.932 67.3935C925.882 66.3235 926.822 65.2435 927.712 64.1535C927.822 64.0235 927.922 63.8835 928.032 63.7435C928.812 62.7735 929.572 61.7935 930.312 60.8035C930.572 60.4535 930.832 60.0935 931.092 59.7335C931.682 58.9235 932.252 58.1035 932.812 57.2735C933.052 56.9135 933.302 56.5535 933.542 56.1835C934.222 55.1435 934.872 54.1035 935.492 53.0435C935.552 52.9335 935.632 52.8235 935.692 52.7135C935.702 52.6935 935.712 52.6735 935.732 52.6435C936.332 51.6135 936.902 50.5735 937.452 49.5335C937.962 48.5635 938.442 47.5935 938.892 46.6235C939.052 46.2835 939.192 45.9435 939.342 45.6135C939.622 44.9835 939.912 44.3535 940.172 43.7335C940.182 43.7035 940.202 43.6735 940.212 43.6535C940.292 43.4735 940.352 43.2835 940.422 43.1035C940.762 42.2735 941.082 41.4435 941.382 40.6135C941.512 40.2535 941.632 39.8835 941.752 39.5235C941.982 38.8435 942.202 38.1735 942.412 37.5035C942.462 37.3335 942.532 37.1635 942.572 36.9935C942.652 36.7235 942.712 36.4635 942.782 36.1935C942.922 35.7035 943.052 35.2135 943.182 34.7135C943.292 34.2635 943.402 33.8035 943.502 33.3535L943.512 33.3635Z" fill="url(#paint4_linear_2079_529)"/>
<path d="M877.912 -50.1269C869.042 -51.2069 859.942 -51.2669 850.862 -50.4069C808.082 -46.3769 765.632 -22.1169 748.472 10.6631C727.652 50.4031 751.832 87.6031 802.522 93.7731C811.392 94.8531 820.492 94.9131 829.572 94.0531C872.342 90.0231 914.781 65.7631 931.962 32.9831C952.781 -6.74691 928.572 -43.9569 877.912 -50.1269Z" fill="url(#paint5_linear_2079_529)"/>
<path d="M938.552 14.333C938.552 14.333 938.402 15.163 938.132 16.713C937.812 18.253 937.332 20.523 936.412 23.323C935.502 26.123 934.202 29.473 932.372 33.153C931.382 34.943 930.322 36.853 929.202 38.863C928.002 40.823 926.562 42.803 925.152 44.923C923.612 46.933 921.942 48.983 920.222 51.103C918.342 53.083 916.502 55.243 914.412 57.253C912.272 59.213 910.202 61.383 907.792 63.263C906.612 64.233 905.422 65.213 904.222 66.203C902.992 67.153 901.692 68.043 900.412 68.973C895.302 72.733 889.622 76.023 883.782 79.193C877.832 82.153 871.692 85.023 865.292 87.223C858.942 89.553 852.372 91.203 845.882 92.673C839.352 93.933 832.862 94.873 826.542 95.333C813.872 96.213 802.012 94.973 792.142 92.673C782.242 90.413 774.522 86.773 769.442 83.843C766.882 82.393 765.012 81.013 763.722 80.113C762.472 79.163 761.802 78.653 761.802 78.653C761.802 78.653 762.492 79.123 763.792 80.013C765.122 80.853 767.062 82.093 769.662 83.443C774.822 86.203 782.632 89.363 792.432 91.383C802.202 93.463 813.962 94.243 826.402 93.303C832.632 92.803 839.012 91.823 845.432 90.533C851.812 89.033 858.262 87.353 864.502 85.013C870.822 82.903 876.882 80.113 882.772 77.253C888.552 74.173 894.172 70.973 899.232 67.313C900.502 66.403 901.782 65.543 903.012 64.613C904.212 63.663 905.402 62.713 906.572 61.783C908.992 59.993 911.072 57.913 913.232 56.033C915.342 54.103 917.192 52.023 919.102 50.113C920.842 48.063 922.542 46.083 924.102 44.143C925.542 42.113 926.962 40.203 928.242 38.313C929.432 36.363 930.552 34.503 931.612 32.763C933.562 29.193 934.982 25.933 935.992 23.193C937.002 20.443 937.632 18.233 938.022 16.703C938.382 15.173 938.572 14.353 938.572 14.353L938.552 14.333Z" fill="url(#paint6_linear_2079_529)"/>
<g style="mix-blend-mode:screen">
<path d="M748.361 11.3631C765.521 -21.4169 807.971 -45.6769 850.741 -49.7069C859.821 -50.5669 868.921 -50.5069 877.791 -49.4269C919.711 -44.3269 943.511 -17.9769 938.691 13.4731C943.971 -18.2869 920.131 -44.9869 877.911 -50.1269C869.041 -51.2069 859.941 -51.2669 850.861 -50.4069C808.081 -46.3769 765.631 -22.1169 748.471 10.6631C744.871 17.5231 742.621 24.3131 741.611 30.8731C742.671 24.5231 744.881 17.9831 748.351 11.3631H748.361Z" fill="url(#paint7_linear_2079_529)"/>
</g>
<path d="M628 658.643L645.422 672L738 476.357L720.578 463L628 658.643V658.643Z" fill="url(#paint8_linear_2079_529)"/>
<path d="M432 699.809L449.382 713L645 672.191L627.605 659L432 699.809V699.809Z" fill="url(#paint9_linear_2079_529)"/>
<path d="M523.74 504.329L720 463L627.26 658.671L431 700L523.74 504.329V504.329Z" fill="url(#paint10_linear_2079_529)"/>
<g filter="url(#filter4_f_2079_529)">
<path d="M175.834 261.602C175.927 261.19 176.019 260.778 176.103 260.375C176.136 260.198 176.187 260.022 176.22 259.845C176.237 259.736 176.245 259.635 176.262 259.526C176.497 258.257 176.673 256.988 176.79 255.744C176.79 255.668 176.815 255.584 176.824 255.5C176.832 255.382 176.824 255.265 176.841 255.147C176.941 253.954 177 252.76 177 251.583C177 251.55 177 251.516 177 251.474C177 251.39 176.992 251.298 176.992 251.214C176.992 250.104 176.933 249.003 176.832 247.911C176.832 247.827 176.832 247.743 176.824 247.659C176.824 247.625 176.815 247.591 176.807 247.558C176.698 246.457 176.539 245.381 176.346 244.305C176.329 244.196 176.321 244.078 176.296 243.969C176.279 243.877 176.245 243.784 176.228 243.692C176.019 242.641 175.776 241.599 175.482 240.565C175.465 240.498 175.449 240.422 175.432 240.355C175.289 239.868 175.147 239.389 174.987 238.918L170.383 225C170.559 225.546 170.719 226.093 170.878 226.647C171.172 227.673 171.415 228.723 171.624 229.774C171.666 229.975 171.7 230.177 171.733 230.379C171.926 231.455 172.086 232.539 172.195 233.631C172.203 233.749 172.211 233.867 172.22 233.993C172.312 235.085 172.371 236.186 172.379 237.296C172.379 237.413 172.379 237.54 172.379 237.657C172.379 238.834 172.32 240.027 172.22 241.221C172.203 241.414 172.186 241.616 172.17 241.809C172.052 243.061 171.868 244.322 171.633 245.599C171.582 245.877 171.532 246.163 171.473 246.44C171.39 246.852 171.297 247.264 171.205 247.675C171.121 248.054 171.029 248.432 170.937 248.81C170.836 249.222 170.719 249.634 170.601 250.054C170.501 250.415 170.392 250.785 170.283 251.146C170.106 251.718 169.922 252.281 169.729 252.853C169.628 253.155 169.528 253.458 169.419 253.76C169.167 254.458 168.899 255.155 168.614 255.853C168.538 256.029 168.48 256.206 168.404 256.382C168.186 256.912 167.943 257.441 167.708 257.962C167.582 258.248 167.465 258.526 167.331 258.811C166.945 259.627 166.542 260.442 166.123 261.257C165.662 262.14 165.184 263.005 164.681 263.871C164.613 263.98 164.546 264.089 164.479 264.199C163.959 265.089 163.406 265.964 162.844 266.838C162.643 267.14 162.441 267.451 162.232 267.754C161.762 268.451 161.284 269.14 160.789 269.821C160.571 270.124 160.362 270.426 160.135 270.721C159.515 271.553 158.877 272.376 158.223 273.191C158.131 273.309 158.047 273.418 157.955 273.536C157.2 274.461 156.42 275.368 155.623 276.259C155.389 276.52 155.154 276.772 154.919 277.032C154.324 277.679 153.72 278.327 153.099 278.965C152.822 279.251 152.546 279.537 152.261 279.823C151.59 280.495 150.91 281.15 150.223 281.806C150.013 282.008 149.812 282.209 149.594 282.403C148.696 283.235 147.774 284.058 146.826 284.865C146.6 285.059 146.365 285.243 146.139 285.437C145.401 286.059 144.654 286.672 143.899 287.277C143.606 287.513 143.312 287.74 143.01 287.975C141.87 288.866 140.713 289.74 139.53 290.589C139.513 290.597 139.505 290.614 139.488 290.622C138.289 291.48 137.056 292.312 135.815 293.127C135.563 293.295 135.312 293.455 135.06 293.614C133.115 294.867 131.11 296.077 129.073 297.228C128.947 297.304 128.813 297.38 128.687 297.447C126.884 298.455 125.039 299.413 123.169 300.338C123.026 300.414 122.875 300.489 122.732 300.556C121.089 301.355 119.42 302.12 117.734 302.851C117.474 302.96 117.223 303.078 116.963 303.187C115.428 303.843 113.868 304.465 112.3 305.061C111.998 305.179 111.688 305.288 111.377 305.406C109.826 305.977 108.266 306.532 106.69 307.053C106.606 307.078 106.522 307.104 106.438 307.129C104.954 307.608 103.461 308.053 101.968 308.482C101.649 308.574 101.331 308.667 101.02 308.751C99.5025 309.171 97.9762 309.558 96.4415 309.919C96.1564 309.986 95.8797 310.045 95.5945 310.112C94.1521 310.44 92.7097 310.743 91.2672 311.02C91.0576 311.062 90.8479 311.104 90.6383 311.146C89.0281 311.44 87.4179 311.701 85.8078 311.928C85.4555 311.978 85.0949 312.029 84.7427 312.079C83.25 312.281 81.7656 312.457 80.2728 312.6C79.4174 312.684 78.5536 312.718 77.6982 312.777C76.4235 312.869 75.1488 312.962 73.8825 313.004C72.3143 313.062 70.746 313.096 69.1778 313.088C68.8759 313.088 68.5824 313.079 68.2805 313.071C66.9219 313.054 65.5633 312.995 64.2131 312.92C63.7016 312.894 63.1816 312.869 62.6701 312.835C60.9676 312.718 59.2736 312.567 57.588 312.365C56.7074 312.256 55.8604 312.113 55.005 311.978C54.2502 311.869 53.4871 311.768 52.7491 311.642C51.9189 311.499 51.1138 311.314 50.3003 311.146C49.5875 311.003 48.8579 310.869 48.1534 310.709C47.34 310.524 46.5684 310.297 45.7801 310.087C45.1092 309.911 44.4215 309.751 43.7674 309.558C42.9791 309.331 42.2327 309.062 41.4696 308.81C40.849 308.608 40.2033 308.415 39.5994 308.196C38.8531 307.927 38.1486 307.625 37.419 307.339C36.8236 307.104 36.2198 306.885 35.6411 306.641C34.9451 306.339 34.2826 306.011 33.6117 305.692C33.0498 305.423 32.4627 305.179 31.9092 304.893C31.23 304.549 30.5842 304.17 29.9301 303.801C29.4269 303.523 28.8986 303.254 28.4122 302.969C27.758 302.582 27.1542 302.17 26.5253 301.758C26.064 301.456 25.586 301.178 25.1331 300.867C24.5461 300.464 24.001 300.027 23.4475 299.607C23.003 299.271 22.5334 298.951 22.1057 298.598C21.5606 298.161 21.0658 297.699 20.5459 297.245C20.1349 296.884 19.7072 296.539 19.3131 296.178C18.7847 295.682 18.3067 295.169 17.8119 294.657C17.4681 294.304 17.0991 293.967 16.772 293.606C16.2856 293.068 15.8412 292.505 15.3799 291.95C15.0864 291.597 14.7677 291.253 14.491 290.891C14.0633 290.345 13.6859 289.774 13.2917 289.21C13.0234 288.824 12.7215 288.446 12.4615 288.051C12.0506 287.42 11.69 286.773 11.321 286.126C11.1197 285.773 10.8933 285.437 10.7004 285.084C10.2978 284.327 9.94561 283.554 9.59339 282.781C9.47598 282.512 9.32503 282.26 9.21601 281.991C8.76315 280.94 8.36061 279.873 8 278.797L12.6041 292.715C12.9647 293.799 13.3672 294.867 13.8201 295.909C13.9375 296.178 14.08 296.43 14.1974 296.699C14.5497 297.472 14.9019 298.245 15.3044 299.002C15.4973 299.355 15.7237 299.699 15.925 300.044C16.294 300.691 16.6546 301.338 17.0656 301.968C17.3255 302.363 17.619 302.742 17.8958 303.128C18.2899 303.691 18.6673 304.263 19.095 304.809C19.3885 305.187 19.7156 305.549 20.0259 305.919C20.4704 306.456 20.8981 307.003 21.3761 307.524C21.7199 307.902 22.1057 308.255 22.4663 308.625C22.9443 309.112 23.4056 309.617 23.9171 310.096C24.3113 310.465 24.739 310.81 25.1499 311.163C25.6615 311.617 26.1646 312.079 26.7098 312.516C27.1375 312.861 27.6071 313.188 28.0516 313.525C28.6134 313.945 29.1585 314.382 29.7372 314.785C30.2068 315.113 30.71 315.407 31.1964 315.727C31.8002 316.113 32.3789 316.517 33.0078 316.886C33.5362 317.197 34.0897 317.483 34.6348 317.777C35.2554 318.122 35.8676 318.483 36.5133 318.811C37.0752 319.097 37.6706 319.349 38.2409 319.618C38.9034 319.929 39.5575 320.257 40.2452 320.551C40.849 320.811 41.4864 321.038 42.0986 321.282C42.7946 321.559 43.4739 321.845 44.1951 322.106C44.8492 322.341 45.5285 322.543 46.1994 322.761C46.9207 322.997 47.6251 323.249 48.3631 323.467C49.0424 323.669 49.7552 323.829 50.4429 324.013C51.206 324.215 51.9608 324.434 52.7491 324.619C53.4703 324.787 54.2167 324.921 54.9547 325.072C55.7514 325.232 56.5313 325.417 57.3448 325.56C58.1163 325.694 58.9214 325.795 59.7097 325.913C60.498 326.031 61.2779 326.165 62.083 326.266C62.1166 326.266 62.1585 326.274 62.192 326.283C63.8777 326.484 65.5717 326.636 67.2741 326.753C67.7857 326.787 68.3056 326.812 68.8172 326.837C69.4797 326.871 70.1422 326.93 70.8131 326.947C71.5008 326.972 72.1969 326.972 72.8929 326.98C73.1948 326.98 73.4883 326.997 73.7902 326.997C75.1488 327.005 76.5074 326.997 77.8744 326.955C78.084 326.955 78.2937 326.921 78.4949 326.921C79.7697 326.871 81.0444 326.787 82.3107 326.695C82.9145 326.652 83.5183 326.636 84.1221 326.585C84.3737 326.56 84.6337 326.543 84.8853 326.518C86.378 326.375 87.8708 326.199 89.3551 325.997C89.5396 325.972 89.7241 325.955 89.9086 325.93C90.0764 325.904 90.2525 325.871 90.4202 325.846C92.0304 325.619 93.6489 325.358 95.2507 325.064C95.3094 325.056 95.3681 325.047 95.4268 325.039C95.5778 325.014 95.7287 324.972 95.8881 324.946C97.3389 324.669 98.7813 324.366 100.215 324.039C100.4 323.997 100.584 323.963 100.769 323.921C100.869 323.896 100.962 323.871 101.062 323.845C102.597 323.484 104.123 323.097 105.641 322.677C105.767 322.644 105.901 322.61 106.027 322.576C106.22 322.526 106.404 322.459 106.589 322.408C108.09 321.98 109.583 321.534 111.059 321.055C111.126 321.038 111.193 321.013 111.252 320.996C111.268 320.996 111.285 320.979 111.302 320.979C112.879 320.467 114.438 319.912 115.99 319.332C116.166 319.265 116.342 319.214 116.518 319.147C116.652 319.097 116.778 319.038 116.912 318.988C118.481 318.391 120.04 317.769 121.575 317.113C121.684 317.071 121.793 317.029 121.902 316.987C122.053 316.92 122.204 316.844 122.355 316.777C124.041 316.046 125.71 315.29 127.353 314.483C127.404 314.458 127.454 314.441 127.504 314.416C127.605 314.365 127.697 314.315 127.789 314.264C129.66 313.34 131.505 312.382 133.308 311.373C133.358 311.348 133.408 311.323 133.459 311.297C133.542 311.255 133.618 311.197 133.693 311.155C135.74 310.003 137.736 308.801 139.69 307.541C139.79 307.482 139.891 307.423 139.991 307.364C140.142 307.263 140.293 307.154 140.444 307.062C141.694 306.246 142.927 305.414 144.126 304.557C144.134 304.557 144.151 304.54 144.159 304.532C145.35 303.683 146.508 302.801 147.648 301.918C147.791 301.8 147.95 301.7 148.093 301.582C148.243 301.464 148.386 301.338 148.529 301.22C149.283 300.615 150.03 300.002 150.768 299.38C150.994 299.187 151.229 299.002 151.455 298.808C152.395 298.002 153.317 297.178 154.223 296.346C154.433 296.153 154.642 295.951 154.852 295.749C155.548 295.094 156.227 294.438 156.89 293.766C157.175 293.48 157.452 293.194 157.728 292.908C158.349 292.27 158.953 291.623 159.548 290.975C159.783 290.715 160.026 290.463 160.253 290.202C161.049 289.303 161.838 288.395 162.584 287.479C162.676 287.37 162.76 287.252 162.852 287.135C163.506 286.319 164.144 285.496 164.764 284.664C164.982 284.369 165.201 284.067 165.419 283.764C165.913 283.084 166.391 282.394 166.861 281.697C167.062 281.394 167.272 281.092 167.473 280.781C168.043 279.907 168.589 279.033 169.109 278.142C169.159 278.049 169.226 277.957 169.276 277.864C169.285 277.848 169.293 277.831 169.31 277.806C169.813 276.94 170.291 276.066 170.752 275.192C171.18 274.376 171.582 273.561 171.96 272.746C172.094 272.46 172.211 272.174 172.337 271.897C172.572 271.368 172.815 270.838 173.033 270.317C173.042 270.292 173.058 270.267 173.067 270.25C173.134 270.099 173.184 269.939 173.243 269.788C173.528 269.09 173.796 268.392 174.048 267.695C174.157 267.392 174.258 267.081 174.358 266.779C174.551 266.207 174.736 265.644 174.912 265.081C174.954 264.938 175.012 264.795 175.046 264.652C175.113 264.426 175.163 264.207 175.222 263.98C175.34 263.568 175.449 263.156 175.558 262.736C175.65 262.358 175.742 261.971 175.826 261.593L175.834 261.602Z" fill="url(#paint11_linear_2079_529)"/>
</g>
<g filter="url(#filter5_f_2079_529)">
<path d="M121.226 191.731C113.761 190.827 106.102 190.776 98.4606 191.497C62.4565 194.873 26.7301 215.194 12.2881 242.652C-5.23424 275.94 15.1159 307.1 57.7772 312.269C65.2423 313.173 72.9009 313.224 80.5427 312.503C116.538 309.127 152.256 288.806 166.715 261.348C184.238 228.068 163.862 196.9 121.226 191.731Z" fill="url(#paint12_linear_2079_529)"/>
</g>
<path d="M170.983 247C170.983 247 170.859 247.705 170.634 249.02C170.368 250.328 169.969 252.255 169.204 254.631C168.447 257.008 167.366 259.852 165.844 262.976C165.021 264.495 164.139 266.117 163.208 267.823C162.21 269.487 161.013 271.167 159.84 272.967C158.559 274.673 157.171 276.413 155.74 278.213C154.177 279.894 152.647 281.727 150.909 283.434C149.129 285.097 147.408 286.939 145.404 288.535C144.422 289.359 143.433 290.191 142.435 291.031C141.412 291.837 140.331 292.593 139.267 293.382C135.017 296.574 130.294 299.367 125.437 302.058C120.489 304.571 115.383 307.007 110.061 308.874C104.781 310.852 99.317 312.253 93.92 313.501C88.4897 314.57 83.0927 315.368 77.8371 315.759C67.3008 316.506 57.4382 315.453 49.2304 313.501C40.9977 311.582 34.5778 308.492 30.3533 306.005C28.2245 304.774 26.6694 303.603 25.5967 302.839C24.5572 302.032 24 301.599 24 301.599C24 301.599 24.5738 301.998 25.6549 302.754C26.7609 303.467 28.3742 304.52 30.5363 305.666C34.8273 308.008 41.322 310.691 49.4716 312.406C57.5962 314.171 67.3757 314.833 77.7207 314.035C82.9015 313.611 88.207 312.779 93.5458 311.684C98.8513 310.411 104.215 308.985 109.404 306.998C114.66 305.207 119.699 302.839 124.597 300.411C129.404 297.797 134.077 295.08 138.285 291.973C139.341 291.201 140.406 290.471 141.429 289.681C142.427 288.875 143.416 288.068 144.389 287.279C146.402 285.76 148.131 283.994 149.928 282.398C151.682 280.76 153.221 278.994 154.809 277.373C156.256 275.632 157.67 273.952 158.967 272.305C160.164 270.582 161.345 268.96 162.41 267.356C163.399 265.701 164.331 264.122 165.212 262.645C166.834 259.614 168.015 256.847 168.855 254.521C169.694 252.187 170.218 250.311 170.543 249.012C170.842 247.713 171 247.017 171 247.017L170.983 247Z" fill="url(#paint13_linear_2079_529)"/>
<g style="mix-blend-mode:screen">
<path d="M11.6646 243.558C26.0654 215.932 61.6896 195.486 97.5825 192.09C105.202 191.365 112.839 191.416 120.283 192.326C155.462 196.624 175.436 218.831 171.391 245.336C175.822 218.57 155.815 196.068 120.384 191.736C112.94 190.826 105.303 190.775 97.6832 191.5C61.782 194.896 26.1577 215.342 11.7569 242.968C8.73581 248.749 6.8476 254.471 6 260C6.88956 254.648 8.7442 249.137 11.6562 243.558H11.6646Z" fill="url(#paint14_linear_2079_529)"/>
</g>
<defs>
<filter id="filter0_f_2079_529" x="229.426" y="-113.963" width="137.034" height="167.429" filterUnits="userSpaceOnUse" color-interpolation-filters="sRGB">
<feFlood flood-opacity="0" result="BackgroundImageFix"/>
<feBlend mode="normal" in="SourceGraphic" in2="BackgroundImageFix" result="shape"/>
<feGaussianBlur stdDeviation="8.15485" result="effect1_foregroundBlur_2079_529"/>
</filter>
<filter id="filter1_f_2079_529" x="194.69" y="-142.898" width="171.245" height="229.207" filterUnits="userSpaceOnUse" color-interpolation-filters="sRGB">
<feFlood flood-opacity="0" result="BackgroundImageFix"/>
<feBlend mode="normal" in="SourceGraphic" in2="BackgroundImageFix" result="shape"/>
<feGaussianBlur stdDeviation="8.15485" result="effect1_foregroundBlur_2079_529"/>
</filter>
<filter id="filter2_f_2079_529" x="233.761" y="-145.31" width="153.549" height="214.362" filterUnits="userSpaceOnUse" color-interpolation-filters="sRGB">
<feFlood flood-opacity="0" result="BackgroundImageFix"/>
<feBlend mode="normal" in="SourceGraphic" in2="BackgroundImageFix" result="shape"/>
<feGaussianBlur stdDeviation="8.15485" result="effect1_foregroundBlur_2079_529"/>
</filter>
<filter id="filter3_f_2079_529" x="232.69" y="-111.31" width="81.6194" height="160.619" filterUnits="userSpaceOnUse" color-interpolation-filters="sRGB">
<feFlood flood-opacity="0" result="BackgroundImageFix"/>
<feBlend mode="normal" in="SourceGraphic" in2="BackgroundImageFix" result="shape"/>
<feGaussianBlur stdDeviation="8.15485" result="effect1_foregroundBlur_2079_529"/>
</filter>
<filter id="filter4_f_2079_529" x="2.56344" y="219.563" width="179.873" height="112.873" filterUnits="userSpaceOnUse" color-interpolation-filters="sRGB">
<feFlood flood-opacity="0" result="BackgroundImageFix"/>
<feBlend mode="normal" in="SourceGraphic" in2="BackgroundImageFix" result="shape"/>
<feGaussianBlur stdDeviation="2.71828" result="effect1_foregroundBlur_2079_529"/>
</filter>
<filter id="filter5_f_2079_529" x="0.563437" y="185.563" width="177.873" height="132.873" filterUnits="userSpaceOnUse" color-interpolation-filters="sRGB">
<feFlood flood-opacity="0" result="BackgroundImageFix"/>
<feBlend mode="normal" in="SourceGraphic" in2="BackgroundImageFix" result="shape"/>
<feGaussianBlur stdDeviation="2.71828" result="effect1_foregroundBlur_2079_529"/>
</filter>
<linearGradient id="paint0_linear_2079_529" x1="172.04" y1="-38.5395" x2="339.168" y2="149.504" gradientUnits="userSpaceOnUse">
<stop stop-color="#D8D6DE"/>
<stop offset="0.37" stop-color="#E6E4EE"/>
<stop offset="0.96" stop-color="#DFDDE5"/>
<stop offset="1" stop-color="#DFDDE5"/>
</linearGradient>
<linearGradient id="paint1_linear_2079_529" x1="348.182" y1="154.078" x2="543.711" y2="154.078" gradientUnits="userSpaceOnUse">
<stop stop-color="#D8D6DE"/>
<stop offset="0.37" stop-color="#E6E4EE"/>
<stop offset="0.96" stop-color="#DFDDE5"/>
<stop offset="1" stop-color="#DFDDE5"/>
</linearGradient>
<linearGradient id="paint2_linear_2079_529" x1="301.078" y1="-277.302" x2="1.11151" y2="-187.619" gradientUnits="userSpaceOnUse">
<stop stop-color="#F4EEF7"/>
<stop offset="0.28" stop-color="#ECEAF3"/>
<stop offset="0.54" stop-color="#E0E4EE"/>
<stop offset="1" stop-color="#BCC1CB"/>
</linearGradient>
<linearGradient id="paint3_linear_2079_529" x1="198.739" y1="-128.977" x2="293.941" y2="212.104" gradientUnits="userSpaceOnUse">
<stop stop-color="white" stop-opacity="0.1"/>
<stop offset="0.29" stop-color="white" stop-opacity="0.68"/>
<stop offset="0.46" stop-color="white"/>
<stop offset="0.51" stop-color="white" stop-opacity="0.96"/>
<stop offset="0.59" stop-color="white" stop-opacity="0.84"/>
<stop offset="0.69" stop-color="white" stop-opacity="0.66"/>
<stop offset="0.81" stop-color="white" stop-opacity="0.4"/>
<stop offset="0.95" stop-color="white" stop-opacity="0.08"/>
<stop offset="0.98" stop-color="white" stop-opacity="0.01"/>
</linearGradient>
<linearGradient id="paint4_linear_2079_529" x1="808.68" y1="-165.807" x2="687.623" y2="126.704" gradientUnits="userSpaceOnUse">
<stop stop-color="#F4EEF7"/>
<stop offset="0.23" stop-color="#ECEAF3"/>
<stop offset="0.44" stop-color="#E0E4EE"/>
<stop offset="0.62" stop-color="#D9DEE8"/>
<stop offset="0.86" stop-color="#C8CDD7"/>
<stop offset="1" stop-color="#BCC1CB"/>
</linearGradient>
<linearGradient id="paint5_linear_2079_529" x1="704.085" y1="-164.54" x2="624.988" y2="144.888" gradientUnits="userSpaceOnUse">
<stop stop-color="#F9F8FD"/>
<stop offset="0.54" stop-color="#F2F3F8"/>
<stop offset="0.65" stop-color="#EBEDF2"/>
<stop offset="0.81" stop-color="#DADDE4"/>
<stop offset="0.99" stop-color="#BDC2CC"/>
<stop offset="1" stop-color="#BCC1CB"/>
</linearGradient>
<linearGradient id="paint6_linear_2079_529" x1="738.458" y1="74.8598" x2="852.075" y2="164.779" gradientUnits="userSpaceOnUse">
<stop stop-color="white" stop-opacity="0.1"/>
<stop offset="0.29" stop-color="white" stop-opacity="0.68"/>
<stop offset="0.46" stop-color="white"/>
<stop offset="0.51" stop-color="white" stop-opacity="0.96"/>
<stop offset="0.59" stop-color="white" stop-opacity="0.84"/>
<stop offset="0.69" stop-color="white" stop-opacity="0.66"/>
<stop offset="0.81" stop-color="white" stop-opacity="0.4"/>
<stop offset="0.95" stop-color="white" stop-opacity="0.08"/>
<stop offset="0.98" stop-color="white" stop-opacity="0.01"/>
</linearGradient>
<linearGradient id="paint7_linear_2079_529" x1="376.173" y1="-152.374" x2="345.79" y2="287.208" gradientUnits="userSpaceOnUse">
<stop stop-color="#F4EEF7"/>
<stop offset="0.28" stop-color="#ECEAF3"/>
<stop offset="0.54" stop-color="#E0E4EE"/>
<stop offset="1" stop-color="#BCC1CB"/>
</linearGradient>
<linearGradient id="paint8_linear_2079_529" x1="1004.01" y1="255.086" x2="539.415" y2="806.995" gradientUnits="userSpaceOnUse">
<stop stop-color="#F4EEF7"/>
<stop offset="0.28" stop-color="#ECEAF3"/>
<stop offset="0.54" stop-color="#E0E4EE"/>
<stop offset="1" stop-color="#BCC1CB"/>
</linearGradient>
<linearGradient id="paint9_linear_2079_529" x1="835.295" y1="499.996" x2="839.716" y2="685.372" gradientUnits="userSpaceOnUse">
<stop stop-color="#F4EEF7"/>
<stop offset="0.23" stop-color="#ECEAF3"/>
<stop offset="0.44" stop-color="#E0E4EE"/>
<stop offset="1" stop-color="#BCC1CB"/>
</linearGradient>
<linearGradient id="paint10_linear_2079_529" x1="737.391" y1="147.427" x2="954.037" y2="727.445" gradientUnits="userSpaceOnUse">
<stop stop-color="#F9F8FD"/>
<stop offset="0.54" stop-color="#F2F3F8"/>
<stop offset="0.65" stop-color="#EBEDF2"/>
<stop offset="0.81" stop-color="#DADDE4"/>
<stop offset="0.99" stop-color="#BDC2CC"/>
<stop offset="1" stop-color="#BCC1CB"/>
</linearGradient>
<linearGradient id="paint11_linear_2079_529" x1="62.7607" y1="94.2091" x2="-39.1377" y2="339.893" gradientUnits="userSpaceOnUse">
<stop stop-color="#F4EEF7"/>
<stop offset="0.23" stop-color="#ECEAF3"/>
<stop offset="0.44" stop-color="#E0E4EE"/>
<stop offset="0.62" stop-color="#D9DEE8"/>
<stop offset="0.86" stop-color="#C8CDD7"/>
<stop offset="1" stop-color="#BCC1CB"/>
</linearGradient>
<linearGradient id="paint12_linear_2079_529" x1="-25.0681" y1="95.8941" x2="-91.0491" y2="355.235" gradientUnits="userSpaceOnUse">
<stop stop-color="#F9F8FD"/>
<stop offset="0.54" stop-color="#F2F3F8"/>
<stop offset="0.65" stop-color="#EBEDF2"/>
<stop offset="0.81" stop-color="#DADDE4"/>
<stop offset="0.99" stop-color="#BDC2CC"/>
<stop offset="1" stop-color="#BCC1CB"/>
</linearGradient>
<linearGradient id="paint13_linear_2079_529" x1="4.58792" y1="298.38" x2="100.56" y2="372.788" gradientUnits="userSpaceOnUse">
<stop stop-color="white" stop-opacity="0.1"/>
<stop offset="0.29" stop-color="white" stop-opacity="0.68"/>
<stop offset="0.46" stop-color="white"/>
<stop offset="0.51" stop-color="white" stop-opacity="0.96"/>
<stop offset="0.59" stop-color="white" stop-opacity="0.84"/>
<stop offset="0.69" stop-color="white" stop-opacity="0.66"/>
<stop offset="0.81" stop-color="white" stop-opacity="0.4"/>
<stop offset="0.95" stop-color="white" stop-opacity="0.08"/>
<stop offset="0.98" stop-color="white" stop-opacity="0.01"/>
</linearGradient>
<linearGradient id="paint14_linear_2079_529" x1="-300.678" y1="105.565" x2="-326.391" y2="476.016" gradientUnits="userSpaceOnUse">
<stop stop-color="#F4EEF7"/>
<stop offset="0.28" stop-color="#ECEAF3"/>
<stop offset="0.54" stop-color="#E0E4EE"/>
<stop offset="1" stop-color="#BCC1CB"/>
</linearGradient>
</defs>
</svg>
