<svg width="580" height="415" viewBox="0 0 580 415" fill="none" xmlns="http://www.w3.org/2000/svg">
<path d="M493.648 372.384L507.325 382.856L580 229.472L566.323 219L493.648 372.384Z" fill="url(#paint0_linear_344_726)"/>
<path d="M339.785 404.658L353.43 415L506.994 383.006L493.339 372.664L339.785 404.658Z" fill="url(#paint1_linear_344_726)"/>
<path d="M411.802 251.402L565.87 219L493.067 372.406L339 404.808L411.802 251.402Z" fill="url(#paint2_linear_344_726)"/>
<g filter="url(#filter0_f_344_726)">
<path d="M139.087 61.5469C139.159 61.2229 139.231 60.8988 139.297 60.5815C139.323 60.4426 139.363 60.3037 139.389 60.1649C139.402 60.0789 139.409 59.9996 139.422 59.9136C139.606 58.9151 139.744 57.9167 139.836 56.938C139.836 56.8785 139.856 56.8124 139.862 56.7463C139.869 56.6537 139.862 56.5611 139.875 56.4686C139.954 55.5296 140 54.5907 140 53.6649C140 53.6385 140 53.612 140 53.579C140 53.5128 139.994 53.4401 139.994 53.374C139.994 52.5011 139.948 51.6349 139.869 50.7753C139.869 50.7092 139.869 50.6431 139.862 50.5769C139.862 50.5505 139.856 50.524 139.849 50.4976C139.764 49.6314 139.639 48.785 139.488 47.9386C139.474 47.8526 139.468 47.7601 139.448 47.6741C139.435 47.6014 139.409 47.5286 139.396 47.4559C139.231 46.6294 139.041 45.8094 138.811 44.9961C138.798 44.9432 138.784 44.8837 138.771 44.8308C138.66 44.4473 138.548 44.0704 138.423 43.7001L134.815 32.75C134.953 33.1798 135.078 33.6096 135.203 34.046C135.433 34.8527 135.623 35.6793 135.788 36.5058C135.821 36.6645 135.847 36.8232 135.873 36.9819C136.024 37.8283 136.149 38.6813 136.235 39.5409C136.241 39.6335 136.248 39.726 136.254 39.8252C136.327 40.6848 136.373 41.5511 136.379 42.4239C136.379 42.5165 136.379 42.6157 136.379 42.7082C136.379 43.634 136.333 44.5729 136.254 45.5119C136.241 45.664 136.228 45.8227 136.215 45.9747C136.123 46.96 135.978 47.9518 135.794 48.9569C135.755 49.1751 135.715 49.3999 135.669 49.6182C135.604 49.9422 135.531 50.2662 135.459 50.5902C135.393 50.8877 135.321 51.1853 135.249 51.4828C135.17 51.8068 135.078 52.1308 134.986 52.4615C134.907 52.7458 134.822 53.0367 134.736 53.3211C134.598 53.7707 134.454 54.2137 134.302 54.6634C134.224 54.9014 134.145 55.1395 134.059 55.3775C133.862 55.9263 133.652 56.4752 133.428 57.024C133.369 57.1629 133.323 57.3017 133.264 57.4406C133.093 57.8572 132.903 58.2737 132.719 58.6837C132.62 58.9085 132.528 59.1267 132.423 59.3516C132.121 59.993 131.805 60.6344 131.477 61.2758C131.115 61.9701 130.741 62.6511 130.346 63.3322C130.294 63.4182 130.241 63.5041 130.189 63.5901C129.781 64.291 129.347 64.9787 128.907 65.6664C128.749 65.9044 128.592 66.1491 128.427 66.3871C128.059 66.9359 127.685 67.4782 127.297 68.0138C127.126 68.2518 126.962 68.4898 126.784 68.7213C126.298 69.3759 125.799 70.0239 125.286 70.6653C125.214 70.7579 125.148 70.8439 125.076 70.9364C124.484 71.6638 123.873 72.3779 123.249 73.0788C123.065 73.2838 122.881 73.4822 122.697 73.6872C122.23 74.1963 121.757 74.7055 121.271 75.208C121.054 75.4328 120.837 75.6577 120.614 75.8825C120.088 76.4115 119.556 76.9272 119.017 77.443C118.852 77.6017 118.695 77.7604 118.524 77.9125C117.821 78.5671 117.098 79.2151 116.355 79.8499C116.178 80.002 115.994 80.1475 115.816 80.2995C115.238 80.7889 114.653 81.2716 114.062 81.7476C113.832 81.9328 113.602 82.1113 113.365 82.2965C112.471 82.9974 111.564 83.6851 110.638 84.3529C110.625 84.3595 110.618 84.3728 110.605 84.3794C109.665 85.0538 108.699 85.7085 107.727 86.3499C107.529 86.4821 107.332 86.6077 107.135 86.7334C105.61 87.7186 104.04 88.6708 102.443 89.5767C102.344 89.6362 102.239 89.6957 102.141 89.7486C100.728 90.5421 99.2819 91.2959 97.8164 92.0233C97.7047 92.0828 97.5864 92.1423 97.4747 92.1952C96.1867 92.8234 94.8789 93.4251 93.558 94.0004C93.3543 94.0863 93.1571 94.1789 92.9534 94.2649C91.7508 94.7806 90.5284 95.2699 89.2995 95.7394C89.0629 95.832 88.8198 95.918 88.5766 96.0105C87.3609 96.4602 86.1385 96.8966 84.9031 97.3065C84.8373 97.3264 84.7716 97.3462 84.7059 97.3661C83.5427 97.743 82.373 98.0934 81.2032 98.4306C80.9535 98.5034 80.7038 98.5761 80.4606 98.6422C79.2711 98.9729 78.0751 99.277 76.8725 99.5614C76.649 99.6143 76.4321 99.6605 76.2087 99.7134C75.0784 99.9713 73.9481 100.209 72.8177 100.428C72.6534 100.461 72.4891 100.494 72.3248 100.527C71.0631 100.758 69.8013 100.963 68.5395 101.142C68.2635 101.181 67.981 101.221 67.7049 101.261C66.5352 101.419 65.372 101.558 64.2022 101.671C63.5319 101.737 62.855 101.763 62.1847 101.81C61.1858 101.882 60.1869 101.955 59.1946 101.988C57.9657 102.034 56.7368 102.061 55.5079 102.054C55.2713 102.054 55.0413 102.048 54.8047 102.041C53.7401 102.028 52.6755 101.981 51.6174 101.922C51.2166 101.902 50.8091 101.882 50.4082 101.856C49.0742 101.763 47.7467 101.644 46.4258 101.486C45.7358 101.4 45.072 101.287 44.4017 101.181C43.8103 101.095 43.2122 101.016 42.6339 100.917C41.9833 100.804 41.3525 100.659 40.715 100.527C40.1564 100.414 39.5847 100.309 39.0326 100.183C38.3952 100.037 37.7906 99.8589 37.1729 99.6936C36.6471 99.5547 36.1082 99.4291 35.5957 99.277C34.9779 99.0985 34.393 98.8869 33.795 98.6885C33.3087 98.5298 32.8027 98.3777 32.3295 98.2058C31.7446 97.9942 31.1926 97.7562 30.6209 97.5314C30.1543 97.3462 29.6811 97.1743 29.2277 96.9825C28.6822 96.7445 28.1631 96.4866 27.6373 96.2353C27.197 96.0237 26.737 95.832 26.3033 95.6072C25.771 95.3361 25.265 95.0385 24.7524 94.7476C24.3581 94.5294 23.944 94.3178 23.5629 94.0929C23.0503 93.7888 22.5771 93.4648 22.0843 93.1408C21.7228 92.9027 21.3482 92.6845 20.9934 92.4398C20.5333 92.1225 20.1062 91.7786 19.6724 91.448C19.3241 91.1835 18.9561 90.9322 18.621 90.6545C18.1938 90.3107 17.8061 89.947 17.3986 89.5899C17.0766 89.3056 16.7415 89.0345 16.4326 88.7501C16.0186 88.36 15.644 87.9567 15.2563 87.5533C14.9868 87.2756 14.6977 87.0111 14.4414 86.7268C14.0602 86.3036 13.7119 85.8605 13.3505 85.4241C13.1205 85.1464 12.8707 84.8753 12.6539 84.591C12.3187 84.1612 12.023 83.7115 11.7141 83.2685C11.5038 82.9643 11.2672 82.6668 11.0635 82.356C10.7415 81.8601 10.4589 81.3509 10.1698 80.8418C10.0121 80.564 9.83462 80.2995 9.68347 80.0218C9.36803 79.4267 9.09202 78.8184 8.816 78.21C8.724 77.9984 8.60571 77.8001 8.52028 77.5885C8.16541 76.7619 7.84997 75.9221 7.56738 75.0758L11.1752 86.0258C11.4578 86.8788 11.7733 87.7186 12.1281 88.5385C12.2201 88.7501 12.3319 88.9485 12.4239 89.1601C12.6999 89.7684 12.9759 90.3768 13.2913 90.9719C13.4425 91.2496 13.6199 91.5207 13.7776 91.7918C14.0668 92.301 14.3494 92.8101 14.6714 93.3061C14.8751 93.6168 15.1051 93.9144 15.322 94.2186C15.6308 94.6616 15.9266 95.1112 16.2617 95.541C16.4917 95.8386 16.748 96.1229 16.9912 96.4139C17.3395 96.8371 17.6746 97.2669 18.0492 97.6768C18.3187 97.9744 18.621 98.2521 18.9036 98.5431C19.2781 98.9266 19.6396 99.3233 20.0405 99.7002C20.3493 99.9912 20.6845 100.262 21.0065 100.54C21.4074 100.897 21.8017 101.261 22.2288 101.605C22.564 101.876 22.932 102.134 23.2803 102.398C23.7206 102.729 24.1478 103.073 24.6012 103.39C24.9692 103.648 25.3635 103.879 25.7447 104.131C26.2178 104.435 26.6713 104.752 27.1642 105.043C27.5782 105.288 28.0119 105.512 28.4391 105.744C28.9254 106.015 29.4051 106.299 29.9111 106.557C30.3514 106.782 30.818 106.98 31.2649 107.192C31.7841 107.437 32.2967 107.695 32.8355 107.926C33.3087 108.131 33.8082 108.31 34.2879 108.501C34.8333 108.719 35.3656 108.944 35.9308 109.149C36.4434 109.334 36.9757 109.493 37.5014 109.665C38.0666 109.85 38.6186 110.049 39.1969 110.221C39.7292 110.379 40.2878 110.505 40.8267 110.65C41.4247 110.809 42.0162 110.981 42.6339 111.126C43.1991 111.259 43.784 111.364 44.3623 111.483C44.9866 111.609 45.5978 111.755 46.2352 111.867C46.8398 111.973 47.4707 112.052 48.0884 112.145C48.7062 112.237 49.3173 112.343 49.9482 112.422C49.9745 112.422 50.0074 112.429 50.0337 112.436C51.3546 112.594 52.6821 112.713 54.0161 112.806C54.417 112.832 54.8244 112.852 55.2253 112.872C55.7445 112.899 56.2636 112.945 56.7894 112.958C57.3282 112.978 57.8737 112.978 58.4191 112.984C58.6557 112.984 58.8857 112.998 59.1223 112.998C60.1869 113.004 61.2515 112.998 62.3227 112.965C62.487 112.965 62.6513 112.938 62.809 112.938C63.8079 112.899 64.8068 112.832 65.7992 112.76C66.2723 112.727 66.7455 112.713 67.2186 112.674C67.4158 112.654 67.6195 112.641 67.8167 112.621C68.9864 112.508 70.1562 112.37 71.3194 112.211C71.464 112.191 71.6085 112.178 71.7531 112.158C71.8845 112.138 72.0225 112.112 72.154 112.092C73.4157 111.913 74.6841 111.708 75.9393 111.477C75.9853 111.47 76.0313 111.464 76.0773 111.457C76.1956 111.437 76.3139 111.404 76.4387 111.384C77.5756 111.166 78.706 110.928 79.8297 110.67C79.9743 110.637 80.1189 110.611 80.2634 110.578C80.3423 110.558 80.4146 110.538 80.4935 110.518C81.6961 110.234 82.8921 109.93 84.0816 109.599C84.1802 109.572 84.2853 109.546 84.3839 109.52C84.535 109.48 84.6796 109.427 84.8242 109.387C86.0005 109.05 87.1703 108.7 88.3269 108.323C88.3795 108.31 88.4321 108.29 88.4781 108.276C88.4912 108.276 88.5043 108.263 88.5175 108.263C89.753 107.86 90.9753 107.423 92.1911 106.967C92.3291 106.914 92.4671 106.875 92.6051 106.822C92.7102 106.782 92.8088 106.736 92.914 106.696C94.1429 106.227 95.3652 105.737 96.5678 105.222C96.6533 105.188 96.7387 105.155 96.8241 105.122C96.9424 105.069 97.0607 105.01 97.179 104.957C98.4999 104.382 99.8077 103.787 101.096 103.152C101.135 103.132 101.175 103.119 101.214 103.099C101.293 103.059 101.365 103.02 101.437 102.98C102.903 102.253 104.349 101.499 105.762 100.705C105.801 100.685 105.84 100.666 105.88 100.646C105.946 100.613 106.005 100.566 106.064 100.533C107.667 99.6275 109.231 98.6819 110.763 97.6901C110.842 97.6438 110.92 97.5975 110.999 97.5512C111.118 97.4719 111.236 97.3859 111.354 97.3132C112.333 96.6718 113.299 96.0171 114.239 95.3427C114.246 95.3427 114.259 95.3294 114.265 95.3228C115.199 94.655 116.105 93.9607 116.999 93.2664C117.111 93.1738 117.236 93.0945 117.348 93.0019C117.466 92.9093 117.578 92.8101 117.689 92.7176C118.281 92.2415 118.866 91.7588 119.444 91.2695C119.621 91.1174 119.805 90.9719 119.983 90.8198C120.719 90.185 121.442 89.537 122.151 88.8824C122.316 88.7303 122.48 88.5716 122.644 88.4129C123.19 87.8971 123.722 87.3814 124.241 86.8524C124.465 86.6276 124.682 86.4028 124.898 86.1779C125.385 85.6754 125.858 85.1662 126.324 84.6571C126.508 84.4521 126.699 84.2537 126.876 84.0487C127.501 83.3412 128.119 82.6271 128.703 81.9063C128.776 81.8204 128.841 81.7278 128.914 81.6352C129.426 80.9938 129.926 80.3458 130.412 79.6912C130.583 79.4598 130.754 79.2217 130.925 78.9837C131.312 78.4481 131.687 77.9059 132.055 77.357C132.213 77.119 132.377 76.8809 132.535 76.6363C132.982 75.9486 133.409 75.2609 133.816 74.56C133.856 74.4873 133.908 74.4145 133.948 74.3418C133.954 74.3286 133.961 74.3153 133.974 74.2955C134.368 73.6144 134.743 72.9267 135.104 72.2391C135.439 71.5977 135.755 70.9563 136.051 70.3149C136.156 70.09 136.248 69.8652 136.346 69.647C136.53 69.2304 136.721 68.8139 136.892 68.4039C136.898 68.3841 136.911 68.3642 136.918 68.351C136.971 68.232 137.01 68.1063 137.056 67.9873C137.279 67.4385 137.49 66.8897 137.687 66.3408C137.772 66.1028 137.851 65.8581 137.93 65.6201C138.081 65.1704 138.226 64.7274 138.364 64.2844C138.397 64.172 138.443 64.0596 138.469 63.9472C138.521 63.7686 138.561 63.5967 138.607 63.4182C138.699 63.0942 138.784 62.7701 138.87 62.4395C138.942 62.142 139.014 61.8378 139.08 61.5402L139.087 61.5469Z" fill="url(#paint3_linear_344_726)"/>
</g>
<g filter="url(#filter1_f_344_726)">
<path d="M96.2942 6.5754C90.4444 5.86364 84.4429 5.8241 78.4545 6.39087C50.2408 9.04676 22.2447 25.0348 10.9275 46.6379C-2.80344 72.8277 13.1435 97.3437 46.5739 101.41C52.4238 102.122 58.4253 102.161 64.4136 101.594C92.6208 98.9385 120.61 82.9505 131.941 61.3474C145.672 35.1641 129.705 10.6416 96.2942 6.5754Z" fill="url(#paint4_linear_344_726)"/>
</g>
<g style="mix-blend-mode:overlay" opacity="0.69">
<path d="M135.285 50.0588C135.285 50.0588 135.188 50.6132 135.012 51.6484C134.803 52.6769 134.49 54.1929 133.891 56.0629C133.298 57.9329 132.451 60.1703 131.258 62.628C130.613 63.8235 129.922 65.0991 129.192 66.4415C128.41 67.7505 127.472 69.0729 126.553 70.4888C125.55 71.8312 124.461 73.2003 123.341 74.6162C122.115 75.9385 120.916 77.3811 119.554 78.7235C118.16 80.0325 116.811 81.4818 115.241 82.7374C114.472 83.3852 113.696 84.0397 112.914 84.7009C112.113 85.3354 111.265 85.9298 110.431 86.5509C107.101 89.062 103.4 91.2593 99.5943 93.3764C95.717 95.3533 91.7158 97.2701 87.5452 98.7394C83.4072 100.296 79.1258 101.397 74.8966 102.379C70.6413 103.221 66.412 103.849 62.2936 104.156C54.0371 104.743 46.3085 103.915 39.8767 102.379C33.4253 100.87 28.3945 98.4388 25.0841 96.482C23.4159 95.5136 22.1973 94.592 21.3566 93.9909C20.5421 93.3564 20.1055 93.0158 20.1055 93.0158C20.1055 93.0158 20.5551 93.3297 21.4023 93.9241C22.269 94.4851 23.5332 95.3132 25.2275 96.2149C28.59 98.0582 33.6794 100.169 40.0656 101.518C46.4323 102.907 54.0958 103.428 62.2024 102.8C66.2622 102.466 70.4197 101.812 74.6033 100.95C78.7609 99.9482 82.9641 98.8262 87.0304 97.2634C91.1488 95.8542 95.0979 93.9909 98.9361 92.0808C102.703 90.0238 106.365 87.8866 109.662 85.4422C110.49 84.8345 111.324 84.2601 112.126 83.639C112.908 83.0045 113.683 82.3701 114.446 81.7489C116.023 80.5535 117.378 79.1643 118.786 77.9087C120.161 76.6198 121.366 75.2306 122.611 73.955C123.745 72.5859 124.852 71.2635 125.869 69.9678C126.807 68.6121 127.733 67.3365 128.567 66.0742C129.342 64.7719 130.072 63.5296 130.763 62.3676C132.034 59.9833 132.959 57.8061 133.617 55.9761C134.275 54.1395 134.686 52.6635 134.94 51.6417C135.175 50.6198 135.298 50.0722 135.298 50.0722L135.285 50.0588Z" fill="url(#paint5_linear_344_726)"/>
</g>
<g style="mix-blend-mode:screen">
<path d="M10.439 47.3505C21.7238 25.6154 49.6398 9.52953 77.7664 6.8574C83.7376 6.28717 89.7219 6.32695 95.5551 7.04306C123.123 10.4247 138.774 27.8963 135.604 48.7495C139.077 27.6907 123.399 9.98704 95.634 6.57891C89.8009 5.86281 83.8165 5.82303 77.8453 6.39326C49.7122 9.06539 21.7961 25.1512 10.5113 46.8863C8.14385 51.4349 6.6642 55.9371 6 60.2868C6.69708 56.0763 8.15043 51.7399 10.4324 47.3505H10.439Z" fill="url(#paint6_linear_344_726)"/>
</g>
<defs>
<filter id="filter0_f_344_726" x="2.13082" y="27.3134" width="143.306" height="91.1231" filterUnits="userSpaceOnUse" color-interpolation-filters="sRGB">
<feFlood flood-opacity="0" result="BackgroundImageFix"/>
<feBlend mode="normal" in="SourceGraphic" in2="BackgroundImageFix" result="shape"/>
<feGaussianBlur stdDeviation="2.71828" result="effect1_foregroundBlur_344_726"/>
</filter>
<filter id="filter1_f_344_726" x="0.563437" y="0.563437" width="141.739" height="106.858" filterUnits="userSpaceOnUse" color-interpolation-filters="sRGB">
<feFlood flood-opacity="0" result="BackgroundImageFix"/>
<feBlend mode="normal" in="SourceGraphic" in2="BackgroundImageFix" result="shape"/>
<feGaussianBlur stdDeviation="2.71828" result="effect1_foregroundBlur_344_726"/>
</filter>
<linearGradient id="paint0_linear_344_726" x1="788.826" y1="55.9951" x2="424.661" y2="489.157" gradientUnits="userSpaceOnUse">
<stop stop-color="#F4EEF7"/>
<stop offset="0.28" stop-color="#ECEAF3"/>
<stop offset="0.54" stop-color="#E0E4EE"/>
<stop offset="1" stop-color="#BCC1CB"/>
</linearGradient>
<linearGradient id="paint1_linear_344_726" x1="656.379" y1="248.005" x2="659.84" y2="393.34" gradientUnits="userSpaceOnUse">
<stop stop-color="#F4EEF7"/>
<stop offset="0.23" stop-color="#ECEAF3"/>
<stop offset="0.44" stop-color="#E0E4EE"/>
<stop offset="1" stop-color="#BCC1CB"/>
</linearGradient>
<linearGradient id="paint2_linear_344_726" x1="579.522" y1="-28.409" x2="749.206" y2="426.469" gradientUnits="userSpaceOnUse">
<stop stop-color="#F9F8FD"/>
<stop offset="0.54" stop-color="#F2F3F8"/>
<stop offset="0.65" stop-color="#EBEDF2"/>
<stop offset="0.81" stop-color="#DADDE4"/>
<stop offset="0.99" stop-color="#BDC2CC"/>
<stop offset="1" stop-color="#BCC1CB"/>
</linearGradient>
<linearGradient id="paint3_linear_344_726" x1="50.4792" y1="-70.1517" x2="-29.9172" y2="122.916" gradientUnits="userSpaceOnUse">
<stop stop-color="#F4EEF7"/>
<stop offset="0.23" stop-color="#ECEAF3"/>
<stop offset="0.44" stop-color="#E0E4EE"/>
<stop offset="0.62" stop-color="#D9DEE8"/>
<stop offset="0.86" stop-color="#C8CDD7"/>
<stop offset="1" stop-color="#BCC1CB"/>
</linearGradient>
<linearGradient id="paint4_linear_344_726" x1="-18.3458" y1="-68.826" x2="-70.4398" y2="135.115" gradientUnits="userSpaceOnUse">
<stop stop-color="#F9F8FD"/>
<stop offset="0.54" stop-color="#F2F3F8"/>
<stop offset="0.65" stop-color="#EBEDF2"/>
<stop offset="0.81" stop-color="#DADDE4"/>
<stop offset="0.99" stop-color="#BDC2CC"/>
<stop offset="1" stop-color="#BCC1CB"/>
</linearGradient>
<linearGradient id="paint5_linear_344_726" x1="4.89366" y1="90.4824" x2="80.3255" y2="148.732" gradientUnits="userSpaceOnUse">
<stop stop-color="white" stop-opacity="0.1"/>
<stop offset="0.29" stop-color="white" stop-opacity="0.68"/>
<stop offset="0.46" stop-color="white"/>
<stop offset="0.51" stop-color="white" stop-opacity="0.96"/>
<stop offset="0.59" stop-color="white" stop-opacity="0.84"/>
<stop offset="0.69" stop-color="white" stop-opacity="0.66"/>
<stop offset="0.81" stop-color="white" stop-opacity="0.4"/>
<stop offset="0.95" stop-color="white" stop-opacity="0.08"/>
<stop offset="0.98" stop-color="white" stop-opacity="0.01"/>
</linearGradient>
<linearGradient id="paint6_linear_344_726" x1="-234.321" y1="-61.2172" x2="-254.631" y2="230.229" gradientUnits="userSpaceOnUse">
<stop stop-color="#F4EEF7"/>
<stop offset="0.28" stop-color="#ECEAF3"/>
<stop offset="0.54" stop-color="#E0E4EE"/>
<stop offset="1" stop-color="#BCC1CB"/>
</linearGradient>
</defs>
</svg>
