<svg width="1920" height="1127" viewBox="0 0 1920 1127" fill="none" xmlns="http://www.w3.org/2000/svg">
<g opacity="0.634115" filter="url(#filter0_f_2065_494)">
<circle cx="-25" cy="119" r="144" fill="#0D2285" fill-opacity="0.08"/>
</g>
<g opacity="0.547828" filter="url(#filter1_f_2065_494)">
<circle cx="2006" cy="494.51" r="372" fill="#0D2285" fill-opacity="0.08"/>
</g>
<g filter="url(#filter2_f_2065_494)">
<path d="M1718.33 313L1608 345.619L1716.67 452L1827 419.381L1718.33 313Z" fill="url(#paint0_linear_2065_494)"/>
</g>
<g filter="url(#filter3_f_2065_494)">
<path d="M1716.45 451.725L1649 575L1759.55 542.275L1827 419L1716.45 451.725Z" fill="url(#paint1_linear_2065_494)"/>
</g>
<g filter="url(#filter4_f_2065_494)">
<path d="M1608.44 346L1541 468.923L1649.75 575L1717 452.262L1608.44 346Z" fill="url(#paint2_linear_2065_494)"/>
</g>
<path d="M108.721 208L103.512 187.289C96.8194 160.677 103.676 132.246 121.974 109.597C130.284 99.3075 140.954 90.207 153.791 83L159 103.711C133.341 118.096 116.305 140.113 109.523 164.053C108.499 167.649 107.712 171.275 107.163 174.93C106.614 178.585 106.302 182.269 106.228 185.953C106.08 193.322 106.896 200.72 108.721 207.985V208Z" fill="url(#paint3_linear_2065_494)"/>
<path d="M88.8103 222.646C88.3526 221.349 87.9392 220.037 87.5553 218.725C87.452 218.4 87.3634 218.076 87.26 217.752C86.8762 216.44 86.5071 215.128 86.1822 213.801L81 193C81.3248 194.327 81.6939 195.639 82.0778 196.951C82.1664 197.275 82.2697 197.6 82.3731 197.924C82.7717 199.236 83.1851 200.548 83.6428 201.845C83.6428 201.875 83.6576 201.904 83.6723 201.934C84.1152 203.201 84.5877 204.469 85.0897 205.737C85.2226 206.061 85.3407 206.386 85.4736 206.71C85.9903 207.993 86.5366 209.275 87.1124 210.558C87.1124 210.587 87.1419 210.617 87.1567 210.646C87.7177 211.899 88.323 213.123 88.9431 214.361C89.1056 214.686 89.268 214.995 89.4304 215.319C90.08 216.572 90.7444 217.826 91.4531 219.079C91.4531 219.079 91.4678 219.108 91.4826 219.123C92.1765 220.346 92.9147 221.57 93.6677 222.779C93.8596 223.088 94.0516 223.398 94.2435 223.708C95.026 224.931 95.8085 226.155 96.6501 227.349C97.3883 228.425 98.1708 229.472 98.9533 230.518C99.1747 230.813 99.3962 231.123 99.6177 231.418C100.518 232.612 101.448 233.776 102.408 234.941C102.63 235.221 102.866 235.486 103.102 235.752C103.84 236.622 104.578 237.491 105.331 238.332C105.686 238.73 106.04 239.113 106.409 239.496C107.074 240.219 107.738 240.926 108.402 241.619C108.801 242.017 109.185 242.43 109.584 242.828C110.263 243.506 110.942 244.17 111.636 244.833C112.034 245.216 112.418 245.585 112.832 245.968C113.599 246.676 114.382 247.383 115.179 248.076C115.504 248.371 115.829 248.666 116.168 248.946C117.29 249.919 118.427 250.862 119.594 251.776C119.771 251.909 119.948 252.042 120.125 252.189C121.114 252.971 122.118 253.737 123.137 254.489C123.536 254.784 123.949 255.079 124.362 255.373C125.16 255.948 125.972 256.523 126.799 257.084C127.256 257.393 127.729 257.703 128.201 258.012C128.998 258.543 129.796 259.059 130.608 259.56C131.08 259.855 131.553 260.15 132.025 260.445C132.881 260.975 133.753 261.477 134.638 261.993C135.052 262.243 135.48 262.479 135.893 262.73C137.119 263.423 138.359 264.101 139.614 264.749C139.688 264.779 139.747 264.823 139.821 264.867C141.149 265.56 142.493 266.209 143.836 266.857C144.265 267.064 144.708 267.256 145.136 267.447C145.977 267.83 146.834 268.214 147.675 268.597C149.624 269.452 151.602 270.263 153.596 271.015C153.98 271.162 154.363 271.295 154.747 271.428C156.475 272.076 158.232 272.681 159.989 273.256C160.446 273.403 160.919 273.565 161.376 273.713C163.429 274.361 165.481 274.951 167.563 275.496C167.976 275.6 168.375 275.703 168.788 275.806C170.589 276.263 172.405 276.69 174.236 277.074C174.753 277.177 175.27 277.295 175.786 277.398C176.908 277.619 178.045 277.826 179.182 278.032C179.787 278.135 180.378 278.253 180.983 278.356C182.474 278.592 183.966 278.813 185.457 279.005C185.708 279.034 185.959 279.079 186.225 279.108C187.981 279.329 189.738 279.521 191.51 279.668C192.042 279.713 192.573 279.742 193.105 279.786C194.345 279.889 195.585 279.978 196.84 280.037C197.623 280.081 198.405 280.096 199.188 280.125C200.073 280.155 200.959 280.199 201.86 280.214C202.657 280.214 203.469 280.214 204.266 280.214C205.152 280.214 206.053 280.214 206.939 280.214C207.751 280.214 208.548 280.17 209.36 280.14C210.246 280.111 211.132 280.081 212.018 280.037C212.83 279.993 213.642 279.934 214.454 279.889C215.34 279.83 216.225 279.771 217.111 279.698C218.027 279.624 218.942 279.521 219.857 279.432C220.537 279.359 221.216 279.3 221.88 279.211C222.855 279.093 223.829 278.961 224.818 278.828C225.453 278.74 226.088 278.666 226.723 278.563C227.801 278.4 228.878 278.209 229.956 278.032C230.488 277.943 231.019 277.855 231.536 277.767C233.145 277.472 234.74 277.147 236.349 276.794C237.53 276.528 238.697 276.233 239.878 275.953C240.97 275.688 242.048 275.408 243.141 275.113C243.908 274.907 244.676 274.686 245.444 274.464C246.536 274.155 247.629 273.816 248.707 273.477C249.46 273.241 250.198 273.005 250.951 272.769C252.073 272.4 253.195 272.002 254.317 271.604C255.011 271.354 255.705 271.118 256.399 270.853C257.669 270.381 258.924 269.865 260.178 269.364C260.725 269.143 261.286 268.936 261.832 268.7C262.157 268.568 262.467 268.42 262.777 268.287C263.988 267.771 265.184 267.241 266.379 266.681C266.867 266.459 267.354 266.224 267.841 265.988C268.919 265.472 269.982 264.941 271.045 264.41C271.503 264.174 271.946 263.953 272.403 263.717C273.88 262.951 275.356 262.155 276.818 261.329L282 282.13C280.538 282.956 279.062 283.752 277.585 284.518C277.143 284.754 276.685 284.975 276.242 285.211C275.179 285.757 274.101 286.287 273.023 286.789C272.536 287.025 272.049 287.246 271.562 287.482C270.366 288.042 269.17 288.572 267.959 289.088C267.634 289.221 267.324 289.369 267.014 289.501C266.926 289.545 266.837 289.575 266.749 289.619C266.291 289.811 265.818 289.988 265.361 290.165C264.106 290.681 262.851 291.182 261.581 291.654C260.887 291.919 260.193 292.155 259.514 292.391C258.392 292.789 257.27 293.187 256.133 293.57C255.395 293.821 254.642 294.042 253.889 294.278C252.796 294.617 251.719 294.956 250.626 295.265C249.858 295.486 249.091 295.693 248.323 295.899C247.23 296.194 246.152 296.474 245.06 296.74C244.632 296.843 244.204 296.975 243.761 297.079C243.022 297.256 242.284 297.418 241.546 297.58C239.952 297.934 238.342 298.258 236.733 298.553C236.201 298.656 235.67 298.73 235.138 298.818C234.061 299.01 232.998 299.187 231.92 299.349C231.285 299.452 230.635 299.526 230 299.614C229.026 299.747 228.052 299.88 227.077 299.998C226.398 300.071 225.719 300.145 225.04 300.219C224.405 300.292 223.755 300.366 223.12 300.425C222.855 300.455 222.574 300.455 222.308 300.484C221.422 300.558 220.537 300.617 219.651 300.676C218.839 300.735 218.027 300.794 217.215 300.823C216.329 300.867 215.443 300.897 214.557 300.926C213.745 300.956 212.933 300.985 212.136 301C211.25 301 210.349 301 209.463 301C208.666 301 207.854 301 207.057 301C206.156 300.985 205.27 300.956 204.385 300.912C203.779 300.897 203.174 300.882 202.569 300.853C202.391 300.853 202.214 300.823 202.037 300.823C200.797 300.764 199.557 300.661 198.316 300.572C197.785 300.528 197.239 300.499 196.707 300.455C194.95 300.292 193.178 300.115 191.436 299.894C191.171 299.865 190.905 299.821 190.624 299.776C189.148 299.585 187.657 299.364 186.195 299.128C185.59 299.025 184.984 298.907 184.379 298.803C183.242 298.597 182.12 298.405 180.998 298.17C180.791 298.125 180.57 298.096 180.363 298.052C180.053 297.993 179.758 297.904 179.463 297.845C177.632 297.462 175.816 297.034 174.015 296.577C173.601 296.474 173.203 296.386 172.789 296.268C170.707 295.722 168.64 295.118 166.603 294.484C166.13 294.337 165.673 294.174 165.215 294.027C163.458 293.452 161.701 292.848 159.974 292.199C159.59 292.052 159.206 291.919 158.837 291.786C156.844 291.02 154.865 290.209 152.916 289.369C152.754 289.295 152.577 289.236 152.4 289.162C151.706 288.853 151.041 288.528 150.348 288.219C149.919 288.027 149.491 287.835 149.063 287.629C147.705 286.98 146.361 286.332 145.047 285.639C144.988 285.609 144.914 285.565 144.855 285.536C143.6 284.887 142.345 284.209 141.12 283.501C140.692 283.265 140.278 283.015 139.85 282.764C138.979 282.263 138.108 281.747 137.252 281.216C136.779 280.921 136.307 280.627 135.834 280.332C135.022 279.83 134.225 279.314 133.428 278.784C132.955 278.474 132.498 278.165 132.025 277.84C131.213 277.28 130.401 276.705 129.589 276.13C129.176 275.835 128.762 275.541 128.364 275.246C127.345 274.494 126.341 273.727 125.337 272.931C125.16 272.799 124.997 272.666 124.82 272.533C123.654 271.604 122.517 270.661 121.395 269.688C121.07 269.408 120.745 269.113 120.406 268.818C119.623 268.125 118.826 267.418 118.058 266.71C117.66 266.342 117.261 265.958 116.877 265.59C116.183 264.926 115.504 264.263 114.825 263.585C114.426 263.187 114.028 262.789 113.644 262.376C112.965 261.683 112.3 260.961 111.651 260.253C111.296 259.87 110.927 259.472 110.573 259.088C109.82 258.233 109.067 257.378 108.343 256.509C108.107 256.229 107.871 255.963 107.649 255.698C106.704 254.548 105.774 253.369 104.859 252.174C104.638 251.88 104.431 251.585 104.209 251.275C103.663 250.538 103.117 249.801 102.585 249.064C102.364 248.74 102.128 248.415 101.906 248.106C101.079 246.897 100.282 245.688 99.4996 244.464C99.3076 244.155 99.1157 243.845 98.9238 243.536C98.1708 242.327 97.4326 241.103 96.7387 239.88C96.7387 239.88 96.7239 239.85 96.7091 239.835C96.0004 238.597 95.3361 237.344 94.6864 236.076C94.524 235.752 94.3616 235.442 94.1992 235.118C93.5791 233.894 92.9885 232.656 92.4275 231.418C92.4127 231.388 92.398 231.344 92.3832 231.314C91.8074 230.047 91.2759 228.764 90.7444 227.467C90.6115 227.143 90.4786 226.818 90.3605 226.494C90.2276 226.155 90.0948 225.83 89.9619 225.491C89.6075 224.563 89.268 223.634 88.9431 222.705C88.9431 222.676 88.9136 222.631 88.8989 222.602L88.8103 222.646Z" fill="url(#paint4_linear_2065_494)"/>
<path d="M142.514 65L154.367 82.2808C103.411 111.314 86.8226 171.153 117.352 215.663C141.573 250.964 188.25 266.19 231.941 256.522C243.353 253.994 254.573 249.767 265.132 243.75L277 261.031C264.176 268.334 250.559 273.478 236.691 276.538C183.647 288.275 126.985 269.782 97.5873 226.942C60.4989 172.898 80.6608 100.256 142.514 65Z" fill="url(#paint5_linear_2065_494)"/>
<g opacity="0.05" filter="url(#filter5_f_2065_494)">
<ellipse cx="1920.21" cy="1111.1" rx="245.207" ry="238.099" fill="#0D2285"/>
</g>
<defs>
<filter id="filter0_f_2065_494" x="-182.591" y="-38.5914" width="315.183" height="315.183" filterUnits="userSpaceOnUse" color-interpolation-filters="sRGB">
<feFlood flood-opacity="0" result="BackgroundImageFix"/>
<feBlend mode="normal" in="SourceGraphic" in2="BackgroundImageFix" result="shape"/>
<feGaussianBlur stdDeviation="6.7957" result="effect1_foregroundBlur_2065_494"/>
</filter>
<filter id="filter1_f_2065_494" x="1566.04" y="54.5527" width="879.914" height="879.914" filterUnits="userSpaceOnUse" color-interpolation-filters="sRGB">
<feFlood flood-opacity="0" result="BackgroundImageFix"/>
<feBlend mode="normal" in="SourceGraphic" in2="BackgroundImageFix" result="shape"/>
<feGaussianBlur stdDeviation="33.9785" result="effect1_foregroundBlur_2065_494"/>
</filter>
<filter id="filter2_f_2065_494" x="1594.41" y="299.409" width="246.183" height="166.183" filterUnits="userSpaceOnUse" color-interpolation-filters="sRGB">
<feFlood flood-opacity="0" result="BackgroundImageFix"/>
<feBlend mode="normal" in="SourceGraphic" in2="BackgroundImageFix" result="shape"/>
<feGaussianBlur stdDeviation="6.7957" result="effect1_foregroundBlur_2065_494"/>
</filter>
<filter id="filter3_f_2065_494" x="1635.41" y="405.409" width="205.183" height="183.183" filterUnits="userSpaceOnUse" color-interpolation-filters="sRGB">
<feFlood flood-opacity="0" result="BackgroundImageFix"/>
<feBlend mode="normal" in="SourceGraphic" in2="BackgroundImageFix" result="shape"/>
<feGaussianBlur stdDeviation="6.7957" result="effect1_foregroundBlur_2065_494"/>
</filter>
<filter id="filter4_f_2065_494" x="1527.41" y="332.409" width="203.183" height="256.183" filterUnits="userSpaceOnUse" color-interpolation-filters="sRGB">
<feFlood flood-opacity="0" result="BackgroundImageFix"/>
<feBlend mode="normal" in="SourceGraphic" in2="BackgroundImageFix" result="shape"/>
<feGaussianBlur stdDeviation="6.7957" result="effect1_foregroundBlur_2065_494"/>
</filter>
<filter id="filter5_f_2065_494" x="1566.27" y="764.269" width="707.876" height="693.661" filterUnits="userSpaceOnUse" color-interpolation-filters="sRGB">
<feFlood flood-opacity="0" result="BackgroundImageFix"/>
<feBlend mode="normal" in="SourceGraphic" in2="BackgroundImageFix" result="shape"/>
<feGaussianBlur stdDeviation="54.3656" result="effect1_foregroundBlur_2065_494"/>
</filter>
<linearGradient id="paint0_linear_2065_494" x1="1414.06" y1="101.653" x2="1358.48" y2="582.65" gradientUnits="userSpaceOnUse">
<stop stop-color="#FAF9FC"/>
<stop offset="0.4596" stop-color="#F3F4F9"/>
<stop offset="0.5376" stop-color="#F2F3F8"/>
<stop offset="0.6432" stop-color="#ECEEF4"/>
<stop offset="0.7872" stop-color="#DDDFE7"/>
<stop offset="0.9525" stop-color="#C4C9D2"/>
<stop offset="1" stop-color="#BCC1CB"/>
</linearGradient>
<linearGradient id="paint1_linear_2065_494" x1="1504.86" y1="196.688" x2="1493.41" y2="623.397" gradientUnits="userSpaceOnUse">
<stop stop-color="#F4EEF7"/>
<stop offset="0.1952" stop-color="#EDEBF4"/>
<stop offset="0.4375" stop-color="#E0E4EE"/>
<stop offset="1" stop-color="#BCC1CB"/>
</linearGradient>
<linearGradient id="paint2_linear_2065_494" x1="1655.14" y1="-44.6459" x2="1202.5" y2="305.78" gradientUnits="userSpaceOnUse">
<stop stop-color="#F4EEF7"/>
<stop offset="0.2399" stop-color="#EDEBF4"/>
<stop offset="0.5376" stop-color="#E0E4EE"/>
<stop offset="1" stop-color="#BCC1CB"/>
</linearGradient>
<linearGradient id="paint3_linear_2065_494" x1="205.684" y1="-323.555" x2="-115.682" y2="-238.101" gradientUnits="userSpaceOnUse">
<stop stop-color="#F4EEF7"/>
<stop offset="0.28" stop-color="#ECEAF3"/>
<stop offset="0.54" stop-color="#E0E4EE"/>
<stop offset="1" stop-color="#BCC1CB"/>
</linearGradient>
<linearGradient id="paint4_linear_2065_494" x1="199.772" y1="-32.7263" x2="64.0839" y2="301.236" gradientUnits="userSpaceOnUse">
<stop stop-color="#F4EEF7"/>
<stop offset="0.23" stop-color="#ECEAF3"/>
<stop offset="0.44" stop-color="#E0E4EE"/>
<stop offset="0.62" stop-color="#D9DEE8"/>
<stop offset="0.86" stop-color="#C8CDD7"/>
<stop offset="1" stop-color="#BCC1CB"/>
</linearGradient>
<linearGradient id="paint5_linear_2065_494" x1="-150.971" y1="-38.1227" x2="-170.199" y2="688.08" gradientUnits="userSpaceOnUse">
<stop stop-color="#F4EEF7"/>
<stop offset="0.28" stop-color="#ECEAF3"/>
<stop offset="0.54" stop-color="#E0E4EE"/>
<stop offset="1" stop-color="#BCC1CB"/>
</linearGradient>
</defs>
</svg>
