<svg width="414" height="1019" viewBox="0 0 414 1019" fill="none" xmlns="http://www.w3.org/2000/svg">
<g opacity="0.05" filter="url(#filter0_f_2019_496)">
<circle cx="19.09" cy="644.09" r="282.09" fill="#0D2285"/>
</g>
<path d="M49.5714 577.279L43.9757 581.571L-19 568.292L-13.4001 564L49.5714 577.279V577.279Z" fill="url(#paint0_linear_2019_496)"/>
<path d="M20.1563 514.303L-43 501L-13.1563 563.983L50 577.286L20.1563 514.303V514.303Z" fill="url(#paint1_linear_2019_496)"/>
<g filter="url(#filter1_f_2019_496)">
<path d="M427.183 149L385.447 161.325L426.552 201.52L468.288 189.195L427.183 149Z" fill="url(#paint2_linear_2019_496)"/>
</g>
<g filter="url(#filter2_f_2019_496)">
<path d="M426.59 201.447L401.15 248.084L442.849 235.704L468.289 189.067L426.59 201.447Z" fill="url(#paint3_linear_2019_496)"/>
</g>
<g filter="url(#filter3_f_2019_496)">
<path d="M385.517 161.453L360 207.955L401.15 248.084L426.598 201.652L385.517 161.453Z" fill="url(#paint4_linear_2019_496)"/>
</g>
<g filter="url(#filter4_f_2019_496)">
<path d="M522.986 551.797C523.145 551.09 523.305 550.384 523.45 549.692C523.508 549.389 523.594 549.086 523.652 548.783C523.681 548.596 523.696 548.423 523.725 548.235C524.131 546.058 524.435 543.881 524.638 541.747C524.638 541.617 524.681 541.473 524.696 541.328C524.71 541.126 524.696 540.925 524.725 540.723C524.899 538.675 525 536.628 525 534.609C525 534.551 525 534.494 525 534.421C525 534.277 524.986 534.119 524.986 533.974C524.986 532.071 524.884 530.182 524.71 528.308C524.71 528.163 524.71 528.019 524.696 527.875C524.696 527.817 524.681 527.76 524.667 527.702C524.478 525.813 524.203 523.967 523.87 522.122C523.841 521.934 523.826 521.732 523.783 521.545C523.754 521.386 523.696 521.228 523.667 521.069C523.305 519.267 522.884 517.479 522.377 515.705C522.348 515.59 522.319 515.46 522.29 515.344C522.044 514.508 521.798 513.686 521.522 512.879L513.567 489C513.872 489.937 514.147 490.875 514.422 491.826C514.93 493.585 515.35 495.388 515.712 497.19C515.784 497.536 515.842 497.882 515.9 498.228C516.234 500.074 516.509 501.934 516.697 503.809C516.712 504.011 516.726 504.213 516.741 504.429C516.9 506.303 517.002 508.192 517.016 510.096C517.016 510.298 517.016 510.514 517.016 510.716C517.016 512.734 516.915 514.782 516.741 516.83C516.712 517.161 516.683 517.507 516.654 517.839C516.451 519.987 516.132 522.15 515.726 524.342C515.64 524.818 515.553 525.308 515.451 525.784C515.306 526.491 515.147 527.197 514.987 527.904C514.843 528.553 514.683 529.202 514.524 529.85C514.35 530.557 514.147 531.264 513.944 531.985C513.77 532.605 513.582 533.239 513.394 533.859C513.089 534.84 512.771 535.806 512.437 536.786C512.263 537.305 512.09 537.824 511.901 538.344C511.466 539.54 511.003 540.737 510.51 541.934C510.38 542.237 510.278 542.54 510.148 542.842C509.771 543.751 509.351 544.659 508.945 545.553C508.728 546.044 508.525 546.519 508.293 547.01C507.627 548.408 506.931 549.807 506.207 551.206C505.41 552.72 504.584 554.205 503.714 555.69C503.598 555.878 503.483 556.065 503.367 556.253C502.468 557.781 501.512 559.281 500.541 560.78C500.193 561.299 499.846 561.833 499.483 562.352C498.672 563.549 497.846 564.731 496.991 565.899C496.614 566.418 496.252 566.937 495.861 567.442C494.789 568.87 493.687 570.283 492.557 571.681C492.398 571.883 492.253 572.071 492.093 572.273C490.789 573.859 489.442 575.416 488.065 576.944C487.66 577.391 487.254 577.824 486.848 578.271C485.819 579.381 484.776 580.492 483.704 581.588C483.226 582.078 482.748 582.568 482.255 583.058C481.096 584.212 479.922 585.337 478.734 586.461C478.372 586.807 478.024 587.153 477.647 587.485C476.097 588.913 474.503 590.326 472.865 591.71C472.474 592.042 472.068 592.359 471.677 592.691C470.402 593.758 469.113 594.81 467.808 595.848C467.301 596.252 466.794 596.642 466.273 597.045C464.302 598.574 462.302 600.073 460.259 601.53C460.23 601.544 460.216 601.573 460.187 601.587C458.115 603.058 455.985 604.486 453.84 605.884C453.406 606.173 452.971 606.447 452.536 606.721C449.174 608.869 445.711 610.946 442.19 612.921C441.973 613.051 441.741 613.181 441.524 613.296C438.408 615.026 435.221 616.67 431.989 618.256C431.743 618.386 431.482 618.516 431.236 618.631C428.396 620.001 425.513 621.313 422.6 622.568C422.151 622.755 421.716 622.957 421.267 623.145C418.615 624.269 415.92 625.336 413.211 626.36C412.689 626.562 412.153 626.749 411.617 626.951C408.936 627.932 406.241 628.884 403.517 629.778C403.372 629.821 403.227 629.864 403.082 629.907C400.517 630.729 397.938 631.493 395.359 632.229C394.808 632.387 394.258 632.546 393.722 632.69C391.099 633.411 388.462 634.075 385.81 634.695C385.318 634.81 384.839 634.911 384.347 635.026C381.855 635.589 379.362 636.108 376.87 636.584C376.508 636.656 376.145 636.728 375.783 636.8C373.001 637.304 370.219 637.751 367.437 638.141C366.828 638.227 366.205 638.314 365.597 638.4C363.018 638.746 360.453 639.049 357.874 639.294C356.396 639.439 354.903 639.496 353.425 639.597C351.223 639.756 349.02 639.914 346.832 639.987C344.123 640.087 341.413 640.145 338.704 640.131C338.182 640.131 337.675 640.116 337.153 640.102C334.806 640.073 332.459 639.972 330.126 639.842C329.242 639.799 328.343 639.756 327.46 639.698C324.518 639.496 321.591 639.237 318.679 638.891C317.157 638.703 315.694 638.458 314.216 638.227C312.912 638.04 311.593 637.867 310.318 637.651C308.883 637.405 307.492 637.088 306.087 636.8C304.855 636.555 303.595 636.324 302.378 636.05C300.972 635.733 299.639 635.343 298.277 634.983C297.118 634.68 295.93 634.406 294.799 634.075C293.437 633.685 292.148 633.224 290.829 632.791C289.757 632.445 288.641 632.113 287.598 631.739C286.308 631.277 285.091 630.758 283.83 630.268C282.802 629.864 281.758 629.489 280.759 629.071C279.556 628.552 278.411 627.989 277.252 627.442C276.281 626.98 275.267 626.562 274.311 626.072C273.137 625.481 272.021 624.832 270.891 624.197C270.022 623.721 269.109 623.26 268.268 622.77C267.138 622.106 266.095 621.4 265.008 620.693C264.211 620.174 263.385 619.698 262.603 619.165C261.589 618.473 260.647 617.723 259.69 617.002C258.922 616.425 258.111 615.877 257.372 615.272C256.43 614.522 255.575 613.729 254.677 612.95C253.967 612.33 253.228 611.739 252.547 611.119C251.634 610.268 250.808 609.388 249.953 608.509C249.359 607.903 248.722 607.326 248.156 606.706C247.316 605.783 246.548 604.817 245.751 603.866C245.244 603.26 244.693 602.669 244.215 602.049C243.476 601.112 242.824 600.131 242.143 599.165C241.679 598.502 241.158 597.853 240.709 597.175C239.999 596.094 239.376 594.983 238.738 593.873C238.39 593.267 237.999 592.691 237.666 592.085C236.97 590.787 236.362 589.461 235.753 588.134C235.55 587.673 235.289 587.24 235.101 586.779C234.319 584.976 233.623 583.145 233 581.299L240.955 605.178C241.578 607.038 242.274 608.869 243.056 610.657C243.259 611.119 243.505 611.551 243.708 612.013C244.317 613.339 244.925 614.666 245.621 615.964C245.954 616.569 246.345 617.16 246.693 617.752C247.33 618.862 247.954 619.972 248.664 621.054C249.113 621.731 249.62 622.38 250.098 623.044C250.779 624.01 251.431 624.99 252.17 625.928C252.677 626.576 253.242 627.196 253.778 627.831C254.546 628.754 255.285 629.691 256.111 630.585C256.705 631.234 257.372 631.84 257.995 632.474C258.821 633.31 259.618 634.175 260.502 634.997C261.183 635.632 261.922 636.223 262.632 636.829C263.516 637.607 264.385 638.4 265.327 639.15C266.066 639.741 266.877 640.304 267.645 640.881C268.616 641.601 269.558 642.351 270.558 643.043C271.369 643.606 272.239 644.11 273.079 644.658C274.122 645.322 275.122 646.014 276.209 646.648C277.122 647.182 278.078 647.672 279.02 648.177C280.092 648.768 281.15 649.388 282.266 649.95C283.236 650.441 284.265 650.873 285.25 651.335C286.395 651.868 287.525 652.431 288.714 652.935C289.757 653.382 290.858 653.772 291.916 654.19C293.118 654.666 294.292 655.156 295.538 655.603C296.669 656.007 297.842 656.353 299.001 656.728C300.248 657.131 301.465 657.564 302.74 657.939C303.913 658.285 305.145 658.559 306.333 658.876C307.652 659.222 308.956 659.597 310.318 659.914C311.564 660.203 312.854 660.433 314.129 660.693C315.505 660.967 316.853 661.284 318.258 661.529C319.592 661.76 320.983 661.933 322.345 662.135C323.707 662.337 325.054 662.567 326.445 662.74C326.503 662.74 326.576 662.755 326.634 662.769C329.546 663.115 332.473 663.375 335.414 663.577C336.298 663.634 337.197 663.678 338.081 663.721C339.225 663.779 340.37 663.88 341.529 663.908C342.717 663.952 343.92 663.952 345.123 663.966C345.644 663.966 346.151 663.995 346.673 663.995C349.02 664.009 351.368 663.995 353.73 663.923C354.092 663.923 354.454 663.865 354.802 663.865C357.004 663.779 359.207 663.634 361.395 663.476C362.438 663.404 363.481 663.375 364.525 663.288C364.959 663.245 365.408 663.216 365.843 663.173C368.422 662.928 371.002 662.625 373.566 662.279C373.885 662.236 374.204 662.207 374.523 662.164C374.812 662.12 375.117 662.063 375.407 662.02C378.189 661.63 380.985 661.183 383.753 660.678C383.854 660.664 383.956 660.65 384.057 660.635C384.318 660.592 384.579 660.52 384.854 660.477C387.361 660.001 389.853 659.482 392.331 658.919C392.649 658.847 392.968 658.79 393.287 658.717C393.461 658.674 393.62 658.631 393.794 658.588C396.446 657.968 399.083 657.304 401.706 656.583C401.923 656.526 402.155 656.468 402.372 656.41C402.705 656.324 403.024 656.208 403.343 656.122C405.937 655.387 408.516 654.622 411.066 653.8C411.182 653.772 411.298 653.728 411.399 653.699C411.428 653.699 411.457 653.671 411.486 653.671C414.21 652.791 416.906 651.839 419.586 650.844C419.89 650.729 420.195 650.643 420.499 650.527C420.731 650.441 420.948 650.34 421.18 650.253C423.89 649.229 426.585 648.162 429.236 647.038C429.425 646.966 429.613 646.893 429.802 646.821C430.062 646.706 430.323 646.576 430.584 646.461C433.496 645.206 436.38 643.909 439.22 642.524C439.307 642.481 439.394 642.452 439.481 642.409C439.655 642.322 439.814 642.236 439.973 642.149C443.205 640.563 446.392 638.919 449.508 637.189C449.595 637.146 449.682 637.103 449.769 637.059C449.913 636.987 450.044 636.886 450.174 636.814C453.71 634.839 457.158 632.777 460.535 630.614C460.708 630.513 460.882 630.412 461.056 630.311C461.317 630.138 461.578 629.951 461.839 629.792C463.998 628.393 466.128 626.966 468.2 625.495C468.214 625.495 468.243 625.466 468.258 625.452C470.315 623.995 472.315 622.481 474.285 620.967C474.532 620.765 474.807 620.592 475.053 620.39C475.314 620.189 475.561 619.972 475.807 619.77C477.111 618.732 478.401 617.68 479.676 616.613C480.067 616.281 480.473 615.964 480.864 615.632C482.487 614.248 484.081 612.835 485.645 611.407C486.008 611.075 486.37 610.729 486.732 610.383C487.935 609.259 489.109 608.134 490.253 606.98C490.746 606.49 491.224 606 491.702 605.51C492.775 604.414 493.818 603.303 494.847 602.193C495.252 601.746 495.672 601.313 496.064 600.866C497.44 599.324 498.802 597.766 500.092 596.195C500.251 596.007 500.396 595.805 500.556 595.603C501.686 594.205 502.787 592.792 503.859 591.364C504.236 590.859 504.613 590.34 504.989 589.821C505.844 588.653 506.67 587.471 507.482 586.274C507.83 585.755 508.192 585.236 508.539 584.702C509.525 583.203 510.467 581.703 511.365 580.174C511.452 580.016 511.568 579.857 511.655 579.699C511.669 579.67 511.684 579.641 511.713 579.598C512.582 578.112 513.408 576.613 514.205 575.113C514.944 573.715 515.64 572.316 516.292 570.917C516.523 570.427 516.726 569.937 516.944 569.461C517.349 568.552 517.77 567.644 518.146 566.75C518.161 566.707 518.19 566.663 518.204 566.635C518.32 566.375 518.407 566.101 518.509 565.841C519.001 564.645 519.465 563.448 519.9 562.251C520.088 561.732 520.262 561.198 520.436 560.679C520.769 559.699 521.088 558.733 521.392 557.767C521.464 557.521 521.566 557.276 521.624 557.031C521.74 556.642 521.827 556.267 521.928 555.878C522.131 555.171 522.319 554.465 522.508 553.744C522.667 553.095 522.827 552.431 522.971 551.782L522.986 551.797Z" fill="url(#paint5_linear_2019_496)"/>
</g>
<g filter="url(#filter5_f_2019_496)">
<path d="M429.024 431.265C416.194 429.7 403.032 429.613 389.899 430.859C328.024 436.698 266.626 471.843 241.807 519.332C211.693 576.904 246.666 630.797 319.982 639.735C332.812 641.3 345.973 641.387 359.106 640.141C420.967 634.302 482.351 599.157 507.199 551.668C537.313 494.11 502.296 440.203 429.024 431.265Z" fill="url(#paint6_linear_2019_496)"/>
</g>
<g filter="url(#filter6_f_2019_496)">
<path d="M515.971 525C515.971 525 515.756 526.215 515.368 528.484C514.908 530.739 514.218 534.062 512.896 538.161C511.589 542.261 509.721 547.165 507.091 552.552C505.669 555.173 504.146 557.969 502.536 560.912C500.812 563.781 498.743 566.68 496.717 569.784C494.504 572.726 492.104 575.728 489.633 578.831C486.932 581.73 484.288 584.892 481.285 587.835C478.21 590.704 475.235 593.881 471.772 596.633C470.077 598.054 468.367 599.488 466.643 600.938C464.875 602.328 463.007 603.631 461.168 604.993C453.826 610.497 445.664 615.314 437.273 619.955C428.723 624.288 419.9 628.49 410.704 631.711C401.58 635.122 392.14 637.538 382.814 639.69C373.431 641.534 364.106 642.91 355.025 643.584C336.819 644.872 319.778 643.057 305.595 639.69C291.37 636.381 280.277 631.052 272.978 626.763C269.299 624.64 266.612 622.619 264.759 621.302C262.963 619.911 262 619.164 262 619.164C262 619.164 262.991 619.852 264.859 621.155C266.77 622.385 269.558 624.201 273.294 626.177C280.708 630.218 291.931 634.844 306.012 637.801C320.051 640.846 336.948 641.988 354.823 640.612C363.775 639.88 372.943 638.445 382.168 636.557C391.335 634.361 400.603 631.901 409.569 628.475C418.65 625.386 427.358 621.302 435.821 617.115C444.126 612.606 452.202 607.921 459.473 602.563C461.297 601.23 463.137 599.971 464.904 598.61C466.628 597.219 468.338 595.828 470.019 594.467C473.497 591.846 476.485 588.801 479.589 586.049C482.621 583.223 485.279 580.178 488.024 577.382C490.524 574.381 492.967 571.482 495.208 568.642C497.277 565.67 499.318 562.874 501.157 560.107C502.867 557.252 504.476 554.529 505.999 551.981C508.801 546.755 510.842 541.982 512.293 537.971C513.744 533.945 514.649 530.71 515.21 528.47C515.727 526.23 516 525.029 516 525.029L515.971 525Z" fill="url(#paint7_linear_2019_496)"/>
</g>
<g style="mix-blend-mode:screen" filter="url(#filter7_f_2019_496)">
<path d="M240.691 520.643C265.329 472.998 326.276 437.737 387.683 431.879C400.72 430.629 413.785 430.717 426.52 432.286C486.707 439.699 520.878 477.998 513.957 523.71C521.538 477.547 487.31 438.74 426.693 431.269C413.957 429.699 400.892 429.612 387.856 430.862C326.434 436.72 265.487 471.981 240.849 519.625C235.681 529.596 232.45 539.465 231 549C232.522 539.77 235.695 530.265 240.677 520.643H240.691Z" fill="url(#paint8_linear_2019_496)"/>
</g>
<defs>
<filter id="filter0_f_2019_496" x="-355.422" y="269.578" width="749.023" height="749.023" filterUnits="userSpaceOnUse" color-interpolation-filters="sRGB">
<feFlood flood-opacity="0" result="BackgroundImageFix"/>
<feBlend mode="normal" in="SourceGraphic" in2="BackgroundImageFix" result="shape"/>
<feGaussianBlur stdDeviation="46.2108" result="effect1_foregroundBlur_2019_496"/>
</filter>
<filter id="filter1_f_2019_496" x="371.856" y="135.409" width="110.024" height="79.7028" filterUnits="userSpaceOnUse" color-interpolation-filters="sRGB">
<feFlood flood-opacity="0" result="BackgroundImageFix"/>
<feBlend mode="normal" in="SourceGraphic" in2="BackgroundImageFix" result="shape"/>
<feGaussianBlur stdDeviation="6.7957" result="effect1_foregroundBlur_2019_496"/>
</filter>
<filter id="filter2_f_2019_496" x="387.558" y="175.475" width="94.322" height="86.2002" filterUnits="userSpaceOnUse" color-interpolation-filters="sRGB">
<feFlood flood-opacity="0" result="BackgroundImageFix"/>
<feBlend mode="normal" in="SourceGraphic" in2="BackgroundImageFix" result="shape"/>
<feGaussianBlur stdDeviation="6.7957" result="effect1_foregroundBlur_2019_496"/>
</filter>
<filter id="filter3_f_2019_496" x="346.409" y="147.862" width="93.7805" height="113.814" filterUnits="userSpaceOnUse" color-interpolation-filters="sRGB">
<feFlood flood-opacity="0" result="BackgroundImageFix"/>
<feBlend mode="normal" in="SourceGraphic" in2="BackgroundImageFix" result="shape"/>
<feGaussianBlur stdDeviation="6.7957" result="effect1_foregroundBlur_2019_496"/>
</filter>
<filter id="filter4_f_2019_496" x="227.563" y="483.563" width="302.873" height="185.873" filterUnits="userSpaceOnUse" color-interpolation-filters="sRGB">
<feFlood flood-opacity="0" result="BackgroundImageFix"/>
<feBlend mode="normal" in="SourceGraphic" in2="BackgroundImageFix" result="shape"/>
<feGaussianBlur stdDeviation="2.71828" result="effect1_foregroundBlur_2019_496"/>
</filter>
<filter id="filter5_f_2019_496" x="225.563" y="424.563" width="297.873" height="221.873" filterUnits="userSpaceOnUse" color-interpolation-filters="sRGB">
<feFlood flood-opacity="0" result="BackgroundImageFix"/>
<feBlend mode="normal" in="SourceGraphic" in2="BackgroundImageFix" result="shape"/>
<feGaussianBlur stdDeviation="2.71828" result="effect1_foregroundBlur_2019_496"/>
</filter>
<filter id="filter6_f_2019_496" x="234.817" y="497.817" width="308.366" height="173.366" filterUnits="userSpaceOnUse" color-interpolation-filters="sRGB">
<feFlood flood-opacity="0" result="BackgroundImageFix"/>
<feBlend mode="normal" in="SourceGraphic" in2="BackgroundImageFix" result="shape"/>
<feGaussianBlur stdDeviation="13.5914" result="effect1_foregroundBlur_2019_496"/>
</filter>
<filter id="filter7_f_2019_496" x="203.817" y="402.817" width="338.366" height="173.366" filterUnits="userSpaceOnUse" color-interpolation-filters="sRGB">
<feFlood flood-opacity="0" result="BackgroundImageFix"/>
<feBlend mode="normal" in="SourceGraphic" in2="BackgroundImageFix" result="shape"/>
<feGaussianBlur stdDeviation="13.5914" result="effect1_foregroundBlur_2019_496"/>
</filter>
<linearGradient id="paint0_linear_2019_496" x1="-80.2621" y1="512.261" x2="-81.716" y2="572.581" gradientUnits="userSpaceOnUse">
<stop stop-color="#F4EEF7"/>
<stop offset="0.23" stop-color="#ECEAF3"/>
<stop offset="0.44" stop-color="#E0E4EE"/>
<stop offset="1" stop-color="#BCC1CB"/>
</linearGradient>
<linearGradient id="paint1_linear_2019_496" x1="-48.5965" y1="399.423" x2="-118.344" y2="586.108" gradientUnits="userSpaceOnUse">
<stop stop-color="#F9F8FD"/>
<stop offset="0.54" stop-color="#F2F3F8"/>
<stop offset="0.65" stop-color="#EBEDF2"/>
<stop offset="0.81" stop-color="#DADDE4"/>
<stop offset="0.99" stop-color="#BDC2CC"/>
<stop offset="1" stop-color="#BCC1CB"/>
</linearGradient>
<linearGradient id="paint2_linear_2019_496" x1="312.085" y1="69.1442" x2="291.108" y2="250.891" gradientUnits="userSpaceOnUse">
<stop stop-color="#FAF9FC"/>
<stop offset="0.4596" stop-color="#F3F4F9"/>
<stop offset="0.5376" stop-color="#F2F3F8"/>
<stop offset="0.6432" stop-color="#ECEEF4"/>
<stop offset="0.7872" stop-color="#DDDFE7"/>
<stop offset="0.9525" stop-color="#C4C9D2"/>
<stop offset="1" stop-color="#BCC1CB"/>
</linearGradient>
<linearGradient id="paint3_linear_2019_496" x1="346.783" y1="104.962" x2="342.436" y2="266.393" gradientUnits="userSpaceOnUse">
<stop stop-color="#F4EEF7"/>
<stop offset="0.1952" stop-color="#EDEBF4"/>
<stop offset="0.4375" stop-color="#E0E4EE"/>
<stop offset="1" stop-color="#BCC1CB"/>
</linearGradient>
<linearGradient id="paint4_linear_2019_496" x1="403.191" y1="13.6711" x2="231.946" y2="146.279" gradientUnits="userSpaceOnUse">
<stop stop-color="#F4EEF7"/>
<stop offset="0.2399" stop-color="#EDEBF4"/>
<stop offset="0.5376" stop-color="#E0E4EE"/>
<stop offset="1" stop-color="#BCC1CB"/>
</linearGradient>
<linearGradient id="paint5_linear_2019_496" x1="327.616" y1="264.604" x2="153.66" y2="686.987" gradientUnits="userSpaceOnUse">
<stop stop-color="#F4EEF7"/>
<stop offset="0.23" stop-color="#ECEAF3"/>
<stop offset="0.44" stop-color="#E0E4EE"/>
<stop offset="0.62" stop-color="#D9DEE8"/>
<stop offset="0.86" stop-color="#C8CDD7"/>
<stop offset="1" stop-color="#BCC1CB"/>
</linearGradient>
<linearGradient id="paint6_linear_2019_496" x1="177.607" y1="265.513" x2="62.8552" y2="713.697" gradientUnits="userSpaceOnUse">
<stop stop-color="#F9F8FD"/>
<stop offset="0.54" stop-color="#F2F3F8"/>
<stop offset="0.65" stop-color="#EBEDF2"/>
<stop offset="0.81" stop-color="#DADDE4"/>
<stop offset="0.99" stop-color="#BDC2CC"/>
<stop offset="1" stop-color="#BCC1CB"/>
</linearGradient>
<linearGradient id="paint7_linear_2019_496" x1="228.458" y1="613.611" x2="394.053" y2="742.241" gradientUnits="userSpaceOnUse">
<stop stop-color="white" stop-opacity="0.1"/>
<stop offset="0.29" stop-color="white" stop-opacity="0.68"/>
<stop offset="0.46" stop-color="white"/>
<stop offset="0.51" stop-color="white" stop-opacity="0.96"/>
<stop offset="0.59" stop-color="white" stop-opacity="0.84"/>
<stop offset="0.69" stop-color="white" stop-opacity="0.66"/>
<stop offset="0.81" stop-color="white" stop-opacity="0.4"/>
<stop offset="0.95" stop-color="white" stop-opacity="0.08"/>
<stop offset="0.98" stop-color="white" stop-opacity="0.01"/>
</linearGradient>
<linearGradient id="paint8_linear_2019_496" x1="-293.678" y1="282.656" x2="-338.378" y2="921.5" gradientUnits="userSpaceOnUse">
<stop stop-color="#F4EEF7"/>
<stop offset="0.28" stop-color="#ECEAF3"/>
<stop offset="0.54" stop-color="#E0E4EE"/>
<stop offset="1" stop-color="#BCC1CB"/>
</linearGradient>
</defs>
</svg>
