<svg width="1920" height="524" viewBox="0 0 1920 524" fill="none" xmlns="http://www.w3.org/2000/svg">
<g filter="url(#filter0_f_2010_521)">
<path d="M1718.33 248L1608 280.619L1716.67 387L1827 354.381L1718.33 248Z" fill="url(#paint0_linear_2010_521)"/>
</g>
<g filter="url(#filter1_f_2010_521)">
<path d="M1716.45 386.725L1649 510L1759.55 477.275L1827 354L1716.45 386.725Z" fill="url(#paint1_linear_2010_521)"/>
</g>
<g filter="url(#filter2_f_2010_521)">
<path d="M1608.44 281L1541 403.923L1649.75 510L1717 387.262L1608.44 281Z" fill="url(#paint2_linear_2010_521)"/>
</g>
<path d="M108.721 143L103.512 122.289C96.8194 95.6773 103.676 67.2455 121.974 44.597C130.284 34.3075 140.954 25.207 153.791 18V18L159 38.711C133.341 53.0957 116.305 75.1131 109.523 99.0533C108.499 102.649 107.712 106.275 107.163 109.93C106.614 113.585 106.302 117.269 106.228 120.953C106.08 128.322 106.896 135.72 108.721 142.985V142.985V142.985V143Z" fill="url(#paint3_linear_2010_521)"/>
<path d="M88.8103 157.646C88.3526 156.349 87.9392 155.037 87.5553 153.725C87.452 153.4 87.3634 153.076 87.26 152.752C86.8762 151.44 86.5071 150.128 86.1822 148.801L81 128C81.3248 129.327 81.6939 130.639 82.0778 131.951C82.1664 132.275 82.2697 132.6 82.3731 132.924C82.7717 134.236 83.1851 135.548 83.6428 136.845C83.6428 136.875 83.6576 136.904 83.6723 136.934C84.1152 138.201 84.5877 139.469 85.0897 140.737C85.2226 141.061 85.3407 141.386 85.4736 141.71C85.9903 142.993 86.5366 144.275 87.1124 145.558C87.1124 145.587 87.1419 145.617 87.1567 145.646C87.7177 146.899 88.323 148.123 88.9431 149.361C89.1056 149.686 89.268 149.995 89.4304 150.319C90.08 151.572 90.7444 152.826 91.4531 154.079C91.4531 154.079 91.4678 154.108 91.4826 154.123C92.1765 155.346 92.9147 156.57 93.6677 157.779C93.8596 158.088 94.0516 158.398 94.2435 158.708C95.026 159.931 95.8085 161.155 96.6501 162.349C97.3883 163.425 98.1708 164.472 98.9533 165.518C99.1747 165.813 99.3962 166.123 99.6177 166.418C100.518 167.612 101.448 168.776 102.408 169.941C102.63 170.221 102.866 170.486 103.102 170.752C103.84 171.622 104.578 172.491 105.331 173.332C105.686 173.73 106.04 174.113 106.409 174.496C107.074 175.219 107.738 175.926 108.402 176.619C108.801 177.017 109.185 177.43 109.584 177.828C110.263 178.506 110.942 179.17 111.636 179.833C112.034 180.216 112.418 180.585 112.832 180.968C113.599 181.676 114.382 182.383 115.179 183.076C115.504 183.371 115.829 183.666 116.168 183.946C117.29 184.919 118.427 185.862 119.594 186.776C119.771 186.909 119.948 187.042 120.125 187.189C121.114 187.971 122.118 188.737 123.137 189.489C123.536 189.784 123.949 190.079 124.362 190.373C125.16 190.948 125.972 191.523 126.799 192.084C127.256 192.393 127.729 192.703 128.201 193.012C128.998 193.543 129.796 194.059 130.608 194.56C131.08 194.855 131.553 195.15 132.025 195.445C132.881 195.975 133.753 196.477 134.638 196.993C135.052 197.243 135.48 197.479 135.893 197.73C137.119 198.423 138.359 199.101 139.614 199.749C139.688 199.779 139.747 199.823 139.821 199.867C141.149 200.56 142.493 201.209 143.836 201.857C144.265 202.064 144.708 202.256 145.136 202.447C145.977 202.83 146.834 203.214 147.675 203.597C149.624 204.452 151.602 205.263 153.596 206.015C153.98 206.162 154.363 206.295 154.747 206.428C156.475 207.076 158.232 207.681 159.989 208.256C160.446 208.403 160.919 208.565 161.376 208.713C163.429 209.361 165.481 209.951 167.563 210.496C167.976 210.6 168.375 210.703 168.788 210.806C170.589 211.263 172.405 211.69 174.236 212.074C174.753 212.177 175.269 212.295 175.786 212.398C176.908 212.619 178.045 212.826 179.182 213.032C179.787 213.135 180.378 213.253 180.983 213.356C182.474 213.592 183.966 213.813 185.457 214.005C185.708 214.034 185.959 214.079 186.225 214.108C187.981 214.329 189.738 214.521 191.51 214.668C192.042 214.713 192.573 214.742 193.105 214.786C194.345 214.889 195.585 214.978 196.84 215.037C197.623 215.081 198.405 215.096 199.188 215.125C200.073 215.155 200.959 215.199 201.86 215.214C202.657 215.214 203.469 215.214 204.266 215.214C205.152 215.214 206.053 215.214 206.939 215.214C207.751 215.214 208.548 215.17 209.36 215.14C210.246 215.111 211.132 215.081 212.018 215.037C212.83 214.993 213.642 214.934 214.454 214.889C215.34 214.83 216.225 214.772 217.111 214.698C218.027 214.624 218.942 214.521 219.857 214.432C220.537 214.359 221.216 214.3 221.88 214.211C222.855 214.093 223.829 213.961 224.818 213.828C225.453 213.74 226.088 213.666 226.723 213.563C227.801 213.4 228.878 213.209 229.956 213.032C230.488 212.943 231.019 212.855 231.536 212.767C233.145 212.472 234.74 212.147 236.349 211.794C237.53 211.528 238.697 211.233 239.878 210.953C240.97 210.688 242.048 210.408 243.141 210.113C243.908 209.907 244.676 209.686 245.444 209.464C246.536 209.155 247.629 208.816 248.707 208.477C249.46 208.241 250.198 208.005 250.951 207.769C252.073 207.4 253.195 207.002 254.317 206.604C255.011 206.354 255.705 206.118 256.399 205.853C257.669 205.381 258.924 204.865 260.178 204.364C260.725 204.143 261.286 203.936 261.832 203.7C262.157 203.568 262.467 203.42 262.777 203.287C263.988 202.771 265.184 202.241 266.379 201.681C266.867 201.459 267.354 201.224 267.841 200.988C268.919 200.472 269.982 199.941 271.045 199.41C271.503 199.174 271.946 198.953 272.403 198.717C273.88 197.951 275.356 197.155 276.818 196.329L282 217.13C280.538 217.956 279.062 218.752 277.585 219.518C277.143 219.754 276.685 219.975 276.242 220.211C275.179 220.757 274.101 221.287 273.023 221.789C272.536 222.025 272.049 222.246 271.562 222.482C270.366 223.042 269.17 223.572 267.959 224.088C267.634 224.221 267.324 224.369 267.014 224.501C266.926 224.545 266.837 224.575 266.749 224.619C266.291 224.811 265.818 224.988 265.361 225.165C264.106 225.681 262.851 226.182 261.581 226.654C260.887 226.919 260.193 227.155 259.514 227.391C258.392 227.789 257.27 228.187 256.133 228.57C255.395 228.821 254.642 229.042 253.889 229.278C252.796 229.617 251.719 229.956 250.626 230.265C249.858 230.486 249.091 230.693 248.323 230.899C247.23 231.194 246.152 231.474 245.06 231.74C244.632 231.843 244.204 231.975 243.761 232.079C243.022 232.256 242.284 232.418 241.546 232.58C239.952 232.934 238.342 233.258 236.733 233.553C236.201 233.656 235.67 233.73 235.138 233.818C234.061 234.01 232.998 234.187 231.92 234.349C231.285 234.452 230.635 234.526 230 234.614C229.026 234.747 228.052 234.88 227.077 234.998C226.398 235.071 225.719 235.145 225.04 235.219C224.405 235.292 223.755 235.366 223.12 235.425C222.855 235.455 222.574 235.455 222.308 235.484C221.422 235.558 220.537 235.617 219.651 235.676C218.839 235.735 218.027 235.794 217.215 235.823C216.329 235.867 215.443 235.897 214.557 235.926C213.745 235.956 212.933 235.985 212.136 236C211.25 236 210.349 236 209.463 236C208.666 236 207.854 236 207.057 236C206.156 235.985 205.27 235.956 204.385 235.912C203.779 235.897 203.174 235.882 202.569 235.853C202.391 235.853 202.214 235.823 202.037 235.823C200.797 235.764 199.557 235.661 198.316 235.572C197.785 235.528 197.239 235.499 196.707 235.455C194.95 235.292 193.178 235.115 191.436 234.894C191.171 234.865 190.905 234.821 190.624 234.776C189.148 234.585 187.657 234.364 186.195 234.128C185.59 234.025 184.984 233.907 184.379 233.803C183.242 233.597 182.12 233.405 180.998 233.17C180.791 233.125 180.57 233.096 180.363 233.052C180.053 232.993 179.758 232.904 179.463 232.845C177.632 232.462 175.816 232.034 174.015 231.577C173.601 231.474 173.203 231.386 172.789 231.268C170.707 230.722 168.64 230.118 166.603 229.484C166.13 229.337 165.673 229.174 165.215 229.027C163.458 228.452 161.701 227.848 159.974 227.199C159.59 227.052 159.206 226.919 158.837 226.786C156.844 226.02 154.865 225.209 152.916 224.369C152.754 224.295 152.577 224.236 152.4 224.162C151.706 223.853 151.041 223.528 150.348 223.219C149.919 223.027 149.491 222.835 149.063 222.629C147.705 221.98 146.361 221.332 145.047 220.639C144.988 220.609 144.914 220.565 144.855 220.536C143.6 219.887 142.345 219.209 141.12 218.501C140.692 218.265 140.278 218.015 139.85 217.764C138.979 217.263 138.108 216.747 137.252 216.216C136.779 215.921 136.307 215.627 135.834 215.332C135.022 214.83 134.225 214.314 133.428 213.784C132.955 213.474 132.498 213.165 132.025 212.84C131.213 212.28 130.401 211.705 129.589 211.13C129.176 210.835 128.762 210.541 128.364 210.246C127.345 209.494 126.341 208.727 125.337 207.931C125.16 207.799 124.997 207.666 124.82 207.533C123.654 206.604 122.517 205.661 121.395 204.688C121.07 204.408 120.745 204.113 120.406 203.818C119.623 203.125 118.826 202.418 118.058 201.71C117.66 201.342 117.261 200.958 116.877 200.59C116.183 199.926 115.504 199.263 114.825 198.585C114.426 198.187 114.028 197.789 113.644 197.376C112.965 196.683 112.3 195.961 111.651 195.253C111.296 194.87 110.927 194.472 110.573 194.088C109.82 193.233 109.067 192.378 108.343 191.509C108.107 191.229 107.871 190.963 107.649 190.698C106.704 189.548 105.774 188.369 104.859 187.174C104.638 186.88 104.431 186.585 104.209 186.275C103.663 185.538 103.117 184.801 102.585 184.064C102.364 183.74 102.128 183.415 101.906 183.106C101.079 181.897 100.282 180.688 99.4996 179.464C99.3076 179.155 99.1157 178.845 98.9238 178.536C98.1708 177.327 97.4326 176.103 96.7387 174.88C96.7387 174.88 96.7239 174.85 96.7091 174.835C96.0004 173.597 95.3361 172.344 94.6864 171.076C94.524 170.752 94.3616 170.442 94.1992 170.118C93.5791 168.894 92.9885 167.656 92.4275 166.418C92.4127 166.388 92.398 166.344 92.3832 166.314C91.8074 165.047 91.2759 163.764 90.7444 162.467C90.6115 162.143 90.4786 161.818 90.3605 161.494C90.2276 161.155 90.0948 160.83 89.9619 160.491C89.6075 159.563 89.268 158.634 88.9431 157.705C88.9431 157.676 88.9136 157.631 88.8989 157.602L88.8103 157.646Z" fill="url(#paint4_linear_2010_521)"/>
<path d="M142.514 0L154.367 17.2808C103.411 46.3136 86.8226 106.153 117.352 150.663C141.573 185.964 188.25 201.19 231.941 191.522C243.353 188.994 254.573 184.767 265.132 178.75L277 196.031C264.176 203.334 250.559 208.478 236.691 211.538C183.647 223.275 126.985 204.782 97.5873 161.942C60.4989 107.898 80.6608 35.2563 142.514 0Z" fill="url(#paint5_linear_2010_521)"/>
<defs>
<filter id="filter0_f_2010_521" x="1594.41" y="234.409" width="246.183" height="166.183" filterUnits="userSpaceOnUse" color-interpolation-filters="sRGB">
<feFlood flood-opacity="0" result="BackgroundImageFix"/>
<feBlend mode="normal" in="SourceGraphic" in2="BackgroundImageFix" result="shape"/>
<feGaussianBlur stdDeviation="6.7957" result="effect1_foregroundBlur_2010_521"/>
</filter>
<filter id="filter1_f_2010_521" x="1635.41" y="340.409" width="205.183" height="183.183" filterUnits="userSpaceOnUse" color-interpolation-filters="sRGB">
<feFlood flood-opacity="0" result="BackgroundImageFix"/>
<feBlend mode="normal" in="SourceGraphic" in2="BackgroundImageFix" result="shape"/>
<feGaussianBlur stdDeviation="6.7957" result="effect1_foregroundBlur_2010_521"/>
</filter>
<filter id="filter2_f_2010_521" x="1527.41" y="267.409" width="203.183" height="256.183" filterUnits="userSpaceOnUse" color-interpolation-filters="sRGB">
<feFlood flood-opacity="0" result="BackgroundImageFix"/>
<feBlend mode="normal" in="SourceGraphic" in2="BackgroundImageFix" result="shape"/>
<feGaussianBlur stdDeviation="6.7957" result="effect1_foregroundBlur_2010_521"/>
</filter>
<linearGradient id="paint0_linear_2010_521" x1="1414.06" y1="36.6531" x2="1358.48" y2="517.65" gradientUnits="userSpaceOnUse">
<stop stop-color="#FAF9FC"/>
<stop offset="0.4596" stop-color="#F3F4F9"/>
<stop offset="0.5376" stop-color="#F2F3F8"/>
<stop offset="0.6432" stop-color="#ECEEF4"/>
<stop offset="0.7872" stop-color="#DDDFE7"/>
<stop offset="0.9525" stop-color="#C4C9D2"/>
<stop offset="1" stop-color="#BCC1CB"/>
</linearGradient>
<linearGradient id="paint1_linear_2010_521" x1="1504.86" y1="131.688" x2="1493.41" y2="558.397" gradientUnits="userSpaceOnUse">
<stop stop-color="#F4EEF7"/>
<stop offset="0.1952" stop-color="#EDEBF4"/>
<stop offset="0.4375" stop-color="#E0E4EE"/>
<stop offset="1" stop-color="#BCC1CB"/>
</linearGradient>
<linearGradient id="paint2_linear_2010_521" x1="1655.14" y1="-109.646" x2="1202.5" y2="240.78" gradientUnits="userSpaceOnUse">
<stop stop-color="#F4EEF7"/>
<stop offset="0.2399" stop-color="#EDEBF4"/>
<stop offset="0.5376" stop-color="#E0E4EE"/>
<stop offset="1" stop-color="#BCC1CB"/>
</linearGradient>
<linearGradient id="paint3_linear_2010_521" x1="205.684" y1="-388.555" x2="-115.682" y2="-303.101" gradientUnits="userSpaceOnUse">
<stop stop-color="#F4EEF7"/>
<stop offset="0.28" stop-color="#ECEAF3"/>
<stop offset="0.54" stop-color="#E0E4EE"/>
<stop offset="1" stop-color="#BCC1CB"/>
</linearGradient>
<linearGradient id="paint4_linear_2010_521" x1="199.772" y1="-97.7263" x2="64.0839" y2="236.236" gradientUnits="userSpaceOnUse">
<stop stop-color="#F4EEF7"/>
<stop offset="0.23" stop-color="#ECEAF3"/>
<stop offset="0.44" stop-color="#E0E4EE"/>
<stop offset="0.62" stop-color="#D9DEE8"/>
<stop offset="0.86" stop-color="#C8CDD7"/>
<stop offset="1" stop-color="#BCC1CB"/>
</linearGradient>
<linearGradient id="paint5_linear_2010_521" x1="-150.971" y1="-103.123" x2="-170.199" y2="623.08" gradientUnits="userSpaceOnUse">
<stop stop-color="#F4EEF7"/>
<stop offset="0.28" stop-color="#ECEAF3"/>
<stop offset="0.54" stop-color="#E0E4EE"/>
<stop offset="1" stop-color="#BCC1CB"/>
</linearGradient>
</defs>
</svg>
