<svg width="1711" height="774" viewBox="0 0 1711 774" fill="none" xmlns="http://www.w3.org/2000/svg">
<path d="M1328.43 570L1324.02 552.437C1318.37 529.87 1324.16 505.76 1339.62 486.554C1346.64 477.829 1355.66 470.112 1366.5 464L1370.9 481.563C1349.23 493.761 1334.83 512.432 1329.1 532.733C1328.24 535.783 1327.57 538.857 1327.11 541.957C1326.65 545.056 1326.38 548.18 1326.32 551.304C1326.19 557.553 1326.88 563.826 1328.43 569.988V570Z" fill="url(#paint0_linear_2084_534)"/>
<path d="M1311.47 581.98C1311.08 580.887 1310.74 579.781 1310.41 578.676C1310.33 578.402 1310.25 578.129 1310.17 577.856C1309.84 576.75 1309.53 575.645 1309.26 574.527L1304.9 557C1305.18 558.118 1305.49 559.223 1305.81 560.329C1305.88 560.602 1305.97 560.876 1306.06 561.149C1306.39 562.254 1306.74 563.36 1307.12 564.453C1307.12 564.478 1307.14 564.503 1307.15 564.527C1307.52 565.596 1307.92 566.664 1308.34 567.732C1308.45 568.005 1308.55 568.279 1308.66 568.552C1309.1 569.633 1309.56 570.713 1310.04 571.794C1310.04 571.819 1310.07 571.844 1310.08 571.869C1310.55 572.924 1311.06 573.955 1311.58 574.999C1311.72 575.272 1311.85 575.533 1311.99 575.806C1312.54 576.862 1313.1 577.918 1313.69 578.974C1313.69 578.974 1313.7 578.998 1313.72 579.011C1314.3 580.042 1314.92 581.073 1315.55 582.091C1315.71 582.352 1315.88 582.613 1316.04 582.874C1316.7 583.905 1317.35 584.936 1318.06 585.942C1318.68 586.849 1319.34 587.731 1320 588.613C1320.18 588.861 1320.37 589.122 1320.56 589.37C1321.31 590.377 1322.1 591.358 1322.9 592.339C1323.09 592.575 1323.29 592.799 1323.49 593.022C1324.11 593.755 1324.73 594.488 1325.36 595.196C1325.66 595.532 1325.96 595.854 1326.27 596.177C1326.82 596.786 1327.38 597.382 1327.94 597.966C1328.28 598.302 1328.6 598.649 1328.94 598.985C1329.51 599.556 1330.08 600.115 1330.66 600.674C1331 600.997 1331.32 601.308 1331.67 601.63C1332.31 602.227 1332.97 602.823 1333.64 603.407C1333.91 603.655 1334.19 603.904 1334.47 604.14C1335.42 604.959 1336.37 605.754 1337.35 606.525C1337.5 606.636 1337.65 606.748 1337.8 606.872C1338.63 607.531 1339.47 608.177 1340.33 608.81C1340.67 609.059 1341.01 609.307 1341.36 609.555C1342.03 610.04 1342.71 610.524 1343.41 610.996C1343.79 611.257 1344.19 611.518 1344.59 611.779C1345.26 612.226 1345.93 612.661 1346.61 613.083C1347.01 613.332 1347.41 613.58 1347.8 613.828C1348.52 614.276 1349.26 614.698 1350 615.133C1350.35 615.344 1350.71 615.543 1351.06 615.754C1352.09 616.338 1353.13 616.909 1354.18 617.456C1354.25 617.48 1354.3 617.518 1354.36 617.555C1355.48 618.139 1356.61 618.685 1357.74 619.232C1358.1 619.406 1358.47 619.567 1358.83 619.729C1359.53 620.052 1360.25 620.375 1360.96 620.698C1362.6 621.418 1364.26 622.101 1365.94 622.735C1366.26 622.859 1366.59 622.971 1366.91 623.082C1368.36 623.629 1369.84 624.138 1371.32 624.623C1371.7 624.747 1372.1 624.884 1372.48 625.008C1374.21 625.554 1375.93 626.051 1377.68 626.511C1378.03 626.598 1378.37 626.685 1378.71 626.772C1380.23 627.157 1381.76 627.517 1383.29 627.84C1383.73 627.927 1384.16 628.026 1384.6 628.113C1385.54 628.299 1386.5 628.473 1387.45 628.647C1387.96 628.734 1388.46 628.834 1388.97 628.921C1390.22 629.119 1391.48 629.306 1392.73 629.467C1392.94 629.492 1393.15 629.529 1393.37 629.554C1394.85 629.74 1396.33 629.902 1397.82 630.026C1398.27 630.063 1398.71 630.088 1399.16 630.125C1400.2 630.212 1401.25 630.287 1402.3 630.337C1402.96 630.374 1403.62 630.386 1404.27 630.411C1405.02 630.436 1405.76 630.473 1406.52 630.486C1407.19 630.486 1407.87 630.486 1408.54 630.486C1409.29 630.486 1410.05 630.486 1410.79 630.486C1411.47 630.486 1412.14 630.448 1412.83 630.424C1413.57 630.399 1414.32 630.374 1415.06 630.337C1415.74 630.299 1416.43 630.25 1417.11 630.212C1417.85 630.163 1418.6 630.113 1419.34 630.051C1420.11 629.989 1420.88 629.902 1421.65 629.827C1422.22 629.765 1422.8 629.716 1423.35 629.641C1424.17 629.542 1424.99 629.43 1425.82 629.318C1426.36 629.244 1426.89 629.181 1427.43 629.094C1428.33 628.958 1429.24 628.796 1430.14 628.647C1430.59 628.573 1431.04 628.498 1431.47 628.424C1432.83 628.175 1434.17 627.902 1435.52 627.604C1436.51 627.38 1437.49 627.132 1438.49 626.896C1439.4 626.672 1440.31 626.436 1441.23 626.188C1441.88 626.014 1442.52 625.828 1443.17 625.641C1444.08 625.38 1445 625.095 1445.91 624.809C1446.54 624.61 1447.16 624.412 1447.8 624.213C1448.74 623.902 1449.68 623.567 1450.63 623.232C1451.21 623.02 1451.79 622.822 1452.38 622.598C1453.44 622.201 1454.5 621.766 1455.55 621.343C1456.01 621.157 1456.49 620.983 1456.95 620.784C1457.22 620.673 1457.48 620.548 1457.74 620.437C1458.76 620.002 1459.76 619.555 1460.77 619.083C1461.18 618.896 1461.59 618.698 1462 618.499C1462.9 618.064 1463.8 617.617 1464.69 617.17C1465.08 616.971 1465.45 616.785 1465.83 616.586C1467.07 615.94 1468.32 615.269 1469.55 614.574L1473.9 632.1C1472.67 632.796 1471.43 633.467 1470.19 634.113C1469.82 634.311 1469.43 634.498 1469.06 634.697C1468.17 635.156 1467.26 635.603 1466.35 636.026C1465.95 636.224 1465.54 636.411 1465.13 636.609C1464.12 637.081 1463.11 637.529 1462.1 637.963C1461.82 638.075 1461.56 638.199 1461.3 638.311C1461.23 638.348 1461.15 638.373 1461.08 638.411C1460.69 638.572 1460.3 638.721 1459.91 638.87C1458.86 639.305 1457.8 639.727 1456.73 640.125C1456.15 640.348 1455.57 640.547 1455 640.746C1454.05 641.081 1453.11 641.417 1452.15 641.74C1451.53 641.951 1450.9 642.137 1450.27 642.336C1449.35 642.621 1448.44 642.907 1447.52 643.168C1446.88 643.354 1446.23 643.528 1445.59 643.702C1444.67 643.951 1443.76 644.187 1442.84 644.41C1442.48 644.497 1442.12 644.609 1441.75 644.696C1441.13 644.845 1440.51 644.982 1439.89 645.118C1438.55 645.416 1437.2 645.69 1435.84 645.938C1435.4 646.025 1434.95 646.087 1434.5 646.162C1433.6 646.323 1432.7 646.472 1431.8 646.609C1431.26 646.696 1430.72 646.758 1430.18 646.832C1429.36 646.944 1428.54 647.056 1427.72 647.155C1427.15 647.217 1426.58 647.28 1426.01 647.342C1425.48 647.404 1424.93 647.466 1424.4 647.516C1424.17 647.54 1423.94 647.54 1423.71 647.565C1422.97 647.627 1422.22 647.677 1421.48 647.727C1420.8 647.776 1420.11 647.826 1419.43 647.851C1418.69 647.888 1417.94 647.913 1417.2 647.938C1416.51 647.963 1415.83 647.988 1415.16 648C1414.42 648 1413.66 648 1412.91 648C1412.24 648 1411.56 648 1410.89 648C1410.13 647.988 1409.39 647.963 1408.64 647.925C1408.13 647.913 1407.63 647.901 1407.12 647.876C1406.97 647.876 1406.82 647.851 1406.67 647.851C1405.63 647.801 1404.58 647.714 1403.54 647.64C1403.09 647.603 1402.64 647.578 1402.19 647.54C1400.71 647.404 1399.22 647.255 1397.76 647.068C1397.53 647.044 1397.31 647.006 1397.07 646.969C1395.83 646.808 1394.58 646.621 1393.35 646.422C1392.84 646.336 1392.33 646.236 1391.82 646.149C1390.87 645.975 1389.92 645.814 1388.98 645.615C1388.81 645.578 1388.62 645.553 1388.45 645.516C1388.19 645.466 1387.94 645.391 1387.69 645.342C1386.15 645.019 1384.62 644.659 1383.11 644.274C1382.76 644.187 1382.43 644.112 1382.08 644.013C1380.33 643.553 1378.59 643.044 1376.88 642.51C1376.48 642.385 1376.09 642.249 1375.71 642.125C1374.23 641.64 1372.76 641.131 1371.3 640.584C1370.98 640.46 1370.66 640.348 1370.35 640.237C1368.67 639.591 1367.01 638.907 1365.37 638.199C1365.23 638.137 1365.08 638.088 1364.93 638.026C1364.35 637.765 1363.79 637.491 1363.21 637.231C1362.85 637.069 1362.49 636.908 1362.13 636.734C1360.99 636.187 1359.86 635.641 1358.75 635.057C1358.7 635.032 1358.64 634.995 1358.59 634.97C1357.54 634.423 1356.48 633.852 1355.45 633.256C1355.09 633.057 1354.74 632.846 1354.38 632.635C1353.65 632.212 1352.92 631.778 1352.2 631.33C1351.8 631.082 1351.4 630.833 1351.01 630.585C1350.32 630.163 1349.65 629.728 1348.98 629.281C1348.59 629.02 1348.2 628.759 1347.8 628.486C1347.12 628.014 1346.44 627.529 1345.76 627.045C1345.41 626.796 1345.06 626.548 1344.73 626.3C1343.87 625.666 1343.02 625.02 1342.18 624.349C1342.03 624.238 1341.9 624.126 1341.75 624.014C1340.77 623.232 1339.81 622.437 1338.87 621.617C1338.59 621.381 1338.32 621.132 1338.03 620.884C1337.38 620.3 1336.71 619.704 1336.06 619.108C1335.73 618.797 1335.39 618.474 1335.07 618.164C1334.48 617.605 1333.91 617.046 1333.34 616.474C1333.01 616.139 1332.67 615.803 1332.35 615.456C1331.78 614.872 1331.22 614.263 1330.67 613.667C1330.38 613.344 1330.06 613.009 1329.77 612.686C1329.13 611.965 1328.5 611.245 1327.89 610.512C1327.69 610.276 1327.5 610.052 1327.31 609.829C1326.51 608.86 1325.73 607.866 1324.96 606.86C1324.78 606.612 1324.6 606.363 1324.42 606.102C1323.96 605.481 1323.5 604.86 1323.05 604.239C1322.86 603.966 1322.67 603.692 1322.48 603.432C1321.78 602.413 1321.11 601.394 1320.46 600.363C1320.3 600.103 1320.13 599.842 1319.97 599.581C1319.34 598.562 1318.72 597.531 1318.14 596.5C1318.14 596.5 1318.12 596.476 1318.11 596.463C1317.51 595.42 1316.96 594.364 1316.41 593.296C1316.27 593.022 1316.14 592.762 1316 592.488C1315.48 591.457 1314.98 590.414 1314.51 589.37C1314.5 589.346 1314.49 589.308 1314.47 589.284C1313.99 588.215 1313.54 587.135 1313.1 586.041C1312.98 585.768 1312.87 585.495 1312.77 585.222C1312.66 584.936 1312.55 584.663 1312.44 584.377C1312.14 583.594 1311.85 582.812 1311.58 582.029C1311.58 582.005 1311.56 581.967 1311.54 581.942L1311.47 581.98Z" fill="url(#paint1_linear_2084_534)"/>
<path d="M1356.47 449L1366.47 463.548C1323.49 487.99 1309.5 538.366 1335.25 575.838C1355.68 605.556 1395.05 618.374 1431.9 610.235C1441.52 608.107 1450.99 604.548 1459.89 599.483L1469.9 614.031C1459.09 620.178 1447.6 624.509 1435.9 627.085C1391.16 636.966 1343.37 621.398 1318.58 585.333C1287.3 539.835 1304.3 478.681 1356.47 449Z" fill="url(#paint2_linear_2084_534)"/>
<g filter="url(#filter0_f_2084_534)">
<path d="M1190.34 284L1132.92 300.958L1189.48 356.265L1246.9 339.307L1190.34 284Z" fill="url(#paint3_linear_2084_534)"/>
</g>
<g filter="url(#filter1_f_2084_534)">
<path d="M1189.53 356.165L1154.52 420.335L1211.9 403.3L1246.9 339.13L1189.53 356.165Z" fill="url(#paint4_linear_2084_534)"/>
</g>
<g filter="url(#filter2_f_2084_534)">
<path d="M1133.01 301.135L1097.9 365.119L1154.52 420.335L1189.54 356.447L1133.01 301.135Z" fill="url(#paint5_linear_2084_534)"/>
</g>
<path d="M83.9014 732.966L70.7554 743L0.901367 596.034L14.0473 586L83.9014 732.966Z" fill="url(#paint6_linear_2084_534)"/>
<path d="M230.901 763.985L217.845 774L70.9014 743.015L83.9678 733L230.901 763.985Z" fill="url(#paint7_linear_2084_534)"/>
<path d="M162.266 617.04L14.9014 586L84.5367 732.96L231.901 764L162.266 617.04Z" fill="url(#paint8_linear_2084_534)"/>
<g filter="url(#filter3_f_2084_534)">
<path d="M1689.89 149.797C1690.05 149.09 1690.21 148.384 1690.35 147.692C1690.41 147.389 1690.5 147.086 1690.55 146.783C1690.58 146.596 1690.6 146.423 1690.63 146.235C1691.03 144.058 1691.34 141.881 1691.54 139.747C1691.54 139.617 1691.58 139.473 1691.6 139.328C1691.61 139.126 1691.6 138.925 1691.63 138.723C1691.8 136.675 1691.9 134.628 1691.9 132.609C1691.9 132.551 1691.9 132.494 1691.9 132.421C1691.9 132.277 1691.89 132.119 1691.89 131.974C1691.89 130.071 1691.79 128.182 1691.61 126.308C1691.61 126.163 1691.61 126.019 1691.6 125.875C1691.6 125.817 1691.58 125.76 1691.57 125.702C1691.38 123.813 1691.11 121.967 1690.77 120.122C1690.74 119.934 1690.73 119.732 1690.69 119.545C1690.66 119.386 1690.6 119.228 1690.57 119.069C1690.21 117.267 1689.79 115.479 1689.28 113.705C1689.25 113.59 1689.22 113.46 1689.19 113.344C1688.95 112.508 1688.7 111.686 1688.42 110.879L1680.47 87C1680.77 87.9373 1681.05 88.8745 1681.32 89.8262C1681.83 91.5854 1682.25 93.3878 1682.61 95.1903C1682.69 95.5363 1682.74 95.8824 1682.8 96.2285C1683.14 98.0742 1683.41 99.9343 1683.6 101.809C1683.61 102.011 1683.63 102.213 1683.64 102.429C1683.8 104.303 1683.9 106.192 1683.92 108.096C1683.92 108.298 1683.92 108.514 1683.92 108.716C1683.92 110.734 1683.82 112.782 1683.64 114.83C1683.61 115.161 1683.59 115.507 1683.56 115.839C1683.35 117.987 1683.03 120.15 1682.63 122.342C1682.54 122.818 1682.45 123.308 1682.35 123.784C1682.21 124.491 1682.05 125.197 1681.89 125.904C1681.74 126.553 1681.59 127.202 1681.43 127.85C1681.25 128.557 1681.05 129.264 1680.85 129.985C1680.67 130.605 1680.48 131.239 1680.3 131.859C1679.99 132.84 1679.67 133.806 1679.34 134.786C1679.17 135.305 1678.99 135.824 1678.8 136.344C1678.37 137.54 1677.91 138.737 1677.41 139.934C1677.28 140.237 1677.18 140.54 1677.05 140.842C1676.67 141.751 1676.25 142.659 1675.85 143.553C1675.63 144.044 1675.43 144.519 1675.2 145.01C1674.53 146.408 1673.83 147.807 1673.11 149.206C1672.31 150.72 1671.49 152.205 1670.62 153.69C1670.5 153.878 1670.38 154.065 1670.27 154.253C1669.37 155.781 1668.41 157.281 1667.44 158.78C1667.1 159.299 1666.75 159.833 1666.39 160.352C1665.57 161.549 1664.75 162.731 1663.89 163.899C1663.52 164.418 1663.15 164.937 1662.76 165.442C1661.69 166.87 1660.59 168.283 1659.46 169.681C1659.3 169.883 1659.16 170.071 1659 170.273C1657.69 171.859 1656.34 173.416 1654.97 174.944C1654.56 175.391 1654.16 175.824 1653.75 176.271C1652.72 177.381 1651.68 178.492 1650.61 179.588C1650.13 180.078 1649.65 180.568 1649.16 181.058C1648 182.212 1646.82 183.337 1645.64 184.461C1645.27 184.807 1644.93 185.153 1644.55 185.485C1643 186.913 1641.41 188.326 1639.77 189.71C1639.38 190.042 1638.97 190.359 1638.58 190.691C1637.3 191.758 1636.01 192.81 1634.71 193.848C1634.2 194.252 1633.7 194.642 1633.17 195.045C1631.2 196.574 1629.2 198.073 1627.16 199.53C1627.13 199.544 1627.12 199.573 1627.09 199.587C1625.02 201.058 1622.89 202.486 1620.74 203.884C1620.31 204.173 1619.87 204.447 1619.44 204.721C1616.08 206.869 1612.61 208.946 1609.09 210.921C1608.88 211.051 1608.64 211.181 1608.43 211.296C1605.31 213.026 1602.12 214.67 1598.89 216.256C1598.65 216.386 1598.38 216.516 1598.14 216.631C1595.3 218.001 1592.41 219.313 1589.5 220.568C1589.05 220.755 1588.62 220.957 1588.17 221.145C1585.52 222.269 1582.82 223.336 1580.11 224.36C1579.59 224.562 1579.06 224.749 1578.52 224.951C1575.84 225.932 1573.14 226.883 1570.42 227.778C1570.27 227.821 1570.13 227.864 1569.98 227.907C1567.42 228.729 1564.84 229.493 1562.26 230.229C1561.71 230.387 1561.16 230.546 1560.62 230.69C1558 231.411 1555.36 232.075 1552.71 232.695C1552.22 232.81 1551.74 232.911 1551.25 233.026C1548.76 233.589 1546.26 234.108 1543.77 234.584C1543.41 234.656 1543.05 234.728 1542.69 234.8C1539.9 235.304 1537.12 235.751 1534.34 236.141C1533.73 236.227 1533.11 236.314 1532.5 236.4C1529.92 236.746 1527.36 237.049 1524.78 237.294C1523.3 237.439 1521.81 237.496 1520.33 237.597C1518.13 237.756 1515.92 237.914 1513.73 237.987C1511.03 238.087 1508.32 238.145 1505.61 238.131C1505.08 238.131 1504.58 238.116 1504.06 238.102C1501.71 238.073 1499.36 237.972 1497.03 237.842C1496.14 237.799 1495.25 237.756 1494.36 237.698C1491.42 237.496 1488.49 237.237 1485.58 236.891C1484.06 236.703 1482.6 236.458 1481.12 236.227C1479.81 236.04 1478.5 235.867 1477.22 235.651C1475.79 235.405 1474.39 235.088 1472.99 234.8C1471.76 234.555 1470.5 234.324 1469.28 234.05C1467.87 233.733 1466.54 233.343 1465.18 232.983C1464.02 232.68 1462.83 232.406 1461.7 232.075C1460.34 231.685 1459.05 231.224 1457.73 230.791C1456.66 230.445 1455.54 230.113 1454.5 229.739C1453.21 229.277 1451.99 228.758 1450.73 228.268C1449.7 227.864 1448.66 227.489 1447.66 227.071C1446.46 226.552 1445.31 225.99 1444.15 225.442C1443.18 224.98 1442.17 224.562 1441.21 224.072C1440.04 223.48 1438.92 222.832 1437.79 222.197C1436.92 221.721 1436.01 221.26 1435.17 220.77C1434.04 220.106 1433 219.4 1431.91 218.693C1431.11 218.174 1430.29 217.698 1429.51 217.165C1428.49 216.473 1427.55 215.723 1426.59 215.002C1425.82 214.425 1425.01 213.877 1424.27 213.272C1423.33 212.522 1422.48 211.729 1421.58 210.95C1420.87 210.33 1420.13 209.739 1419.45 209.119C1418.54 208.268 1417.71 207.388 1416.86 206.509C1416.26 205.903 1415.62 205.326 1415.06 204.706C1414.22 203.783 1413.45 202.817 1412.65 201.866C1412.15 201.26 1411.6 200.669 1411.12 200.049C1410.38 199.112 1409.73 198.131 1409.05 197.165C1408.58 196.502 1408.06 195.853 1407.61 195.175C1406.9 194.094 1406.28 192.983 1405.64 191.873C1405.29 191.267 1404.9 190.691 1404.57 190.085C1403.87 188.787 1403.26 187.461 1402.66 186.134C1402.45 185.673 1402.19 185.24 1402 184.779C1401.22 182.976 1400.53 181.145 1399.9 179.299L1407.86 203.178C1408.48 205.038 1409.18 206.869 1409.96 208.657C1410.16 209.119 1410.41 209.551 1410.61 210.013C1411.22 211.339 1411.83 212.666 1412.52 213.964C1412.86 214.569 1413.25 215.16 1413.6 215.752C1414.23 216.862 1414.86 217.972 1415.57 219.054C1416.02 219.731 1416.52 220.38 1417 221.044C1417.68 222.01 1418.33 222.99 1419.07 223.928C1419.58 224.576 1420.14 225.196 1420.68 225.831C1421.45 226.754 1422.19 227.691 1423.01 228.585C1423.61 229.234 1424.27 229.84 1424.9 230.474C1425.72 231.31 1426.52 232.175 1427.4 232.997C1428.09 233.632 1428.82 234.223 1429.53 234.829C1430.42 235.607 1431.29 236.4 1432.23 237.15C1432.97 237.741 1433.78 238.304 1434.55 238.881C1435.52 239.602 1436.46 240.351 1437.46 241.043C1438.27 241.606 1439.14 242.11 1439.98 242.658C1441.02 243.322 1442.02 244.014 1443.11 244.648C1444.02 245.182 1444.98 245.672 1445.92 246.177C1446.99 246.768 1448.05 247.388 1449.17 247.95C1450.14 248.441 1451.17 248.873 1452.15 249.335C1453.3 249.868 1454.43 250.431 1455.62 250.935C1456.66 251.382 1457.76 251.772 1458.82 252.19C1460.02 252.666 1461.19 253.156 1462.44 253.603C1463.57 254.007 1464.74 254.353 1465.9 254.728C1467.15 255.131 1468.37 255.564 1469.64 255.939C1470.82 256.285 1472.05 256.559 1473.24 256.876C1474.55 257.222 1475.86 257.597 1477.22 257.914C1478.47 258.203 1479.76 258.433 1481.03 258.693C1482.41 258.967 1483.76 259.284 1485.16 259.529C1486.49 259.76 1487.88 259.933 1489.25 260.135C1490.61 260.337 1491.96 260.567 1493.35 260.74C1493.41 260.74 1493.48 260.755 1493.54 260.769C1496.45 261.115 1499.38 261.375 1502.32 261.577C1503.2 261.634 1504.1 261.678 1504.98 261.721C1506.13 261.779 1507.27 261.88 1508.43 261.908C1509.62 261.952 1510.82 261.952 1512.03 261.966C1512.55 261.966 1513.05 261.995 1513.58 261.995C1515.92 262.009 1518.27 261.995 1520.63 261.923C1520.99 261.923 1521.36 261.865 1521.7 261.865C1523.91 261.779 1526.11 261.634 1528.3 261.476C1529.34 261.404 1530.38 261.375 1531.43 261.288C1531.86 261.245 1532.31 261.216 1532.75 261.173C1535.32 260.928 1537.9 260.625 1540.47 260.279C1540.79 260.236 1541.11 260.207 1541.42 260.164C1541.71 260.12 1542.02 260.063 1542.31 260.02C1545.09 259.63 1547.89 259.183 1550.66 258.678C1550.76 258.664 1550.86 258.65 1550.96 258.635C1551.22 258.592 1551.48 258.52 1551.76 258.477C1554.26 258.001 1556.76 257.482 1559.23 256.919C1559.55 256.847 1559.87 256.79 1560.19 256.717C1560.36 256.674 1560.52 256.631 1560.7 256.588C1563.35 255.968 1565.99 255.304 1568.61 254.583C1568.83 254.526 1569.06 254.468 1569.27 254.41C1569.61 254.324 1569.93 254.208 1570.25 254.122C1572.84 253.387 1575.42 252.622 1577.97 251.8C1578.08 251.772 1578.2 251.728 1578.3 251.699C1578.33 251.699 1578.36 251.671 1578.39 251.671C1581.11 250.791 1583.81 249.839 1586.49 248.844C1586.79 248.729 1587.1 248.643 1587.4 248.527C1587.63 248.441 1587.85 248.34 1588.08 248.253C1590.79 247.229 1593.49 246.162 1596.14 245.038C1596.33 244.966 1596.52 244.893 1596.7 244.821C1596.96 244.706 1597.23 244.576 1597.49 244.461C1600.4 243.206 1603.28 241.909 1606.12 240.524C1606.21 240.481 1606.3 240.452 1606.38 240.409C1606.56 240.322 1606.72 240.236 1606.88 240.149C1610.11 238.563 1613.29 236.919 1616.41 235.189C1616.5 235.146 1616.58 235.103 1616.67 235.059C1616.82 234.987 1616.95 234.886 1617.08 234.814C1620.61 232.839 1624.06 230.777 1627.44 228.614C1627.61 228.513 1627.78 228.412 1627.96 228.311C1628.22 228.138 1628.48 227.951 1628.74 227.792C1630.9 226.393 1633.03 224.966 1635.1 223.495C1635.12 223.495 1635.15 223.466 1635.16 223.452C1637.22 221.995 1639.22 220.481 1641.19 218.967C1641.43 218.765 1641.71 218.592 1641.96 218.39C1642.22 218.189 1642.46 217.972 1642.71 217.77C1644.01 216.732 1645.3 215.68 1646.58 214.613C1646.97 214.281 1647.37 213.964 1647.77 213.632C1649.39 212.248 1650.98 210.835 1652.55 209.407C1652.91 209.075 1653.27 208.729 1653.63 208.383C1654.84 207.259 1656.01 206.134 1657.16 204.98C1657.65 204.49 1658.13 204 1658.6 203.51C1659.68 202.414 1660.72 201.303 1661.75 200.193C1662.15 199.746 1662.57 199.313 1662.97 198.866C1664.34 197.324 1665.7 195.766 1666.99 194.195C1667.15 194.007 1667.3 193.805 1667.46 193.603C1668.59 192.205 1669.69 190.792 1670.76 189.364C1671.14 188.859 1671.52 188.34 1671.89 187.821C1672.75 186.653 1673.57 185.471 1674.38 184.274C1674.73 183.755 1675.09 183.236 1675.44 182.702C1676.43 181.203 1677.37 179.703 1678.27 178.174C1678.35 178.016 1678.47 177.857 1678.56 177.699C1678.57 177.67 1678.59 177.641 1678.62 177.598C1679.48 176.112 1680.31 174.613 1681.11 173.113C1681.85 171.715 1682.54 170.316 1683.19 168.917C1683.43 168.427 1683.63 167.937 1683.85 167.461C1684.25 166.552 1684.67 165.644 1685.05 164.75C1685.06 164.707 1685.09 164.663 1685.11 164.635C1685.22 164.375 1685.31 164.101 1685.41 163.841C1685.9 162.645 1686.37 161.448 1686.8 160.251C1686.99 159.732 1687.16 159.198 1687.34 158.679C1687.67 157.699 1687.99 156.733 1688.29 155.767C1688.37 155.521 1688.47 155.276 1688.53 155.031C1688.64 154.642 1688.73 154.267 1688.83 153.878C1689.03 153.171 1689.22 152.465 1689.41 151.744C1689.57 151.095 1689.73 150.431 1689.87 149.782L1689.89 149.797Z" fill="url(#paint9_linear_2084_534)"/>
</g>
<g filter="url(#filter4_f_2084_534)">
<path d="M1595.93 29.2649C1583.1 27.7003 1569.93 27.6133 1556.8 28.8592C1494.93 34.6976 1433.53 69.8434 1408.71 117.332C1378.6 174.904 1413.57 228.797 1486.88 237.735C1499.71 239.3 1512.88 239.387 1526.01 238.141C1587.87 232.302 1649.25 197.157 1674.1 149.668C1704.21 92.1102 1669.2 38.2034 1595.93 29.2649Z" fill="url(#paint10_linear_2084_534)"/>
</g>
<g filter="url(#filter5_f_2084_534)">
<path d="M1682.87 123C1682.87 123 1682.66 124.215 1682.27 126.484C1681.81 128.739 1681.12 132.062 1679.8 136.161C1678.49 140.261 1676.62 145.165 1673.99 150.552C1672.57 153.173 1671.05 155.969 1669.44 158.912C1667.71 161.781 1665.65 164.68 1663.62 167.784C1661.41 170.726 1659.01 173.728 1656.54 176.831C1653.83 179.73 1651.19 182.892 1648.19 185.835C1645.11 188.704 1642.14 191.881 1638.67 194.633C1636.98 196.053 1635.27 197.488 1633.54 198.938C1631.78 200.328 1629.91 201.631 1628.07 202.993C1620.73 208.497 1612.57 213.314 1604.17 217.955C1595.63 222.288 1586.8 226.49 1577.61 229.711C1568.48 233.122 1559.04 235.538 1549.72 237.69C1540.33 239.534 1531.01 240.91 1521.93 241.584C1503.72 242.872 1486.68 241.057 1472.5 237.69C1458.27 234.381 1447.18 229.052 1439.88 224.763C1436.2 222.64 1433.51 220.619 1431.66 219.302C1429.87 217.911 1428.9 217.164 1428.9 217.164C1428.9 217.164 1429.89 217.852 1431.76 219.155C1433.67 220.385 1436.46 222.201 1440.2 224.177C1447.61 228.218 1458.83 232.844 1472.91 235.801C1486.95 238.846 1503.85 239.988 1521.73 238.612C1530.68 237.88 1539.85 236.445 1549.07 234.557C1558.24 232.361 1567.51 229.901 1576.47 226.475C1585.55 223.386 1594.26 219.302 1602.72 215.115C1611.03 210.606 1619.1 205.921 1626.37 200.563C1628.2 199.23 1630.04 197.971 1631.81 196.61C1633.53 195.219 1635.24 193.828 1636.92 192.467C1640.4 189.846 1643.39 186.801 1646.49 184.049C1649.52 181.223 1652.18 178.178 1654.93 175.382C1657.43 172.381 1659.87 169.482 1662.11 166.642C1664.18 163.67 1666.22 160.874 1668.06 158.107C1669.77 155.252 1671.38 152.529 1672.9 149.981C1675.7 144.755 1677.74 139.982 1679.2 135.971C1680.65 131.945 1681.55 128.71 1682.11 126.47C1682.63 124.23 1682.9 123.029 1682.9 123.029L1682.87 123Z" fill="url(#paint11_linear_2084_534)"/>
</g>
<g style="mix-blend-mode:screen" filter="url(#filter6_f_2084_534)">
<path d="M1407.59 118.643C1432.23 70.9981 1493.18 35.737 1554.59 29.8795C1567.62 28.6295 1580.69 28.7167 1593.42 30.2864C1653.61 37.6991 1687.78 75.998 1680.86 121.71C1688.44 75.5475 1654.21 36.7398 1593.59 29.269C1580.86 27.6993 1567.79 27.6121 1554.76 28.862C1493.34 34.7195 1432.39 69.9807 1407.75 117.625C1402.58 127.596 1399.35 137.465 1397.9 147C1399.42 137.77 1402.6 128.265 1407.58 118.643H1407.59Z" fill="url(#paint12_linear_2084_534)"/>
</g>
<defs>
<filter id="filter0_f_2084_534" x="1119.33" y="270.409" width="141.168" height="99.4478" filterUnits="userSpaceOnUse" color-interpolation-filters="sRGB">
<feFlood flood-opacity="0" result="BackgroundImageFix"/>
<feBlend mode="normal" in="SourceGraphic" in2="BackgroundImageFix" result="shape"/>
<feGaussianBlur stdDeviation="6.7957" result="effect1_foregroundBlur_2084_534"/>
</filter>
<filter id="filter1_f_2084_534" x="1140.93" y="325.539" width="119.563" height="108.388" filterUnits="userSpaceOnUse" color-interpolation-filters="sRGB">
<feFlood flood-opacity="0" result="BackgroundImageFix"/>
<feBlend mode="normal" in="SourceGraphic" in2="BackgroundImageFix" result="shape"/>
<feGaussianBlur stdDeviation="6.7957" result="effect1_foregroundBlur_2084_534"/>
</filter>
<filter id="filter2_f_2084_534" x="1084.31" y="287.544" width="118.818" height="146.383" filterUnits="userSpaceOnUse" color-interpolation-filters="sRGB">
<feFlood flood-opacity="0" result="BackgroundImageFix"/>
<feBlend mode="normal" in="SourceGraphic" in2="BackgroundImageFix" result="shape"/>
<feGaussianBlur stdDeviation="6.7957" result="effect1_foregroundBlur_2084_534"/>
</filter>
<filter id="filter3_f_2084_534" x="1394.47" y="81.5634" width="302.873" height="185.873" filterUnits="userSpaceOnUse" color-interpolation-filters="sRGB">
<feFlood flood-opacity="0" result="BackgroundImageFix"/>
<feBlend mode="normal" in="SourceGraphic" in2="BackgroundImageFix" result="shape"/>
<feGaussianBlur stdDeviation="2.71828" result="effect1_foregroundBlur_2084_534"/>
</filter>
<filter id="filter4_f_2084_534" x="1392.47" y="22.5634" width="297.873" height="221.873" filterUnits="userSpaceOnUse" color-interpolation-filters="sRGB">
<feFlood flood-opacity="0" result="BackgroundImageFix"/>
<feBlend mode="normal" in="SourceGraphic" in2="BackgroundImageFix" result="shape"/>
<feGaussianBlur stdDeviation="2.71828" result="effect1_foregroundBlur_2084_534"/>
</filter>
<filter id="filter5_f_2084_534" x="1401.72" y="95.8172" width="308.366" height="173.366" filterUnits="userSpaceOnUse" color-interpolation-filters="sRGB">
<feFlood flood-opacity="0" result="BackgroundImageFix"/>
<feBlend mode="normal" in="SourceGraphic" in2="BackgroundImageFix" result="shape"/>
<feGaussianBlur stdDeviation="13.5914" result="effect1_foregroundBlur_2084_534"/>
</filter>
<filter id="filter6_f_2084_534" x="1370.72" y="0.817183" width="338.366" height="173.366" filterUnits="userSpaceOnUse" color-interpolation-filters="sRGB">
<feFlood flood-opacity="0" result="BackgroundImageFix"/>
<feBlend mode="normal" in="SourceGraphic" in2="BackgroundImageFix" result="shape"/>
<feGaussianBlur stdDeviation="13.5914" result="effect1_foregroundBlur_2084_534"/>
</filter>
<linearGradient id="paint0_linear_2084_534" x1="1410.34" y1="119.242" x2="1138.71" y2="191.201" gradientUnits="userSpaceOnUse">
<stop stop-color="#F4EEF7"/>
<stop offset="0.28" stop-color="#ECEAF3"/>
<stop offset="0.54" stop-color="#E0E4EE"/>
<stop offset="1" stop-color="#BCC1CB"/>
</linearGradient>
<linearGradient id="paint1_linear_2084_534" x1="1404.77" y1="366.805" x2="1290.26" y2="648.029" gradientUnits="userSpaceOnUse">
<stop stop-color="#F4EEF7"/>
<stop offset="0.23" stop-color="#ECEAF3"/>
<stop offset="0.44" stop-color="#E0E4EE"/>
<stop offset="0.62" stop-color="#D9DEE8"/>
<stop offset="0.86" stop-color="#C8CDD7"/>
<stop offset="1" stop-color="#BCC1CB"/>
</linearGradient>
<linearGradient id="paint2_linear_2084_534" x1="1108.94" y1="362.185" x2="1092.78" y2="973.548" gradientUnits="userSpaceOnUse">
<stop stop-color="#F4EEF7"/>
<stop offset="0.28" stop-color="#ECEAF3"/>
<stop offset="0.54" stop-color="#E0E4EE"/>
<stop offset="1" stop-color="#BCC1CB"/>
</linearGradient>
<linearGradient id="paint3_linear_2084_534" x1="1031.97" y1="174.122" x2="1003.11" y2="424.197" gradientUnits="userSpaceOnUse">
<stop stop-color="#FAF9FC"/>
<stop offset="0.4596" stop-color="#F3F4F9"/>
<stop offset="0.5376" stop-color="#F2F3F8"/>
<stop offset="0.6432" stop-color="#ECEEF4"/>
<stop offset="0.7872" stop-color="#DDDFE7"/>
<stop offset="0.9525" stop-color="#C4C9D2"/>
<stop offset="1" stop-color="#BCC1CB"/>
</linearGradient>
<linearGradient id="paint4_linear_2084_534" x1="1079.72" y1="223.407" x2="1073.74" y2="445.527" gradientUnits="userSpaceOnUse">
<stop stop-color="#F4EEF7"/>
<stop offset="0.1952" stop-color="#EDEBF4"/>
<stop offset="0.4375" stop-color="#E0E4EE"/>
<stop offset="1" stop-color="#BCC1CB"/>
</linearGradient>
<linearGradient id="paint5_linear_2084_534" x1="1157.33" y1="97.7944" x2="921.707" y2="280.256" gradientUnits="userSpaceOnUse">
<stop stop-color="#F4EEF7"/>
<stop offset="0.2399" stop-color="#EDEBF4"/>
<stop offset="0.5376" stop-color="#E0E4EE"/>
<stop offset="1" stop-color="#BCC1CB"/>
</linearGradient>
<linearGradient id="paint6_linear_2084_534" x1="-199.819" y1="429.815" x2="148.919" y2="845.937" gradientUnits="userSpaceOnUse">
<stop stop-color="#F4EEF7"/>
<stop offset="0.28" stop-color="#ECEAF3"/>
<stop offset="0.54" stop-color="#E0E4EE"/>
<stop offset="1" stop-color="#BCC1CB"/>
</linearGradient>
<linearGradient id="paint7_linear_2084_534" x1="-72.0436" y1="612.275" x2="-75.4361" y2="753.022" gradientUnits="userSpaceOnUse">
<stop stop-color="#F4EEF7"/>
<stop offset="0.23" stop-color="#ECEAF3"/>
<stop offset="0.44" stop-color="#E0E4EE"/>
<stop offset="1" stop-color="#BCC1CB"/>
</linearGradient>
<linearGradient id="paint8_linear_2084_534" x1="1.84289" y1="348.988" x2="-160.901" y2="784.586" gradientUnits="userSpaceOnUse">
<stop stop-color="#F9F8FD"/>
<stop offset="0.54" stop-color="#F2F3F8"/>
<stop offset="0.65" stop-color="#EBEDF2"/>
<stop offset="0.81" stop-color="#DADDE4"/>
<stop offset="0.99" stop-color="#BDC2CC"/>
<stop offset="1" stop-color="#BCC1CB"/>
</linearGradient>
<linearGradient id="paint9_linear_2084_534" x1="1494.52" y1="-137.396" x2="1320.56" y2="284.987" gradientUnits="userSpaceOnUse">
<stop stop-color="#F4EEF7"/>
<stop offset="0.23" stop-color="#ECEAF3"/>
<stop offset="0.44" stop-color="#E0E4EE"/>
<stop offset="0.62" stop-color="#D9DEE8"/>
<stop offset="0.86" stop-color="#C8CDD7"/>
<stop offset="1" stop-color="#BCC1CB"/>
</linearGradient>
<linearGradient id="paint10_linear_2084_534" x1="1344.51" y1="-136.487" x2="1229.76" y2="311.697" gradientUnits="userSpaceOnUse">
<stop stop-color="#F9F8FD"/>
<stop offset="0.54" stop-color="#F2F3F8"/>
<stop offset="0.65" stop-color="#EBEDF2"/>
<stop offset="0.81" stop-color="#DADDE4"/>
<stop offset="0.99" stop-color="#BDC2CC"/>
<stop offset="1" stop-color="#BCC1CB"/>
</linearGradient>
<linearGradient id="paint11_linear_2084_534" x1="1395.36" y1="211.611" x2="1560.96" y2="340.241" gradientUnits="userSpaceOnUse">
<stop stop-color="white" stop-opacity="0.1"/>
<stop offset="0.29" stop-color="white" stop-opacity="0.68"/>
<stop offset="0.46" stop-color="white"/>
<stop offset="0.51" stop-color="white" stop-opacity="0.96"/>
<stop offset="0.59" stop-color="white" stop-opacity="0.84"/>
<stop offset="0.69" stop-color="white" stop-opacity="0.66"/>
<stop offset="0.81" stop-color="white" stop-opacity="0.4"/>
<stop offset="0.95" stop-color="white" stop-opacity="0.08"/>
<stop offset="0.98" stop-color="white" stop-opacity="0.01"/>
</linearGradient>
<linearGradient id="paint12_linear_2084_534" x1="873.224" y1="-119.344" x2="828.524" y2="519.5" gradientUnits="userSpaceOnUse">
<stop stop-color="#F4EEF7"/>
<stop offset="0.28" stop-color="#ECEAF3"/>
<stop offset="0.54" stop-color="#E0E4EE"/>
<stop offset="1" stop-color="#BCC1CB"/>
</linearGradient>
</defs>
</svg>
