<svg width="414" height="721" viewBox="0 0 414 721" fill="none" xmlns="http://www.w3.org/2000/svg">
<g clip-path="url(#clip0_2017_494)">
<mask id="mask0_2017_494" style="mask-type:luminance" maskUnits="userSpaceOnUse" x="0" y="52" width="414" height="669">
<rect y="52" width="414" height="669" fill="white"/>
</mask>
<g mask="url(#mask0_2017_494)">
<g opacity="0.547828" filter="url(#filter0_f_2017_494)">
<circle cx="-19.8037" cy="382.51" r="144" fill="#0D2285" fill-opacity="0.0553431"/>
</g>
</g>
<g filter="url(#filter1_f_2017_494)">
<path d="M432.442 527L375.015 543.958L431.573 599.265L489 582.307L432.442 527Z" fill="url(#paint0_linear_2017_494)"/>
</g>
<g filter="url(#filter2_f_2017_494)">
<path d="M431.624 599.165L396.62 663.335L453.996 646.3L489 582.13L431.624 599.165Z" fill="url(#paint1_linear_2017_494)"/>
</g>
<g filter="url(#filter3_f_2017_494)">
<path d="M375.111 544.135L340 608.119L396.621 663.335L431.635 599.447L375.111 544.135Z" fill="url(#paint2_linear_2017_494)"/>
</g>
<g filter="url(#filter4_f_2017_494)">
<path d="M494.655 93.0845C494.777 92.5435 494.899 92.0024 495.009 91.4725C495.054 91.2406 495.12 91.0087 495.164 90.7769C495.186 90.6333 495.197 90.5008 495.22 90.3573C495.529 88.6901 495.762 87.0229 495.917 85.3888C495.917 85.2894 495.95 85.179 495.961 85.0686C495.972 84.914 495.961 84.7594 495.983 84.6048C496.116 83.037 496.193 81.4691 496.193 79.9234C496.193 79.8792 496.193 79.835 496.193 79.7798C496.193 79.6694 496.182 79.548 496.182 79.4375C496.182 77.9801 496.105 76.5337 495.972 75.0983C495.972 74.9879 495.972 74.8775 495.961 74.7671C495.961 74.7229 495.95 74.6788 495.939 74.6346C495.795 73.1882 495.585 71.7749 495.33 70.3617C495.308 70.2181 495.297 70.0636 495.264 69.92C495.242 69.7986 495.197 69.6771 495.175 69.5557C494.899 68.1755 494.578 66.8064 494.19 65.4483C494.168 65.36 494.146 65.2606 494.124 65.1723C493.936 64.5319 493.748 63.9026 493.538 63.2842L487.462 45C487.695 45.7177 487.905 46.4354 488.115 47.1641C488.503 48.5111 488.823 49.8913 489.1 51.2714C489.155 51.5364 489.2 51.8014 489.244 52.0664C489.498 53.4797 489.709 54.904 489.853 56.3393C489.864 56.4939 489.875 56.6485 489.886 56.8141C490.008 58.2495 490.085 59.6959 490.096 61.1533C490.096 61.3079 490.096 61.4735 490.096 61.6281C490.096 63.1738 490.019 64.7417 489.886 66.3095C489.864 66.5635 489.842 66.8285 489.819 67.0824C489.664 68.7276 489.421 70.3837 489.111 72.062C489.045 72.4264 488.978 72.8018 488.901 73.1661C488.79 73.7072 488.669 74.2482 488.547 74.7892C488.436 75.286 488.314 75.7829 488.193 76.2798C488.06 76.8208 487.905 77.3618 487.75 77.9139C487.617 78.3886 487.473 78.8744 487.33 79.3492C487.097 80.1 486.854 80.8398 486.599 81.5906C486.466 81.9881 486.334 82.3855 486.19 82.783C485.858 83.6994 485.504 84.6159 485.127 85.5323C485.028 85.7642 484.95 85.996 484.851 86.2279C484.563 86.9235 484.242 87.6191 483.932 88.3036C483.766 88.679 483.611 89.0434 483.434 89.4188C482.925 90.4898 482.394 91.5608 481.841 92.6318C481.232 93.7911 480.602 94.9284 479.938 96.0656C479.849 96.2091 479.76 96.3527 479.672 96.4962C478.986 97.6666 478.256 98.8149 477.514 99.9632C477.249 100.361 476.983 100.769 476.706 101.167C476.087 102.083 475.456 102.988 474.803 103.883C474.515 104.28 474.239 104.678 473.94 105.064C473.121 106.157 472.28 107.239 471.417 108.31C471.295 108.465 471.184 108.608 471.063 108.763C470.067 109.978 469.038 111.17 467.986 112.34C467.677 112.683 467.367 113.014 467.057 113.356C466.271 114.206 465.474 115.056 464.656 115.896C464.29 116.271 463.925 116.646 463.549 117.022C462.664 117.905 461.767 118.766 460.86 119.628C460.583 119.893 460.318 120.158 460.03 120.411C458.846 121.505 457.629 122.587 456.378 123.647C456.079 123.901 455.77 124.143 455.471 124.397C454.497 125.214 453.512 126.02 452.516 126.815C452.129 127.125 451.742 127.423 451.343 127.732C449.838 128.902 448.311 130.05 446.751 131.166C446.729 131.177 446.718 131.199 446.696 131.21C445.113 132.336 443.486 133.429 441.849 134.5C441.517 134.721 441.185 134.931 440.853 135.14C438.286 136.786 435.641 138.376 432.952 139.888C432.786 139.988 432.609 140.087 432.443 140.175C430.064 141.5 427.629 142.759 425.161 143.973C424.973 144.073 424.774 144.172 424.586 144.26C422.417 145.309 420.215 146.314 417.991 147.275C417.648 147.418 417.316 147.573 416.973 147.716C414.948 148.578 412.889 149.395 410.82 150.179C410.422 150.333 410.012 150.477 409.603 150.631C407.556 151.382 405.497 152.111 403.417 152.795C403.306 152.828 403.196 152.862 403.085 152.895C401.126 153.524 399.156 154.109 397.187 154.672C396.766 154.794 396.346 154.915 395.936 155.026C393.933 155.578 391.919 156.086 389.894 156.56C389.518 156.649 389.153 156.726 388.777 156.814C386.873 157.245 384.97 157.642 383.067 158.007C382.79 158.062 382.513 158.117 382.237 158.172C380.112 158.559 377.987 158.901 375.863 159.199C375.398 159.266 374.922 159.332 374.457 159.398C372.488 159.663 370.529 159.895 368.559 160.083C367.431 160.193 366.291 160.237 365.162 160.314C363.48 160.436 361.798 160.557 360.127 160.613C358.058 160.69 355.988 160.734 353.919 160.723C353.521 160.723 353.133 160.712 352.735 160.701C350.942 160.679 349.15 160.601 347.368 160.502C346.693 160.469 346.007 160.436 345.332 160.392C343.086 160.237 340.85 160.038 338.626 159.773C337.464 159.63 336.346 159.442 335.218 159.266C334.222 159.122 333.215 158.989 332.241 158.824C331.145 158.636 330.083 158.393 329.01 158.172C328.069 157.985 327.106 157.808 326.177 157.598C325.103 157.355 324.085 157.057 323.045 156.781C322.16 156.549 321.253 156.34 320.389 156.086C319.349 155.788 318.364 155.434 317.357 155.103C316.538 154.838 315.686 154.584 314.89 154.297C313.905 153.944 312.975 153.546 312.013 153.171C311.227 152.862 310.43 152.575 309.667 152.254C308.748 151.857 307.874 151.426 306.989 151.007C306.247 150.653 305.473 150.333 304.742 149.958C303.846 149.505 302.994 149.008 302.131 148.522C301.467 148.158 300.77 147.805 300.128 147.429C299.265 146.921 298.468 146.38 297.638 145.839C297.029 145.442 296.399 145.078 295.801 144.669C295.026 144.139 294.307 143.565 293.577 143.013C292.99 142.571 292.371 142.152 291.806 141.688C291.087 141.114 290.434 140.506 289.748 139.91C289.206 139.435 288.641 138.983 288.121 138.508C287.424 137.857 286.793 137.183 286.14 136.51C285.687 136.046 285.2 135.604 284.768 135.129C284.126 134.423 283.54 133.683 282.931 132.954C282.544 132.491 282.124 132.038 281.758 131.563C281.194 130.845 280.696 130.095 280.176 129.355C279.822 128.847 279.423 128.35 279.08 127.831C278.538 127.003 278.062 126.153 277.575 125.303C277.31 124.839 277.011 124.397 276.757 123.934C276.225 122.94 275.761 121.924 275.296 120.908C275.141 120.555 274.942 120.224 274.798 119.87C274.2 118.49 273.669 117.088 273.193 115.675L279.269 133.959C279.744 135.383 280.276 136.786 280.873 138.155C281.028 138.508 281.216 138.839 281.371 139.193C281.836 140.208 282.301 141.224 282.832 142.218C283.086 142.682 283.385 143.134 283.651 143.587C284.138 144.437 284.613 145.287 285.156 146.115C285.499 146.634 285.886 147.131 286.251 147.639C286.771 148.379 287.269 149.13 287.834 149.847C288.221 150.344 288.652 150.819 289.062 151.305C289.648 152.011 290.213 152.729 290.843 153.414C291.297 153.911 291.806 154.374 292.282 154.86C292.913 155.5 293.521 156.163 294.196 156.792C294.717 157.278 295.281 157.731 295.823 158.195C296.498 158.791 297.162 159.398 297.881 159.972C298.446 160.425 299.065 160.855 299.652 161.297C300.393 161.849 301.113 162.423 301.876 162.953C302.496 163.384 303.16 163.77 303.802 164.19C304.598 164.698 305.362 165.228 306.192 165.714C306.889 166.122 307.619 166.497 308.339 166.884C309.158 167.337 309.965 167.811 310.817 168.242C311.559 168.617 312.345 168.949 313.097 169.302C313.971 169.71 314.834 170.141 315.742 170.528C316.538 170.87 317.379 171.168 318.187 171.488C319.106 171.852 320.002 172.228 320.954 172.57C321.817 172.879 322.713 173.144 323.599 173.431C324.55 173.741 325.48 174.072 326.454 174.359C327.35 174.624 328.29 174.834 329.198 175.077C330.205 175.342 331.201 175.629 332.241 175.871C333.193 176.092 334.178 176.269 335.151 176.468C336.203 176.677 337.232 176.92 338.305 177.108C339.323 177.285 340.386 177.417 341.426 177.572C342.466 177.726 343.495 177.903 344.557 178.036C344.602 178.036 344.657 178.047 344.701 178.058C346.925 178.323 349.161 178.521 351.407 178.676C352.082 178.72 352.768 178.753 353.443 178.786C354.317 178.831 355.192 178.908 356.077 178.93C356.984 178.963 357.903 178.963 358.821 178.974C359.22 178.974 359.607 178.996 360.005 178.996C361.798 179.007 363.591 178.996 365.394 178.941C365.671 178.941 365.948 178.897 366.213 178.897C367.895 178.831 369.577 178.72 371.248 178.599C372.045 178.543 372.842 178.521 373.639 178.455C373.971 178.422 374.314 178.4 374.646 178.367C376.615 178.179 378.585 177.947 380.544 177.682C380.787 177.649 381.031 177.627 381.274 177.594C381.495 177.561 381.728 177.517 381.949 177.484C384.074 177.185 386.209 176.843 388.323 176.457C388.4 176.446 388.478 176.435 388.555 176.424C388.755 176.39 388.954 176.335 389.164 176.302C391.078 175.938 392.982 175.54 394.874 175.11C395.117 175.054 395.361 175.01 395.604 174.955C395.737 174.922 395.859 174.889 395.992 174.856C398.017 174.381 400.031 173.873 402.034 173.321C402.2 173.277 402.377 173.233 402.543 173.188C402.797 173.122 403.041 173.034 403.284 172.968C405.265 172.405 407.235 171.819 409.182 171.19C409.271 171.168 409.359 171.135 409.437 171.113C409.459 171.113 409.481 171.091 409.503 171.091C411.584 170.417 413.642 169.688 415.689 168.927C415.921 168.838 416.154 168.772 416.386 168.684C416.563 168.617 416.729 168.54 416.906 168.474C418.976 167.69 421.034 166.873 423.059 166.012C423.203 165.956 423.347 165.901 423.49 165.846C423.69 165.758 423.889 165.658 424.088 165.57C426.312 164.609 428.514 163.616 430.683 162.556C430.75 162.523 430.816 162.501 430.882 162.467C431.015 162.401 431.137 162.335 431.259 162.269C433.726 161.054 436.161 159.795 438.54 158.471C438.606 158.437 438.673 158.404 438.739 158.371C438.85 158.316 438.949 158.239 439.049 158.183C441.749 156.671 444.383 155.092 446.961 153.436C447.094 153.358 447.227 153.281 447.36 153.204C447.559 153.071 447.758 152.928 447.957 152.806C449.606 151.735 451.233 150.642 452.815 149.516C452.826 149.516 452.848 149.494 452.859 149.483C454.431 148.368 455.958 147.208 457.463 146.049C457.651 145.895 457.861 145.762 458.049 145.608C458.248 145.453 458.437 145.287 458.625 145.133C459.621 144.338 460.605 143.532 461.579 142.715C461.878 142.461 462.188 142.218 462.487 141.964C463.726 140.904 464.943 139.822 466.138 138.729C466.415 138.475 466.692 138.21 466.968 137.945C467.887 137.084 468.783 136.222 469.657 135.339C470.034 134.964 470.399 134.588 470.764 134.213C471.583 133.374 472.38 132.524 473.165 131.674C473.475 131.331 473.796 131 474.095 130.658C475.146 129.476 476.186 128.284 477.171 127.08C477.293 126.937 477.403 126.782 477.525 126.628C478.388 125.557 479.229 124.475 480.048 123.382C480.336 122.995 480.624 122.598 480.911 122.2C481.564 121.306 482.195 120.4 482.815 119.484C483.08 119.087 483.357 118.689 483.622 118.281C484.375 117.132 485.094 115.984 485.78 114.814C485.847 114.692 485.935 114.571 486.002 114.449C486.013 114.427 486.024 114.405 486.046 114.372C486.71 113.235 487.341 112.086 487.949 110.938C488.514 109.867 489.045 108.796 489.543 107.725C489.72 107.35 489.875 106.974 490.041 106.61C490.351 105.914 490.671 105.219 490.959 104.534C490.97 104.501 490.992 104.468 491.003 104.446C491.092 104.247 491.158 104.037 491.236 103.839C491.612 102.922 491.966 102.006 492.298 101.089C492.442 100.692 492.575 100.283 492.708 99.8859C492.962 99.1351 493.206 98.3953 493.438 97.6555C493.493 97.4678 493.571 97.2801 493.615 97.0924C493.704 96.7943 493.77 96.5073 493.847 96.2091C494.002 95.6681 494.146 95.1271 494.29 94.575C494.412 94.0782 494.533 93.5703 494.644 93.0734L494.655 93.0845Z" fill="url(#paint3_linear_2017_494)"/>
</g>
<g filter="url(#filter5_f_2017_494)">
<path d="M422.988 0.965135C413.154 -0.228717 403.065 -0.295042 392.998 0.655618C345.567 5.11045 298.503 31.9279 279.477 68.1635C256.394 112.093 283.202 153.214 339.403 160.035C349.237 161.229 359.326 161.295 369.393 160.344C416.813 155.89 463.866 129.072 482.914 92.8365C505.997 48.9182 479.156 7.78557 422.988 0.965135Z" fill="url(#paint4_linear_2017_494)"/>
</g>
<g filter="url(#filter6_f_2017_494)">
<path d="M489.171 73C489.171 73 489.007 73.9292 488.71 75.6645C488.359 77.3885 487.832 79.9299 486.823 83.0646C485.824 86.1992 484.397 89.9497 482.389 94.0695C481.303 96.0735 480.139 98.2118 478.91 100.462C477.593 102.656 476.013 104.873 474.465 107.246C472.775 109.497 470.942 111.792 469.055 114.165C466.992 116.382 464.972 118.8 462.678 121.05C460.33 123.244 458.058 125.674 455.413 127.778C454.118 128.864 452.812 129.962 451.495 131.07C450.145 132.133 448.719 133.13 447.314 134.171C441.706 138.38 435.472 142.064 429.063 145.613C422.533 148.926 415.794 152.139 408.771 154.602C401.802 157.211 394.591 159.058 387.469 160.704C380.302 162.114 373.18 163.167 366.244 163.682C352.339 164.667 339.323 163.279 328.491 160.704C317.626 158.174 309.153 154.099 303.578 150.818C300.769 149.195 298.716 147.65 297.301 146.643C295.929 145.579 295.193 145.008 295.193 145.008C295.193 145.008 295.951 145.534 297.377 146.531C298.837 147.471 300.966 148.859 303.819 150.371C309.482 153.46 318.054 156.998 328.809 159.26C339.531 161.588 352.437 162.461 366.09 161.409C372.927 160.849 379.929 159.752 386.975 158.308C393.977 156.629 401.055 154.748 407.904 152.128C414.84 149.766 421.49 146.643 427.954 143.441C434.298 139.993 440.466 136.41 446.019 132.313C447.413 131.294 448.817 130.331 450.167 129.29C451.484 128.226 452.79 127.163 454.074 126.122C456.73 124.118 459.013 121.789 461.383 119.684C463.699 117.524 465.729 115.195 467.826 113.057C469.735 110.762 471.601 108.545 473.313 106.373C474.893 104.1 476.452 101.962 477.856 99.8463C479.162 97.6632 480.392 95.5809 481.555 93.6329C483.695 89.6362 485.253 85.9865 486.362 82.919C487.47 79.8403 488.162 77.3662 488.59 75.6533C488.985 73.9404 489.193 73.0224 489.193 73.0224L489.171 73Z" fill="url(#paint5_linear_2017_494)"/>
</g>
<g style="mix-blend-mode:screen" filter="url(#filter7_f_2017_494)">
<path d="M278.598 69.3151C297.423 32.8809 343.992 5.91649 390.913 1.43724C400.874 0.481375 410.857 0.548063 420.587 1.74846C466.575 7.41699 492.684 36.7044 487.397 71.6603C493.189 36.3598 467.036 6.68341 420.719 0.970424C410.988 -0.22997 401.005 -0.296659 391.044 0.659211C344.113 5.13846 297.544 32.1029 278.719 68.5371C274.77 76.1618 272.301 83.7087 271.193 91C272.356 83.9421 274.781 76.6731 278.587 69.3151H278.598Z" fill="url(#paint6_linear_2017_494)"/>
</g>
</g>
<defs>
<filter id="filter0_f_2017_494" x="-177.395" y="224.919" width="315.183" height="315.183" filterUnits="userSpaceOnUse" color-interpolation-filters="sRGB">
<feFlood flood-opacity="0" result="BackgroundImageFix"/>
<feBlend mode="normal" in="SourceGraphic" in2="BackgroundImageFix" result="shape"/>
<feGaussianBlur stdDeviation="6.7957" result="effect1_foregroundBlur_2017_494"/>
</filter>
<filter id="filter1_f_2017_494" x="361.424" y="513.409" width="141.168" height="99.4477" filterUnits="userSpaceOnUse" color-interpolation-filters="sRGB">
<feFlood flood-opacity="0" result="BackgroundImageFix"/>
<feBlend mode="normal" in="SourceGraphic" in2="BackgroundImageFix" result="shape"/>
<feGaussianBlur stdDeviation="6.7957" result="effect1_foregroundBlur_2017_494"/>
</filter>
<filter id="filter2_f_2017_494" x="383.029" y="568.538" width="119.563" height="108.388" filterUnits="userSpaceOnUse" color-interpolation-filters="sRGB">
<feFlood flood-opacity="0" result="BackgroundImageFix"/>
<feBlend mode="normal" in="SourceGraphic" in2="BackgroundImageFix" result="shape"/>
<feGaussianBlur stdDeviation="6.7957" result="effect1_foregroundBlur_2017_494"/>
</filter>
<filter id="filter3_f_2017_494" x="326.409" y="530.544" width="118.818" height="146.383" filterUnits="userSpaceOnUse" color-interpolation-filters="sRGB">
<feFlood flood-opacity="0" result="BackgroundImageFix"/>
<feBlend mode="normal" in="SourceGraphic" in2="BackgroundImageFix" result="shape"/>
<feGaussianBlur stdDeviation="6.7957" result="effect1_foregroundBlur_2017_494"/>
</filter>
<filter id="filter4_f_2017_494" x="267.757" y="39.5634" width="233.873" height="144.873" filterUnits="userSpaceOnUse" color-interpolation-filters="sRGB">
<feFlood flood-opacity="0" result="BackgroundImageFix"/>
<feBlend mode="normal" in="SourceGraphic" in2="BackgroundImageFix" result="shape"/>
<feGaussianBlur stdDeviation="2.71828" result="effect1_foregroundBlur_2017_494"/>
</filter>
<filter id="filter5_f_2017_494" x="265.757" y="-5.43656" width="230.873" height="171.873" filterUnits="userSpaceOnUse" color-interpolation-filters="sRGB">
<feFlood flood-opacity="0" result="BackgroundImageFix"/>
<feBlend mode="normal" in="SourceGraphic" in2="BackgroundImageFix" result="shape"/>
<feGaussianBlur stdDeviation="2.71828" result="effect1_foregroundBlur_2017_494"/>
</filter>
<filter id="filter6_f_2017_494" x="268.011" y="45.8172" width="248.366" height="145.366" filterUnits="userSpaceOnUse" color-interpolation-filters="sRGB">
<feFlood flood-opacity="0" result="BackgroundImageFix"/>
<feBlend mode="normal" in="SourceGraphic" in2="BackgroundImageFix" result="shape"/>
<feGaussianBlur stdDeviation="13.5914" result="effect1_foregroundBlur_2017_494"/>
</filter>
<filter id="filter7_f_2017_494" x="244.011" y="-27.1828" width="271.366" height="145.366" filterUnits="userSpaceOnUse" color-interpolation-filters="sRGB">
<feFlood flood-opacity="0" result="BackgroundImageFix"/>
<feBlend mode="normal" in="SourceGraphic" in2="BackgroundImageFix" result="shape"/>
<feGaussianBlur stdDeviation="13.5914" result="effect1_foregroundBlur_2017_494"/>
</filter>
<linearGradient id="paint0_linear_2017_494" x1="274.072" y1="417.122" x2="245.209" y2="667.197" gradientUnits="userSpaceOnUse">
<stop stop-color="#FAF9FC"/>
<stop offset="0.4596" stop-color="#F3F4F9"/>
<stop offset="0.5376" stop-color="#F2F3F8"/>
<stop offset="0.6432" stop-color="#ECEEF4"/>
<stop offset="0.7872" stop-color="#DDDFE7"/>
<stop offset="0.9525" stop-color="#C4C9D2"/>
<stop offset="1" stop-color="#BCC1CB"/>
</linearGradient>
<linearGradient id="paint1_linear_2017_494" x1="321.814" y1="466.407" x2="315.833" y2="688.527" gradientUnits="userSpaceOnUse">
<stop stop-color="#F4EEF7"/>
<stop offset="0.1952" stop-color="#EDEBF4"/>
<stop offset="0.4375" stop-color="#E0E4EE"/>
<stop offset="1" stop-color="#BCC1CB"/>
</linearGradient>
<linearGradient id="paint2_linear_2017_494" x1="399.428" y1="340.794" x2="163.805" y2="523.256" gradientUnits="userSpaceOnUse">
<stop stop-color="#F4EEF7"/>
<stop offset="0.2399" stop-color="#EDEBF4"/>
<stop offset="0.5376" stop-color="#E0E4EE"/>
<stop offset="1" stop-color="#BCC1CB"/>
</linearGradient>
<linearGradient id="paint3_linear_2017_494" x1="345.451" y1="-126.823" x2="212.002" y2="196.354" gradientUnits="userSpaceOnUse">
<stop stop-color="#F4EEF7"/>
<stop offset="0.23" stop-color="#ECEAF3"/>
<stop offset="0.44" stop-color="#E0E4EE"/>
<stop offset="0.62" stop-color="#D9DEE8"/>
<stop offset="0.86" stop-color="#C8CDD7"/>
<stop offset="1" stop-color="#BCC1CB"/>
</linearGradient>
<linearGradient id="paint4_linear_2017_494" x1="230.265" y1="-125.509" x2="143.058" y2="216.663" gradientUnits="userSpaceOnUse">
<stop stop-color="#F9F8FD"/>
<stop offset="0.54" stop-color="#F2F3F8"/>
<stop offset="0.65" stop-color="#EBEDF2"/>
<stop offset="0.81" stop-color="#DADDE4"/>
<stop offset="0.99" stop-color="#BDC2CC"/>
<stop offset="1" stop-color="#BCC1CB"/>
</linearGradient>
<linearGradient id="paint5_linear_2017_494" x1="269.575" y1="140.761" x2="396.168" y2="238.977" gradientUnits="userSpaceOnUse">
<stop stop-color="white" stop-opacity="0.1"/>
<stop offset="0.29" stop-color="white" stop-opacity="0.68"/>
<stop offset="0.46" stop-color="white"/>
<stop offset="0.51" stop-color="white" stop-opacity="0.96"/>
<stop offset="0.59" stop-color="white" stop-opacity="0.84"/>
<stop offset="0.69" stop-color="white" stop-opacity="0.66"/>
<stop offset="0.81" stop-color="white" stop-opacity="0.4"/>
<stop offset="0.95" stop-color="white" stop-opacity="0.08"/>
<stop offset="0.98" stop-color="white" stop-opacity="0.01"/>
</linearGradient>
<linearGradient id="paint6_linear_2017_494" x1="-129.705" y1="-112.675" x2="-163.915" y2="375.849" gradientUnits="userSpaceOnUse">
<stop stop-color="#F4EEF7"/>
<stop offset="0.28" stop-color="#ECEAF3"/>
<stop offset="0.54" stop-color="#E0E4EE"/>
<stop offset="1" stop-color="#BCC1CB"/>
</linearGradient>
<clipPath id="clip0_2017_494">
<rect width="414" height="721" fill="white"/>
</clipPath>
</defs>
</svg>
